<?xml version="1.0" encoding="UTF-8"?>
<svg width="80px" height="80px" viewBox="0 0 80 80" version="1.1" xmlns="http://www.w3.org/2000/svg" xmlns:xlink="http://www.w3.org/1999/xlink">
    <title>Accept deposits Web</title>
    <defs>
        <linearGradient x1="50%" y1="0%" x2="50%" y2="100%" id="linearGradient-1">
            <stop stop-color="#4E91B1" offset="0%"></stop>
            <stop stop-color="#00557B" offset="100%"></stop>
        </linearGradient>
    </defs>
    <g id="Accept-deposits-Web" stroke="none" stroke-width="1" fill="none" fill-rule="evenodd">
        <rect id="Rectangle-Copy-2" fill="url(#linearGradient-1)" x="0" y="0" width="80" height="80" rx="40"></rect>
        <g id="upload-copy" transform="translate(21.000000, 24.000000)" fill="#FFFFFF" fill-rule="nonzero">
            <path d="M31.6666667,34 L26.9166667,34 C26.04425,34 25.3333333,33.2730476 25.3333333,32.3809524 L25.3333333,24.2857143 L21.375,24.2857143 C21.0551667,24.2857143 20.7654167,24.0881905 20.6435,23.7854286 C20.52,23.4826667 20.5880833,23.1345714 20.8145,22.9030476 L28.7311667,14.8078095 C29.0399167,14.4920952 29.5418333,14.4920952 29.8505833,14.8078095 L37.76725,22.9030476 C37.9936667,23.1345714 38.06175,23.4826667 37.93825,23.7854286 C37.8179167,24.0881905 37.5281667,24.2857143 37.2083333,24.2857143 L33.25,24.2857143 L33.25,32.3809524 C33.25,33.2730476 32.5390833,34 31.6666667,34 L31.6666667,34 Z M23.2860833,22.6666667 L26.125,22.6666667 C26.562,22.6666667 26.9166667,23.0293333 26.9166667,23.4761905 L26.9166667,32.3809524 L31.6666667,32.3809524 L31.6666667,23.4761905 C31.6666667,23.0293333 32.0213333,22.6666667 32.4583333,22.6666667 L35.29725,22.6666667 L29.2916667,16.525619 L23.2860833,22.6666667 Z" id="Shape"></path>
            <path d="M21.375,29.1428571 L3.95833333,29.1428571 C1.7765,29.1428571 0,27.3262857 0,25.0952381 L0,4.04761905 C0,1.81657143 1.7765,0 3.95833333,0 L34.0416667,0 C36.2235,0 38,1.81657143 38,4.04761905 L38,18.6190476 C38,19.0659048 37.6453333,19.4285714 37.2083333,19.4285714 C36.7713333,19.4285714 36.4166667,19.0659048 36.4166667,18.6190476 L36.4166667,4.04761905 C36.4166667,2.70866667 35.3510833,1.61904762 34.0416667,1.61904762 L3.95833333,1.61904762 C2.64891667,1.61904762 1.58333333,2.70866667 1.58333333,4.04761905 L1.58333333,25.0952381 C1.58333333,26.4341905 2.64891667,27.5238095 3.95833333,27.5238095 L21.375,27.5238095 C21.812,27.5238095 22.1666667,27.8864762 22.1666667,28.3333333 C22.1666667,28.7801905 21.812,29.1428571 21.375,29.1428571 Z" id="Path"></path>
            <path d="M11.875,21.047619 L0.791666667,21.047619 C0.354666667,21.047619 0,20.6849524 0,20.2380952 L0,8.9047619 C0,8.45790476 0.354666667,8.0952381 0.791666667,8.0952381 L11.875,8.0952381 C14.0568333,8.0952381 15.8333333,9.91180952 15.8333333,12.1428571 L15.8333333,17 C15.8333333,19.2310476 14.0568333,21.047619 11.875,21.047619 Z M1.58333333,19.4285714 L11.875,19.4285714 C13.1844167,19.4285714 14.25,18.3389524 14.25,17 L14.25,12.1428571 C14.25,10.8039048 13.1844167,9.71428571 11.875,9.71428571 L1.58333333,9.71428571 L1.58333333,19.4285714 Z" id="Shape"></path>
            <path d="M7.91666667,17.8095238 C6.17025,17.8095238 4.75,16.3572381 4.75,14.5714286 C4.75,12.785619 6.17025,11.3333333 7.91666667,11.3333333 C9.66308333,11.3333333 11.0833333,12.785619 11.0833333,14.5714286 C11.0833333,16.3572381 9.66308333,17.8095238 7.91666667,17.8095238 Z M7.91666667,12.952381 C7.04425,12.952381 6.33333333,13.6793333 6.33333333,14.5714286 C6.33333333,15.4635238 7.04425,16.1904762 7.91666667,16.1904762 C8.78908333,16.1904762 9.5,15.4635238 9.5,14.5714286 C9.5,13.6793333 8.78908333,12.952381 7.91666667,12.952381 Z" id="Shape"></path>
        </g>
    </g>
</svg>