<?xml version="1.0" encoding="UTF-8"?>
<svg width="80px" height="80px" viewBox="0 0 80 80" version="1.1" xmlns="http://www.w3.org/2000/svg" xmlns:xlink="http://www.w3.org/1999/xlink">
    <title>Airtime web</title>
    <defs>
        <linearGradient x1="50%" y1="0%" x2="50%" y2="100%" id="linearGradient-1">
            <stop stop-color="#4E91B1" offset="0%"></stop>
            <stop stop-color="#00557B" offset="100%"></stop>
        </linearGradient>
    </defs>
    <g id="Airtime-web" stroke="none" stroke-width="1" fill="none" fill-rule="evenodd">
        <rect id="Rectangle-Copy-2" fill="url(#linearGradient-1)" x="0" y="0" width="80" height="80" rx="40"></rect>
        <g id="phone-call-(1)" transform="translate(23.529412, 25.098039)" fill="#FFFFFF" fill-rule="nonzero">
            <path d="M26.0478162,20.4058847 C25.3724458,19.7036859 24.5578238,19.3282529 23.6944637,19.3282529 C22.8380662,19.3282529 22.0164816,19.6967334 21.3132609,20.3989323 L19.1130852,22.5889583 C18.9320581,22.4916238 18.751031,22.4012418 18.5769665,22.3108597 C18.3263135,22.1857154 18.0895858,22.0675235 17.8876709,21.9423792 C15.8267469,20.635316 13.9538125,18.9319625 12.1574665,16.7280315 C11.2871439,15.6295423 10.7022871,14.7048646 10.2775696,13.7662821 C10.8485013,13.2448473 11.3776574,12.7025551 11.8928885,12.1811204 C12.0878407,11.9864514 12.282793,11.78483 12.4777453,11.590161 C13.9398874,10.1301436 13.9398874,8.23907355 12.4777453,6.77905621 L10.5769606,4.88103367 C10.3611206,4.6655073 10.138318,4.44302847 9.92944054,4.22054963 C9.51168567,3.7894969 9.07304305,3.34453923 8.62047527,2.92739142 C7.94510489,2.25995492 7.13744546,1.90537928 6.28801055,1.90537928 C5.43857563,1.90537928 4.61699104,2.25995492 3.92073292,2.92739142 C3.91377034,2.93434388 3.91377034,2.93434388 3.90680775,2.94129635 L1.53953013,5.32599134 C0.648319724,6.21590667 0.140051292,7.30049098 0.028649992,8.55888688 C-0.138451958,10.5890062 0.46033003,12.4800763 0.919860393,13.7176148 C2.04779856,16.7558414 3.73274322,19.5715891 6.24623506,22.5889583 C9.29584565,26.2250967 12.965126,29.0964641 17.1565999,31.119631 C18.7579936,31.8774496 20.895506,32.7743173 23.2836714,32.9272715 C23.4298856,32.934224 23.5830624,32.9411765 23.722314,32.9411765 C25.3306703,32.9411765 26.6814111,32.364122 27.7397234,31.2169655 C27.746686,31.2030606 27.7606112,31.1961081 27.7675737,31.1822032 C28.129628,30.744198 28.5473828,30.3479076 28.9860255,29.9238073 C29.2854164,29.6387563 29.59177,29.3398004 29.891161,29.0269395 C30.5804566,28.3108358 30.9425108,27.4765401 30.9425108,26.6213871 C30.9425108,25.7592816 30.573494,24.9319385 29.8702733,24.2366921 L26.0478162,20.4058847 Z M28.5404203,27.7268288 C28.5334577,27.7268288 28.5334577,27.7337813 28.5404203,27.7268288 C28.2688796,28.0188323 27.9903763,28.2830259 27.6909853,28.5750294 C27.2384176,29.0060821 26.7788872,29.4579922 26.3472072,29.9655221 C25.6439864,30.7163881 24.8154393,31.0709638 23.7292766,31.0709638 C23.6248379,31.0709638 23.5134366,31.0709638 23.4089979,31.0640113 C21.3411112,30.9319145 19.4194388,30.1254287 17.9781845,29.4371349 C14.0373635,27.5321598 10.5769606,24.8276515 7.70141454,21.400087 C5.32717433,18.5426245 3.7397058,15.9006884 2.68835603,13.0640832 C2.04083598,11.3329198 1.80410821,9.9841419 1.90854693,8.71184107 C1.97817274,7.89840284 2.2914889,7.22401388 2.86938315,6.64695941 L5.24362336,4.27616934 C5.58478984,3.95635602 5.94684406,3.78254443 6.30193571,3.78254443 C6.74057833,3.78254443 7.09566997,4.04673805 7.31847257,4.26921688 C7.32543515,4.27616934 7.33239773,4.28312181 7.33936032,4.29007427 C7.76407777,4.68636469 8.16790749,5.09656004 8.59262494,5.53456524 C8.80846496,5.75704407 9.03126756,5.97952291 9.25407016,6.2089542 L11.1548548,8.10697675 C11.8928885,8.84393788 11.8928885,9.52527931 11.1548548,10.2622404 C10.95294,10.4638619 10.7579877,10.6654833 10.5560729,10.8601523 C9.97121603,11.4580642 9.41420953,12.0142612 8.80846496,12.5565534 C8.7945398,12.5704583 8.78061464,12.5774108 8.77365205,12.5913157 C8.17487007,13.1892276 8.28627137,13.7732345 8.41159783,14.1695249 C8.41856041,14.1903823 8.42552299,14.2112397 8.43248557,14.2320971 C8.92682884,15.4279208 9.62308697,16.5542199 10.6813993,17.8960454 L10.6883619,17.9029979 C12.6100343,20.2668355 14.6361455,22.1092383 16.8711341,23.5205884 C17.1565999,23.7013524 17.4490283,23.8473542 17.7275316,23.9864034 C17.9781845,24.1115478 18.2149122,24.2297397 18.4168271,24.354884 C18.4446774,24.3687889 18.4725278,24.3896463 18.5003781,24.4035513 C18.7371058,24.5217431 18.9599084,24.5773628 19.1896736,24.5773628 C19.7675679,24.5773628 20.1296221,24.2158347 20.247986,24.0976429 L22.6291888,21.7199003 C22.8659165,21.4835166 23.2418959,21.1984656 23.6805385,21.1984656 C24.1122186,21.1984656 24.4673102,21.4696116 24.6831502,21.7059954 C24.6901128,21.7129479 24.6901128,21.7129479 24.6970754,21.7199003 L28.5334577,25.5507077 C29.2506035,26.259859 29.2506035,26.9898677 28.5404203,27.7268288 Z" id="Shape"></path>
            <path d="M17.8041199,7.83583067 C19.6283162,8.14173906 21.2854106,9.00384454 22.608301,10.3248126 C23.9311915,11.6457807 24.787589,13.300467 25.1009051,15.1220124 C25.1774935,15.580875 25.5743606,15.9006884 26.0269284,15.9006884 C26.0826291,15.9006884 26.1313671,15.8937359 26.1870678,15.8867834 C26.7022988,15.8033539 27.0434653,15.3166814 26.9599143,14.8021991 C26.5839349,12.5982682 25.5395477,10.5890062 23.9451166,8.99689208 C22.3506855,7.40477793 20.3384995,6.3619084 18.1313613,5.98647537 C17.6161303,5.90304581 17.1357121,6.24371652 17.0451986,6.75124636 C16.954685,7.2587762 17.2888889,7.75240111 17.8041199,7.83583067 Z" id="Path"></path>
            <path d="M32.9268464,14.531053 C32.3071767,10.9018671 30.5943817,7.59944691 27.962526,4.9714157 C25.3306703,2.34338448 22.0234442,0.633078454 18.3889768,0.0143091996 C17.8807083,-0.0760728263 17.4002902,0.27155035 17.3097767,0.779080188 C17.2262257,1.29356249 17.5673922,1.77328247 18.0826232,1.8636645 C21.3271861,2.41290912 24.2862831,3.94940356 26.6396356,6.29238377 C28.992988,8.64231644 30.5247559,11.5971134 31.0747998,14.8369614 C31.1513882,15.295824 31.5482554,15.6156374 32.0008231,15.6156374 C32.0565238,15.6156374 32.1052619,15.6086849 32.1609625,15.6017324 C32.6692309,15.5252553 33.01736,15.0385829 32.9268464,14.531053 Z" id="Path"></path>
        </g>
    </g>
</svg>