<?xml version="1.0" encoding="UTF-8"?>
<svg width="80px" height="80px" viewBox="0 0 80 80" version="1.1" xmlns="http://www.w3.org/2000/svg" xmlns:xlink="http://www.w3.org/1999/xlink">
    <title>API Sandbox Web</title>
    <defs>
        <linearGradient x1="50%" y1="0%" x2="50%" y2="100%" id="linearGradient-1">
            <stop stop-color="#4E91B1" offset="0%"></stop>
            <stop stop-color="#00557B" offset="100%"></stop>
        </linearGradient>
    </defs>
    <g id="API-Sandbox-Web" stroke="none" stroke-width="1" fill="none" fill-rule="evenodd">
        <rect id="Rectangle-Copy-2" fill="url(#linearGradient-1)" x="0" y="0" width="80" height="80" rx="40"></rect>
        <g id="group-(1)-copy" transform="translate(20.000000, 21.000000)" fill="#FFFFFF" fill-rule="nonzero" stroke="#FFFFFF" stroke-width="0.85">
            <path d="M19.6712087,25.8999 C16.0055499,25.8999 13.0339462,23.0383088 13.0339462,19.5083571 C13.0339462,15.9784055 16.0055499,13.1168143 19.6712087,13.1168143 C23.3368676,13.1168143 26.3084712,15.9784055 26.3084712,19.5083571 C26.3043263,23.0366541 23.3351493,25.8959085 19.6712087,25.8999 L19.6712087,25.8999 Z M19.6712087,14.2311 C16.6446117,14.2311 14.1910701,16.5938085 14.1910701,19.5083571 C14.1910701,22.4229058 16.6446117,24.7856143 19.6712087,24.7856143 C22.6978057,24.7856143 25.1513474,22.4229058 25.1513474,19.5083571 C25.1478403,16.5952085 22.6963519,14.2344772 19.6712087,14.2311 Z" id="Shape"></path>
            <path d="M25.7004026,19.5417882 C25.3964147,19.5426532 25.1435748,19.3168278 25.121635,19.024856 C25.0996951,18.7328842 25.316139,18.4743578 25.6170897,18.4330714 L33.0255753,17.3828571 C33.3368729,17.3468795 33.621283,17.5562284 33.666918,17.8549373 C33.712553,18.1536462 33.5028046,18.4330034 33.1939368,18.4848857 L25.788344,19.5334286 C25.7592798,19.5382665 25.7298882,19.5410596 25.7004026,19.5417882 L25.7004026,19.5417882 Z" id="Path"></path>
            <path d="M32.6882737,30.4645714 C32.5640803,30.4639714 32.4433837,30.4249031 32.3440293,30.3531429 L23.5730304,24.1025571 C23.3162873,23.9193209 23.2624088,23.5703524 23.4526895,23.3231143 C23.6429702,23.0758761 24.0053546,23.0239923 24.2620977,23.2072286 L33.0330966,29.4594857 C33.2323211,29.6033725 33.3135819,29.8538791 33.2348315,30.081384 C33.156081,30.3088889 32.9349901,30.4623429 32.6859594,30.4623429 L32.6882737,30.4645714 Z" id="Path"></path>
            <path d="M13.7964908,34.3757164 C13.6022217,34.3757164 13.420917,34.2818371 13.3138016,34.1257669 C13.2066862,33.9696967 13.1880604,33.7722758 13.2642139,33.6001714 L17.1527286,24.8001 C17.2311444,24.6133357 17.4081488,24.4818822 17.6156531,24.456306 C17.8231574,24.4307297 18.0288369,24.515015 18.1535723,24.6767395 C18.2783078,24.8384641 18.3026681,25.0524347 18.2172826,25.2363429 L14.3293464,34.0392 C14.2376561,34.243944 14.0280334,34.376327 13.7964908,34.3757164 L13.7964908,34.3757164 Z" id="Path"></path>
            <path d="M6.301221,23.0863286 C6.00921356,23.0860186 5.76321683,22.8762155 5.72761347,22.5971163 C5.69201011,22.3180172 5.87796144,22.0571169 6.16120901,21.9887571 L13.6015155,20.1936429 C13.9116202,20.1187176 14.2260838,20.3000614 14.3038896,20.5986857 C14.3816954,20.89731 14.1933799,21.2001318 13.8832751,21.2750571 L6.44239011,23.0696143 C6.39620663,23.0806514 6.34880539,23.0862637 6.301221,23.0863286 Z" id="Path"></path>
            <path d="M15.0322991,16.3059 C14.9107964,16.3059 14.7923791,16.2690531 14.6938404,16.2006 L9.45669778,12.5591143 C9.28525237,12.4439993 9.19160845,12.2487891 9.2117308,12.0484559 C9.23185316,11.8481226 9.36261313,11.6738145 9.55379119,11.592476 C9.74496925,11.5111376 9.96684069,11.5354156 10.1341938,11.6559857 L15.3713364,15.2974714 C15.574469,15.4390923 15.659728,15.6906108 15.5824834,15.9203662 C15.5052388,16.1501216 15.28308,16.3057962 15.0322991,16.3059 L15.0322991,16.3059 Z" id="Path"></path>
            <path d="M20.5575656,14.2923857 C20.3783858,14.2923857 20.2092946,14.2125312 20.0996969,14.0760267 C19.9900992,13.9395222 19.9523643,13.7618206 19.9975176,13.5948429 L22.0548839,5.99095714 C22.1401829,5.69934009 22.4518333,5.52681019 22.7564503,5.60256942 C23.0610674,5.67832865 23.2469869,5.97460578 23.1749798,6.26952857 L21.1176136,13.8756429 C21.0512274,14.12114 20.8210026,14.2923857 20.5575656,14.2923857 L20.5575656,14.2923857 Z" id="Path"></path>
            <path d="M6.6477796,14.2311 C4.85079135,14.2311 3.23075702,13.1886654 2.54313345,11.5899058 C1.85550989,9.99114628 2.23572109,8.15092947 3.5064664,6.92738807 C4.77721171,5.70384668 6.68822423,5.33795102 8.34835771,6.00032613 C10.0084912,6.66270123 11.0907907,8.22289564 11.0905567,9.95335714 C11.0876867,12.3149611 9.10017453,14.2286439 6.6477796,14.2311 L6.6477796,14.2311 Z M6.6477796,6.78934286 C4.83316343,6.78934286 3.36212637,8.2059203 3.36212637,9.95335714 C3.36212637,11.700794 4.83316343,13.1173714 6.6477796,13.1173714 C8.46239576,13.1173714 9.93343282,11.700794 9.93343282,9.95335714 C9.9315195,8.20668406 8.46160265,6.79118534 6.6477796,6.78934286 L6.6477796,6.78934286 Z" id="Shape"></path>
            <path d="M23.4011975,6.78934286 C21.4542955,6.78934286 19.8760196,5.26949669 19.8760196,3.39467143 C19.8760196,1.51984617 21.4542955,3.4329682e-15 23.4011975,3.4329682e-15 C25.3480995,3.4329682e-15 26.9263754,1.51984617 26.9263754,3.39467143 C26.9241436,5.26860575 25.3471743,6.78719367 23.4011975,6.78934286 L23.4011975,6.78934286 Z M23.4011975,1.11428571 C22.0933574,1.11428571 21.0331435,2.13524917 21.0331435,3.39467143 C21.0331435,4.65409368 22.0933574,5.67505714 23.4011975,5.67505714 C24.7090376,5.67505714 25.7692515,4.65409368 25.7692515,3.39467143 C25.7670221,2.13613952 24.708113,1.1164326 23.4011975,1.11428571 Z" id="Shape"></path>
            <path d="M35.3392444,20.3045143 C33.7681108,20.3045143 32.4944554,19.0780111 32.4944554,17.5650429 C32.4944554,16.0520746 33.7681108,14.8255714 35.3392444,14.8255714 C36.910378,14.8255714 38.1840335,16.0520746 38.1840335,17.5650429 C38.1824389,19.0773747 36.9097171,20.3029788 35.3392444,20.3045143 Z M35.3392444,15.9404143 C34.656595,15.9404143 34.0411744,16.3364384 33.7799899,16.9437971 C33.5188053,17.5511558 33.6633008,18.2502208 34.1460897,18.7149768 C34.6288785,19.1797328 35.3548682,19.3186393 35.9854869,19.0669159 C36.6161056,18.8151924 37.0271436,18.2224198 37.0269097,17.5650429 C37.0256341,16.668077 36.270694,15.941335 35.3392444,15.9404143 L35.3392444,15.9404143 Z" id="Shape"></path>
            <path d="M35.2501459,35.3306571 C33.3317448,35.3257776 31.7246705,33.9311323 31.5207357,32.0942143 C31.3598005,30.6076174 32.1666094,29.1791973 33.5500018,28.5014868 C34.9333941,27.8237764 36.6073873,28.0368757 37.7603887,29.037469 C38.91339,30.0380623 39.3070446,31.6193015 38.7504992,33.0145631 C38.1939537,34.4098247 36.8022603,35.3306571 35.2501459,35.3306571 L35.2501459,35.3306571 Z M35.2547744,29.2176855 C35.1635548,29.2176855 35.0723981,29.2222961 34.9816932,29.2316143 C33.5562426,29.3771961 32.5226506,30.6071432 32.6720739,31.98 C32.8179246,33.3189415 34.038887,34.3060486 35.4335577,34.2125671 C36.8282285,34.1190856 37.8954083,32.9786097 37.8472273,31.6331217 C37.7990464,30.2876336 36.6528193,29.2206582 35.2547744,29.2199143 L35.2547744,29.2176855 Z" id="Shape"></path>
            <path d="M13.1837938,39 C11.5163881,38.999077 10.1653761,37.6968342 10.1660147,36.0911578 C10.1666538,34.4854814 11.5187018,33.1842359 13.1861077,33.1845433 C14.8535136,33.1848509 16.2050442,34.4865949 16.2050442,36.0922714 C16.2031296,37.6980538 14.8513105,38.9990791 13.1837938,39 L13.1837938,39 Z M13.1837938,34.2988286 C12.1554502,34.2997515 11.3225002,35.1031114 11.3231386,36.0933847 C11.3237777,37.083658 12.1577635,37.8860208 13.1861075,37.8857135 C14.2144514,37.8854061 15.0479203,37.0825449 15.0479203,36.0922714 C15.0466436,35.1016374 14.212513,34.2991352 13.1837938,34.2988286 L13.1837938,34.2988286 Z" id="Shape"></path>
            <path d="M3.52528084,26.8492714 C2.09937421,26.8492714 0.813893295,26.0220656 0.268330609,24.753427 C-0.277232076,23.4847884 0.0245793217,22.0245923 1.03301307,21.0538108 C2.04144681,20.0830293 3.55787841,19.7928707 4.87510998,20.3186525 C6.19234155,20.8444342 7.05092675,22.0825965 7.05045889,23.4557143 C7.04758953,25.3292134 5.47080655,26.8471235 3.52528084,26.8492714 L3.52528084,26.8492714 Z M3.52528084,21.1747714 C2.21751606,21.1747714 1.1573334,22.1956218 1.15722692,23.4549715 C1.15712045,24.7143212 2.21713046,25.7353377 3.52489523,25.7355429 C4.83265999,25.7357479 5.89301532,24.715064 5.89333483,23.4557143 C5.89142384,22.1969648 4.83242181,21.1769192 3.52528084,21.1747714 Z" id="Shape"></path>
        </g>
    </g>
</svg>