<?xml version="1.0" encoding="UTF-8"?>
<svg width="80px" height="80px" viewBox="0 0 80 80" version="1.1" xmlns="http://www.w3.org/2000/svg" xmlns:xlink="http://www.w3.org/1999/xlink">
    <title>API's</title>
    <defs>
        <linearGradient x1="50%" y1="0%" x2="50%" y2="100%" id="linearGradient-1">
            <stop stop-color="#4E91B1" offset="0%"></stop>
            <stop stop-color="#00557B" offset="100%"></stop>
        </linearGradient>
    </defs>
    <g id="API's" stroke="none" stroke-width="1" fill="none" fill-rule="evenodd">
        <rect id="Rectangle-Copy-2" fill="url(#linearGradient-1)" x="0" y="0" width="80" height="80" rx="40"></rect>
        <g id="group-(1)-copy" transform="translate(24.000000, 24.000000)" fill="#FFFFFF" fill-rule="nonzero" stroke="#FFFFFF" stroke-width="0.51">
            <path d="M16.1404789,21.2512 C13.1327589,21.2512 10.69452,18.9032277 10.69452,16.0068571 C10.69452,13.1104866 13.1327589,10.7625143 16.1404789,10.7625143 C19.148199,10.7625143 21.5864379,13.1104866 21.5864379,16.0068571 C21.583037,18.9018701 19.1467892,21.247925 16.1404789,21.2512 L16.1404789,21.2512 Z M16.1404789,11.6768 C13.6571173,11.6768 11.6439549,13.6154326 11.6439549,16.0068571 C11.6439549,18.3982817 13.6571173,20.3369143 16.1404789,20.3369143 C18.6238406,20.3369143 20.637003,18.3982817 20.637003,16.0068571 C20.6341254,13.6165814 18.6226477,11.679571 16.1404789,11.6768 Z" id="Shape"></path>
            <path d="M21.0875098,16.0342878 C20.8380838,16.0349975 20.6306255,15.8497049 20.6126236,15.6101383 C20.5946216,15.3705717 20.7722166,15.1584474 21.0191505,15.1245714 L27.0979079,14.2628571 C27.3533316,14.233337 27.5866937,14.4051104 27.6241379,14.650205 C27.661582,14.8952995 27.4894807,15.1245156 27.2360507,15.1670857 L21.1596669,16.0274286 C21.1358193,16.0313981 21.1117032,16.0336899 21.0875098,16.0342878 L21.0875098,16.0342878 Z" id="Path"></path>
            <path d="M26.8211476,24.9965714 C26.7192454,24.9960791 26.6202123,24.9640231 26.5386907,24.9051429 L19.3419737,19.7764571 C19.1313127,19.6261095 19.0871047,19.3397764 19.2432324,19.1369143 C19.3993602,18.9340522 19.6967012,18.8914809 19.9073622,19.0418286 L27.1040792,24.1718857 C27.2675455,24.2899466 27.334221,24.4954906 27.2696053,24.6821613 C27.2049896,24.868832 27.0235816,24.9947429 26.8192487,24.9947429 L26.8211476,24.9965714 Z" id="Path"></path>
            <path d="M11.3201976,28.205716 C11.1607973,28.205716 11.0120345,28.1286869 10.9241449,28.0006292 C10.8362554,27.8725716 10.8209726,27.7105853 10.8834575,27.5693714 L14.0740337,20.3488 C14.1383749,20.1955575 14.2836093,20.0876982 14.4538692,20.0667126 C14.6241292,20.0457269 14.7928918,20.1148841 14.8952388,20.2475811 C14.9975859,20.3802782 15.0175738,20.5558439 14.9475139,20.7067429 L11.7574124,27.9296 C11.6821793,28.0975951 11.5101813,28.206217 11.3201976,28.205716 L11.3201976,28.205716 Z" id="Path"></path>
            <path d="M5.17023261,18.9426286 C4.93063677,18.9423742 4.7287933,18.7702281 4.69958028,18.5412237 C4.67036727,18.3122192 4.82294272,18.0981472 5.05535098,18.0420571 L11.1602178,16.5691429 C11.4146628,16.5076657 11.6726842,16.6564607 11.7365248,16.9014857 C11.8003655,17.1465108 11.6458502,17.3949799 11.3914052,17.4564571 L5.28606368,18.9289143 C5.24816954,18.9379704 5.20927622,18.9425753 5.17023261,18.9426286 Z" id="Path"></path>
            <path d="M12.3341942,13.3792 C12.2344996,13.3792 12.1373367,13.3489666 12.0564844,13.2928 L7.75934177,10.3049143 C7.61866861,10.210461 7.54183257,10.0502885 7.55834322,9.8859125 C7.57485387,9.72153649 7.68214411,9.57851443 7.83900816,9.51177522 C7.9958722,9.445036 8.17792056,9.46495637 8.31523594,9.56388571 L12.6123786,12.5517714 C12.7790515,12.6679732 12.8490076,12.8743473 12.7856274,13.0628646 C12.7222472,13.2513818 12.5399631,13.3791148 12.3341942,13.3792 L12.3341942,13.3792 Z" id="Path"></path>
            <path d="M16.8677461,11.7270857 C16.7207268,11.7270857 16.5819853,11.6615641 16.492059,11.5495604 C16.4021327,11.4375567 16.3711707,11.2917502 16.4082196,11.1547429 L18.096315,4.91565714 C18.1663039,4.67638161 18.422017,4.53481862 18.6719592,4.59698004 C18.9219014,4.65914146 19.0744508,4.90224064 19.015368,5.14422857 L17.3272727,11.3851429 C17.272802,11.5865764 17.0838996,11.7270857 16.8677461,11.7270857 L16.8677461,11.7270857 Z" id="Path"></path>
            <path d="M5.45458839,11.6768 C3.9801365,11.6768 2.65087756,10.821469 2.0866736,9.50966631 C1.52246965,8.19786361 1.83443782,6.68794213 2.87710064,5.68401073 C3.91976345,4.68007933 5.48777373,4.37985725 6.84993453,4.92334451 C8.21209534,5.46683178 9.10013596,6.74699129 9.09994398,8.16685714 C9.09758911,10.1045834 7.46680987,11.6747847 5.45458839,11.6768 L5.45458839,11.6768 Z M5.45458839,5.57074286 C3.96567256,5.57074286 2.75866779,6.73306281 2.75866779,8.16685714 C2.75866779,9.60065147 3.96567256,10.7629714 5.45458839,10.7629714 C6.94350421,10.7629714 8.15050898,9.60065147 8.15050898,8.16685714 C8.14893908,6.73368948 6.94285346,5.57225464 5.45458839,5.57074286 L5.45458839,5.57074286 Z" id="Shape"></path>
            <path d="M19.2009826,5.57074286 C17.6035245,5.57074286 16.3085289,4.32368959 16.3085289,2.78537143 C16.3085289,1.24705327 17.6035245,2.81679442e-15 19.2009826,2.81679442e-15 C20.7984406,2.81679442e-15 22.0934362,1.24705327 22.0934362,2.78537143 C22.091605,4.32295856 20.7976815,5.56897942 19.2009826,5.57074286 L19.2009826,5.57074286 Z M19.2009826,0.914285714 C18.127883,0.914285714 17.2579639,1.75199932 17.2579639,2.78537143 C17.2579639,3.81874353 18.127883,4.65645714 19.2009826,4.65645714 C20.2740821,4.65645714 21.1440012,3.81874353 21.1440012,2.78537143 C21.142172,1.75272986 20.2733235,0.916047261 19.2009826,0.914285714 Z" id="Shape"></path>
            <path d="M28.9963031,16.6601143 C27.7071679,16.6601143 26.6621173,15.6537527 26.6621173,14.4123429 C26.6621173,13.170933 27.7071679,12.1645714 28.9963031,12.1645714 C30.2854384,12.1645714 31.330489,13.170933 31.330489,14.4123429 C31.3291806,15.6532305 30.2848961,16.6588544 28.9963031,16.6601143 Z M28.9963031,13.0793143 C28.4361805,13.0793143 27.93122,13.4042572 27.7169148,13.9026028 C27.5026095,14.4009483 27.6211699,14.9745402 28.0173043,15.3558784 C28.4134388,15.7372167 29.0091227,15.8511912 29.5265534,15.6446489 C30.0439841,15.4381066 30.381246,14.951729 30.3810541,14.4123429 C30.3800075,13.6763709 29.7605695,13.0800697 28.9963031,13.0793143 L28.9963031,13.0793143 Z" id="Shape"></path>
            <path d="M28.9231966,28.9892571 C27.3491239,28.9852534 26.0304989,27.8409291 25.8631677,26.3337143 C25.7311184,25.1139425 26.3931154,23.9419055 27.5282066,23.3858354 C28.6632977,22.8297653 30.0368306,23.004616 30.982883,23.8256156 C31.9289354,24.6466153 32.2519341,25.9440423 31.7952814,27.0888723 C31.3386287,28.2337023 30.1967264,28.9892571 28.9231966,28.9892571 L28.9231966,28.9892571 Z M28.9269944,23.9734855 C28.8521475,23.9734855 28.7773523,23.9772686 28.7029277,23.9849143 C27.5333273,24.104366 26.6852518,25.1135534 26.8078555,26.24 C26.9275279,27.3386186 27.9293431,28.1485527 29.0736884,28.07185 C30.2180336,27.9951472 31.0936683,27.0593721 31.0541352,25.9553819 C31.0146021,24.8513917 30.0741081,23.9759247 28.9269944,23.9753143 L28.9269944,23.9734855 Z" id="Shape"></path>
            <path d="M10.8174718,32 C9.44934408,31.9992427 8.34082138,30.9307357 8.3413454,29.6132577 C8.3418698,28.2957796 9.45124248,27.228091 10.8193704,27.2283433 C12.1874983,27.2285956 13.2964465,28.2966933 13.2964465,29.6141714 C13.2948756,30.9317365 12.1856906,31.9992444 10.8174718,32 L10.8174718,32 Z M10.8174718,28.1426286 C9.97370271,28.1433858 9.29025655,28.8025529 9.29078037,29.6150849 C9.29130479,30.4276168 9.97560081,31.0859658 10.8193702,31.0857136 C11.6631397,31.0854614 12.3470115,30.4267035 12.3470115,29.6141714 C12.345964,28.8013435 11.6615491,28.1428801 10.8174718,28.1426286 L10.8174718,28.1426286 Z" id="Shape"></path>
            <path d="M2.89253813,22.0301714 C1.72256345,22.0301714 0.667809883,21.3514384 0.220168705,20.3105042 C-0.227472472,19.26957 0.0201676486,18.0714604 0.847600464,17.2749217 C1.67503328,16.478383 2.91928485,16.2403042 4.00009024,16.6717149 C5.08089563,17.1031255 5.78537579,18.1190536 5.78499191,19.2457143 C5.78263756,20.7829444 4.48886692,22.0284091 2.89253813,22.0301714 L2.89253813,22.0301714 Z M2.89253813,17.3741714 C1.81950035,17.3741714 0.949606895,18.2117922 0.949519528,19.2451048 C0.949432161,20.2784174 1.81918397,21.1161745 2.89222172,21.1163429 C3.96525948,21.1165111 4.83529462,20.2790268 4.83555679,19.2457143 C4.8339888,18.2128942 3.96506405,17.3759337 2.89253813,17.3741714 Z" id="Shape"></path>
        </g>
    </g>
</svg>