<?xml version="1.0" encoding="UTF-8"?>
<svg width="80px" height="80px" viewBox="0 0 80 80" version="1.1" xmlns="http://www.w3.org/2000/svg" xmlns:xlink="http://www.w3.org/1999/xlink">
    <title>Bin</title>
    <defs>
        <linearGradient x1="50%" y1="0%" x2="50%" y2="100%" id="linearGradient-1">
            <stop stop-color="#4E91B1" offset="0%"></stop>
            <stop stop-color="#00557B" offset="100%"></stop>
        </linearGradient>
    </defs>
    <g id="Bin" stroke="none" stroke-width="1" fill="none" fill-rule="evenodd">
        <rect id="Rectangle-Copy-4" fill="url(#linearGradient-1)" x="0" y="0" width="80" height="80" rx="40"></rect>
        <g id="delete-copy" transform="translate(26.000000, 23.000000)" fill="#FFFFFF" fill-rule="nonzero">
            <path d="M18.0933825,11.5938005 C17.6633611,11.5938005 17.3148431,11.9292786 17.3148431,12.3432105 L17.3148431,26.5070591 C17.3148431,26.9206982 17.6633611,27.256469 18.0933825,27.256469 C18.5234038,27.256469 18.8719219,26.9206982 18.8719219,26.5070591 L18.8719219,12.3432105 C18.8719219,11.9292786 18.5234038,11.5938005 18.0933825,11.5938005 Z" id="Path"></path>
            <path d="M8.90661765,11.5938005 C8.47659625,11.5938005 8.12807826,11.9292786 8.12807826,12.3432105 L8.12807826,26.5070591 C8.12807826,26.9206982 8.47659625,27.256469 8.90661765,27.256469 C9.33663898,27.256469 9.68515705,26.9206982 9.68515705,26.5070591 L9.68515705,12.3432105 C9.68515705,11.9292786 9.33663898,11.5938005 8.90661765,11.5938005 Z" id="Path"></path>
            <path d="M2.21117888,9.52677559 L2.21117888,27.9906566 C2.21117888,29.0819849 2.62690669,30.1068616 3.35313797,30.8422201 C4.07602394,31.5796278 5.08204289,31.9982435 6.13489573,32 L20.8651043,32 C21.9182613,31.9982435 22.9242802,31.5796278 23.6468621,30.8422201 C24.3730934,30.1068616 24.7888213,29.0819849 24.7888213,27.9906566 L24.7888213,9.52677559 C26.2324644,9.15792537 27.1679281,7.81542761 26.9748138,6.38949947 C26.7813955,4.96386412 25.5196142,3.89741857 24.0257918,3.89712585 L20.039731,3.89712585 L20.039731,2.96036338 C20.0442927,2.17260467 19.7207122,1.41616898 19.1413695,0.859673541 C18.5620267,0.303470823 17.774972,-0.00624626868 16.9565933,9.55069887e-05 L10.0434068,9.55069887e-05 C9.22502804,-0.00624626868 8.43797338,0.303470823 7.8586306,0.859673541 C7.27928783,1.41616898 6.9557074,2.17260467 6.96026917,2.96036338 L6.96026917,3.89712585 L2.97420829,3.89712585 C1.48038583,3.89741857 0.218604623,4.96386412 0.0251861647,6.38949947 C-0.16792804,7.81542761 0.767535698,9.15792537 2.21117888,9.52677559 Z M20.8651043,30.50118 L6.13489573,30.50118 C4.80377586,30.50118 3.76825766,29.4004841 3.76825766,27.9906566 L3.76825766,9.59264168 L23.2317425,9.59264168 L23.2317425,27.9906566 C23.2317425,29.4004841 22.1962242,30.50118 20.8651043,30.50118 Z M8.51734796,2.96036338 C8.51217791,2.57014328 8.67153519,2.19456006 8.95922987,1.91909337 C9.24662037,1.64362667 9.63771472,1.49228093 10.0434068,1.49901393 L16.9565933,1.49901393 C17.3622853,1.49228093 17.7533797,1.64362667 18.0407702,1.91909337 C18.3284649,2.19426734 18.4878221,2.57014328 18.4826522,2.96036338 L18.4826522,3.89712585 L8.51734796,3.89712585 L8.51734796,2.96036338 Z M2.97420829,5.39594581 L24.0257918,5.39594581 C24.7997694,5.39594581 25.4271627,5.99986488 25.4271627,6.74488377 C25.4271627,7.48990265 24.7997694,8.09382173 24.0257918,8.09382173 L2.97420829,8.09382173 C2.20023059,8.09382173 1.57283738,7.48990265 1.57283738,6.74488377 C1.57283738,5.99986488 2.20023059,5.39594581 2.97420829,5.39594581 Z" id="Shape"></path>
            <path d="M13.5000001,11.5938005 C13.0699787,11.5938005 12.7214607,11.9292786 12.7214607,12.3432105 L12.7214607,26.5070591 C12.7214607,26.9206982 13.0699787,27.256469 13.5000001,27.256469 C13.9300214,27.256469 14.2785395,26.9206982 14.2785395,26.5070591 L14.2785395,12.3432105 C14.2785395,11.9292786 13.9300214,11.5938005 13.5000001,11.5938005 Z" id="Path"></path>
        </g>
    </g>
</svg>