<?xml version="1.0" encoding="UTF-8"?>
<svg width="80px" height="80px" viewBox="0 0 80 80" version="1.1" xmlns="http://www.w3.org/2000/svg" xmlns:xlink="http://www.w3.org/1999/xlink">
    <title>Business web</title>
    <defs>
        <linearGradient x1="50%" y1="0%" x2="50%" y2="100%" id="linearGradient-1">
            <stop stop-color="#4E91B1" offset="0%"></stop>
            <stop stop-color="#00557B" offset="100%"></stop>
        </linearGradient>
    </defs>
    <g id="Business-web" stroke="none" stroke-width="1" fill="none" fill-rule="evenodd">
        <rect id="Rectangle-Copy-6" fill="url(#linearGradient-1)" x="0" y="0" width="80" height="80" rx="40"></rect>
        <g id="briefcase-(2)-copy" transform="translate(24.000000, 26.000000)" fill="#FFFFFF" fill-rule="nonzero">
            <path d="M30.4,5.57692308 L24.5333333,5.57692308 L24.5333333,3.90384615 C24.531,1.74885337 22.8608667,0.00243990385 20.8,0 L11.2,0 C9.13913333,0.00243990385 7.469,1.74885337 7.46666667,3.90384615 L7.46666667,5.57692308 L1.6,5.57692308 C0.716333333,5.57692308 0,6.32597356 0,7.25 L0,18.4038462 C0.0028,19.1103029 0.429666667,19.7388221 1.06666667,19.9743077 L1.06666667,27.3269231 C1.06666667,28.2509495 1.783,29 2.66666667,29 L29.3333333,29 C30.217,29 30.9333333,28.2509495 30.9333333,27.3269231 L30.9333333,19.9743077 C31.5703333,19.7388221 31.9972,19.1103029 32,18.4038462 L32,7.25 C32,6.32597356 31.2836667,5.57692308 30.4,5.57692308 Z M8.53333333,3.90384615 C8.53506667,2.36461538 9.728,1.11719712 11.2,1.11538462 L20.8,1.11538462 C22.272,1.11719712 23.4649333,2.36461538 23.4666667,3.90384615 L23.4666667,5.57692308 L22.3786667,5.57692308 L22.4,3.90384615 C22.3982667,2.98058654 21.6829333,2.23258173 20.8,2.23076923 L11.1802667,2.23076923 C10.2973333,2.23258173 9.582,2.98058654 9.58026667,3.90384615 L9.58026667,3.90942308 L9.59466667,5.57692308 L8.53333333,5.57692308 L8.53333333,3.90384615 Z M21.3333333,3.89603846 L21.312,5.57692308 L10.6613333,5.57692308 L10.6448,3.90384615 C10.6448,3.59586058 10.8836,3.34615385 11.1781333,3.34615385 L20.8,3.34615385 C21.0916667,3.34615385 21.3292667,3.59105048 21.3333333,3.89603846 Z M29.8666667,27.3269231 C29.8666667,27.6349087 29.6278667,27.8846154 29.3333333,27.8846154 L2.66666667,27.8846154 C2.37213333,27.8846154 2.13333333,27.6349087 2.13333333,27.3269231 L2.13333333,20.0769231 L5.86666667,20.0769231 L5.86666667,21.75 C5.86666667,22.0579856 6.10546667,22.3076923 6.4,22.3076923 L8.53333333,22.3076923 C8.82786667,22.3076923 9.06666667,22.0579856 9.06666667,21.75 L9.06666667,20.0769231 L22.9333333,20.0769231 L22.9333333,21.75 C22.9333333,22.0579856 23.1721333,22.3076923 23.4666667,22.3076923 L25.6,22.3076923 C25.8945333,22.3076923 26.1333333,22.0579856 26.1333333,21.75 L26.1333333,20.0769231 L29.8666667,20.0769231 L29.8666667,27.3269231 Z M6.93333244,21.1923077 L6.93333244,18.4038462 C6.93306667,18.2534784 6.99233333,18.1097332 7.09706667,18.0067692 C7.19406667,17.9025505 7.3276,17.8444808 7.46666667,17.8461538 C7.7612,17.8461538 8,18.0958606 8,18.4038462 L8,19.5192308 L8,21.1923077 L6.93333244,21.1923077 Z M24,21.1923077 L24,18.4038462 C24,18.0958606 24.2388,17.846151 24.5333333,17.846151 C24.6772,17.8456659 24.8148667,17.9074303 24.9136,18.0168077 C25.0125333,18.1189351 25.0677333,18.2584976 25.0666667,18.4038462 L25.0666667,19.5192308 L25.0666667,21.1923077 L24,21.1923077 Z M30.9333333,18.4038462 C30.9333333,18.7118317 30.6945333,18.9615385 30.4,18.9615385 L26.1333333,18.9615385 L26.1333333,18.4038462 C26.1295333,17.4814928 25.4154,16.7347428 24.5333333,16.7307692 C23.6496667,16.7307692 22.9333333,17.4798197 22.9333333,18.4038462 L22.9333333,18.9615385 L9.06666667,18.9615385 L9.06666667,18.4038462 C9.06666667,17.4798197 8.35033333,16.7307692 7.46666667,16.7307692 C6.58506667,16.7359279 5.8716,17.4819808 5.86666667,18.4038462 L5.86666667,18.9615385 L1.6,18.9615385 C1.30546667,18.9615385 1.06666667,18.7118317 1.06666667,18.4038462 L1.06666667,7.25 C1.06666667,6.94201442 1.30546667,6.69230769 1.6,6.69230769 L30.4,6.69230769 C30.6945333,6.69230769 30.9333333,6.94201442 30.9333333,7.25 L30.9333333,18.4038462 Z" id="Shape"></path>
        </g>
    </g>
</svg>