<?xml version="1.0" encoding="UTF-8"?>
<svg width="80px" height="80px" viewBox="0 0 80 80" version="1.1" xmlns="http://www.w3.org/2000/svg" xmlns:xlink="http://www.w3.org/1999/xlink">
    <title>Buy airtime &amp; bundles Web</title>
    <defs>
        <linearGradient x1="50%" y1="0%" x2="50%" y2="100%" id="linearGradient-1">
            <stop stop-color="#4E91B1" offset="0%"></stop>
            <stop stop-color="#00557B" offset="100%"></stop>
        </linearGradient>
    </defs>
    <g id="Buy-airtime-&amp;-bundles-Web" stroke="none" stroke-width="1" fill="none" fill-rule="evenodd">
        <rect id="Rectangle-Copy-2" fill="url(#linearGradient-1)" x="0" y="0" width="80" height="80" rx="40"></rect>
        <g id="antenna-copy" transform="translate(18.000000, 23.000000)" fill="#FFFFFF" fill-rule="nonzero" stroke="#257295" stroke-width="0.54">
            <path d="M21.500042,9.86071371 C18.9529573,9.86071371 16.8807371,11.8865253 16.8807371,14.3765666 C16.8807371,16.4396545 18.303735,18.1826916 20.2402316,18.7203244 L20.2402316,32.7684038 C20.2402316,33.4485733 20.8042907,34 21.500042,34 C22.1957933,34 22.7598524,33.4485733 22.7598524,32.7684038 L22.7598524,18.7203244 C24.696349,18.1827737 26.1193469,16.4396545 26.1193469,14.3765666 C26.1193469,11.8865253 24.0471267,9.86071371 21.500042,9.86071371 L21.500042,9.86071371 Z M21.500042,16.429227 C20.3422762,16.429227 19.400358,15.5084035 19.400358,14.3765666 C19.400358,13.2447296 20.3422762,12.3239062 21.500042,12.3239062 C22.6578078,12.3239062 23.599726,13.2447296 23.599726,14.3765666 C23.599726,15.5084035 22.6578078,16.429227 21.500042,16.429227 L21.500042,16.429227 Z" id="Shape"></path>
            <path d="M15.671823,7.79212467 C15.1799091,7.31114528 14.3822811,7.31114528 13.8901991,7.79212467 C9.9843669,11.6103193 9.98377899,17.7911261 13.8901991,21.6098955 C14.3822811,22.0908749 15.1798251,22.0908749 15.671823,21.6098955 C16.163821,21.1289982 16.163821,20.3491515 15.671823,19.8681721 C12.7507426,17.0125931 12.7502387,12.3899197 15.671823,9.53384807 C16.163821,9.05286868 16.163821,8.27302194 15.671823,7.79212467 L15.671823,7.79212467 Z" id="Path"></path>
            <path d="M29.1098009,7.79212467 C28.6178869,7.31122739 27.820175,7.31122739 27.328177,7.79212467 C26.836179,8.27302194 26.836179,9.05286868 27.328177,9.53384807 C30.2426224,12.3830228 30.2426224,17.0189974 27.328177,19.8681721 C26.836179,20.3490694 26.836179,21.1289161 27.328177,21.6098955 C27.8202589,22.0908749 28.6178029,22.0908749 29.1098009,21.6098955 C33.0067305,17.8004041 33.0067305,11.601616 29.1098009,7.79212467 Z" id="Path"></path>
            <path d="M11.870975,5.81812221 C12.362973,5.33722494 12.362973,4.5573782 11.870975,4.07639881 C11.379061,3.59550153 10.5813491,3.59550153 10.0893511,4.07639881 C4.09668488,9.9348558 4.09668488,19.4671644 10.0893511,25.3256214 C10.5811811,25.8065186 11.3788931,25.806765 11.870975,25.3256214 C12.362973,24.8447241 12.362973,24.0648774 11.870975,23.583898 C6.86079294,18.6858397 6.86079294,10.7161805 11.870975,5.81812221 Z" id="Path"></path>
            <path d="M32.9106489,4.07639881 C32.418735,3.59550153 31.621023,3.59550153 31.129025,4.07639881 C30.6370271,4.55729609 30.6370271,5.33714283 31.129025,5.81812221 C36.1392071,10.7161805 36.1392071,18.6858397 31.129025,23.583898 C30.6370271,24.0647952 30.6370271,24.844642 31.129025,25.3256214 C31.621107,25.8066008 32.418651,25.8066008 32.9106489,25.3256214 C38.9033151,19.4671644 38.9033151,9.9348558 32.9106489,4.07639881 Z" id="Path"></path>
            <path d="M8.07012696,2.10239636 C8.56212492,1.62149908 8.56212492,0.841652343 8.07012696,0.360672959 C7.57821298,-0.12022432 6.78050102,-0.12022432 6.28850306,0.360672959 C-2.10527784,8.56638817 -2.08705258,20.853367 6.28850306,29.0413472 C6.78033305,29.5222445 7.57804501,29.5224908 8.07012696,29.0413472 C8.56212492,28.5604499 8.56212492,27.7806032 8.07012696,27.2996238 C0.723332509,20.1172009 0.723332509,9.28481931 8.07012696,2.10239636 Z" id="Path"></path>
            <path d="M36.711497,0.360672959 C36.219583,-0.12022432 35.421871,-0.12022432 34.9298731,0.360672959 C34.4378751,0.841570237 34.4378751,1.62141698 34.9298731,2.10239636 C42.2768355,9.28481931 42.2768355,20.1172009 34.9298731,27.2996238 C34.4378751,27.7805211 34.4378751,28.5603678 34.9298731,29.0413472 C35.421955,29.5223266 36.219499,29.5223266 36.711497,29.0413472 C45.1051939,20.8357141 45.0871366,8.54865318 36.711497,0.360672959 Z" id="Path"></path>
        </g>
    </g>
</svg>