<?xml version="1.0" encoding="UTF-8"?>
<svg width="80px" height="80px" viewBox="0 0 80 80" version="1.1" xmlns="http://www.w3.org/2000/svg" xmlns:xlink="http://www.w3.org/1999/xlink">
    <title>Cashout</title>
    <defs>
        <linearGradient x1="50%" y1="0%" x2="50%" y2="100%" id="linearGradient-1">
            <stop stop-color="#4E91B1" offset="0%"></stop>
            <stop stop-color="#00557B" offset="100%"></stop>
        </linearGradient>
    </defs>
    <g id="Cashout" stroke="none" stroke-width="1" fill="none" fill-rule="evenodd" transform="translate(0.000000, 0.000000)">
        <rect id="Rectangle-Copy-2" fill="url(#linearGradient-1)" x="0" y="0" width="80" height="80" rx="40"></rect>
        <g id="money-(3)-copy" transform="translate(20.000000, 23.000000)" fill="#FFFFFF" fill-rule="nonzero">
            <path d="M19.5,15.579593 C20.1719883,15.579593 20.71875,16.1269321 20.71875,16.79963 C20.71875,17.1365127 20.9915977,17.4096485 21.328125,17.4096485 C21.6646523,17.4096485 21.9375,17.1365127 21.9375,16.79963 C21.9375,15.6647668 21.1594805,14.7083341 20.109375,14.4367996 L20.109375,13.7495375 C20.109375,13.4126548 19.8365273,13.139519 19.5,13.139519 C19.1634727,13.139519 18.890625,13.4126548 18.890625,13.7495375 L18.890625,14.4367996 C17.8405195,14.7084103 17.0625,15.6647668 17.0625,16.79963 C17.0625,18.1451021 18.1559473,19.239704 19.5,19.239704 C20.1719883,19.239704 20.71875,19.7870431 20.71875,20.459741 C20.71875,21.1324389 20.1719883,21.679778 19.5,21.679778 C18.8280117,21.679778 18.28125,21.1324389 18.28125,20.459741 C18.28125,20.1228583 18.0084023,19.8497225 17.671875,19.8497225 C17.3353477,19.8497225 17.0625,20.1228583 17.0625,20.459741 C17.0625,21.5946042 17.8405195,22.5510369 18.890625,22.8225714 L18.890625,23.5098335 C18.890625,23.8467162 19.1634727,24.119852 19.5,24.119852 C19.8365273,24.119852 20.109375,23.8467162 20.109375,23.5098335 L20.109375,22.8225714 C21.1594805,22.5509607 21.9375,21.5946042 21.9375,20.459741 C21.9375,19.1142689 20.8440527,18.019667 19.5,18.019667 C18.8280117,18.019667 18.28125,17.4723279 18.28125,16.79963 C18.28125,16.1269321 18.8280117,15.579593 19.5,15.579593 Z" id="Path"></path>
            <path d="M19.5,10.699445 C15.1318477,10.699445 11.578125,14.2569204 11.578125,18.6296855 C11.578125,23.0024506 15.1318477,26.559926 19.5,26.559926 C23.8681523,26.559926 27.421875,23.0024506 27.421875,18.6296855 C27.421875,14.2569204 23.8681523,10.699445 19.5,10.699445 Z M19.5,25.339889 C15.8039121,25.339889 12.796875,22.3296765 12.796875,18.6296855 C12.796875,14.9296945 15.8039121,11.919482 19.5,11.919482 C23.1960879,11.919482 26.203125,14.9296945 26.203125,18.6296855 C26.203125,22.3296765 23.1960879,25.339889 19.5,25.339889 Z" id="Shape"></path>
            <path d="M37.100502,8.25937099 L36.710959,5.13966013 C36.5848184,4.12931699 35.6605488,3.41399405 34.6441113,3.55422205 L33.7619648,3.68049588 L33.189,1.38629255 C32.9443359,0.406069076 31.9439707,-0.207304526 30.934084,0.0646874732 L1.73588086,8.26173482 C0.770554688,8.31000253 0,9.11133808 0,10.0894265 L0,27.1699445 C0,28.1789914 0.820142578,29 1.828125,29 L37.171875,29 C38.1798574,29 39,28.1789914 39,27.1699445 L39,10.0894265 C39,9.14435533 38.2690547,8.25937099 37.100502,8.25937099 Z M34.8135937,4.76236369 C35.1517207,4.71600228 35.4596836,4.95482453 35.501502,5.29102097 L35.8721543,8.25944725 L10.3915195,8.25944725 L34.8135937,4.76236369 Z M31.2571289,1.24110815 C31.5867246,1.15250296 31.9238613,1.35083523 32.0067363,1.68222778 L32.5491562,3.85419865 L10.9142871,6.95210135 L31.2571289,1.24110815 Z M37.78125,27.1699445 C37.78125,27.5062935 37.5078691,27.779963 37.171875,27.779963 L1.828125,27.779963 C1.49213086,27.779963 1.21875,27.5062935 1.21875,27.1699445 L1.21875,10.0894265 C1.21875,9.75353506 1.49144531,9.48017052 1.82683008,9.47948425 C2.01984961,9.47910299 -1.21204687,9.47929249 37.171875,9.47929249 C37.5078691,9.47929249 37.78125,9.75307754 37.78125,10.0894265 L37.78125,27.1699445 Z" id="Shape"></path>
            <path d="M35.953125,12.5295005 C35.2811367,12.5295005 34.734375,11.9821614 34.734375,11.3094635 C34.734375,10.9725808 34.4615273,10.699445 34.125,10.699445 L26.203125,10.699445 C25.8665977,10.699445 25.59375,10.9725808 25.59375,11.3094635 C25.59375,11.6463462 25.8665977,11.919482 26.203125,11.919482 L33.5927871,11.919482 C33.8136855,12.7757192 34.4884922,13.4511622 35.34375,13.6722939 L35.34375,23.5870008 C34.488416,23.8081325 33.8136855,24.4836518 33.5927871,25.3398127 L26.203125,25.3398127 C25.8665977,25.3398127 25.59375,25.6129485 25.59375,25.9498312 C25.59375,26.286714 25.8665977,26.5598497 26.203125,26.5598497 L34.125,26.5598497 C34.4615273,26.5598497 34.734375,26.286714 34.734375,25.9498312 C34.734375,25.2771333 35.2811367,24.7297942 35.953125,24.7297942 C36.2896523,24.7297942 36.5625,24.4566585 36.5625,24.1197757 L36.5625,13.1394427 C36.5625,12.8026363 36.2896523,12.5295005 35.953125,12.5295005 Z" id="Path"></path>
            <path d="M12.796875,25.339889 L5.40721289,25.339889 C5.18631445,24.4836518 4.51150781,23.8082088 3.65625,23.5870771 L3.65625,13.6722939 C4.51158398,13.4511622 5.18631445,12.775643 5.40721289,11.919482 L12.796875,11.919482 C13.1334023,11.919482 13.40625,11.6463462 13.40625,11.3094635 C13.40625,10.9725808 13.1334023,10.699445 12.796875,10.699445 L4.875,10.699445 C4.53847266,10.699445 4.265625,10.9725808 4.265625,11.3094635 C4.265625,11.9821614 3.71886328,12.5295005 3.046875,12.5295005 C2.71034766,12.5295005 2.4375,12.8026363 2.4375,13.139519 L2.4375,24.119852 C2.4375,24.4567347 2.71034766,24.7298705 3.046875,24.7298705 C3.71886328,24.7298705 4.265625,25.2772096 4.265625,25.9499075 C4.265625,26.2867902 4.53847266,26.559926 4.875,26.559926 L12.796875,26.559926 C13.1334023,26.559926 13.40625,26.2867902 13.40625,25.9499075 C13.40625,25.6130248 13.1334023,25.339889 12.796875,25.339889 Z" id="Path"></path>
            <path d="M5.484375,18.6296855 C5.484375,19.6387323 6.30451758,20.459741 7.3125,20.459741 C8.32048242,20.459741 9.140625,19.6387323 9.140625,18.6296855 C9.140625,17.6206386 8.32048242,16.79963 7.3125,16.79963 C6.30451758,16.79963 5.484375,17.6206386 5.484375,18.6296855 Z M7.921875,18.6296855 C7.921875,18.9660344 7.64849414,19.239704 7.3125,19.239704 C6.97650586,19.239704 6.703125,18.9660344 6.703125,18.6296855 C6.703125,18.2933365 6.97650586,18.019667 7.3125,18.019667 C7.64849414,18.019667 7.921875,18.2933365 7.921875,18.6296855 Z" id="Shape"></path>
            <path d="M33.515625,18.6296855 C33.515625,17.6206386 32.6954824,16.79963 31.6875,16.79963 C30.6795176,16.79963 29.859375,17.6206386 29.859375,18.6296855 C29.859375,19.6387323 30.6795176,20.459741 31.6875,20.459741 C32.6954824,20.459741 33.515625,19.6388086 33.515625,18.6296855 Z M31.078125,18.6296855 C31.078125,18.2933365 31.3515059,18.019667 31.6875,18.019667 C32.0234941,18.019667 32.296875,18.2933365 32.296875,18.6296855 C32.296875,18.9660344 32.0234941,19.239704 31.6875,19.239704 C31.3515059,19.239704 31.078125,18.9660344 31.078125,18.6296855 Z" id="Shape"></path>
        </g>
    </g>
</svg>