<?xml version="1.0" encoding="UTF-8"?>
<svg width="80px" height="80px" viewBox="0 0 80 80" version="1.1" xmlns="http://www.w3.org/2000/svg" xmlns:xlink="http://www.w3.org/1999/xlink">
    <title>Chart</title>
    <defs>
        <linearGradient x1="50%" y1="0%" x2="50%" y2="100%" id="linearGradient-1">
            <stop stop-color="#4E91B1" offset="0%"></stop>
            <stop stop-color="#00557B" offset="100%"></stop>
        </linearGradient>
    </defs>
    <g id="Chart" stroke="none" stroke-width="1" fill="none" fill-rule="evenodd">
        <rect id="Rectangle-Copy-2" fill="url(#linearGradient-1)" x="0" y="0" width="80" height="80" rx="40"></rect>
        <g id="shopping-cart-copy" transform="translate(24.000000, 23.000000)" fill="#FFFFFF" fill-rule="nonzero">
            <path d="M10.207857,25.1347329 C8.36277933,25.1347329 6.86712185,26.6716066 6.86712185,28.5673664 C6.86712185,30.4631993 8.36285038,32 10.207857,32 C12.0529346,32 13.5485921,30.4631263 13.5485921,28.5673664 C13.5486631,26.6716066 12.0529346,25.1347329 10.207857,25.1347329 Z M10.207857,30.4744419 C9.18282962,30.4744419 8.3519088,29.6206637 8.3519088,28.5674394 C8.3519088,27.5142152 9.18282962,26.660437 10.207857,26.660437 C11.2328843,26.660437 12.0638051,27.5142152 12.0638051,28.5674394 C12.0638762,29.6206637 11.2328843,30.4744419 10.207857,30.4744419 Z" id="Shape"></path>
            <path d="M24.3133329,25.1347329 C22.4682553,25.1347329 20.9725978,26.6716066 20.9725978,28.5673664 C20.9725978,30.4631993 22.4683263,32 24.3133329,32 C26.1583395,32 27.654068,30.4631263 27.654068,28.5673664 C27.654068,26.6716066 26.1584105,25.1347329 24.3133329,25.1347329 Z M24.3133329,30.4744419 C23.2883056,30.4744419 22.4573848,29.6206637 22.4573848,28.5674394 C22.4573848,27.5142152 23.2883056,26.660437 24.3133329,26.660437 C25.3383603,26.660437 26.1692811,27.5142152 26.1692811,28.5674394 C26.1693521,29.6206637 25.3383603,30.4744419 24.3133329,30.4744419 Z" id="Shape"></path>
            <path d="M31.8486018,5.11091542 C31.6939987,4.93738565 31.4824851,4.82875615 31.2547012,4.80575999 L7.08986121,4.46249663 L6.42171419,2.36473557 C5.951013,0.962407662 4.67297933,0.0156957936 3.22940095,0 L0.742393472,0 C0.332368328,0 0,0.341511268 0,0.76281557 C0,1.18411987 0.332368328,1.52563114 0.742393472,1.52563114 L3.22940095,1.52563114 C4.03659132,1.54395507 4.74736788,2.07651699 5.0111737,2.86057664 L9.72536159,17.4684692 L9.35420038,18.3456816 C8.94019648,19.4426351 9.06453264,20.6772735 9.68827389,21.6639184 C10.306047,22.6329694 11.3453552,23.2310156 12.4722672,23.2658384 L26.9118166,23.2658384 C27.3218418,23.2658384 27.6542101,22.9243271 27.6542101,22.5030228 C27.6542101,22.0817185 27.3218418,21.7402072 26.9118166,21.7402072 L12.4721961,21.7402072 C11.8358081,21.7238544 11.2500072,21.379861 10.9131627,20.824814 C10.5800839,20.2765562 10.5116635,19.6011261 10.7275821,18.9940274 L11.0245679,18.3075007 L26.6519185,16.6292918 C28.3684681,16.435029 29.7805006,15.1522081 30.1783053,13.4254518 L31.960078,5.7591882 C32.0403637,5.53842504 31.9977341,5.29013948 31.8486018,5.11091542 Z M28.7306061,13.0822615 C28.489607,14.1938157 27.5711536,15.0137201 26.4663379,15.1037337 L11.0245679,16.7437616 L7.57242762,5.98812777 L30.3267272,6.33139113 L28.7306061,13.0822615 Z" id="Shape"></path>
        </g>
    </g>
</svg>