<?xml version="1.0" encoding="UTF-8"?>
<svg width="80px" height="80px" viewBox="0 0 80 80" version="1.1" xmlns="http://www.w3.org/2000/svg" xmlns:xlink="http://www.w3.org/1999/xlink">
    <title>Choose a recipient Web</title>
    <defs>
        <linearGradient x1="50%" y1="0%" x2="50%" y2="100%" id="linearGradient-1">
            <stop stop-color="#4E91B1" offset="0%"></stop>
            <stop stop-color="#00557B" offset="100%"></stop>
        </linearGradient>
    </defs>
    <g id="Choose-a-recipient-Web" stroke="none" stroke-width="1" fill="none" fill-rule="evenodd">
        <rect id="Rectangle-Copy-2" fill="url(#linearGradient-1)" x="0" y="0" width="80" height="80" rx="40"></rect>
        <g id="add-group" transform="translate(23.000000, 21.000000)" fill="#FFFFFF" fill-rule="nonzero" stroke="#287497" stroke-width="0.515">
            <path d="M17.3709529,19.6663258 C16.6373846,19.1544836 15.8534622,18.73741 15.0336053,18.4187676 C16.1242302,17.4273593 16.8477276,16.0385637 16.973613,14.4838084 C18.6275175,12.8720547 20.7954921,11.9884629 23.1195646,11.9884629 C24.9339157,11.9884629 26.6759401,12.5348706 28.1577251,13.5683982 C28.6887324,13.9387743 29.4188674,13.8087535 29.7891993,13.2776828 C30.1593022,12.746841 30.029297,12.01639 29.4985185,11.6462428 C28.7649503,11.1344005 27.980799,10.7175559 27.160942,10.3986845 C28.364406,9.3047247 29.1210914,7.7273074 29.1210914,5.97660541 C29.1210914,2.68099133 26.4404201,0 23.1451994,0 C19.8502076,0 17.1695363,2.68099133 17.1695363,5.97660541 C17.1695363,7.72021124 17.9200419,9.29190575 19.1152661,10.3854077 C18.9516151,10.448358 18.7888796,10.5149707 18.6277464,10.5859327 C17.8944071,10.9086955 17.2050131,11.3056251 16.5639133,11.7716854 C15.6797404,9.57483824 13.5271009,8.02008302 11.0178626,8.02008302 C7.72287085,8.02008302 5.04197063,10.7010743 5.04197063,13.9964595 C5.04197063,15.7352582 5.7883563,17.3026035 6.97717179,18.3956476 C3.79868114,19.5866652 1.22146472,22.144732 0.172267554,25.4071542 C-0.175633775,26.4889818 0.00861664375,27.6362776 0.677868879,28.5548926 C1.34712123,29.4732786 2.38258539,30 3.51875795,30 L13.7129535,30 C14.3600042,30 14.8846028,29.4753388 14.8846028,28.8279819 C14.8846028,28.180854 14.3600042,27.6561928 13.7129535,27.6561928 L3.51875795,27.6561928 C3.13995747,27.6561928 2.79480273,27.4806189 2.57164233,27.1743377 C2.34848192,26.8680564 2.28714142,26.4855482 2.40295597,26.1247864 C3.56110119,22.5235777 7.09321521,20.008546 10.9922278,20.008546 C12.8063501,20.008546 14.5486033,20.5549536 16.0303884,21.5884813 C16.5611667,21.9588573 17.2915307,21.8286076 17.6618625,21.2977658 C18.0319654,20.766924 17.9019602,20.0364729 17.3709529,19.6663258 Z M23.1451994,2.34380724 C25.1481497,2.34380724 26.7775639,3.97341597 26.7775639,5.97660541 C26.7775639,7.979566 25.1481497,9.60940363 23.1451994,9.60940363 C21.1424779,9.60940363 19.5128349,7.979566 19.5128349,5.97660541 C19.5128349,3.97341597 21.1424779,2.34380724 23.1451994,2.34380724 Z M11.0178626,10.3636613 C13.020813,10.3636613 14.6502272,11.9934989 14.6502272,13.9964595 C14.6502272,15.999649 13.020813,17.6292578 11.0178626,17.6292578 C9.01491228,17.6292578 7.38549808,15.999649 7.38549808,13.9964595 C7.38549808,11.9934989 9.01491228,10.3636613 11.0178626,10.3636613 L11.0178626,10.3636613 Z M30,24.4336009 C30,25.0807289 29.4754014,25.60539 28.8281218,25.60539 L25.6059146,25.60539 L25.6059146,28.8279819 C25.6059146,29.4753388 25.0813161,30 24.4342654,30 C23.7869858,30 23.2623872,29.4753388 23.2623872,28.8279819 L23.2623872,25.60539 L20.04018,25.60539 C19.3931293,25.60539 18.8685308,25.0807289 18.8685308,24.4336009 C18.8685308,23.7862441 19.3931293,23.2615828 20.04018,23.2615828 L23.2623872,23.2615828 L23.2623872,20.038991 C23.2623872,19.391863 23.7869858,18.8672018 24.4342654,18.8672018 C25.0813161,18.8672018 25.6059146,19.391863 25.6059146,20.038991 L25.6059146,23.2615828 L28.8281218,23.2615828 C29.4754014,23.2615828 30,23.7862441 30,24.4336009 L30,24.4336009 Z" id="Shape"></path>
        </g>
    </g>
</svg>