<?xml version="1.0" encoding="UTF-8"?>
<svg width="80px" height="80px" viewBox="0 0 80 80" version="1.1" xmlns="http://www.w3.org/2000/svg" xmlns:xlink="http://www.w3.org/1999/xlink">
    <title>Collection Web</title>
    <defs>
        <linearGradient x1="50%" y1="0%" x2="50%" y2="100%" id="linearGradient-1">
            <stop stop-color="#4E91B1" offset="0%"></stop>
            <stop stop-color="#00557B" offset="100%"></stop>
        </linearGradient>
    </defs>
    <g id="Collection-Web" stroke="none" stroke-width="1" fill="none" fill-rule="evenodd">
        <rect id="Rectangle-Copy-2" fill="url(#linearGradient-1)" x="0" y="0" width="80" height="80" rx="40"></rect>
        <g id="box" transform="translate(23.000000, 22.000000)" fill="#FFFFFF" fill-rule="nonzero">
            <path d="M33.6996975,8.16394808 L17.2310183,0.0538739708 C17.0850113,-0.0179579903 16.9149887,-0.0179579903 16.7690525,0.0538739708 L0.30030254,8.16394808 C0.116678057,8.25435229 0,8.44404937 0,8.65202964 L0,28.3479342 C0,28.5559145 0.116678057,28.7456116 0.30030254,28.8360158 L16.7689817,36.9460899 C16.8419498,36.9820059 16.9210103,37 17,37 C17.0789897,37 17.1579794,36.9820059 17.2310183,36.9460899 L33.6996975,28.8360158 C33.8833219,28.7456116 34,28.5559145 34,28.3479342 L34,8.6521019 C34,8.44397711 33.8832511,8.25442456 33.6996975,8.16394808 Z M17,1.14385533 L32.2465704,8.65202964 L27.8269019,10.8285236 C27.798919,10.8067717 27.7693776,10.7866818 27.7369316,10.7707112 L12.5939334,3.3136286 L17,1.14385533 Z M11.3939984,3.9264405 L26.618395,11.4237027 L23.50025,12.9592735 L8.28215845,5.46504642 L11.3939984,3.9264405 Z M26.9745924,12.451897 L26.9745924,18.1280673 L24.0620333,19.562394 L24.0620333,13.8862237 L26.9745924,12.451897 Z M32.9373583,28.0078525 L17.5313208,35.594435 L17.5313208,17.1022577 L21.2061483,15.2925837 C21.4703919,15.1624334 21.58119,14.838467 21.4536021,14.5688442 C21.3260143,14.2993659 21.0084261,14.1861981 20.7441117,14.3164206 L17,16.1602762 L15.5267536,15.43473 C15.2624392,15.3044352 14.944851,15.4176031 14.8172631,15.6871536 C14.6896753,15.9567041 14.8004734,16.2807429 15.064717,16.4108932 L16.4686792,17.1022577 L16.4686792,35.594435 L1.06264169,28.007708 L1.06264169,9.51553075 L12.7942059,15.2928005 C12.8686617,15.3295114 12.947368,15.3468551 13.0247991,15.3468551 C13.2223088,15.3468551 13.4120258,15.2339763 13.5036255,15.0403769 C13.6312133,14.7708264 13.5204152,14.4467876 13.2561717,14.3166374 L1.75342962,8.65202964 L7.03157088,6.05278218 L22.9920239,13.9126007 C22.9943617,13.9159249 22.9969829,13.9188878 22.9993916,13.9221397 L22.9993916,20.4259674 C22.9993916,20.6124848 23.0934,20.7858498 23.2482623,20.8850704 C23.3342654,20.9401368 23.4323827,20.967959 23.5307833,20.967959 C23.6095604,20.967959 23.6885501,20.9501094 23.7617307,20.9140489 L27.7369316,18.9564473 C27.9205561,18.8660431 28.0372341,18.6764183 28.0372341,18.4683658 L28.0372341,11.9286944 L32.9373583,9.51560301 L32.9373583,28.0078525 L32.9373583,28.0078525 Z" id="Shape"></path>
            <path d="M5.44738465,25.9057198 L3.03058324,24.7155784 C2.76619799,24.5852836 2.44868066,24.6984515 2.32109281,24.968002 C2.19350497,25.2375525 2.30430307,25.5615912 2.56854664,25.6917415 L4.98534805,26.8818829 C5.05980381,26.9185938 5.13851013,26.9359376 5.21594129,26.9359376 C5.41345096,26.9359376 5.60316792,26.8230588 5.69476764,26.6294593 C5.82242632,26.3598366 5.71162822,26.0359423 5.44738465,25.9057198 Z" id="Path"></path>
            <path d="M7.67163538,24.4288287 L3.03391286,22.1449481 C2.76959845,22.0147978 2.45201027,22.1278212 2.32442242,22.3974439 C2.19690542,22.6669945 2.30770353,22.9910332 2.57194709,23.1211835 L7.20966962,25.4050641 C7.28412538,25.4417027 7.36283171,25.4591187 7.44026287,25.4591187 C7.63777254,25.4591187 7.8274895,25.3462399 7.91908921,25.1526405 C8.04667706,24.8829454 7.93587895,24.5589067 7.67163538,24.4288287 Z" id="Path"></path>
        </g>
    </g>
</svg>