<?xml version="1.0" encoding="UTF-8"?>
<svg width="80px" height="80px" viewBox="0 0 80 80" version="1.1" xmlns="http://www.w3.org/2000/svg" xmlns:xlink="http://www.w3.org/1999/xlink">
    <title>Collection Widget Web</title>
    <defs>
        <linearGradient x1="50%" y1="0%" x2="50%" y2="100%" id="linearGradient-1">
            <stop stop-color="#4E91B1" offset="0%"></stop>
            <stop stop-color="#00557B" offset="100%"></stop>
        </linearGradient>
    </defs>
    <g id="Collection-Widget-Web" stroke="none" stroke-width="1" fill="none" fill-rule="evenodd">
        <rect id="Rectangle-Copy-2" fill="url(#linearGradient-1)" x="0" y="0" width="80" height="80" rx="40"></rect>
        <g id="open-box-copy" transform="translate(18.000000, 17.000000)" fill="#FFFFFF" fill-rule="nonzero">
            <path d="M38.0581104,14.2302285 L42.8158388,9.47259766 C42.9566411,9.33167187 43.0223431,9.13330078 42.9932175,8.93711328 C42.9640071,8.7408418 42.8433558,8.56968164 42.6675858,8.47519922 L27.046746,0.0769296875 C26.7996012,-0.0558496094 26.4938664,-0.0119257812 26.2951514,0.185269531 L21.4996613,4.94206055 L16.7045099,0.185605469 C16.5851285,0.0663476562 16.4251067,0 16.2566181,0 C16.1507836,0 16.0466424,0.0267910156 15.953508,0.077265625 L10.9361887,2.77383594 C10.7871736,2.85446094 10.6787991,2.98715625 10.6305385,3.14840625 C10.582278,3.30965625 10.6000582,3.48014453 10.6804924,3.62795703 C10.7922537,3.83119922 11.0064628,3.95809961 11.2392988,3.95809961 C11.3442867,3.95809961 11.4492745,3.93122461 11.5415623,3.88167383 L16.1414701,1.40841797 L20.448428,5.68061914 L5.9528211,13.4523652 L1.68227033,9.18175977 L9.30811476,5.08181055 C9.45797647,5.00202539 9.56635104,4.86933008 9.61461159,4.70808008 C9.66287214,4.54683008 9.64509194,4.3763418 9.56381101,4.2285293 C9.45289641,4.02528711 9.2386873,3.8984707 9.0058513,3.8984707 C8.90086344,3.8984707 8.79672225,3.92526172 8.70358785,3.9748125 L0.332668246,8.47553516 C0.157406245,8.56867383 0.0354848523,8.74176562 0.00669785682,8.93744922 C-0.0220891386,9.13220898 0.0440362833,9.3320918 0.184499888,9.47242969 L4.94172022,14.2303965 L0.184161217,18.9879434 C0.0433589422,19.1288691 -0.0223431415,19.3272402 0.00678252446,19.5234277 C0.0359928581,19.7196992 0.156644236,19.8908594 0.332414244,19.9853418 L5.20190386,22.6033027 L5.20190386,33.970084 C5.20181919,33.9918359 5.20291987,34.0135039 5.20512123,34.0349199 C5.20605257,34.0440742 5.20783059,34.0529766 5.20910061,34.0620469 C5.21070929,34.0730488 5.21197931,34.0840508 5.21418067,34.0948848 C5.21689003,34.1085742 5.22061541,34.1218437 5.22417145,34.1351973 C5.2258648,34.1413281 5.22713481,34.147543 5.2289975,34.1536738 C5.23314622,34.1671953 5.23814161,34.1803809 5.243137,34.1936504 C5.24533835,34.1995293 5.24720104,34.2054922 5.2496564,34.2112871 C5.25456713,34.2232129 5.26023986,34.2345508 5.26582792,34.2459727 C5.26929929,34.2531113 5.272432,34.26025 5.27615737,34.2672207 C5.28123743,34.276627 5.28691016,34.2856133 5.29232889,34.2946836 C5.29757828,34.303334 5.30257367,34.3120684 5.30816174,34.3205508 C5.31281846,34.3275215 5.31806785,34.3341562 5.32306324,34.340959 C5.33025999,34.3507852 5.33737207,34.3607793 5.34516149,34.3703535 C5.34947954,34.3756445 5.3543056,34.3805156 5.35879298,34.3856387 C5.36776775,34.3958848 5.37674252,34.4061309 5.38639463,34.4157891 C5.39139002,34.4207441 5.39689342,34.4252793 5.40205814,34.4302344 C5.41171025,34.4392207 5.42119303,34.448291 5.43143781,34.4566895 C5.44134393,34.4648359 5.45184271,34.4722266 5.46217216,34.4797012 C5.46826823,34.4841523 5.47394097,34.4888555 5.48020637,34.4931387 C5.49840991,34.5053164 5.51729079,34.5166543 5.53676435,34.5270684 L21.1947732,42.9226504 C21.2172948,42.9349121 21.2408324,42.9454941 21.2649626,42.9550684 C21.270212,42.957084 21.2755461,42.9589316 21.2808802,42.9607793 C21.298491,42.9672461 21.3163559,42.972957 21.3347288,42.9777441 C21.3413329,42.9795078 21.3478523,42.9812715 21.3544563,42.9827832 C21.3722365,42.9868984 21.3902707,42.9901738 21.408559,42.9927773 C21.4148244,42.9936172 21.4209204,42.994793 21.4271858,42.9955488 C21.4510621,42.9982363 21.4752771,43 21.4999153,43 C21.5245536,43 21.5487686,42.9982363 21.5726448,42.9955488 C21.5789102,42.994793 21.585091,42.9936172 21.5913564,42.9927773 C21.6096446,42.9901738 21.6276788,42.9868984 21.6453743,42.9827832 C21.6519784,42.9812715 21.6585825,42.9795078 21.6651019,42.9777441 C21.6833901,42.972873 21.7013396,42.9672461 21.7188658,42.9607793 C21.7241999,42.9589316 21.729534,42.957084 21.7347833,42.9550684 C21.758829,42.9454941 21.7823666,42.9349121 21.8048881,42.9226504 L37.462897,34.5270684 C37.4823705,34.5166543 37.5012514,34.5053164 37.519455,34.4931387 C37.5257204,34.4888555 37.5314778,34.4840684 37.5374892,34.4797012 C37.5479033,34.4721426 37.5584021,34.464752 37.5682235,34.4566895 C37.5784683,34.448291 37.5879511,34.4392207 37.5976032,34.4302344 C37.6027679,34.4252793 37.6082713,34.4208281 37.6132667,34.4157891 C37.6229188,34.4061309 37.6318936,34.3958848 37.6408683,34.3856387 C37.6453557,34.3805156 37.6501818,34.3756445 37.6544998,34.3703535 C37.6622893,34.3608633 37.6694013,34.3508691 37.6765981,34.340959 C37.6815935,34.3341562 37.6868429,34.3275215 37.6914996,34.3205508 C37.6970877,34.3120684 37.702083,34.303418 37.7073324,34.2946836 C37.7128358,34.2856133 37.7185086,34.276627 37.723504,34.2672207 C37.7272293,34.26025 37.730362,34.2531113 37.7338334,34.2459727 C37.7394215,34.2345508 37.7450942,34.2232129 37.7500049,34.2112871 C37.7524603,34.2054922 37.754323,34.1995293 37.7565243,34.1936504 C37.7615197,34.1804648 37.7665151,34.1672793 37.7706638,34.1536738 C37.7725265,34.147627 37.7737965,34.1414121 37.7754899,34.1351973 C37.7790459,34.1218437 37.7827713,34.1085742 37.7854807,34.0948848 C37.787682,34.0840508 37.788952,34.0730488 37.7905607,34.0620469 C37.7918307,34.0529766 37.7936934,34.0440742 37.7945401,34.0349199 C37.7967415,34.0134199 37.7978421,33.991752 37.7977575,33.970084 L37.7977575,22.6033027 L42.6669931,19.9854258 C42.8422551,19.8913633 42.9641765,19.7183555 42.9929635,19.5235117 C43.0217505,19.3278281 42.9557097,19.1279453 42.8160081,18.9876914 L38.0581104,14.2302285 Z M26.8581065,1.40850195 L41.317391,9.18217969 L37.0469249,13.4526172 L22.5514873,5.68036719 L26.8581065,1.40850195 Z M6.1367192,21.6730918 L1.68252433,19.2783613 L5.95299044,15.0079238 L20.4485127,22.7801738 L16.1418088,27.0520391 L6.14213793,21.6759473 C6.14035991,21.6749395 6.13858189,21.6740156 6.1367192,21.6730918 Z M20.8649927,41.3136777 L6.4718337,33.5962695 L6.4718337,23.2860957 L15.953254,28.3836113 C16.0485051,28.4347578 16.1524769,28.4597012 16.2556021,28.4597012 C16.4201113,28.4597012 16.5826732,28.396377 16.7048486,28.2752715 L20.8649927,24.1486992 L20.8649927,41.3136777 Z M21.5,21.9119434 L7.17364371,14.2303965 L21.5003387,6.54876562 L35.826695,14.2303125 L21.5,21.9119434 Z M36.8657362,21.671832 C36.8622648,21.6735957 36.8588781,21.6754434 36.8554914,21.677291 L33.6918852,23.3782266 C33.5420235,23.4580117 33.433649,23.5915469 33.3853884,23.7527969 C33.3371279,23.9141309 33.3549081,24.0845352 33.4353423,24.2324316 C33.5471036,24.4356738 33.7613127,24.5616504 33.9941487,24.5616504 C34.0991366,24.5616504 34.2041244,24.5355312 34.2964121,24.4860645 L36.5280816,23.2861797 L36.5280816,33.5964375 L22.1350073,41.3137617 L22.1350073,24.1483633 L26.2954901,28.2752715 C26.4158028,28.3945293 26.5748933,28.4600371 26.7442286,28.4600371 C26.8492164,28.4600371 26.9533576,28.4331621 27.046492,28.3836113 L32.0638113,25.6861172 C32.2128264,25.606332 32.3212009,25.4727969 32.3694615,25.3115469 C32.417722,25.1502969 32.3999418,24.9806484 32.3195076,24.8328359 C32.2077463,24.6287539 31.9935372,24.5027773 31.7598545,24.5027773 C31.6557133,24.5027773 31.5507255,24.5288125 31.4584377,24.5792031 L26.8585299,27.0515352 L22.551572,22.7802578 L37.0472636,15.0075879 L41.3178143,19.2781934 L36.8657362,21.671832 Z" id="Shape"></path>
        </g>
    </g>
</svg>