<?xml version="1.0" encoding="UTF-8"?>
<svg width="80px" height="80px" viewBox="0 0 80 80" version="1.1" xmlns="http://www.w3.org/2000/svg" xmlns:xlink="http://www.w3.org/1999/xlink">
    <title>Contact us web</title>
    <defs>
        <linearGradient x1="50%" y1="0%" x2="50%" y2="100%" id="linearGradient-1">
            <stop stop-color="#4E91B1" offset="0%"></stop>
            <stop stop-color="#00557B" offset="100%"></stop>
        </linearGradient>
    </defs>
    <g id="Contact-us-web" stroke="none" stroke-width="1" fill="none" fill-rule="evenodd">
        <rect id="Rectangle-Copy-6" fill="url(#linearGradient-1)" x="0" y="0" width="80" height="80" rx="40"></rect>
        <g id="information-(1)-copy" transform="translate(24.000000, 24.000000)" fill="#FFFFFF" fill-rule="nonzero">
            <path d="M21.770418,21.8080329 C20.9408252,20.3713702 19.0971814,19.8773142 17.6603957,20.7067832 L15.1152359,22.1761996 C14.8677708,22.3190283 14.5500477,22.2340187 14.4071567,21.9864907 L8.67732818,12.0621789 C8.53443719,11.8146509 8.61957171,11.4969899 8.86709941,11.3540987 L11.4121967,9.88468225 C12.8489824,9.05515078 13.3430377,7.21137941 12.5134449,5.77465416 L10.0482941,1.50479547 C9.21888876,0.0680702111 7.37511999,-0.425985756 5.93833424,0.403483207 L5.07361249,0.902727262 C0.226132661,3.70148181 -1.44067882,9.9221865 1.35800929,14.7696731 L8.37666954,26.9263628 C10.2548797,30.1794813 13.6738872,32 17.18503,32 C18.90591,32 20.6492301,31.5625754 22.2436585,30.6419712 L23.1083177,30.1427271 C23.8043331,29.7408691 24.3022013,29.0920456 24.510162,28.3158327 C24.7181853,27.5394947 24.6114234,26.7286529 24.2095659,26.032699 L21.770418,21.8080329 Z M6.56340417,1.48616836 C7.40324813,1.00130093 8.4808687,1.29014615 8.96573544,2.12986627 L11.4308862,6.39972497 C11.915753,7.2395076 11.6269707,8.31712967 10.7871892,8.80205961 L8.78340254,9.95894066 L4.60831044,2.72737146 C4.94816096,2.45740338 6.56340417,1.48616836 6.56340417,1.48616836 Z M17.1829673,30.7501084 C14.1044979,30.7501084 11.1060374,29.15349 9.45929066,26.3012919 L2.44063042,14.1446023 C0.432343232,10.6662083 1.04684948,6.38184794 3.66570498,3.59496974 L7.75797532,10.6830227 C7.3064248,11.2359603 7.21716481,12.0332381 7.59470705,12.6871872 L13.3245356,22.611499 C13.5607495,23.0206078 13.9421047,23.313266 14.3984057,23.4355298 C14.6450583,23.5015998 14.8975866,23.5131011 15.1421765,23.472909 L19.2080688,30.5153318 C18.5381814,30.6726621 17.8587304,30.7501084 17.1829673,30.7501084 L17.1829673,30.7501084 Z M23.3025894,27.992296 C23.1810758,28.4460349 22.8899808,28.8252029 22.4832478,29.0601045 C22.4832478,29.0601045 20.8342508,29.9727078 20.4303931,30.1320384 L16.2816789,22.9462244 L18.2855281,21.7893433 C19.1253096,21.3044759 20.2029927,21.5932586 20.6878594,22.4330412 L23.1269448,26.6577698 C23.3617836,27.0646909 23.4241655,27.5386196 23.3025894,27.992296 Z" id="XMLID_310_"></path>
            <path d="M23.6905078,12.4616617 C24.0356715,12.4616617 24.3155778,12.181755 24.3155778,11.8365909 L24.3155778,7.65274191 C24.3155778,7.30757781 24.0356715,7.0276711 23.6905078,7.0276711 C23.3453442,7.0276711 23.0654379,7.30757781 23.0654379,7.65274191 L23.0654379,11.8366534 C23.0654379,12.1818175 23.3453442,12.4616617 23.6905078,12.4616617 Z" id="XMLID_329_"></path>
            <path d="M23.6902578,5.73564974 C23.8553388,5.73564974 24.0159192,5.66876717 24.1321823,5.55250399 C24.2484453,5.43624082 24.3153277,5.27553512 24.3153277,5.11057893 C24.3153277,4.94618531 24.2485078,4.78491704 24.1321823,4.66865387 C24.0159192,4.55245321 23.8546512,4.48550812 23.6902578,4.48550812 C23.5258644,4.48550812 23.3645964,4.5523907 23.2483959,4.66865387 C23.1321329,4.78491704 23.0651879,4.94618531 23.0651879,5.11057893 C23.0651879,5.27559763 23.1320704,5.43686589 23.2483959,5.55250399 C23.3645964,5.66876717 23.5258644,5.73564974 23.6902578,5.73564974 L23.6902578,5.73564974 Z" id="XMLID_330_"></path>
            <path d="M23.6905078,0 C19.1086202,0 15.3810782,3.72760977 15.3810782,8.30950381 C15.3810782,10.5194417 16.2289855,12.5810502 17.775096,14.1450399 L17.775096,16.3222865 C17.775096,16.5441866 17.8927342,16.7493974 18.0840681,16.8615976 C18.1816415,16.9187291 18.2908412,16.9473573 18.400166,16.9473573 C18.5054277,16.9473573 18.6106895,16.9207918 18.7056376,16.8676608 L20.3766371,15.9316798 C21.4225041,16.3879189 22.5356911,16.6189451 23.6905703,16.6189451 C24.8690147,16.6189451 26.0079546,16.3771052 27.0758241,15.9001762 C27.3910469,15.7594102 27.5324377,15.3897434 27.3916719,15.0745202 C27.2509062,14.7593595 26.8814273,14.6178434 26.566017,14.7586719 C25.6596031,15.1635302 24.6921199,15.3688035 23.6905703,15.3688035 C22.6146375,15.3688035 21.5818344,15.1331518 20.6208519,14.6682241 C20.4370813,14.5792141 20.2213072,14.5857773 20.0432248,14.6855386 L19.0252984,15.2556657 L19.0252984,13.8825101 C19.0252984,13.7111157 18.9549155,13.5472847 18.8306516,13.4292088 C17.4123679,12.0824937 16.6312806,10.2642252 16.6312806,8.3094413 C16.6312181,4.41693786 19.7980098,1.25014162 23.6905078,1.25014162 C27.5830058,1.25014162 30.7498601,4.41693786 30.7498601,8.30950381 C30.7498601,9.30049107 30.5487126,10.2585996 30.1521683,11.1572014 C30.0127777,11.4730497 30.1557937,11.842029 30.471579,11.9814823 C30.7875519,12.1209981 31.1564681,11.9777944 31.2957962,11.6620711 C31.7630985,10.6034512 32,9.4755109 32,8.30956632 C32,3.72760977 28.2723955,0 23.6905078,0 Z" id="XMLID_332_"></path>
            <path d="M29.1358671,13.1064847 C28.9714737,13.1064847 28.8102056,13.1728047 28.6939426,13.2896305 C28.5777421,13.4058936 28.5107971,13.5665993 28.5107971,13.7315555 C28.5107971,13.8959492 28.5776796,14.0572174 28.6939426,14.1734806 C28.8102056,14.2896813 28.9709111,14.3566263 29.1358671,14.3566263 C29.3002605,14.3566263 29.4615285,14.2897438 29.5777915,14.1734806 C29.693992,14.0565923 29.760937,13.8959492 29.760937,13.7315555 C29.760937,13.5665368 29.6940545,13.4058936 29.5777915,13.2896305 C29.4615285,13.1727422 29.3002605,13.1064847 29.1358671,13.1064847 Z" id="XMLID_333_"></path>
        </g>
    </g>
</svg>