<?xml version="1.0" encoding="UTF-8"?>
<svg width="80px" height="80px" viewBox="0 0 80 80" version="1.1" xmlns="http://www.w3.org/2000/svg" xmlns:xlink="http://www.w3.org/1999/xlink">
    <title>Coverage map web</title>
    <defs>
        <linearGradient x1="50%" y1="0%" x2="50%" y2="100%" id="linearGradient-1">
            <stop stop-color="#4E91B1" offset="0%"></stop>
            <stop stop-color="#00557B" offset="100%"></stop>
        </linearGradient>
    </defs>
    <g id="Coverage-map-web" stroke="none" stroke-width="1" fill="none" fill-rule="evenodd">
        <rect id="Rectangle-Copy-6" fill="url(#linearGradient-1)" x="0" y="0" width="80" height="80" rx="40"></rect>
        <g id="placeholder-(2)-copy" transform="translate(29.000000, 22.000000)" fill="#FFFFFF" fill-rule="nonzero">
            <path d="M12.03709,6.83622429 C9.31166008,6.81749378 7.07963246,8.94682411 7.05902109,11.5854328 C7.03848031,14.2239047 9.2383909,16.3865261 11.9629737,16.4064188 C11.9756088,16.4065555 11.9881733,16.4065555 12.0008083,16.4065555 C14.7080268,16.4065555 16.9205724,14.2835826 16.9410426,11.6572103 C16.9615834,9.01887504 14.7617434,6.85611691 12.03709,6.83622429 Z M12.0006671,15.0394337 C11.9917732,15.0394337 11.9824557,15.0394337 11.9735618,15.039297 C10.027411,15.0250782 8.45600596,13.48029 8.47068803,11.5956867 C8.48529952,9.71956 10.0655985,8.20320938 11.9993966,8.20320938 C12.0082905,8.20320938 12.017608,8.20320938 12.0265019,8.2033461 C13.9726527,8.21756488 15.5440577,9.76235305 15.5293757,11.6469563 C15.5146936,13.5230831 13.9344652,15.0394337 12.0006671,15.0394337 Z" id="Shape"></path>
            <path d="M16.3310308,25.7333901 C21.0259757,19.8807908 23.9600604,16.8288805 23.9996597,11.7084799 C24.0493528,5.26607474 18.6507273,0 11.9989025,0 C5.42472314,0 0.0503795447,5.15622101 0.000404036232,11.5341632 C-0.0399716571,16.7934019 2.9486061,19.8411423 7.67595039,25.7324331 C2.97309975,26.4130203 0.000404036232,28.1231702 0.000404036232,30.2149028 C0.000404036232,31.6160676 1.337743,32.873404 3.76614331,33.7552417 C5.97643017,34.5579191 8.9006327,35 12.0000319,35 C15.099431,35 18.0236335,34.5579191 20.2339204,33.7552417 C22.6623207,32.8733357 23.9996597,31.6159992 23.9996597,30.2148344 C23.9996597,28.1242639 21.0297168,26.4145242 16.3310308,25.7333901 Z M1.41207098,11.5444854 C1.45611719,5.91651546 6.19779061,1.36719017 11.9990436,1.36719017 C17.8689777,1.36719017 22.6317566,6.01481644 22.5879927,11.6982943 C22.5504405,16.5609796 19.4388298,19.5576554 14.4711372,25.8291618 C13.5850602,26.9472499 12.7713347,28.0043613 12.0010907,29.0384356 C11.2331054,28.0037461 10.4356149,26.9655702 9.53626752,25.8287516 C4.36323769,19.2946764 1.37381289,16.5244756 1.41207098,11.5444854 Z M12.0000319,33.6328782 C5.94007793,33.6328782 1.41207098,31.8283922 1.41207098,30.2149028 C1.41207098,29.0183379 4.11893651,27.5067725 8.67023713,26.9833437 C9.67631188,28.2617349 10.5583655,29.4231629 11.4234782,30.6093371 C11.5556169,30.7904898 11.7703422,30.8983611 11.9993966,30.8984978 C11.9996083,30.8984978 11.9998201,30.8984978 12.0000319,30.8984978 C12.2288745,30.8984978 12.4435292,30.7910367 12.5758796,30.6102258 C13.4328043,29.4395009 14.3389986,28.2494302 15.3364617,26.9840957 C19.8835271,27.5080713 22.5879927,29.0191582 22.5879927,30.2149711 C22.5879927,31.8283922 18.0599858,33.6328782 12.0000319,33.6328782 Z" id="Shape"></path>
        </g>
    </g>
</svg>