<?xml version="1.0" encoding="UTF-8"?>
<svg width="80px" height="80px" viewBox="0 0 80 80" version="1.1" xmlns="http://www.w3.org/2000/svg" xmlns:xlink="http://www.w3.org/1999/xlink">
    <title>Customer App Web</title>
    <defs>
        <linearGradient x1="50%" y1="0%" x2="50%" y2="100%" id="linearGradient-1">
            <stop stop-color="#4E91B1" offset="0%"></stop>
            <stop stop-color="#00557B" offset="100%"></stop>
        </linearGradient>
    </defs>
    <g id="Customer-App-Web" stroke="none" stroke-width="1" fill="none" fill-rule="evenodd">
        <rect id="Rectangle-Copy-2" fill="url(#linearGradient-1)" x="0" y="0" width="80" height="80" rx="40"></rect>
        <g id="target-copy" transform="translate(17.000000, 17.000000)" fill="#FFFFFF" fill-rule="nonzero">
            <path d="M45.1015625,22.1015625 L42.3852266,22.1015625 C42.1658281,17.2553008 40.1750703,12.7305 36.7222852,9.27771484 C33.2695,5.82492969 28.7446992,3.83417188 23.8984375,3.61477344 L23.8984375,0.8984375 C23.8984375,0.402230469 23.496207,0 23,0 C22.503793,0 22.1015625,0.402230469 22.1015625,0.8984375 L22.1015625,3.61477344 C17.2553008,3.83417188 12.7305,5.82492969 9.27771484,9.27771484 C5.82492969,12.7305 3.83417188,17.2553008 3.61477344,22.1015625 L0.8984375,22.1015625 C0.402230469,22.1015625 0,22.503793 0,23 C0,23.496207 0.402230469,23.8984375 0.8984375,23.8984375 L3.61477344,23.8984375 C3.83417188,28.7446992 5.82492969,33.2695 9.27771484,36.7222852 C12.7305,40.1750703 17.2553008,42.1658281 22.1015625,42.3852266 L22.1015625,45.1015625 C22.1015625,45.5977695 22.503793,46 23,46 C23.496207,46 23.8984375,45.5977695 23.8984375,45.1015625 L23.8984375,42.3852266 C28.7446992,42.1658281 33.2695,40.1750703 36.7222852,36.7222852 C40.1750703,33.2695 42.1658281,28.7446992 42.3852266,23.8984375 L45.1015625,23.8984375 C45.5977695,23.8984375 46,23.496207 46,23 C46,22.503793 45.5977695,22.1015625 45.1015625,22.1015625 Z M37.9140625,23.8984375 L40.5866445,23.8984375 C40.1323047,32.8948516 32.8948516,40.1323047 23.8984375,40.5866445 L23.8984375,37.9140625 C23.8984375,37.4178555 23.496207,37.015625 23,37.015625 C22.503793,37.015625 22.1015625,37.4178555 22.1015625,37.9140625 L22.1015625,40.5866445 C13.1051484,40.1323047 5.86769531,32.8948516 5.41335547,23.8984375 L8.0859375,23.8984375 C8.58214453,23.8984375 8.984375,23.496207 8.984375,23 C8.984375,22.503793 8.58214453,22.1015625 8.0859375,22.1015625 L5.41335547,22.1015625 C5.86769531,13.1051484 13.1051484,5.86769531 22.1015625,5.41335547 L22.1015625,8.0859375 C22.1015625,8.58214453 22.503793,8.984375 23,8.984375 C23.496207,8.984375 23.8984375,8.58214453 23.8984375,8.0859375 L23.8984375,5.41335547 C32.8948516,5.86769531 40.1323047,13.1051484 40.5866445,22.1015625 L37.9140625,22.1015625 C37.4178555,22.1015625 37.015625,22.503793 37.015625,23 C37.015625,23.496207 37.4178555,23.8984375 37.9140625,23.8984375 Z" id="Shape"></path>
            <path d="M27.7033203,23.8561211 C28.6888164,22.5868086 29.2890625,20.9182305 29.2890625,19.0917969 C29.2890625,15.1286094 26.4677891,11.9042969 23,11.9042969 C19.5322109,11.9042969 16.7109375,15.1286094 16.7109375,19.0917969 C16.7109375,20.9183203 17.3111836,22.5868984 18.2967695,23.8562109 C15.4721719,25.7210078 13.5664062,29.208832 13.5664062,33.1972656 C13.5664062,33.6934727 13.9686367,34.0957031 14.4648437,34.0957031 L31.5351562,34.0957031 C32.0313633,34.0957031 32.4335937,33.6934727 32.4335937,33.1972656 C32.4335937,29.2089219 30.527918,25.720918 27.7033203,23.8561211 Z M23,13.7011719 C25.4769922,13.7011719 27.4921875,16.1194062 27.4921875,19.0917969 C27.4921875,22.0641875 25.4769922,24.4824219 23,24.4824219 C20.5230078,24.4824219 18.5078125,22.0641875 18.5078125,19.0917969 C18.5078125,16.1194062 20.5230078,13.7011719 23,13.7011719 Z M15.4011953,32.2988281 C15.667582,29.1580703 17.3151367,26.4895312 19.6163047,25.1455586 C20.5940742,25.8618828 21.7548555,26.2792969 23,26.2792969 C24.2450547,26.2792969 25.4056562,25.8619727 26.3834258,25.1457383 C28.6847734,26.4897109 30.3325078,29.1579805 30.5988047,32.2988281 L15.4011953,32.2988281 Z" id="Shape"></path>
        </g>
    </g>
</svg>