<?xml version="1.0" encoding="UTF-8"?>
<svg width="80px" height="80px" viewBox="0 0 80 80" version="1.1" xmlns="http://www.w3.org/2000/svg" xmlns:xlink="http://www.w3.org/1999/xlink">
    <title>Data web</title>
    <defs>
        <linearGradient x1="50%" y1="0%" x2="50%" y2="100%" id="linearGradient-1">
            <stop stop-color="#4E91B1" offset="0%"></stop>
            <stop stop-color="#00557B" offset="100%"></stop>
        </linearGradient>
    </defs>
    <g id="Data-web" stroke="none" stroke-width="1" fill="none" fill-rule="evenodd">
        <rect id="Rectangle-Copy-2" fill="url(#linearGradient-1)" x="0" y="0" width="80" height="80" rx="40"></rect>
        <g id="wifi-(2)" transform="translate(22.745098, 25.098039)" fill="#FFFFFF" fill-rule="nonzero">
            <ellipse id="Oval" cx="17.1875206" cy="26.0220763" rx="2.22426127" ry="2.21321783"></ellipse>
            <path d="M34.1479172,7.33473802 C29.7175932,2.60495738 23.7183561,0 17.2546529,0 C10.7914888,0 4.79225175,2.60495738 0.361860307,7.33473802 C-0.145675674,7.87664105 -0.115681848,8.72544362 0.428925155,9.23052676 C0.973599559,9.73554283 1.82657006,9.70576499 2.33417344,9.16379489 C6.24887328,4.98443482 11.5477377,2.68275534 17.2551247,2.68268828 C22.9620399,2.68275534 28.2609043,4.98443482 32.1756041,9.16379489 C32.4411,9.4472209 32.8010933,9.59061437 33.1620303,9.59061437 C33.4911535,9.59061437 33.8210856,9.4713651 34.0808524,9.23052676 C34.6254594,8.72537655 34.6555206,7.87664105 34.1479172,7.33473802 Z" id="Path"></path>
            <path d="M29.1980597,12.8740869 C25.9232057,9.59087886 21.6816742,7.78281403 17.2547203,7.78294816 C12.8267553,7.78294816 8.58515644,9.59114713 5.31131345,12.874221 C4.78692701,13.400095 4.7902297,14.2493671 5.31872766,14.7711499 C5.84722562,15.2929328 6.70073533,15.2896465 7.22512177,14.7637725 C9.98893491,11.9921531 13.5508534,10.4657035 17.2547203,10.4656364 C20.9576435,10.4655023 24.519562,11.992019 27.2843862,14.7639067 C27.5479274,15.0280844 27.8945078,15.1603427 28.2412229,15.1603427 C28.5844332,15.1603427 28.927913,15.0306329 29.1909151,14.7710158 C29.7192782,14.2491659 29.7225135,13.3998938 29.1980597,12.8740869 Z" id="Path"></path>
            <path d="M23.8030129,18.4295319 C22.0492165,16.7006064 19.5353295,15.6266592 17.2421835,15.6266592 C17.2419139,15.6266592 17.2414421,15.6266592 17.2411725,15.6266592 L17.1440464,15.6266592 C17.143642,15.6266592 17.1434398,15.6266592 17.1430354,15.6266592 C14.849822,15.6266592 12.3357328,16.7006735 10.5820038,18.4295319 C10.0531689,18.9509124 10.0491922,19.8001844 10.5731742,20.3264608 C10.8367829,20.5911751 11.1837676,20.7237979 11.5308198,20.7237979 C11.873693,20.7237979 12.2167011,20.5943943 12.4795009,20.3353137 C13.7279855,19.1044963 15.5584177,18.3093475 17.1431702,18.3093475 C17.1433724,18.3093475 17.143642,18.3093475 17.1438442,18.3093475 L17.2413747,18.3093475 C17.2416443,18.3093475 17.2417117,18.3093475 17.2419813,18.3093475 C18.8265316,18.3093475 20.6570986,19.1045634 21.9054484,20.3353137 C22.4342833,20.8566271 23.2879279,20.8528713 23.8118425,20.3264608 C24.3358919,19.8002515 24.3319152,18.9509124 23.8030129,18.4295319 Z" id="Path"></path>
        </g>
    </g>
</svg>