<?xml version="1.0" encoding="UTF-8"?>
<svg width="80px" height="80px" viewBox="0 0 80 80" version="1.1" xmlns="http://www.w3.org/2000/svg" xmlns:xlink="http://www.w3.org/1999/xlink">
    <title>Delete</title>
    <defs>
        <linearGradient x1="50%" y1="0%" x2="50%" y2="100%" id="linearGradient-1">
            <stop stop-color="#4E91B1" offset="0%"></stop>
            <stop stop-color="#00557B" offset="100%"></stop>
        </linearGradient>
    </defs>
    <g id="Delete" stroke="none" stroke-width="1" fill="none" fill-rule="evenodd">
        <rect id="Rectangle-Copy-6" fill="url(#linearGradient-1)" x="0" y="0" width="80" height="80" rx="40"></rect>
        <g id="cancel-copy" transform="translate(28.000000, 28.000000)" fill="#FFFFFF" fill-rule="nonzero">
            <path d="M13.7864195,12 L23.6300517,2.15634533 C24.1233161,1.66303247 24.1233161,0.863250632 23.6300517,0.369984646 C23.1367404,-0.123328215 22.3369142,-0.123328215 21.8436498,0.369984646 L11.9999707,10.2136481 L2.15633849,0.369984646 C1.66302719,-0.123328215 0.863247892,-0.123328215 0.369983472,0.369984646 C-0.123280949,0.863297507 -0.123327824,1.66307934 0.369983472,2.15634533 L10.2136157,12 L0.369983472,21.8436722 C-0.123327824,22.3369851 -0.123327824,23.1367669 0.369983472,23.6300329 C0.863294767,24.1233458 1.66307406,24.1232989 2.15633849,23.6300329 L11.9999707,13.7863695 L21.843556,23.6300329 C22.3368673,24.1233458 23.1366935,24.1232989 23.6299579,23.6300329 C24.1232224,23.1367201 24.1232224,22.3369382 23.6299579,21.8436722 L13.7864195,12 Z" id="Path"></path>
        </g>
    </g>
</svg>