<?xml version="1.0" encoding="UTF-8"?>
<svg width="80px" height="80px" viewBox="0 0 80 80" version="1.1" xmlns="http://www.w3.org/2000/svg" xmlns:xlink="http://www.w3.org/1999/xlink">
    <title>Device insurance Web</title>
    <defs>
        <linearGradient x1="50%" y1="0%" x2="50%" y2="100%" id="linearGradient-1">
            <stop stop-color="#4E91B1" offset="0%"></stop>
            <stop stop-color="#00557B" offset="100%"></stop>
        </linearGradient>
    </defs>
    <g id="Device-insurance-Web" stroke="none" stroke-width="1" fill="none" fill-rule="evenodd">
        <rect id="Rectangle-Copy-2" fill="url(#linearGradient-1)" x="0" y="0" width="80" height="80" rx="40"></rect>
        <g id="insurance-copy" transform="translate(21.000000, 21.000000)" fill="#FFFFFF" fill-rule="nonzero">
            <path d="M19.5,9.140625 C19.079531,9.140625 18.7382809,9.481875 18.7382809,9.90234375 C18.7382809,10.3228125 19.079531,10.6640625 19.5,10.6640625 C19.920469,10.6640625 20.2617192,10.3228125 20.2617192,9.90234375 C20.2617192,9.481875 19.920469,9.140625 19.5,9.140625 Z" id="Path"></path>
            <path d="M0.375441006,18.1760566 C0.627570047,18.3244395 0.942160058,18.3152227 1.18514847,18.1525957 C3.64946228,16.5042363 7.35682558,16.4807754 9.85793043,18.083584 C9.99298323,18.2055352 10.1713779,18.2804121 10.3676729,18.2804121 C10.3704151,18.2804121 10.3731573,18.2800313 10.3758995,18.2800313 C10.5283956,18.283002 10.6815774,18.2412598 10.8140403,18.1525957 C13.2124654,16.5481875 16.2804417,16.4783379 18.7382047,17.9406094 C18.7382047,18.7033945 18.7382047,33.8878008 18.7382047,35.1914062 C18.7382047,37.2955781 20.4427036,39 22.5468005,39 C24.6468602,39 26.3553962,37.2914648 26.3553962,35.1914062 L26.3553962,32.1445312 C26.3553962,31.7239102 26.0142984,31.3828125 25.5936771,31.3828125 C25.1730558,31.3828125 24.8319579,31.7239102 24.8319579,32.1445312 L24.8319579,35.1914062 C24.8319579,36.4514414 23.8068363,37.4765625 22.5468005,37.4765625 C21.2845557,37.4765625 20.261643,36.4536504 20.261643,35.1914062 C20.261643,33.8776699 20.261643,18.6962344 20.261643,17.9406094 C22.7193299,16.4782617 25.7873823,16.5482637 28.1857312,18.1526719 C28.3140809,18.2385176 28.4617021,18.28125 28.6093232,18.28125 C28.6145029,18.28125 28.6196064,18.2802598 28.6247861,18.2801074 C28.6272998,18.2801074 28.6296611,18.2804883 28.6321748,18.2804883 C28.8283937,18.2804883 29.0067121,18.2056113 29.1417649,18.0837363 C31.6428698,16.4809277 35.3503092,16.5043887 37.8147754,18.1525957 C38.05784,18.3152227 38.3725823,18.3242871 38.6244829,18.1760566 C38.8765357,18.0278262 39.0214147,17.7483516 38.9974205,17.456918 C38.1935783,7.71042188 29.5220913,0 19.5,0 C9.48331695,0 0.806954908,7.70448047 0.00257947971,17.456918 C-0.0214146737,17.7483516 0.12346431,18.0278262 0.375441006,18.1760566 Z M20.2617192,16.2172207 L20.2617192,12.9492188 C20.2617192,12.5285977 19.9206213,12.1875 19.5,12.1875 C19.0793787,12.1875 18.7382809,12.5285977 18.7382809,12.9492188 L18.7382809,16.2172207 C16.3440452,15.0928477 13.5845652,15.0869824 11.1867495,16.2004629 C11.6786677,8.49628711 14.8792593,2.32232812 18.7382809,1.59595312 L18.7382809,6.85546875 C18.7382809,7.27608984 19.0793787,7.6171875 19.5,7.6171875 C19.9206213,7.6171875 20.2617192,7.27608984 20.2617192,6.85546875 L20.2617192,1.59595312 C24.1207408,2.32232812 27.3213323,8.49636328 27.8131744,16.2004629 C25.4154348,15.0869063 22.656031,15.0929238 20.2617192,16.2172207 Z M37.2952068,16.1489707 C36.1207882,15.646541 34.7951683,15.3768926 33.439232,15.3749121 C33.4342047,15.3749121 33.4293297,15.3749121 33.4243785,15.3749121 C31.9816063,15.3749121 30.5725782,15.6789902 29.3427064,16.2435762 C29.0603371,11.4600586 27.5985981,5.50829297 24.2291334,2.16785156 C30.8358283,3.99178711 36.132671,9.49322461 37.2952068,16.1489707 Z M14.7708666,2.16777539 C11.4007164,5.50890234 9.93973907,11.4592969 9.65721743,16.2435 C7.19777862,15.1145566 4.18152311,15.0893437 1.7047171,16.1489707 C2.86732905,9.49322461 8.16424789,3.99178711 14.7708666,2.16777539 Z" id="Shape"></path>
        </g>
    </g>
</svg>