<?xml version="1.0" encoding="UTF-8"?>
<svg width="80px" height="80px" viewBox="0 0 80 80" version="1.1" xmlns="http://www.w3.org/2000/svg" xmlns:xlink="http://www.w3.org/1999/xlink">
    <title>Disbursement Web</title>
    <defs>
        <linearGradient x1="50%" y1="0%" x2="50%" y2="100%" id="linearGradient-1">
            <stop stop-color="#4E91B1" offset="0%"></stop>
            <stop stop-color="#00557B" offset="100%"></stop>
        </linearGradient>
    </defs>
    <g id="Disbursement-Web" stroke="none" stroke-width="1" fill="none" fill-rule="evenodd">
        <rect id="Rectangle-Copy-2" fill="url(#linearGradient-1)" x="0" y="0" width="80" height="80" rx="40"></rect>
        <g id="coins-(2)-copy" transform="translate(21.000000, 24.000000)" fill="#FFFFFF" fill-rule="nonzero">
            <path d="M19,25.9047619 C18.5903125,25.9047619 18.2578125,26.2460952 18.2578125,26.6666667 C18.2578125,27.0872381 18.5903125,27.4285714 19,27.4285714 C19.4096875,27.4285714 19.7421875,27.0872381 19.7421875,26.6666667 C19.7421875,26.2460952 19.4096875,25.9047619 19,25.9047619 Z" id="Path"></path>
            <path d="M34.8150508,1.17104762 C32.9886758,0.41592381 30.6141211,0 28.1289062,0 C25.6436914,0 23.2691367,0.41592381 21.4427617,1.17104762 C20.3634727,1.61729524 19.5394219,2.16266667 19,2.77462857 C18.4605781,2.16266667 17.6365273,1.61737143 16.5572383,1.17112381 C14.7308633,0.41592381 12.3563086,0 9.87109375,0 C7.38587891,0 5.01132422,0.41592381 3.18494922,1.17104762 C1.13109375,2.02026667 0,3.22788571 0,4.57142857 L0,22.8571429 C0,24.2006857 1.13109375,25.4083048 3.18494922,26.2575238 C4.88359375,26.9598476 7.05657031,27.3682286 9.3515625,27.422019 L9.3515625,27.4285714 C9.3515625,30.0347429 13.4995,32 19,32 C24.5005,32 28.6484375,30.0347429 28.6484375,27.4285714 L28.6484375,27.422019 C30.9434297,27.3682286 33.1164062,26.9598476 34.8150508,26.2575238 C36.8689063,25.4083048 38,24.2006857 38,22.8571429 L38,4.57142857 C38,3.22788571 36.8689063,2.02026667 34.8150508,1.17104762 Z M36.5156992,18.2857143 C36.5156992,18.9361524 35.6514961,19.6974476 34.2604883,20.2726095 C32.7549609,20.8950857 30.7336875,21.2716952 28.6484375,21.3257905 L28.6484375,18.2857143 C28.6484375,18.2835048 28.6482891,18.2812952 28.6482891,18.2791619 C30.9433555,18.2254476 33.116332,17.8170667 34.815125,17.1146667 C35.481832,16.8390095 36.0505703,16.5254095 36.5156992,16.1817905 L36.5156992,18.2857143 L36.5156992,18.2857143 Z M18.2578125,9.14285714 C18.2578125,9.79329524 17.3936836,10.5545905 16.0026758,11.1297524 C14.3723125,11.8038857 12.1374375,12.1904762 9.87109375,12.1904762 C7.60475,12.1904762 5.369875,11.8038857 3.73951172,11.1297524 C2.34850391,10.5545905 1.484375,9.79329524 1.484375,9.14285714 L1.484375,7.03893333 C1.94950391,7.38255238 2.51824219,7.69615238 3.18494922,7.97180952 C5.01132422,8.72693333 7.38587891,9.14285714 9.87109375,9.14285714 C12.3563086,9.14285714 14.7308633,8.72693333 16.5572383,7.97180952 C17.2239453,7.69615238 17.7926836,7.38255238 18.2578125,7.03893333 L18.2578125,9.14285714 Z M3.18494922,12.5432381 C5.01132422,13.2983619 7.38587891,13.7142857 9.87109375,13.7142857 C12.3563086,13.7142857 14.7308633,13.2983619 16.5572383,12.5432381 C17.2239453,12.267581 17.7926836,11.953981 18.2578125,11.6103619 L18.2578125,13.7277714 C16.3377734,13.7945143 14.4964062,14.118019 13.0070586,14.6564571 C11.5132578,15.1965714 10.4383477,15.9168 9.85380078,16.7616762 C7.59339453,16.7596952 5.36571875,16.3735619 3.73951172,15.701181 C2.34850391,15.126019 1.484375,14.3647238 1.484375,13.7142857 L1.484375,11.6103619 C1.94950391,11.953981 2.51824219,12.267581 3.18494922,12.5432381 Z M1.484375,16.1817905 C1.94950391,16.5254095 2.51824219,16.8390095 3.18494922,17.1146667 C4.88366797,17.8169905 7.05671875,18.2253714 9.35178516,18.2791619 C9.35178516,18.2813714 9.35163672,18.283581 9.35163672,18.2857143 L9.35163672,21.3257905 C7.2663125,21.2716952 5.24511328,20.8950857 3.73958594,20.2726095 C2.34850391,19.6974476 1.484375,18.9361524 1.484375,18.2857143 L1.484375,16.1817905 Z M10.9144609,17.9113905 C11.4644961,16.5973333 14.6392031,15.2380952 19,15.2380952 C23.3607969,15.2380952 26.5355039,16.5973333 27.0849453,17.9098667 C27.1382344,18.0379429 27.1640625,18.1608381 27.1640625,18.2857143 C27.1640625,18.955581 26.3596055,19.6996571 25.0120898,20.2760381 C23.418168,20.9578667 21.283043,21.3333333 19,21.3333333 C16.716957,21.3333333 14.581832,20.9578667 12.9879102,20.2760381 C11.6403945,19.6996571 10.8359375,18.955581 10.8359375,18.2857143 C10.8359375,18.1608381 10.8618398,18.0379429 10.9144609,17.9113905 Z M36.515625,13.7142857 C36.515625,14.3647238 35.6514961,15.126019 34.2604883,15.701181 C32.6343555,16.3735619 30.4067539,16.7596952 28.1464219,16.7616762 C27.5623203,15.9172571 26.4872617,15.1967238 24.9929414,14.6564571 C23.5035938,14.1179429 21.6622266,13.7945143 19.7421875,13.7277714 L19.7421875,11.6103619 C20.2073164,11.953981 20.7760547,12.267581 21.4427617,12.5432381 C23.2691367,13.2983619 25.6436914,13.7142857 28.1289063,13.7142857 C30.6141211,13.7142857 32.9886758,13.2983619 34.8150508,12.5432381 C35.4817578,12.267581 36.0504961,11.953981 36.515625,11.6103619 L36.515625,13.7142857 Z M36.515625,9.14285714 C36.515625,9.79329524 35.6514961,10.5545905 34.2604883,11.1297524 C32.630125,11.8038857 30.39525,12.1904762 28.1289063,12.1904762 C25.8625625,12.1904762 23.6276875,11.8038857 21.9973242,11.1297524 C20.6063164,10.5545905 19.7421875,9.79329524 19.7421875,9.14285714 L19.7421875,7.03893333 C20.2073164,7.38255238 20.7760547,7.69615238 21.4427617,7.97180952 C23.2691367,8.72693333 25.6436914,9.14285714 28.1289063,9.14285714 C30.6141211,9.14285714 32.9886758,8.72693333 34.8150508,7.97180952 C35.4817578,7.69615238 36.0504961,7.38255238 36.515625,7.03893333 L36.515625,9.14285714 Z M21.9973242,2.58453333 C23.6276875,1.9104 25.8625625,1.52380952 28.1289063,1.52380952 C30.39525,1.52380952 32.630125,1.9104 34.2604883,2.58453333 C35.6514961,3.15969524 36.515625,3.92099048 36.515625,4.57142857 C36.515625,5.22186667 35.6514961,5.9831619 34.2604883,6.55832381 C32.630125,7.23245714 30.39525,7.61904762 28.1289063,7.61904762 C25.8625625,7.61904762 23.6276875,7.23245714 21.9973242,6.55832381 C20.6063164,5.9831619 19.7421875,5.22186667 19.7421875,4.57142857 C19.7421875,3.92099048 20.6063164,3.15969524 21.9973242,2.58453333 Z M3.73951172,2.58453333 C5.369875,1.9104 7.60475,1.52380952 9.87109375,1.52380952 C12.1374375,1.52380952 14.3723125,1.9104 16.0026758,2.58453333 C17.3936836,3.15969524 18.2578125,3.92099048 18.2578125,4.57142857 C18.2578125,5.22186667 17.3936836,5.9831619 16.0026758,6.55832381 C14.3723125,7.23245714 12.1374375,7.61904762 9.87109375,7.61904762 C7.60475,7.61904762 5.369875,7.23245714 3.73951172,6.55832381 C2.34850391,5.9831619 1.484375,5.22186667 1.484375,4.57142857 C1.484375,3.92099048 2.34850391,3.15969524 3.73951172,2.58453333 Z M3.73951172,24.8440381 C2.34850391,24.2688762 1.484375,23.507581 1.484375,22.8571429 L1.484375,20.753219 C1.94950391,21.0968381 2.51824219,21.4104381 3.18494922,21.6860952 C4.88359375,22.388419 7.05657031,22.7968 9.3515625,22.8505905 L9.3515625,25.8972952 C7.26623828,25.8431238 5.24503906,25.4665905 3.73951172,24.8440381 Z M25.0120898,29.4188952 C23.418168,30.1007238 21.283043,30.4761905 19,30.4761905 C16.716957,30.4761905 14.581832,30.1007238 12.9879102,29.4188952 C11.6403945,28.8425143 10.8359375,28.0984381 10.8359375,27.4285714 L10.8359375,25.3690667 C11.004043,25.4939429 11.1898125,25.6180571 11.3958438,25.740419 C12.5483867,26.4250667 14.1165547,26.9315048 15.9309063,27.2048762 C15.9674961,27.2103619 16.0037148,27.2130286 16.0396367,27.2130286 C16.4018242,27.2130286 16.7188125,26.9404952 16.7729922,26.5616762 C16.8325156,26.1453714 16.5519688,25.7583238 16.1465117,25.697219 C12.6971953,25.1773714 10.8359375,23.846019 10.8359375,22.8571429 L10.8359375,20.7908571 C12.5158047,22.0527238 15.4810664,22.8571429 19,22.8571429 C22.5189336,22.8571429 25.4841953,22.0527238 27.1640625,20.7908571 L27.1640625,22.8571429 C27.1640625,23.846019 25.3028047,25.1773714 21.8534883,25.697219 C21.447957,25.7583238 21.1674102,26.1453714 21.2270078,26.5616762 C21.2811875,26.9405714 21.5981758,27.2130286 21.9603633,27.2130286 C21.9962109,27.2130286 22.0325781,27.2103619 22.0690938,27.2048762 C23.8833711,26.9315048 25.4515391,26.4251429 26.6041563,25.740419 C26.8101133,25.6180571 26.995957,25.4939429 27.1640625,25.3690667 L27.1640625,27.4285714 C27.1640625,28.0984381 26.3596055,28.8425143 25.0120898,29.4188952 Z M34.2604883,24.8440381 C32.7549609,25.4665143 30.7336875,25.8431238 28.6484375,25.897219 L28.6484375,22.8505143 C30.9434297,22.7967238 33.1164062,22.3883429 34.8150508,21.686019 C35.4817578,21.4103619 36.0504961,21.0967619 36.515625,20.7531429 L36.515625,22.8571429 C36.515625,23.507581 35.6514961,24.2688762 34.2604883,24.8440381 Z" id="Shape"></path>
        </g>
    </g>
</svg>