<?xml version="1.0" encoding="UTF-8"?>
<svg width="80px" height="80px" viewBox="0 0 80 80" version="1.1" xmlns="http://www.w3.org/2000/svg" xmlns:xlink="http://www.w3.org/1999/xlink">
    <title>Documentation Web</title>
    <defs>
        <linearGradient x1="50%" y1="0%" x2="50%" y2="100%" id="linearGradient-1">
            <stop stop-color="#4E91B1" offset="0%"></stop>
            <stop stop-color="#00557B" offset="100%"></stop>
        </linearGradient>
    </defs>
    <g id="Documentation-Web" stroke="none" stroke-width="1" fill="none" fill-rule="evenodd">
        <rect id="Rectangle-Copy-2" fill="url(#linearGradient-1)" x="0" y="0" width="80" height="80" rx="40"></rect>
        <g id="file" transform="translate(26.000000, 23.000000)" fill="#FFFFFF" fill-rule="nonzero">
            <path d="M27.3427727,4.50598729 L24.4427593,4.50598729 L24.4427593,1.63857102 C24.4428264,0.737307154 23.6970204,0 22.7860021,0 L1.65709297,0 C0.745671687,0 1.90878718e-15,0.737307154 1.90878718e-15,1.63857102 L1.90878718e-15,27.8553753 C1.90878718e-15,28.7565727 0.745671687,29.4939463 1.65716013,29.4939463 L4.55717356,29.4939463 L4.55717356,32.361429 C4.55717356,33.2626264 5.30250945,34 6.21433369,34 L20.2996239,34 C21.2106422,34 22.4999027,33.4945166 23.1631697,32.8772053 L27.7924054,28.5686434 C28.4564783,27.9513321 28.9991941,26.7084752 28.9991941,25.8072777 L29,6.14469112 C29,5.24336085 28.254194,4.50598729 27.3427727,4.50598729 Z M4.55703924,6.14462472 L4.55703924,28.2650346 L1.65709297,28.2650346 C1.43257883,28.2650346 1.24285331,28.0774373 1.24285331,27.8554417 L1.24285331,1.63857102 C1.24285331,1.41657536 1.43257883,1.22897807 1.65709297,1.22897807 L22.7860693,1.22897807 C23.0101805,1.22897807 23.2003089,1.41657536 23.2003089,1.63857102 L23.2003089,4.5060537 L6.21419937,4.5060537 C5.30237513,4.5060537 4.55703924,5.24336085 4.55703924,6.14462472 Z M26.9405546,27.6738874 L22.3113189,31.9821172 C22.2164897,32.0702381 22.0929835,32.1566325 21.9566497,32.2389097 L21.9566497,28.4698311 C21.9566497,28.188402 22.0714253,27.9351954 22.2607478,27.7468013 C22.4517494,27.5596024 22.7077613,27.4457823 22.9923832,27.4457823 L27.1373319,27.4457823 C27.0730602,27.5321103 27.007244,27.6115984 26.9405546,27.6738874 Z M27.7562065,25.8071449 C27.7562065,25.9288009 27.7337752,26.0697147 27.6998597,26.2167379 L22.992316,26.2167379 C21.7350234,26.2191949 20.7162813,27.2265093 20.7137293,28.4697647 L20.7137293,32.7213502 C20.5658441,32.7509009 20.4233317,32.7709555 20.2994896,32.7709555 L6.21419937,32.7709555 L6.21419937,32.7709555 C5.98921511,32.7709555 5.7999597,32.5833582 5.7999597,32.3613626 L5.7999597,6.14455831 C5.7999597,5.92256265 5.98928227,5.73496536 6.21419937,5.73496536 L27.3427056,5.73496536 C27.5672197,5.73496536 27.7569452,5.92256265 27.7569452,6.14455831 L27.7562065,25.8071449 Z" id="Shape"></path>
            <path d="M22.7860021,10.2408862 L10.7717759,10.2408862 C10.4283223,10.2408862 10.1503492,10.5157412 10.1503492,10.8553421 C10.1503492,11.194943 10.4283895,11.4697979 10.7717759,11.4697979 L22.7860021,11.4697979 C23.1290527,11.4697979 23.4074288,11.194943 23.4074288,10.8553421 C23.4074288,10.5157412 23.1290527,10.2408862 22.7860021,10.2408862 Z" id="Path"></path>
            <path d="M22.7860021,18.4336749 L10.7717759,18.4336749 C10.4283223,18.4336749 10.1503492,18.7085299 10.1503492,19.0481308 C10.1503492,19.3877317 10.4283895,19.6625866 10.7717759,19.6625866 L22.7860021,19.6625866 C23.1290527,19.6625866 23.4074288,19.3877317 23.4074288,19.0481308 C23.4074288,18.7084635 23.1290527,18.4336749 22.7860021,18.4336749 Z" id="Path"></path>
            <path d="M17.4003492,22.5300693 L10.771843,22.5300693 C10.4283895,22.5300693 10.1504164,22.8049242 10.1504164,23.1445251 C10.1504164,23.484126 10.4283895,23.7589809 10.771843,23.7589809 L17.4003492,23.7589809 C17.7433998,23.7589809 18.0213729,23.484126 18.0213729,23.1445251 C18.0213729,22.8049242 17.7433998,22.5300693 17.4003492,22.5300693 Z" id="Path"></path>
            <path d="M22.7860021,14.3372806 L10.7717759,14.3372806 C10.4283223,14.3372806 10.1503492,14.6121355 10.1503492,14.9517364 C10.1503492,15.2913373 10.4283895,15.5661923 10.7717759,15.5661923 L22.7860021,15.5661923 C23.1290527,15.5661923 23.4074288,15.2913373 23.4074288,14.9517364 C23.4074288,14.6121355 23.1290527,14.3372806 22.7860021,14.3372806 Z" id="Path"></path>
        </g>
    </g>
</svg>