<?xml version="1.0" encoding="UTF-8"?>
<svg width="80px" height="80px" viewBox="0 0 80 80" version="1.1" xmlns="http://www.w3.org/2000/svg" xmlns:xlink="http://www.w3.org/1999/xlink">
    <title>Earn commission on airtime, data &amp; prepaid electricity sales Web</title>
    <defs>
        <linearGradient x1="50%" y1="0%" x2="50%" y2="100%" id="linearGradient-1">
            <stop stop-color="#4E91B1" offset="0%"></stop>
            <stop stop-color="#00557B" offset="100%"></stop>
        </linearGradient>
    </defs>
    <g id="Earn-commission-on-airtime,-data-&amp;-prepaid-electricity-sales-Web" stroke="none" stroke-width="1" fill="none" fill-rule="evenodd">
        <rect id="Rectangle-Copy-2" fill="url(#linearGradient-1)" x="0" y="0" width="80" height="80" rx="40"></rect>
        <g id="save-money-(3)-copy-2" transform="translate(22.000000, 21.000000)" fill="#FFFFFF" fill-rule="nonzero">
            <path d="M19.5007904,14.6603775 C19.4209916,14.6424461 19.3391201,14.6392184 19.258285,14.6517704 C18.4482067,14.5538648 17.8371071,13.8423457 17.8357252,12.9959823 C17.8357252,12.5903734 17.5189483,12.261511 17.1282452,12.261511 C16.7375423,12.261511 16.4207653,12.5903734 16.4207653,12.9959823 C16.422838,14.4093375 17.3334421,15.6473233 18.646149,16.021373 L18.646149,16.7558443 C18.646149,17.1614532 18.9629259,17.4903156 19.353629,17.4903156 C19.744332,17.4903156 20.0611089,17.1614532 20.0611089,16.7558443 L20.0611089,16.0658429 C21.5762491,15.7366219 22.6060331,14.2716241 22.4467811,12.6732166 C22.2871835,11.074809 20.9900218,9.86013403 19.442064,9.85977542 C18.5549504,9.85977542 17.8357252,9.11311068 17.8357252,8.19215249 C17.8357252,7.27119431 18.5549504,6.52452966 19.442064,6.52452966 C20.3291775,6.52452966 21.0484027,7.27119431 21.0484027,8.19215249 C21.0484027,8.59776144 21.3651796,8.92662382 21.7558827,8.92662382 C22.1465856,8.92662382 22.4633626,8.59776144 22.4633626,8.19215249 C22.4612899,6.70814749 21.4598326,5.42820213 20.0611089,5.12193328 L20.0611089,4.45344961 C20.0611089,4.04784067 19.744332,3.71897829 19.353629,3.71897829 C18.9629259,3.71897829 18.646149,4.04784067 18.646149,4.45344961 L18.646149,5.16676183 C17.1862807,5.58061925 16.2466589,7.05207232 16.4477104,8.60923755 C16.6487618,10.1664028 17.9286511,11.3287181 19.442064,11.3283594 C20.3174322,11.3283594 21.0314757,12.0560168 21.0473664,12.964423 C21.0636024,13.8728291 20.3754676,14.6273837 19.5007904,14.6603775 L19.5007904,14.6603775 Z" id="Path"></path>
            <path d="M9.18291387,10.6505514 C9.18291387,16.5327773 13.7760063,21.3011028 19.442064,21.3011028 C25.1081216,21.3011028 29.701214,16.5327773 29.701214,10.6505514 C29.701214,4.76832555 25.1081216,0 19.442064,0 C13.7787699,0.00645526847 9.18947743,4.77119458 9.18291387,10.6505514 Z M19.442064,1.46894265 C24.3267155,1.46894265 28.2862542,5.57954334 28.2862542,10.6505514 C28.2862542,15.7215595 24.3267155,19.8321602 19.442064,19.8321602 C14.5574124,19.8321602 10.5978738,15.7215595 10.5978738,10.6505514 C10.6034009,5.58205376 14.5598306,1.4746807 19.442064,1.46894265 Z" id="Shape"></path>
            <path d="M33.1888691,23.1118186 L27.6468277,25.8302232 C26.8816577,24.3526734 25.4138441,23.4123493 23.7985237,23.3650103 L18.6824212,23.2190485 C17.8723428,23.1950204 17.0774643,22.981995 16.3572026,22.595752 L15.8366108,22.3156631 C13.1711248,20.8732589 9.99402866,20.8768453 7.33130621,22.3249874 L7.36377848,21.1006295 C7.37448743,20.6950206 7.06669218,20.3571924 6.67598912,20.346075 L1.06589428,20.185768 C0.675191313,20.1746505 0.350123559,20.4941886 0.339414612,20.8997975 L0.000257805877,33.6806027 C-0.0101798799,34.0862116 0.297615282,34.4240397 0.688318338,34.4351572 L6.29841318,34.5954642 L6.31775833,34.5954642 C6.70120689,34.5954642 7.01487484,34.2787951 7.02523828,33.8810761 L7.04147441,33.2696144 L8.49892456,32.4594724 C9.07098842,32.1399343 9.73977805,32.063905 10.3646956,32.2475229 L19.0679425,34.7833855 C19.0831422,34.7880477 19.098342,34.791634 19.1138873,34.7952203 C19.7429502,34.9318577 20.3841039,35.0003558 21.0266394,34.9999986 C22.3877092,35.0007144 23.7328883,34.6962388 24.9699419,34.1066534 C25.0003415,34.0923083 25.0297046,34.0754528 25.057686,34.0564454 L37.6765994,25.5827694 C37.9909582,25.3715372 38.0925202,24.942976 37.9083958,24.6044307 C36.9715376,22.8787099 34.8936607,22.2213438 33.1888691,23.1118186 L33.1888691,23.1118186 Z M1.43448859,32.987015 L1.73433848,21.6744352 L5.92981887,21.7942171 L5.62996898,33.1071555 L1.43448859,32.987015 Z M24.3325881,32.7947901 C22.7956847,33.5149163 21.0791477,33.7135965 19.4272096,33.3632164 L10.7474533,30.8338091 C9.77052301,30.5472648 8.72484829,30.6659709 7.83117121,31.1648232 L7.08638276,31.5790392 L7.28570701,24.0575221 C9.64581587,22.4279138 12.6726416,22.2604343 15.1861299,23.6199952 L15.7067219,23.9000841 C16.616635,24.387819 17.6201649,24.6567905 18.6437309,24.6876325 L23.7601788,24.8335943 C25.1972475,24.8766298 26.4177194,25.9388877 26.7092785,27.4006576 L19.088324,27.1822529 C18.6976209,27.1711353 18.3725533,27.4910321 18.3614989,27.8962824 C18.3507899,28.3018913 18.6589306,28.6397194 19.0492882,28.6508369 L27.4595942,28.8911181 L27.4792848,28.8911181 C27.862388,28.8907594 28.1757104,28.5740903 28.1860738,28.17673 C28.1947101,27.8575505 28.1719105,27.5380124 28.117675,27.2238538 L33.8020413,24.4355167 C33.8075685,24.4330062 33.8130957,24.4301372 33.8186229,24.4272682 C34.6249013,24.0037278 35.5997589,24.1453861 36.2630213,24.7826691 L24.3325881,32.7947901 Z" id="Shape"></path>
        </g>
    </g>
</svg>