<?xml version="1.0" encoding="UTF-8"?>
<svg width="80px" height="80px" viewBox="0 0 80 80" version="1.1" xmlns="http://www.w3.org/2000/svg" xmlns:xlink="http://www.w3.org/1999/xlink">
    <title>Edit web</title>
    <defs>
        <linearGradient x1="50%" y1="0%" x2="50%" y2="100%" id="linearGradient-1">
            <stop stop-color="#4E91B1" offset="0%"></stop>
            <stop stop-color="#00557B" offset="100%"></stop>
        </linearGradient>
    </defs>
    <g id="Edit-web" stroke="none" stroke-width="1" fill="none" fill-rule="evenodd">
        <rect id="Rectangle-Copy-2" fill="url(#linearGradient-1)" x="0" y="0" width="80" height="80" rx="40"></rect>
        <path d="M50.6273888,28.3502091 C49.0936405,26.816597 46.6070523,26.816597 45.073304,28.3502091 L29.5033213,43.91881 C29.3966169,44.0255049 29.3195715,44.1577658 29.2793443,44.30298 L27.2318466,51.6942476 C27.1476421,51.9972885 27.2332102,52.3218048 27.4554827,52.5443984 C27.6780961,52.7666512 28.0026412,52.8522117 28.305709,52.7683556 L35.6976327,50.7206987 C35.8428597,50.680475 35.9751323,50.6034366 36.0818368,50.4967415 L51.6514785,34.9277998 C53.1828405,33.393165 53.1828405,30.9088428 51.6514785,29.374208 L50.6273888,28.3502091 Z M31.4049101,44.4860317 L44.1477368,31.743995 L48.2573914,35.8532848 L35.5142237,48.5953215 L31.4049101,44.4860317 Z M30.584002,46.1331564 L33.8672938,49.4164977 L29.3257079,50.6746801 L30.584002,46.1331564 Z M50.417389,33.6938198 L49.4918219,34.6193048 L45.3818265,30.5096741 L46.3077345,29.5841891 C47.1596653,28.7323338 48.5410275,28.7323338 49.3929583,29.5841891 L50.417389,30.608188 C51.2679563,31.4610659 51.2679563,32.8412828 50.417389,33.6938198 L50.417389,33.6938198 Z" id="Shape" stroke="#267295" stroke-width="0.5" fill="#FFFFFF" fill-rule="nonzero"></path>
    </g>
</svg>