<?xml version="1.0" encoding="UTF-8"?>
<svg width="80px" height="80px" viewBox="0 0 80 80" version="1.1" xmlns="http://www.w3.org/2000/svg" xmlns:xlink="http://www.w3.org/1999/xlink">
    <title>Everyday gigs web</title>
    <defs>
        <linearGradient x1="50%" y1="0%" x2="50%" y2="100%" id="linearGradient-1">
            <stop stop-color="#4E91B1" offset="0%"></stop>
            <stop stop-color="#00557B" offset="100%"></stop>
        </linearGradient>
    </defs>
    <g id="Everyday-gigs-web" stroke="none" stroke-width="1" fill="none" fill-rule="evenodd">
        <rect id="Rectangle-Copy-2" fill="url(#linearGradient-1)" x="0" y="0" width="80" height="80" rx="40"></rect>
        <g id="worldwide" transform="translate(22.400000, 22.400000)" fill="#FFFFFF" fill-rule="nonzero">
            <path d="M31.8969063,7.33459375 C32.2445063,6.8578125 32.4503438,6.271375 32.4503438,5.6375 C32.4503438,4.04531875 31.155025,2.75 29.5628438,2.75 C28.9289687,2.75 28.3425313,2.9558375 27.86575,3.3034375 C24.8635063,1.1408375 21.326525,0 17.6,0 C13.9443563,0 10.4388625,1.11045 7.46233125,3.21124375 C7.15213125,3.4302125 7.07815625,3.85914375 7.297125,4.1694125 C7.51609375,4.4796125 7.94509375,4.5535875 8.25529375,4.33461875 C10.2435438,2.93129375 12.4884375,2.0079125 14.8565313,1.60565625 C14.5809125,1.95586875 14.3039875,2.377375 14.0307063,2.885025 C13.1966313,4.43458125 12.5083063,6.5685125 12.0285,9.0833875 C10.76625,9.1741375 9.72640625,10.0791625 9.43311875,11.275 L2.65423125,11.275 C3.05380625,10.3318188 3.54413125,9.4238375 4.12286875,8.56260625 C4.33461875,8.24745625 4.25074375,7.8203125 3.93559375,7.6085625 C3.62044375,7.39674375 3.1933,7.48061875 2.98155,7.79576875 C1.030975,10.6986688 0,14.0889375 0,17.6 C0,21.3252188 1.14090625,24.8630938 3.30323125,27.8656813 C2.95576875,28.3423938 2.75,28.9287625 2.75,29.5625 C2.75,31.1546813 4.04531875,32.45 5.6375,32.45 C6.27130625,32.45 6.857675,32.2442313 7.3343875,31.8967 C10.3368375,34.0591625 13.8744375,35.2 17.6,35.2 C22.301125,35.2 26.7208563,33.3692562 30.045125,30.0450563 C33.3692562,26.720925 35.2,22.301125 35.2,17.6 C35.2,13.8738875 34.0593,10.3369063 31.8969063,7.33459375 Z M33.0518375,22.55 L25.7205437,22.55 C25.485075,21.5899062 24.768425,20.8174312 23.8417437,20.5029688 C23.8959875,19.5478938 23.925,18.5747375 23.925,17.6 C23.925,15.9000875 23.8426375,14.23675 23.6838937,12.6500688 L33.0603625,12.6500688 C33.5654687,14.230975 33.825,15.8939688 33.825,17.6 C33.825,19.325625 33.5531625,20.9887563 33.0518375,22.55 L33.0518375,22.55 Z M17.6,33.825 C16.4480937,33.825 15.201725,32.1489438 14.2659,29.3415375 C13.7414062,27.7679187 13.3356437,25.9296812 13.0618125,23.9250687 L20.1121937,23.9250687 C20.3323312,24.8225312 20.9726687,25.5565062 21.8123125,25.905275 C20.7664187,31.3698688 18.9629687,33.825 17.6,33.825 L17.6,33.825 Z M5.6375,26.675 C5.17776875,26.675 4.7430625,26.7835563 4.35689375,26.9755063 C3.67324375,26.013075 3.1029625,24.9918625 2.6503125,23.925 L11.6755375,23.925 C11.9612625,26.0883563 12.3948687,28.0766063 12.9614375,29.7763125 C13.5062125,31.410775 14.1406375,32.6893188 14.8473187,33.5940688 C12.4658875,33.1901625 10.2187937,32.2598375 8.22449375,30.843175 C8.41644375,30.4569375 8.525,30.0222313 8.525,29.5625 C8.525,27.9703188 7.22968125,26.675 5.6375,26.675 L5.6375,26.675 Z M12.65,17.6 C12.65,16.6619063 12.6775,15.725875 12.7290625,14.8072375 C13.8617188,14.6119188 14.7703188,13.7551563 15.0413313,12.65 L22.3022938,12.65 C22.4653,14.2307 22.55,15.8949313 22.55,17.6 C22.55,18.535 22.5226375,19.4682125 22.47135,20.384375 C21.3169,20.5637438 20.3869875,21.4295812 20.1121937,22.55 L12.8976375,22.55 C12.7347688,20.9693688 12.65,19.3051375 12.65,17.6 Z M22.9163688,24.75 C22.0823625,24.75 21.4038688,24.0715063 21.4038688,23.2375 C21.4038688,22.4034938 22.0823625,21.725 22.9163688,21.725 C23.750375,21.725 24.4288688,22.4034938 24.4288688,23.2375 C24.4288688,24.0715063 23.750375,24.75 22.9163688,24.75 Z M22.2385625,5.4236875 C21.6937187,3.78915625 21.0592937,2.51054375 20.3525437,1.60579375 C22.7343875,2.0097 24.9814813,2.9398875 26.97585,4.356825 C26.7839,4.7430625 26.6753438,5.17776875 26.6753438,5.6375 C26.6753438,7.22968125 27.9706625,8.525 29.5628438,8.525 C30.022575,8.525 30.4572125,8.41644375 30.84345,8.2245625 C31.5271688,9.186925 32.0972438,10.208275 32.549825,11.2750687 L23.5244625,11.2750687 C23.2387375,9.11164375 22.8050625,7.12339375 22.2385625,5.4236875 Z M31.0753437,5.6375 C31.0753437,6.47150625 30.39685,7.15 29.5628437,7.15 C28.7288375,7.15 28.0503438,6.47150625 28.0503438,5.6375 C28.0503438,4.80349375 28.7288375,4.125 29.5628437,4.125 C30.39685,4.125 31.0753437,4.80349375 31.0753437,5.6375 Z M17.6,1.375 C18.7519062,1.375 19.998275,3.05105625 20.9341,5.8584625 C21.4585937,7.43208125 21.8643563,9.2703875 22.1381875,11.275 L15.0414,11.275 C14.8250437,10.3928688 14.20265,9.6688625 13.3841813,9.31315 C14.4291813,3.835975 16.23435,1.375 17.6,1.375 Z M12.237225,10.4500687 C13.0712313,10.4500687 13.749725,11.1285625 13.749725,11.9625687 C13.749725,12.796575 13.0712313,13.4750687 12.237225,13.4750687 C11.4032188,13.4750687 10.724725,12.796575 10.724725,11.9625687 C10.724725,11.1285625 11.4032188,10.4500687 12.237225,10.4500687 Z M9.43311875,12.6500687 C9.6724375,13.6258375 10.4086125,14.4082125 11.3573625,14.7125 C11.3037375,15.6624875 11.275,16.63035 11.275,17.6 C11.275,19.2999812 11.3573625,20.9633187 11.5161062,22.55 L2.13998125,22.55 C1.6347375,20.9688187 1.375,19.3057562 1.375,17.6 C1.375,15.902975 1.63659375,14.2368875 2.14410625,12.6500687 L9.43311875,12.6500687 Z M4.125,29.5625 C4.125,28.7284938 4.80349375,28.05 5.6375,28.05 C6.47150625,28.05 7.15,28.7284938 7.15,29.5625 C7.15,30.3965063 6.47150625,31.075 5.6375,31.075 C4.80349375,31.075 4.125,30.3965063 4.125,29.5625 Z M20.3456688,33.591525 C20.6188813,33.2439938 20.8934,32.826475 21.1643438,32.324325 C22.0009625,30.7735313 22.6914875,28.63465 23.172325,26.1130375 C24.4133313,26.00345 25.4309688,25.1059188 25.7205438,23.925 L32.5411625,23.925 C30.4157563,28.9267 25.8492438,32.6494438 20.3456688,33.591525 L20.3456688,33.591525 Z" id="XMLID_196_"></path>
            <path d="M5.504125,6.466625 C5.68569375,6.466625 5.8623125,6.39375 5.990875,6.2651875 C6.11875,6.1373125 6.191625,5.9599375 6.191625,5.779125 C6.191625,5.5983125 6.11875,5.421625 5.990875,5.2930625 C5.8623125,5.1651875 5.68569375,5.091625 5.504125,5.091625 C5.3233125,5.091625 5.1459375,5.1651875 5.01813125,5.2930625 C4.89025625,5.421625 4.816625,5.5983125 4.816625,5.779125 C4.816625,5.9599375 4.8901875,6.1373125 5.01813125,6.2651875 C5.1459375,6.39375 5.3233125,6.466625 5.504125,6.466625 Z" id="XMLID_1702_"></path>
        </g>
    </g>
</svg>