<?xml version="1.0" encoding="UTF-8"?>
<svg width="80px" height="80px" viewBox="0 0 80 80" version="1.1" xmlns="http://www.w3.org/2000/svg" xmlns:xlink="http://www.w3.org/1999/xlink">
    <title>Facilitate cash transactions Web</title>
    <defs>
        <linearGradient x1="50%" y1="0%" x2="50%" y2="100%" id="linearGradient-1">
            <stop stop-color="#4E91B1" offset="0%"></stop>
            <stop stop-color="#00557B" offset="100%"></stop>
        </linearGradient>
    </defs>
    <g id="Facilitate-cash-transactions-Web" stroke="none" stroke-width="1" fill="none" fill-rule="evenodd">
        <rect id="Rectangle-Copy-2" fill="url(#linearGradient-1)" x="0" y="0" width="80" height="80" rx="40"></rect>
        <g id="money-(5)-copy" transform="translate(19.000000, 18.000000)" fill="#FFFFFF" fill-rule="nonzero">
            <path d="M40.9852015,11.5233738 C40.9215396,11.001962 40.6580724,10.5366874 40.2433882,10.2133977 L27.6769817,0.415243531 C26.8228381,-0.250715748 25.5831953,-0.0994414482 24.9137834,0.752787826 L12.7401723,16.2541192 L4.66256986,21.6555487 C4.6624095,21.6556287 4.66224914,21.6557889 4.66200861,21.655869 L2.43231934,23.1469098 L0.875168942,24.188212 C0.847747829,24.2065507 0.820887967,24.22545 0.794669535,24.2449899 C0.400751616,24.5371279 0.133355676,24.9589181 0.0377826738,25.4425314 C-0.0638839088,25.9572164 0.0412303576,26.48039 0.333722229,26.915714 L0.334764552,26.9172356 C0.334764552,26.9173157 0.334844731,26.9173957 0.33492491,26.9174758 L2.22080794,29.7242587 L2.87410393,30.6966105 L6.67914416,36.3597469 C6.67914416,36.3597469 6.67922434,36.359827 6.67922434,36.3599071 L7.31047119,37.2994254 L9.21271068,40.1305532 C9.59187572,40.6948888 10.2156659,41 10.8505208,41 C11.2272003,41 11.6078888,40.8925304 11.9437573,40.6679813 L11.94496,40.6671805 C11.9451204,40.6670204 11.9453609,40.6669403 11.9455212,40.6668602 L15.6428013,38.1944984 L17.2760413,39.4678772 C17.6349211,39.7476026 18.0616321,39.8831808 18.4855369,39.8831808 C19.0710017,39.8831808 19.6510945,39.6245971 20.0393198,39.1303329 L26.4492855,30.9682476 L35.7942725,24.7193137 C35.8065399,24.7122665 35.8192081,24.7064205 35.8311547,24.6984925 L39.6180746,22.1660694 C40.0560908,21.8732107 40.3534736,21.4277163 40.4553807,20.9118301 C40.5570473,20.3971451 40.451933,19.8739714 40.1594411,19.4386474 L40.1573565,19.4356043 C40.1570358,19.4352039 40.1567952,19.4347234 40.1565547,19.434323 L38.0128972,16.2438687 L40.5800585,12.9749344 C40.9050228,12.560752 41.0490237,12.0453462 40.9852015,11.5233738 L40.9852015,11.5233738 Z M5.29894814,26.4768664 C5.06282189,27.6717652 4.43847041,28.726521 3.51946223,29.5013113 L1.60928505,26.6584116 L1.33347035,26.2478328 C1.21969679,26.07846 1.17872547,25.8748123 1.21833375,25.674528 C1.25305112,25.4988288 1.34597823,25.3441911 1.48284326,25.2318365 C1.50240686,25.2158201 1.5229326,25.2006046 1.54426013,25.1863501 L2.62354552,24.4646539 L4.80440597,23.0063665 C5.35908216,24.0709724 5.53491404,25.2826083 5.29894814,26.4768664 Z M11.2752274,39.6692026 C10.9230826,39.9037618 10.4460995,39.8104667 10.2112561,39.4609101 L10.1849575,39.4217502 L8.03207943,36.2175219 C10.2322629,35.0781998 12.9483162,35.6057779 14.5452352,37.4825722 L11.2752274,39.6692026 Z M19.0928905,38.3887766 C18.8319088,38.7210355 18.3488322,38.780376 18.0160104,38.5208312 L16.6949061,37.4907406 L23.230111,33.1206831 L19.0928905,38.3887766 Z M35.1940549,19.8772548 C35.4301811,18.682356 36.0545326,17.6275201 36.9735408,16.8527298 L39.1585705,20.1048469 C39.2717026,20.2740595 39.3123532,20.4771467 39.2728251,20.6769505 C39.2331367,20.8777953 39.1174388,21.0511722 38.9468988,21.1652085 L35.687234,23.3449518 C35.1336803,22.2810667 34.9583295,21.0704719 35.1940549,19.8772548 L35.1940549,19.8772548 Z M39.6335491,12.2334581 L37.3078859,15.1947987 L31.2786086,6.22116557 C30.6743819,5.32184827 29.4491713,5.0808024 28.5474818,5.6837374 L23.2196076,9.24641133 C22.5735277,9.67853209 23.2425387,10.6763499 23.888779,10.2446295 L24.9413649,9.54071151 C26.2093909,11.0987007 28.0918262,11.9346734 30.0072952,11.9346734 C31.07287,11.9346734 32.1482267,11.6749685 33.1340237,11.1383411 L36.3004406,15.850988 C35.1168428,16.8081243 34.3124901,18.1346774 34.014065,19.6445374 C33.7159607,21.1526357 33.9544121,22.6830767 34.6833166,24.0160363 L25.6952049,30.0263268 C25.694323,30.0269675 25.6933608,30.0275281 25.6924789,30.0281687 L15.5486715,36.8113276 C13.5749928,34.3889367 10.1158435,33.7149693 7.35889912,35.2158602 L4.19232182,30.502973 C5.37591969,29.5458367 6.18027234,28.2192837 6.47869743,26.7094236 C6.77696217,25.2002843 6.53802966,23.6688022 5.80784231,22.3351218 L21.095193,12.1125348 C21.7411927,11.680414 21.0721015,10.682356 20.4260216,11.1143166 L15.9590261,14.1013634 L25.8601325,1.49418405 C26.121034,1.16200523 26.6040304,1.10258462 26.9370125,1.36220944 L39.5033389,11.1602835 C39.6644179,11.2858516 39.7666457,11.4664358 39.7914209,11.6689623 C39.8161961,11.8718092 39.7601512,12.0722537 39.6335491,12.2334581 L39.6335491,12.2334581 Z M29.2166531,6.68571942 C29.5691187,6.45019919 30.0467431,6.54341427 30.2818271,6.89329114 L31.3834021,8.53272336 L32.4610839,10.1366794 C30.2608202,11.2760015 27.544767,10.7484234 25.9479282,8.87162905 L29.2166531,6.68571942 Z" id="Shape"></path>
            <path d="M15.8468561,16.6277803 C14.0935886,17.8002563 12.9030954,19.5838355 12.4947453,21.6501031 C12.0865556,23.7154097 12.5088567,25.8158722 13.6837953,27.5644557 C14.862823,29.3192857 16.6567411,30.5083385 18.735053,30.9125908 C19.4744609,31.0562574 19.7153177,29.8795371 18.9649253,29.7334681 C17.2028381,29.3907185 15.6820087,28.3827304 14.6824209,26.8950529 C13.6866016,25.4130613 13.3286839,23.6329256 13.6746549,21.8825802 C14.0207062,20.1314341 15.029755,18.619652 16.5160275,17.6258383 C19.5836642,15.5744659 23.7524752,16.3957036 25.8088983,19.4563455 C26.8047177,20.9384172 27.1625552,22.7185529 26.8166643,24.4688983 C26.4705329,26.2200444 25.461484,27.7317464 23.9752918,28.72548 C23.3903882,29.1165989 22.7540901,29.4116999 22.0838764,29.6025346 C21.3361299,29.8153917 21.6659049,30.9704899 22.4136514,30.7577129 C23.204534,30.5324431 23.9550868,30.1845683 24.644383,29.7236181 C26.3976505,28.5511422 27.5881437,26.767643 27.9964938,24.7014555 C28.4046835,22.6360688 27.9823823,20.5356063 26.8074438,18.7869427 C24.3818779,15.1771006 19.4651601,14.2083525 15.8468561,16.6277803 L15.8468561,16.6277803 Z" id="Path"></path>
            <path d="M22.3814997,27.5196901 C22.8348301,28.1944583 23.8001013,27.4753248 23.3801254,26.8503674 L23.0561233,26.3681956 C23.9231756,25.4756852 23.9513985,24.2409057 23.5569194,23.3675349 C22.9056278,21.9259044 21.566323,21.806903 20.2065725,22.1270696 L18.8423321,20.0965985 C19.1850158,19.9854451 19.452091,20.0144347 19.4784698,20.017638 C20.244016,20.1279105 20.4208902,18.9476666 19.6559854,18.8296262 C19.6143727,18.8232998 18.9325331,18.7265611 18.1568042,19.0763579 L17.8922145,18.6825962 C17.4588487,18.0378586 16.4602231,18.7071012 16.8935889,19.3519189 L17.182152,19.7814771 C16.5573195,20.4508799 16.3765165,21.434283 16.7390846,22.2807464 C17.2702684,23.5211315 18.4606013,23.6685619 19.6573485,23.4653947 L21.4128609,26.0782198 C21.0649656,26.2669723 20.7850618,26.3257523 20.259731,26.3320787 C19.4999577,26.3412881 19.5317085,27.5448357 20.2743235,27.5332239 C21.0937497,27.5232938 21.5669644,27.3773849 22.0849989,27.0785201 L22.3814997,27.5196901 Z M18.4758352,22.353941 C18.2266399,22.3356023 17.9789679,22.1214639 17.8449091,21.8083445 C17.7298527,21.5397505 17.6897633,21.1562394 17.8846777,20.8268634 L18.9079984,22.3498568 C18.7538148,22.3610683 18.6081301,22.3636309 18.4758352,22.353941 L18.4758352,22.353941 Z M20.9622567,23.1778214 C21.9519825,22.9244429 22.3592101,23.6370898 22.4606361,23.8615588 C22.6509001,24.2826283 22.6650918,24.8540912 22.3548804,25.3244109 L20.9198422,23.1885523 C20.934114,23.1848686 20.9477443,23.1815852 20.9622567,23.1778214 L20.9622567,23.1778214 Z" id="Shape"></path>
        </g>
    </g>
</svg>