<?xml version="1.0" encoding="UTF-8"?>
<svg width="80px" height="80px" viewBox="0 0 80 80" version="1.1" xmlns="http://www.w3.org/2000/svg" xmlns:xlink="http://www.w3.org/1999/xlink">
    <title>Facilitate bill payments Web</title>
    <defs>
        <linearGradient x1="50%" y1="0%" x2="50%" y2="100%" id="linearGradient-1">
            <stop stop-color="#4E91B1" offset="0%"></stop>
            <stop stop-color="#00557B" offset="100%"></stop>
        </linearGradient>
    </defs>
    <g id="Facilitate-bill-payments-Web" stroke="none" stroke-width="1" fill="none" fill-rule="evenodd">
        <rect id="Rectangle-Copy-2" fill="url(#linearGradient-1)" x="0" y="0" width="80" height="80" rx="40"></rect>
        <g id="card-(1)-copy-2" transform="translate(25.000000, 20.000000)" fill="#FFFFFF" fill-rule="nonzero">
            <path d="M17.2618774,0 L3.45240784,0 C1.54871648,0 -1.14987382e-15,1.53269531 -1.14987382e-15,3.41669336 L-1.14987382e-15,28.0166934 C-1.14987382e-15,29.9006113 1.54871648,31.4333867 3.45240784,31.4333867 L15.880979,31.4333867 L15.880979,30.0666934 L3.45240784,30.0666934 C2.31037104,30.0666934 1.38097932,29.146916 1.38097932,28.0166934 L1.38097932,3.41669336 C1.38097932,2.2864707 2.31037104,1.36669336 3.45240784,1.36669336 L17.2619583,1.36669336 C18.4039951,1.36669336 19.3333868,2.2864707 19.3333868,3.41669336 L19.3333868,23.2333867 L20.7142852,23.2333867 L20.7142852,3.41669336 C20.7142852,1.53269531 19.1655688,0 17.2618774,0 Z" id="Path"></path>
            <path d="M27.336626,18.2012773 L20.5630548,9.82358398 L19.4838081,10.6777773 L26.2573794,19.05475 C27.136361,20.14125 27.6196673,21.506582 27.61902,22.8985 L27.61902,39.6333066 L17.5174075,39.6333066 C13.9504238,39.6333066 11.0476727,36.7612246 11.0476727,33.2305 L11.0476727,30.75 L9.66669341,30.75 L9.66669341,33.2305 C9.66669341,37.5142793 13.1888501,41 17.5174075,41 L28.3095501,41 C28.6913888,41 29,40.694582 29,40.3166934 L29,22.8992207 C29.0007276,21.199082 28.4103704,19.530334 27.336626,18.2012773 Z" id="Path"></path>
            <path d="M11.7353708,16.115082 C12.2200527,16.1287754 12.670993,16.32825 13.0030689,16.67675 L22.2824214,26.43475 L23.2884397,25.497916 L14.0077117,15.7391953 C13.4214813,15.1248359 12.628108,14.7729727 11.7746956,14.7490293 C10.9123016,14.7203613 10.1092994,15.0312246 9.49612422,15.604584 C9.4885182,15.6121113 9.43325313,15.664002 9.42637534,15.6715293 C8.24638932,16.842752 8.16693061,18.6809453 9.24342612,19.950584 L15.1905298,26.900084 L15.1905298,29.0143066 C15.1898015,32.7903906 17.5892602,36.2159727 21.1624744,37.5402246 L21.6471563,36.2603359 C18.6104097,35.134918 16.5707809,32.2231973 16.5714282,29.0143066 L16.5714282,26.65 C16.5714282,26.4887227 16.513412,26.3315293 16.4078177,26.2078887 L10.2992074,19.069084 C9.68813594,18.3488613 9.73304386,17.3026406 10.4373296,16.605 C10.7893915,16.2756387 11.2492324,16.1122793 11.7353708,16.115082 Z" id="Path"></path>
            <rect id="Rectangle" x="15.1904489" y="1.36669336" width="1.38097932" height="17.0833066"></rect>
            <rect id="Rectangle" x="11.7381219" y="22.55" width="1.38097932" height="8.2"></rect>
            <rect id="Rectangle" x="11.7381219" y="0.683306641" width="1.38097932" height="15.0333066"></rect>
            <rect id="Rectangle" x="3.45240784" y="3.41669336" width="1.38097932" height="8.88330664"></rect>
            <rect id="Rectangle" x="6.90473477" y="3.41669336" width="1.38097932" height="5.46669336"></rect>
            <path d="M8.28571409,22.55 L4.14285705,22.55 C3.76174656,22.55 3.45240784,22.855418 3.45240784,23.2333066 L3.45240784,27.3333066 C3.45240784,27.7111953 3.76174656,28.0166133 4.14285705,28.0166133 L8.28571409,28.0166133 C8.66682458,28.0166133 8.9761633,27.7111953 8.9761633,27.3333066 L8.9761633,23.2333066 C8.9761633,22.855418 8.66682458,22.55 8.28571409,22.55 Z M7.59526489,26.65 L4.83338716,26.65 L4.83338716,23.9166934 L7.59526489,23.9166934 L7.59526489,26.65 Z" id="Shape"></path>
        </g>
    </g>
</svg>