<?xml version="1.0" encoding="UTF-8"?>
<svg width="80px" height="80px" viewBox="0 0 80 80" version="1.1" xmlns="http://www.w3.org/2000/svg" xmlns:xlink="http://www.w3.org/1999/xlink">
    <title>Fast moving customer goods web</title>
    <defs>
        <linearGradient x1="50%" y1="0%" x2="50%" y2="100%" id="linearGradient-1">
            <stop stop-color="#4E91B1" offset="0%"></stop>
            <stop stop-color="#00557B" offset="100%"></stop>
        </linearGradient>
    </defs>
    <g id="Fast-moving-customer-goods-web" stroke="none" stroke-width="1" fill="none" fill-rule="evenodd">
        <rect id="Rectangle-Copy-2" fill="url(#linearGradient-1)" x="0" y="0" width="80" height="80" rx="40"></rect>
        <g id="fast-copy" transform="translate(15.000000, 25.000000)" fill="#FFFFFF" fill-rule="nonzero">
            <path d="M13.2708333,25.7142857 L9.1875,25.7142857 C8.624,25.7142857 8.16666667,25.2342857 8.16666667,24.6428571 C8.16666667,24.0514286 8.624,23.5714286 9.1875,23.5714286 L13.2708333,23.5714286 C13.8343333,23.5714286 14.2916667,24.0514286 14.2916667,24.6428571 C14.2916667,25.2342857 13.8343333,25.7142857 13.2708333,25.7142857 Z" id="Path"></path>
            <path d="M46.4479167,25.7142857 L43.8958333,25.7142857 C43.3323333,25.7142857 42.875,25.2342857 42.875,24.6428571 C42.875,24.0514286 43.3323333,23.5714286 43.8958333,23.5714286 L45.600625,23.5714286 L46.9767083,15.8742857 C46.9583333,11.9357143 43.7529167,8.57142857 39.8125,8.57142857 L33.1097083,8.57142857 L29.8614167,23.5714286 L35.7291667,23.5714286 C36.2926667,23.5714286 36.75,24.0514286 36.75,24.6428571 C36.75,25.2342857 36.2926667,25.7142857 35.7291667,25.7142857 L28.5833333,25.7142857 C28.273,25.7142857 27.979,25.5664286 27.7850417,25.3114286 C27.5910833,25.0585714 27.5175833,24.7242857 27.587,24.4071429 L31.29875,7.26428571 C31.4049167,6.77357143 31.8173333,6.42857143 32.2950833,6.42857143 L39.8125,6.42857143 C44.877875,6.42857143 49,10.755 49,16.0714286 L47.450375,24.84 C47.3605417,25.3478571 46.9399583,25.7142857 46.4479167,25.7142857 Z" id="Path"></path>
            <path d="M39.8125,30 C36.9990833,30 34.7083333,27.5978571 34.7083333,24.6428571 C34.7083333,21.6878571 36.9990833,19.2857143 39.8125,19.2857143 C42.6259167,19.2857143 44.9166667,21.6878571 44.9166667,24.6428571 C44.9166667,27.5978571 42.6259167,30 39.8125,30 Z M39.8125,21.4285714 C38.1240417,21.4285714 36.75,22.8707143 36.75,24.6428571 C36.75,26.415 38.1240417,27.8571429 39.8125,27.8571429 C41.5009583,27.8571429 42.875,26.415 42.875,24.6428571 C42.875,22.8707143 41.5009583,21.4285714 39.8125,21.4285714 Z" id="Shape"></path>
            <path d="M17.3541667,30 C14.54075,30 12.25,27.5978571 12.25,24.6428571 C12.25,21.6878571 14.54075,19.2857143 17.3541667,19.2857143 C20.1675833,19.2857143 22.4583333,21.6878571 22.4583333,24.6428571 C22.4583333,27.5978571 20.1675833,30 17.3541667,30 Z M17.3541667,21.4285714 C15.6657083,21.4285714 14.2916667,22.8707143 14.2916667,24.6428571 C14.2916667,26.415 15.6657083,27.8571429 17.3541667,27.8571429 C19.042625,27.8571429 20.4166667,26.415 20.4166667,24.6428571 C20.4166667,22.8707143 19.042625,21.4285714 17.3541667,21.4285714 Z" id="Shape"></path>
            <path d="M13.2708333,6.42857143 L5.10416667,6.42857143 C4.54066667,6.42857143 4.08333333,5.94857143 4.08333333,5.35714286 C4.08333333,4.76571429 4.54066667,4.28571429 5.10416667,4.28571429 L13.2708333,4.28571429 C13.8343333,4.28571429 14.2916667,4.76571429 14.2916667,5.35714286 C14.2916667,5.94857143 13.8343333,6.42857143 13.2708333,6.42857143 Z" id="Path"></path>
            <path d="M13.2708333,12.8571429 L3.0625,12.8571429 C2.499,12.8571429 2.04166667,12.3771429 2.04166667,11.7857143 C2.04166667,11.1942857 2.499,10.7142857 3.0625,10.7142857 L13.2708333,10.7142857 C13.8343333,10.7142857 14.2916667,11.1942857 14.2916667,11.7857143 C14.2916667,12.3771429 13.8343333,12.8571429 13.2708333,12.8571429 Z" id="Path"></path>
            <path d="M13.2708333,19.2857143 L1.02083333,19.2857143 C0.457333333,19.2857143 0,18.8057143 0,18.2142857 C0,17.6228571 0.457333333,17.1428571 1.02083333,17.1428571 L13.2708333,17.1428571 C13.8343333,17.1428571 14.2916667,17.6228571 14.2916667,18.2142857 C14.2916667,18.8057143 13.8343333,19.2857143 13.2708333,19.2857143 Z" id="Path"></path>
            <path d="M28.5833333,25.7142857 L21.4375,25.7142857 C20.874,25.7142857 20.4166667,25.2342857 20.4166667,24.6428571 C20.4166667,24.0514286 20.874,23.5714286 21.4375,23.5714286 L27.7687083,23.5714286 L32.407375,2.14285714 L9.1875,2.14285714 C8.624,2.14285714 8.16666667,1.66285714 8.16666667,1.07142857 C8.16666667,0.48 8.624,0 9.1875,0 L33.6875,0 C33.9978333,0 34.2918333,0.147857143 34.4857917,0.402857143 C34.67975,0.655714286 34.75325,0.99 34.6838333,1.30714286 L29.5796667,24.8785714 C29.4735,25.3692857 29.0590417,25.7142857 28.5833333,25.7142857 Z" id="Path"></path>
        </g>
    </g>
</svg>