<?xml version="1.0" encoding="UTF-8"?>
<svg width="80px" height="80px" viewBox="0 0 80 80" version="1.1" xmlns="http://www.w3.org/2000/svg" xmlns:xlink="http://www.w3.org/1999/xlink">
    <title>Financial services web</title>
    <defs>
        <linearGradient x1="50%" y1="0%" x2="50%" y2="100%" id="linearGradient-1">
            <stop stop-color="#4E91B1" offset="0%"></stop>
            <stop stop-color="#00557B" offset="100%"></stop>
        </linearGradient>
    </defs>
    <g id="Financial-services-web" stroke="none" stroke-width="1" fill="none" fill-rule="evenodd">
        <rect id="Rectangle-Copy-2" fill="url(#linearGradient-1)" x="0" y="0" width="80" height="80" rx="40"></rect>
        <g id="save-money-(3)-copy-2" transform="translate(18.000000, 20.000000)" fill="#FFFFFF" fill-rule="nonzero">
            <path d="M23.0930412,12.5919919 C22.9985427,12.5713554 22.9015895,12.5676408 22.8058638,12.5820863 C21.8465605,12.469411 21.1228899,11.6505539 21.1212535,10.6765101 C21.1212535,10.209712 20.746123,9.83123823 20.2834483,9.83123823 C19.8207737,9.83123823 19.4456431,10.209712 19.4456431,10.6765101 C19.4480977,12.3030806 20.5264446,13.727826 22.0809659,14.1583038 L22.0809659,15.0035757 C22.0809659,15.4703738 22.4560965,15.8488475 22.9187711,15.8488475 C23.3814458,15.8488475 23.7565763,15.4703738 23.7565763,15.0035757 L23.7565763,14.2094824 C25.5508213,13.8305959 26.7703024,12.1445921 26.5817144,10.3050527 C26.3927173,8.46551335 24.8566047,7.06759544 23.0234968,7.06718274 C21.9729676,7.06718274 21.1212535,6.20787799 21.1212535,5.14798631 C21.1212535,4.08809463 21.9729676,3.22878998 23.0234968,3.22878998 C24.074026,3.22878998 24.9257401,4.08809463 24.9257401,5.14798631 C24.9257401,5.61478442 25.3008706,5.99325818 25.7635453,5.99325818 C26.2262198,5.99325818 26.6013505,5.61478442 26.6013505,5.14798631 C26.5988959,3.44010795 25.4129597,1.96707316 23.7565763,1.61460134 L23.7565763,0.845271868 C23.7565763,0.378473754 23.3814458,-9.19950156e-14 22.9187711,-9.19950156e-14 C22.4560965,-9.19950156e-14 22.0809659,0.378473754 22.0809659,0.845271868 L22.0809659,1.66619262 C20.3521745,2.14248356 19.2394645,3.83591643 19.4775518,5.62799179 C19.715639,7.42006716 21.2312973,8.75772648 23.0234968,8.75731367 C24.060117,8.75731367 24.9056949,9.59474374 24.9245128,10.6401898 C24.9437397,11.6856359 24.1288432,12.5540207 23.0930412,12.5919919 L23.0930412,12.5919919 Z" id="Path"></path>
            <path d="M39.3026081,22.3183966 L32.7396644,25.4468931 C31.833542,23.7464438 30.0953417,22.6642647 28.1824623,22.6097843 L22.1239198,22.4418031 C21.1646165,22.4141501 20.223313,22.1689882 19.3703716,21.7244776 L18.7538812,21.4021351 C15.5973847,19.7421334 11.8350339,19.7462608 8.68180999,21.4128661 L8.72026399,20.0038045 C8.73294564,19.5370064 8.36845126,19.1482143 7.90577659,19.1354198 L1.26224323,18.9509292 C0.79956866,18.9381346 0.414620004,19.3058774 0.401938356,19.7726755 L0.000305296433,34.4815616 C-0.0120551209,34.9483597 0.35243915,35.3371517 0.815113821,35.3499464 L7.45864719,35.5344369 L7.48155592,35.5344369 C7.93563974,35.5344369 8.30708863,35.1699959 8.31936112,34.7122779 L8.33858812,34.0085726 L10.0645159,33.0762146 C10.74196,32.7084718 11.5339477,32.6209729 12.2739817,32.8322909 L22.5804582,35.7507076 C22.5984579,35.7560731 22.6164576,35.7602004 22.6348665,35.7643277 C23.3798095,35.921578 24.1390704,36.0004095 24.8999677,35.9999984 C26.5117609,36.0008222 28.1047362,35.6504141 29.5696681,34.9718853 C29.6056675,34.9553761 29.6404397,34.9359779 29.6735755,34.9141031 L44.6170256,25.1621091 C44.9892926,24.9190109 45.1095634,24.425798 44.8915214,24.0361805 C43.7820841,22.0501218 41.3214404,21.293587 39.3026081,22.3183966 L39.3026081,22.3183966 Z M1.69873649,33.6833411 L2.05382189,20.6641732 L7.02215393,20.8020251 L6.66706852,33.8216057 L1.69873649,33.6833411 Z M28.814907,33.4621176 C26.9948898,34.2908802 24.9621486,34.5195328 23.0059061,34.1162952 L12.7272474,31.2053077 C11.5703562,30.8755361 10.3320572,31.0121499 9.27375538,31.5862578 L8.39176906,32.0629614 L8.62781093,23.4067667 C11.4226767,21.5313197 15.0070756,21.3385746 17.9835749,22.9032356 L18.6000654,23.225578 C19.6775941,23.7868914 20.8659847,24.0964392 22.0781023,24.131934 L28.1370539,24.2999153 C29.8388457,24.3494429 31.2841414,25.5719504 31.6294088,27.2542395 L22.6045942,27.0028867 C22.1419195,26.990092 21.756971,27.3582476 21.7438803,27.8246329 C21.7311986,28.2914311 22.096102,28.680223 22.5583677,28.6930177 L32.5179405,28.9695471 L32.5412584,28.9695471 C32.9949331,28.9691343 33.3659729,28.6046934 33.3782453,28.1473882 C33.3884724,27.7800581 33.3614729,27.4123152 33.2972467,27.0507634 L40.0287331,23.8417846 C40.0352785,23.8388955 40.0418238,23.8355936 40.0483692,23.8322918 C41.0031726,23.3448571 42.1576092,23.5078856 42.9430516,24.2413076 L28.814907,33.4621176 Z" id="Shape"></path>
        </g>
    </g>
</svg>