<?xml version="1.0" encoding="UTF-8"?>
<svg width="80px" height="80px" viewBox="0 0 80 80" version="1.1" xmlns="http://www.w3.org/2000/svg" xmlns:xlink="http://www.w3.org/1999/xlink">
    <title>Funeral cover Web</title>
    <defs>
        <linearGradient x1="50%" y1="0%" x2="50%" y2="100%" id="linearGradient-1">
            <stop stop-color="#4E91B1" offset="0%"></stop>
            <stop stop-color="#00557B" offset="100%"></stop>
        </linearGradient>
    </defs>
    <g id="Funeral-cover-Web" stroke="none" stroke-width="1" fill="none" fill-rule="evenodd">
        <rect id="Rectangle-Copy-2" fill="url(#linearGradient-1)" x="0" y="0" width="80" height="80" rx="40"></rect>
        <g id="grave" transform="translate(25.000000, 24.000000)" fill="#FFFFFF" fill-rule="nonzero">
            <path d="M26.4782609,26.999957 L26.4782609,11.8749536 C26.4782609,8.71546596 25.2288652,5.73685259 22.9601826,3.48773638 C20.6915,1.23862016 17.6869739,0 14.5,0 C12.243863,0 10.041313,0.632997527 8.13052826,1.83049285 C7.8362413,2.01499213 7.74848478,2.40105312 7.93452609,2.69280198 C8.12063043,2.98448834 8.51005,3.0716755 8.80433696,2.88711372 C10.5131935,1.81611791 12.4827348,1.24999512 14.5,1.24999512 C20.4095696,1.24999512 25.2173913,6.0163515 25.2173913,11.8749536 L25.2173913,26.999957 L3.7826087,26.999957 L3.7826087,11.8749536 C3.7826087,9.87471143 4.35365652,7.92215655 5.43396957,6.22835067 C5.62001087,5.93660181 5.53238043,5.55054082 5.23809348,5.36604154 C4.94361739,5.18147976 4.55432391,5.26854192 4.36828261,5.56022828 C3.16024348,7.45434588 2.52173913,9.63789985 2.52173913,11.8749536 L2.52173913,26.999957 C1.13125217,26.999957 0,28.1214527 0,29.4999473 L0,31.3750024 C0,31.7201261 0.282308696,32 0.630434783,32 L28.3695652,32 C28.7176913,32 29,31.7201261 29,31.3750024 L29,29.4999473 C29,28.1214527 27.8687478,26.999957 26.4782609,26.999957 Z M27.7391304,30.7500049 L1.26086957,30.7500049 L1.26086957,29.4999473 C1.26086957,28.8107 1.82649565,28.2499521 2.52173913,28.2499521 L26.4782609,28.2499521 C27.1735043,28.2499521 27.7391304,28.8107 27.7391304,29.4999473 L27.7391304,30.7500049 Z" id="Shape"></path>
            <path d="M8.82608696,20.4999824 L8.82608696,22.9999727 C8.82608696,23.3450963 9.10839565,23.6249702 9.45652174,23.6249702 L19.5434783,23.6249702 C19.8916043,23.6249702 20.173913,23.3450963 20.173913,22.9999727 L20.173913,20.4999824 C20.173913,20.1548588 19.8916043,19.8749849 19.5434783,19.8749849 L9.45652174,19.8749849 C9.10839565,19.8749849 8.82608696,20.1548588 8.82608696,20.4999824 Z M10.0869565,21.12498 L18.9130435,21.12498 L18.9130435,22.3749751 L10.0869565,22.3749751 L10.0869565,21.12498 Z" id="Shape"></path>
            <path d="M6.47582609,4.54491975 C6.63728043,4.54491975 6.79873478,4.48385748 6.9218587,4.36179546 C7.16804348,4.11773392 7.16804348,3.72198546 6.9218587,3.47786141 C6.67561087,3.23386237 6.27654565,3.23386237 6.03023478,3.47786141 L6.02991957,3.47817391 C5.78373478,3.72223546 5.78392391,4.11779641 6.0301087,4.36192046 C6.15323261,4.48391998 6.31449783,4.54491975 6.47582609,4.54491975 Z" id="Path"></path>
            <path d="M12.5680326,11.7218917 C12.5680326,10.5268339 11.5872652,9.55452518 10.3818109,9.55452518 L8.82602391,9.55452518 C8.47789783,9.55452518 8.19558913,9.83439908 8.19558913,10.1795227 L8.19558913,15.3748149 C8.19558913,15.7199386 8.47789783,15.9998125 8.82602391,15.9998125 C9.17415,15.9998125 9.4564587,15.7199386 9.4564587,15.3748149 L9.4564587,13.8891957 L10.0178609,13.8891957 L11.065013,15.6873137 C11.1818326,15.8878129 11.3936587,15.9999375 11.6116,15.9999375 C11.7185217,15.9999375 11.8269565,15.9728751 11.926187,15.9160628 C12.2277239,15.7434385 12.3310522,15.3612525 12.1569261,15.0623162 L11.3444217,13.6671966 C12.0685391,13.3136355 12.5680326,12.5746384 12.5680326,11.7218917 Z M9.45652174,10.8045203 L10.3818739,10.8045203 C10.8921478,10.8045203 11.3072261,11.2160187 11.3072261,11.7218917 C11.3072261,12.2277647 10.8921478,12.6392631 10.3818739,12.6392631 L9.45652174,12.6392631 L9.45652174,10.8045203 Z" id="Shape"></path>
            <path d="M14.500063,15.9998125 C14.8481891,15.9998125 15.1304978,15.7199386 15.1304978,15.3748149 L15.1304978,10.1795227 C15.1304978,9.83439908 14.8481891,9.55452518 14.500063,9.55452518 C14.151937,9.55452518 13.8696283,9.83439908 13.8696283,10.1795227 L13.8696283,15.3748149 C13.8696283,15.7200011 14.1518739,15.9998125 14.500063,15.9998125 Z" id="Path"></path>
            <path d="M18.6181891,9.55452518 L17.0624022,9.55452518 C16.7142761,9.55452518 16.4319674,9.83439908 16.4319674,10.1795227 L16.4319674,15.3748149 C16.4319674,15.7199386 16.7142761,15.9998125 17.0624022,15.9998125 C17.4105283,15.9998125 17.692837,15.7199386 17.692837,15.3748149 L17.692837,13.8891957 L18.6181891,13.8891957 C19.8236435,13.8891957 20.8044109,12.916887 20.8044109,11.7218292 C20.8044109,10.5267714 19.8236435,9.55452518 18.6181891,9.55452518 Z M18.6181891,12.6392631 L17.692837,12.6392631 L17.692837,10.8045828 L18.6181891,10.8045828 C19.128463,10.8045828 19.5435413,11.2160812 19.5435413,11.7219542 C19.5435413,12.2278272 19.128463,12.6392631 18.6181891,12.6392631 Z" id="Shape"></path>
        </g>
    </g>
</svg>