<?xml version="1.0" encoding="UTF-8"?>
<svg width="80px" height="80px" viewBox="0 0 80 80" version="1.1" xmlns="http://www.w3.org/2000/svg" xmlns:xlink="http://www.w3.org/1999/xlink">
    <title>ID greenbook web</title>
    <defs>
        <linearGradient x1="50%" y1="0%" x2="50%" y2="100%" id="linearGradient-1">
            <stop stop-color="#4E91B1" offset="0%"></stop>
            <stop stop-color="#00557B" offset="100%"></stop>
        </linearGradient>
    </defs>
    <g id="ID-greenbook-web" stroke="none" stroke-width="1" fill="none" fill-rule="evenodd">
        <rect id="Rectangle-Copy-6" fill="url(#linearGradient-1)" x="0" y="0" width="80" height="80" rx="40"></rect>
        <g id="passport-(2)-copy" transform="translate(27.000000, 19.000000)" fill="#FFFFFF" fill-rule="nonzero">
            <path d="M22.4749058,31.6998866 C22.4749058,31.3762945 22.2096109,31.1139521 21.8822006,31.1139521 L4.43904559,31.1139521 C4.11163526,31.1139521 3.84634043,31.3762945 3.84634043,31.6998866 C3.84634043,32.0234787 4.11163526,32.2858211 4.43904559,32.2858211 L21.8822796,32.2858211 C22.2096109,32.2858211 22.4749058,32.0234787 22.4749058,31.6998866 Z M25.4072948,30.0955199 C25.7347052,30.0955199 26,29.8331775 26,29.5095854 L26,8.78930168 C26,7.29399689 24.8606626,6.05759702 23.3952584,5.8818948 L23.3952584,1.36746497 C23.4008693,0.500828821 22.5468207,-0.163777125 21.7010699,0.0355968462 L13.444845,1.9201965 C13.1258906,1.99300862 12.9270578,2.30761637 13.0007112,2.62292725 C13.0743647,2.93823812 13.3926079,3.13487773 13.7115623,3.06198748 L21.9681824,1.1773097 C22.1101945,1.15113796 22.2035258,1.2274657 22.209848,1.36746497 L22.209848,5.85962929 L1.92771429,5.85962929 C2.09027356,5.75314547 2.27337994,5.67283338 2.47252888,5.62744299 L11.0202067,3.67628118 C11.3391611,3.60346906 11.5379939,3.28886131 11.4643404,2.97355044 C11.3906869,2.65823956 11.0722857,2.4614437 10.7534894,2.5344902 L2.20612766,4.48549576 C0.931732523,4.77572864 0.024893617,5.88087918 0.000869300912,7.17298189 C0.000790273556,7.17657562 0.000632218845,7.1854037 0.000632218845,7.18899743 C0.000316109422,7.20134112 0,7.21391918 0,7.22673161 L0,38.6328196 C0,39.3866438 0.620443769,40 1.38297872,40 L23.0364742,40 C24.6706018,40 26,38.685788 26,37.0703276 L26,32.2438681 C26,31.9202761 25.7347052,31.6579337 25.4072948,31.6579337 C25.0798845,31.6579337 24.8145897,31.9202761 24.8145897,32.2438681 L24.8145897,37.0703276 C24.8145897,38.0396195 24.0168875,38.828131 23.0364742,38.828131 L1.38297872,38.828131 C1.274,38.828131 1.18541033,38.7404752 1.18541033,38.6328196 L1.18541033,7.22673161 C1.18541033,7.11907592 1.274,7.03142012 1.38297872,7.03142012 L23.0364742,7.03142012 C24.0168875,7.03142012 24.8145897,7.81993168 24.8145897,8.78922355 L24.8145897,29.5095073 C24.8145897,29.8331775 25.0798845,30.0955199 25.4072948,30.0955199 L25.4072948,30.0955199 Z M9.18068693,33.45769 C8.8532766,33.45769 8.58798176,33.7200324 8.58798176,34.0436245 C8.58798176,34.3672166 8.8532766,34.629559 9.18068693,34.629559 L17.1406383,34.629559 C17.4680486,34.629559 17.7333435,34.3672166 17.7333435,34.0436245 C17.7333435,33.7200324 17.4680486,33.45769 17.1406383,33.45769 L9.18068693,33.45769 Z" id="Shape"></path>
        </g>
        <g id="user-(1)-copy" transform="translate(34.000000, 32.000000)" fill="#FFFFFF" fill-rule="nonzero" stroke="#FFFFFF" stroke-width="0.5">
            <path d="M6.5,13 C4.96094727,13 3.46820703,12.4524766 2.29675977,11.4582559 C2.02170312,11.2249668 1.76368359,10.9663125 1.5299375,10.6895547 C0.543283203,9.5200625 0,8.03224805 0,6.5 C0,4.76376367 0.676101562,3.13147656 1.90378906,1.90378906 C3.13147656,0.676101562 4.76376367,0 6.5,0 C8.23623633,0 9.86852344,0.676101562 11.0962109,1.90378906 C12.3238984,3.13147656 13,4.76376367 13,6.5 C13,8.03227344 12.4567168,9.52008789 11.4701895,10.6894023 C11.2363164,10.9663125 10.9782969,11.2249668 10.7031641,11.458332 C9.53179297,12.4524766 8.03905273,13 6.5,13 Z M6.5,0.8125 C3.36390234,0.8125 0.8125,3.36390234 0.8125,6.5 C0.8125,7.84075195 1.28778711,9.14250391 2.15081445,10.1654668 C2.35546289,10.4077695 2.58146484,10.6343301 2.82242187,10.8387246 C3.84728906,11.7085059 5.15330664,12.1875 6.5,12.1875 C7.84669336,12.1875 9.15271094,11.7085059 10.177502,10.8387754 C10.4185352,10.6343301 10.6445371,10.4077441 10.8493125,10.1652891 C11.7122129,9.1425293 12.1875,7.84077734 12.1875,6.5 C12.1875,3.36390234 9.63609766,0.8125 6.5,0.8125 Z" id="Shape"></path>
            <path d="M6.5,6.5 C5.15594727,6.5 4.0625,5.40655273 4.0625,4.0625 C4.0625,2.71844727 5.15594727,1.625 6.5,1.625 C7.84405273,1.625 8.9375,2.71844727 8.9375,4.0625 C8.9375,5.40655273 7.84405273,6.5 6.5,6.5 Z M6.5,2.4375 C5.60396484,2.4375 4.875,3.16646484 4.875,4.0625 C4.875,4.95853516 5.60396484,5.6875 6.5,5.6875 C7.39603516,5.6875 8.125,4.95853516 8.125,4.0625 C8.125,3.16646484 7.39603516,2.4375 6.5,2.4375 Z" id="Shape"></path>
            <path d="M10.4406758,11.5548707 C10.4079219,11.5548707 10.3746602,11.5508809 10.3414492,11.5425527 C10.1238516,11.4879375 9.99171875,11.2672422 10.046334,11.0496191 C10.1192559,10.7590742 10.15625,10.4585 10.15625,10.15625 C10.15625,8.16854492 8.54023828,6.52879297 6.55349805,6.50025391 L6.5,6.5 L6.44650195,6.50025391 C4.45976172,6.52879297 2.84375,8.16854492 2.84375,10.15625 C2.84375,10.4585 2.88074414,10.7590742 2.95366602,11.0496191 C3.00828125,11.2672422 2.87614844,11.4879375 2.65855078,11.5425527 C2.44095313,11.597168 2.22023242,11.4650605 2.16561719,11.2474375 C2.07644531,10.892248 2.03125,10.525125 2.03125,10.15625 C2.03125,8.97360547 2.48871289,7.85883008 3.31936719,7.01720703 C4.14920898,6.17642188 5.25629102,5.70430859 6.43667578,5.68780469 C6.43858008,5.6877793 6.44045898,5.6877793 6.44236328,5.6877793 L6.5,5.6875 L6.55763672,5.68775391 C6.55954102,5.68775391 6.56141992,5.68775391 6.56332422,5.6877793 C7.74370898,5.70425781 8.85079102,6.17639648 9.68063281,7.01718164 C10.5112871,7.85883008 10.96875,8.97360547 10.96875,10.15625 C10.96875,10.525125 10.9235547,10.892248 10.8343828,11.2474375 C10.7880957,11.4318242 10.6225488,11.5548707 10.4406758,11.5548707 Z" id="Path"></path>
        </g>
    </g>
</svg>