<?xml version="1.0" encoding="UTF-8"?>
<svg width="80px" height="80px" viewBox="0 0 80 80" version="1.1" xmlns="http://www.w3.org/2000/svg" xmlns:xlink="http://www.w3.org/1999/xlink">
    <title>Insurance web</title>
    <defs>
        <linearGradient x1="50%" y1="0%" x2="50%" y2="100%" id="linearGradient-1">
            <stop stop-color="#4E91B1" offset="0%"></stop>
            <stop stop-color="#00557B" offset="100%"></stop>
        </linearGradient>
    </defs>
    <g id="Insurance-web" stroke="none" stroke-width="1" fill="none" fill-rule="evenodd">
        <rect id="Rectangle-Copy-6" fill="url(#linearGradient-1)" x="0" y="0" width="80" height="80" rx="40"></rect>
        <g id="insurance-copy" transform="translate(24.000000, 22.000000)" fill="#FFFFFF" fill-rule="nonzero">
            <path d="M16.0000043,7.5 C15.6550042,7.5 15.3750041,7.78 15.3750041,8.125 C15.3750041,8.47 15.6550042,8.75 16.0000043,8.75 C16.3450044,8.75 16.6250044,8.47 16.6250044,8.125 C16.6250044,7.78 16.3450044,7.5 16.0000043,7.5 Z" id="Path"></path>
            <path d="M0.308062582,14.9136875 C0.514937637,15.0354375 0.773062706,15.027875 0.972437759,14.8944375 C2.9944383,13.5419375 6.03637661,13.5226875 8.08856466,14.8378125 C8.19937719,14.937875 8.34575222,14.9993125 8.50681477,14.9993125 C8.50906477,14.9993125 8.51131477,14.999 8.51356477,14.999 C8.6386898,15.0014375 8.76437734,14.9671875 8.87306486,14.8944375 C10.8410029,13.578 13.3583161,13.5206875 15.3749416,14.7205 C15.3749416,15.346375 15.3749416,27.805375 15.3749416,28.875 C15.3749416,30.6015 16.7735045,32 18.4999424,32 C20.2230679,32 21.6249433,30.598125 21.6249433,28.875 L21.6249433,26.375 C21.6249433,26.029875 21.3450682,25.75 20.9999431,25.75 C20.654818,25.75 20.3749429,26.029875 20.3749429,26.375 L20.3749429,28.875 C20.3749429,29.908875 19.5338177,30.75 18.4999424,30.75 C17.4642547,30.75 16.6249419,29.9106875 16.6249419,28.875 C16.6249419,27.7970625 16.6249419,15.3405 16.6249419,14.7205 C18.641505,13.520625 21.1588806,13.5780625 23.1267562,14.8945 C23.2320687,14.9649375 23.3531937,15 23.4743188,15 C23.4785688,15 23.4827563,14.9991875 23.4870063,14.9990625 C23.4890688,14.9990625 23.4910063,14.999375 23.4930688,14.999375 C23.6540688,14.999375 23.8003813,14.9379375 23.9111939,14.8379375 C25.9633819,13.5228125 29.0053827,13.5420625 31.0275083,14.8944375 C31.2269458,15.027875 31.4851959,15.0353125 31.6918834,14.9136875 C31.898696,14.7920625 32.017571,14.56275 31.9978835,14.323625 C31.3383209,6.3265 24.2232565,0 16.0000085,0 C7.78118957,0 0.662125176,6.321625 0.00212500057,14.323625 C-0.0175625047,14.56275 0.101312527,14.7920625 0.308062582,14.9136875 Z M16.6250044,13.3064375 L16.6250044,10.625 C16.6250044,10.279875 16.3451294,10 16.0000043,10 C15.6548792,10 15.3750041,10.279875 15.3750041,10.625 L15.3750041,13.3064375 C13.4105036,12.383875 11.1463155,12.3790625 9.17887745,13.2926875 C9.58250255,6.9713125 12.2086283,1.9055 15.3750041,1.3095 L15.3750041,5.625 C15.3750041,5.970125 15.6548792,6.25 16.0000043,6.25 C16.3451294,6.25 16.6250044,5.970125 16.6250044,5.625 L16.6250044,1.3095 C19.7913803,1.9055 22.417506,6.971375 22.8210686,13.2926875 C20.8536931,12.379 18.5895675,12.3839375 16.6250044,13.3064375 Z M30.6011957,13.2504375 C29.6375704,12.8381875 28.5498826,12.6169375 27.4373198,12.6153125 C27.4331948,12.6153125 27.4291948,12.6153125 27.4251323,12.6153125 C26.2413195,12.6153125 25.0851942,12.8648125 24.0760689,13.3280625 C23.8443814,9.403125 22.645006,4.519625 19.8803178,1.77875 C25.3011942,3.2753125 29.6473204,7.7893125 30.6011957,13.2504375 Z M12.1196907,1.7786875 C9.35443999,4.520125 8.15568967,9.4025 7.92387711,13.328 C5.90587657,12.4016875 3.43100091,12.381 1.39875037,13.2504375 C2.35268813,7.7893125 6.69887679,3.2753125 12.1196907,1.7786875 Z" id="Shape"></path>
            <path d="M6.93750185,26.955625 C6.67043928,26.955625 6.3821892,26.7876875 6.12587663,26.482875 C5.90375157,26.2185625 5.50943897,26.1845 5.2453139,26.406625 C4.98106383,26.62875 4.94700132,27.023 5.16912638,27.2871875 C5.50325147,27.6846875 5.89612657,27.961625 6.31250168,28.10125 L6.31250168,28.830625 C6.31250168,29.17575 6.59231426,29.455625 6.93750185,29.455625 C7.28268944,29.455625 7.56250202,29.17575 7.56250202,28.830625 L7.56250202,28.098125 C8.28993971,27.840125 8.81250235,27.1454375 8.81250235,26.330625 C8.81250235,25.29675 7.97137712,24.455625 6.93750185,24.455625 C6.59287676,24.455625 6.31250168,24.17525 6.31250168,23.830625 C6.31250168,23.486 6.59287676,23.205625 6.93750185,23.205625 C7.15887691,23.205625 7.39268947,23.318625 7.61350203,23.5323125 C7.8615646,23.772375 8.2573147,23.7658125 8.49725226,23.5178125 C8.73725233,23.2696875 8.73075233,22.8740625 8.48268976,22.634 C8.16550218,22.3270625 7.84812709,22.1535 7.56243952,22.0586875 L7.56243952,21.330625 C7.56243952,20.9855 7.28262694,20.705625 6.93743935,20.705625 C6.59225176,20.705625 6.31243918,20.9855 6.31243918,21.330625 L6.31243918,22.063125 C5.58500149,22.321125 5.06243885,23.0158125 5.06243885,23.830625 C5.06243885,24.8645 5.90356407,25.705625 6.93743935,25.705625 C7.28206444,25.705625 7.56243952,25.986 7.56243952,26.330625 C7.56243952,26.67525 7.28212694,26.955625 6.93750185,26.955625 Z" id="Path"></path>
            <path d="M6.87500183,32 C10.6658778,32 13.7500037,28.915875 13.7500037,25.125 C13.7500037,21.334125 10.6658778,18.25 6.87500183,18.25 C3.08412582,18.25 0,21.334125 0,25.125 C0,28.915875 3.08412582,32 6.87500183,32 Z M6.87500183,19.5 C9.97662766,19.5 12.5000033,22.023375 12.5000033,25.125 C12.5000033,28.226625 9.97662766,30.75 6.87500183,30.75 C3.77337601,30.75 1.25000033,28.226625 1.25000033,25.125 C1.25000033,22.023375 3.77337601,19.5 6.87500183,19.5 Z" id="Shape"></path>
        </g>
    </g>
</svg>