<?xml version="1.0" encoding="UTF-8"?>
<svg width="80px" height="80px" viewBox="0 0 80 80" version="1.1" xmlns="http://www.w3.org/2000/svg" xmlns:xlink="http://www.w3.org/1999/xlink">
    <title>Invoice web</title>
    <defs>
        <linearGradient x1="50%" y1="0%" x2="50%" y2="100%" id="linearGradient-1">
            <stop stop-color="#4E91B1" offset="0%"></stop>
            <stop stop-color="#00557B" offset="100%"></stop>
        </linearGradient>
    </defs>
    <g id="Invoice-web" stroke="none" stroke-width="1" fill="none" fill-rule="evenodd">
        <rect id="Rectangle-Copy-2" fill="url(#linearGradient-1)" x="0" y="0" width="80" height="80" rx="40"></rect>
        <g id="invoice-copy" transform="translate(25.000000, 19.000000)" fill="#FFFFFF" fill-rule="nonzero">
            <path d="M28.7639974,8.3630625 L20.7084167,0.238037109 C20.557375,0.0856933594 20.3528646,0 20.1388385,0 L3.22217188,0 C1.44592188,0 0,1.45754883 0,3.25002539 L0,35.7500508 C0,37.5424512 1.44592188,39 3.2222474,39 L25.7778281,39 C27.5540781,39 29,37.5424512 29,35.7499746 L29,8.93747461 C29,8.72167969 28.9150391,8.51540625 28.7639974,8.3630625 Z M20.9444193,2.77395117 L26.2497578,8.12502539 L22.5555052,8.12502539 C21.6665495,8.12502539 20.9444193,7.39583203 20.9444193,6.50005078 L20.9444193,2.77395117 L20.9444193,2.77395117 Z M27.3889141,35.7499746 C27.3889141,36.6457559 26.6667083,37.3749492 25.7778281,37.3749492 L3.2222474,37.3749492 C2.33329167,37.3749492 1.61116146,36.6457559 1.61116146,35.7499746 L1.61116146,3.25002539 C1.61116146,2.35424414 2.33336719,1.62505078 3.2222474,1.62505078 L19.3333333,1.62505078 L19.3333333,6.50005078 C19.3333333,8.29245117 20.7792552,9.75 22.5555807,9.75 L27.3889141,9.75 L27.3889141,35.7499746 Z" id="Shape"></path>
            <path d="M23.3610859,22.7500254 L5.63891406,22.7500254 C5.19364323,22.7500254 4.83333333,23.1134414 4.83333333,23.5625508 C4.83333333,24.0116602 5.19364323,24.3750762 5.63891406,24.3750762 L23.3611615,24.3750762 C23.8064323,24.3750762 24.1667422,24.0116602 24.1667422,23.5625508 C24.1667422,23.1134414 23.8063568,22.7500254 23.3610859,22.7500254 Z" id="Path"></path>
            <path d="M23.3610859,17.8750254 L5.63891406,17.8750254 C5.19364323,17.8750254 4.83333333,18.2384414 4.83333333,18.6875508 C4.83333333,19.1366602 5.19364323,19.5000762 5.63891406,19.5000762 L23.3611615,19.5000762 C23.8064323,19.5000762 24.1667422,19.1366602 24.1667422,18.6875508 C24.1667422,18.2384414 23.8063568,17.8750254 23.3610859,17.8750254 Z" id="Path"></path>
            <path d="M23.3610859,27.6250254 L5.63891406,27.6250254 C5.19364323,27.6250254 4.83333333,27.9884414 4.83333333,28.4375508 C4.83333333,28.8866602 5.19364323,29.2500762 5.63891406,29.2500762 L23.3611615,29.2500762 C23.8064323,29.2500762 24.1667422,28.8866602 24.1667422,28.4375508 C24.1667422,27.9884414 23.8063568,27.6250254 23.3610859,27.6250254 Z" id="Path"></path>
            <path d="M15.3055807,32.5000254 L5.63891406,32.5000254 C5.19364323,32.5000254 4.83333333,32.8634414 4.83333333,33.3125508 C4.83333333,33.7616602 5.19364323,34.1250762 5.63891406,34.1250762 L15.3055807,34.1250762 C15.7508516,34.1250762 16.1111615,33.7616602 16.1111615,33.3125508 C16.1111615,32.8634414 15.7508516,32.5000254 15.3055807,32.5000254 Z" id="Path"></path>
            <path d="M12.8889141,13.8124746 C12.8889141,14.261584 13.249224,14.625 13.6944948,14.625 L23.3611615,14.625 C23.8064323,14.625 24.1667422,14.261584 24.1667422,13.8124746 C24.1667422,13.3633652 23.8064323,12.9999492 23.3611615,12.9999492 L13.6944948,12.9999492 C13.249224,13.0000254 12.8889141,13.3634414 12.8889141,13.8124746 Z" id="Path"></path>
            <path d="M7.25,13.0000254 L5.63891406,13.0000254 C5.19364323,13.0000254 4.83333333,13.3634414 4.83333333,13.8125508 C4.83333333,14.2616602 5.19364323,14.6250762 5.63891406,14.6250762 L6.44449479,14.6250762 C6.44449479,15.0741855 6.80480469,15.4376016 7.25007552,15.4376016 C7.69534635,15.4376016 8.05565625,15.0741855 8.05565625,14.6250762 L8.05565625,14.4753984 C8.99120833,14.1387949 9.66666667,13.245375 9.66666667,12.1875 C9.66666667,10.8433711 8.58264062,9.75 7.25,9.75 C6.8063151,9.75 6.44441927,9.38582227 6.44441927,8.93747461 C6.44441927,8.48920312 6.8063151,8.12494922 7.25,8.12494922 L8.86108594,8.12494922 C9.30635677,8.12494922 9.66666667,7.7615332 9.66666667,7.31242383 C9.66666667,6.86331445 9.30635677,6.49989844 8.86108594,6.49989844 L8.05550521,6.49989844 C8.05550521,6.05078906 7.69519531,5.68737305 7.24992448,5.68737305 C6.80465365,5.68737305 6.44434375,6.05078906 6.44434375,6.49989844 L6.44434375,6.64957617 C5.50879167,6.98617969 4.83333333,7.87959961 4.83333333,8.93747461 C4.83333333,10.2816035 5.91735937,11.3749746 7.25,11.3749746 C7.6936849,11.3749746 8.05558073,11.7391523 8.05558073,12.1875 C8.05558073,12.6358477 7.6936849,13.0000254 7.25,13.0000254 Z" id="Path"></path>
        </g>
    </g>
</svg>