<?xml version="1.0" encoding="UTF-8"?>
<svg width="80px" height="80px" viewBox="0 0 80 80" version="1.1" xmlns="http://www.w3.org/2000/svg" xmlns:xlink="http://www.w3.org/1999/xlink">
    <title>Life cover</title>
    <defs>
        <linearGradient x1="50%" y1="0%" x2="50%" y2="100%" id="linearGradient-1">
            <stop stop-color="#4E91B1" offset="0%"></stop>
            <stop stop-color="#00557B" offset="100%"></stop>
        </linearGradient>
    </defs>
    <g id="Life-cover" stroke="none" stroke-width="1" fill="none" fill-rule="evenodd" transform="translate(0.000000, 0.000000)">
        <rect id="Rectangle-Copy-6" fill="url(#linearGradient-1)" x="0" y="0" width="80" height="80" rx="40"></rect>
        <g id="life-insurance-copy" transform="translate(19.000000, 25.000000)" fill="#FFFFFF" fill-rule="nonzero">
            <path d="M29.0191034,0.000177898807 C25.8404741,-0.0190547948 22.8503946,1.52215925 21,4.13374581 C19.1496054,1.52215925 16.1595259,-0.0190547948 12.9808966,0.000177898807 C7.20734483,0.000177898807 3.62068966,3.6976512 3.62068966,9.65004994 C3.60558236,11.1001847 3.85093355,12.5410618 4.34482759,13.9027041 L0.724137931,13.9027041 C0.324207595,13.9027041 0,14.2302984 0,14.6344065 C0,15.0385145 0.324207595,15.3661088 0.724137931,15.3661088 L5.00813793,15.3661088 C6.05352036,17.093852 7.38561549,18.6267395 8.946,19.8975416 C9.31675862,20.2311978 9.67665517,20.5560737 10.0133793,20.8802178 C12.4754483,23.2516652 20.2164828,29.5699151 20.5452414,29.8377182 C20.8106008,30.0540939 21.1893992,30.0540939 21.4547586,29.8377182 C21.7835172,29.5699151 29.5252759,23.2523969 31.9866207,20.8802178 C32.3233448,20.5560737 32.6832414,20.2311978 33.054,19.8975416 C34.6143845,18.6267395 35.9464796,17.093852 36.9918621,15.3661088 L41.2758621,15.3661088 C41.6757924,15.3661088 42,15.0385145 42,14.6344065 C42,14.2302984 41.6757924,13.9027041 41.2758621,13.9027041 L37.6587931,13.9027041 C38.1514536,12.5408307 38.3955769,11.0999605 38.3793103,9.65004994 C38.3793103,3.6976512 34.7926552,0.000177898807 29.0191034,0.000177898807 Z M5.06896552,9.65004994 C5.06896552,4.52374317 8.02634483,1.46372102 12.9808966,1.46372102 C16.0426109,1.45396433 18.8680062,3.12521307 20.3584138,5.82763678 C20.4956958,6.05251831 20.7385084,6.18944838 21,6.18944838 C21.2614916,6.18944838 21.5043042,6.05251831 21.6415862,5.82763678 C23.1319938,3.12521307 25.9573891,1.45396433 29.0191034,1.46372102 C33.9736552,1.46372102 36.9310345,4.52374317 36.9310345,9.65004994 C36.9528,11.1121355 36.6651737,12.5620472 36.0874138,13.9027041 L31.862069,13.9027041 C31.5682367,13.9028219 31.3036038,14.0823395 31.1922414,14.3570913 L30.3855517,11.503452 C30.2960802,11.1922658 30.0146981,10.9776105 29.694,10.9758946 L29.6896552,10.9758946 C29.3697541,10.9758722 29.0877427,11.1879542 28.995931,11.4975984 L27.6345517,16.0839088 L26.0530345,8.62786174 C25.982663,8.29494397 25.6943624,8.05504591 25.3575064,8.04910507 C25.0206503,8.04316423 24.7242401,8.27275026 24.6424138,8.60298386 L23.331,13.9027041 L19.5517241,13.9027041 C19.2578919,13.9028219 18.993259,14.0823395 18.8818966,14.3570913 L18.0752069,11.503452 C17.9857354,11.1922658 17.7043533,10.9776105 17.3836552,10.9758946 C17.0575948,10.959272 16.765322,11.1777029 16.6855862,11.4975984 L15.3242069,16.0839088 L13.7426897,8.62786174 C13.6722948,8.29480253 13.3837939,8.05485654 13.0467931,8.04908517 C12.7079825,8.03683135 12.408194,8.26916221 12.332069,8.60298386 L11.0206552,13.9027041 L5.91258621,13.9027041 C5.33482631,12.5620472 5.04719994,11.1121355 5.06896552,9.65004994 Z M32.0894483,18.8051099 C31.7071034,19.1504735 31.3348966,19.4855931 30.9865862,19.8214445 C28.9061379,21.8270407 22.7306897,26.9087136 21,28.3267528 C19.2693103,26.9087136 13.0945862,21.8270407 11.0134138,19.8214445 C10.6651034,19.4855931 10.2928966,19.1504735 9.91055172,18.8051099 C8.70405494,17.8012599 7.62964049,16.6455412 6.71348276,15.3661088 L11.5862069,15.3661088 C11.918354,15.3661 12.2079089,15.1377673 12.2886207,14.8122101 L12.9801724,12.0171071 L14.5008621,19.1775464 C14.5700576,19.5043608 14.8496117,19.7422658 15.1801034,19.7555913 C15.5098357,19.7658153 15.8059179,19.5528027 15.9042414,19.2346192 L17.3662759,14.310994 L18.1353103,17.0307317 C18.2225592,17.3392349 18.4985378,17.5543143 18.816,17.5612159 C19.1303457,17.558178 19.4100282,17.3588985 19.5184138,17.0607315 L20.0738276,15.3661088 L23.8965517,15.3661088 C24.2286989,15.3661 24.5182538,15.1377673 24.5989655,14.8122101 L25.2905172,12.0171071 L26.8112069,19.1775464 C26.8804024,19.5043608 27.1599566,19.7422658 27.4904483,19.7555913 L27.5172414,19.7555913 C27.8371425,19.7556138 28.1191539,19.5435317 28.2109655,19.2338875 L29.673,14.3102623 L30.4420345,17.03 C30.5292833,17.3385032 30.8052619,17.5535826 31.1227241,17.5604842 C31.4361444,17.5545682 31.7143801,17.3563195 31.8251379,17.0599998 L32.3841724,15.3661088 L35.2865172,15.3661088 C34.3703595,16.6455412 33.2959451,17.8012599 32.0894483,18.8051099 Z" id="Shape"></path>
        </g>
    </g>
</svg>