<?xml version="1.0" encoding="UTF-8"?>
<svg width="80px" height="80px" viewBox="0 0 80 80" version="1.1" xmlns="http://www.w3.org/2000/svg" xmlns:xlink="http://www.w3.org/1999/xlink">
    <title>Life cover Web</title>
    <defs>
        <linearGradient x1="50%" y1="0%" x2="50%" y2="100%" id="linearGradient-1">
            <stop stop-color="#4E91B1" offset="0%"></stop>
            <stop stop-color="#00557B" offset="100%"></stop>
        </linearGradient>
    </defs>
    <g id="Life-cover-Web" stroke="none" stroke-width="1" fill="none" fill-rule="evenodd">
        <rect id="Rectangle-Copy-2" fill="url(#linearGradient-1)" x="0" y="0" width="80" height="80" rx="40"></rect>
        <g id="life-insurance-copy" transform="translate(16.000000, 23.000000)" fill="#FFFFFF" fill-rule="nonzero">
            <path d="M32.4737586,0.000201618648 C28.9167211,-0.0215954341 25.5706796,1.72511382 23.5,4.68491192 C21.4293204,1.72511382 18.0832789,-0.0215954341 14.5262414,0.000201618648 C8.06536207,0.000201618648 4.05172414,4.19067136 4.05172414,10.9367233 C4.03481836,12.5802094 4.30937802,14.2132034 4.86206897,15.756398 L0.810344828,15.756398 C0.362803737,15.756398 0,16.1276716 0,16.5856606 C0,17.0436497 0.362803737,17.4149233 0.810344828,17.4149233 L5.60434483,17.4149233 C6.77417755,19.3730323 8.26485543,21.1103047 10.011,22.5505471 C10.4258966,22.9286909 10.8286379,23.2968835 11.2054483,23.6642469 C13.9606207,26.3518872 22.6232069,33.5125705 22.9911034,33.8160806 C23.2880533,34.0613065 23.7119467,34.0613065 24.0088966,33.8160806 C24.3767931,33.5125705 33.0401897,26.3527165 35.7945517,23.6642469 C36.1713621,23.2968835 36.5741034,22.9286909 36.989,22.5505471 C38.7351446,21.1103047 40.2258224,19.3730323 41.3956552,17.4149233 L46.1896552,17.4149233 C46.6371962,17.4149233 47,17.0436497 47,16.5856606 C47,16.1276716 46.6371962,15.756398 46.1896552,15.756398 L42.1419828,15.756398 C42.6932933,14.2129415 42.966479,12.5799552 42.9482759,10.9367233 C42.9482759,4.19067136 38.9346379,0.000201618648 32.4737586,0.000201618648 Z M5.67241379,10.9367233 C5.67241379,5.12690893 8.98186207,1.65888382 14.5262414,1.65888382 C17.9524455,1.64782624 21.1141974,3.54190814 22.7820345,6.60465502 C22.9356596,6.85952076 23.2073785,7.01470816 23.5,7.01470816 C23.7926215,7.01470816 24.0643404,6.85952076 24.2179655,6.60465502 C25.8858026,3.54190814 29.0475545,1.64782624 32.4737586,1.65888382 C38.0181379,1.65888382 41.3275862,5.12690893 41.3275862,10.9367233 C41.3519429,12.5937536 41.0300753,14.2369868 40.3835345,15.756398 L35.6551724,15.756398 C35.3263602,15.7565315 35.0302233,15.9599848 34.9056034,16.2713701 L34.0028793,13.0372456 C33.9027564,12.6845679 33.5878764,12.4412919 33.229,12.4393472 L33.2241379,12.4393472 C32.8661534,12.4393218 32.5505692,12.6796814 32.4478276,13.0306115 L30.9243793,18.22843 L29.1545862,9.7782433 C29.0758371,9.40093649 28.7532151,9.12905203 28.3762571,9.12231908 C27.9992991,9.11558613 27.6676021,9.37578363 27.5760345,9.75004837 L26.1085,15.756398 L21.8793103,15.756398 C21.5504981,15.7565315 21.2543612,15.9599848 21.1297414,16.2713701 L20.2270172,13.0372456 C20.1268944,12.6845679 19.8120144,12.4412919 19.4531379,12.4393472 C19.0882608,12.4205083 18.7611936,12.6680633 18.6719655,13.0306115 L17.1485172,18.22843 L15.3787241,9.7782433 C15.2999489,9.4007762 14.9771027,9.12883741 14.5999828,9.12229652 C14.2208376,9.10840886 13.8853599,9.37171717 13.8001724,9.75004837 L12.3326379,15.756398 L6.61646552,15.756398 C5.96992468,14.2369868 5.64805707,12.5937536 5.67241379,10.9367233 Z M35.9096207,21.3124579 C35.4817586,21.7038699 35.0652414,22.0836722 34.6754655,22.4643038 C32.3473448,24.7373128 25.4367241,30.4965421 23.5,32.1036532 C21.5632759,30.4965421 14.6534655,24.7373128 12.3245345,22.4643038 C11.9347586,22.0836722 11.5182414,21.7038699 11.0903793,21.3124579 C9.74025196,20.1747613 8.53793102,18.8649467 7.5127069,17.4149233 L12.9655172,17.4149233 C13.3372057,17.4149133 13.6612314,17.1561362 13.7515517,16.7871715 L14.525431,13.619388 L16.2271552,21.7345526 C16.3045882,22.1049422 16.6174227,22.3745679 16.9872586,22.3896702 C17.3562448,22.4012574 17.6875747,22.1598431 17.7976034,21.7992351 L19.4336897,16.2191265 L20.2942759,19.3014959 C20.3919115,19.6511329 20.7007447,19.8948895 21.056,19.9027114 C21.4077679,19.8992684 21.7207458,19.6734182 21.8420345,19.3354957 L22.463569,17.4149233 L26.7413793,17.4149233 C27.1130678,17.4149133 27.4370935,17.1561362 27.5274138,16.7871715 L28.3012931,13.619388 L30.0030172,21.7345526 C30.0804503,22.1049422 30.3932847,22.3745679 30.7631207,22.3896702 L30.7931034,22.3896702 C31.151088,22.3896956 31.4666722,22.149336 31.5694138,21.7984059 L33.2055,16.2182973 L34.0660862,19.3006667 C34.1637218,19.6503036 34.472555,19.8940603 34.8278103,19.9018821 C35.1785426,19.8951773 35.4899015,19.6704954 35.6138448,19.3346664 L36.239431,17.4149233 L39.4872931,17.4149233 C38.462069,18.8649467 37.259748,20.1747613 35.9096207,21.3124579 Z" id="Shape"></path>
        </g>
    </g>
</svg>