<?xml version="1.0" encoding="UTF-8"?>
<svg width="80px" height="80px" viewBox="0 0 80 80" version="1.1" xmlns="http://www.w3.org/2000/svg" xmlns:xlink="http://www.w3.org/1999/xlink">
    <title>Merchant App Web</title>
    <defs>
        <linearGradient x1="50%" y1="0%" x2="50%" y2="100%" id="linearGradient-1">
            <stop stop-color="#4E91B1" offset="0%"></stop>
            <stop stop-color="#00557B" offset="100%"></stop>
        </linearGradient>
    </defs>
    <g id="Merchant-App-Web" stroke="none" stroke-width="1" fill="none" fill-rule="evenodd">
        <rect id="Rectangle-Copy-2" fill="url(#linearGradient-1)" x="0" y="0" width="80" height="80" rx="40"></rect>
        <g id="cashier-machine-copy" transform="translate(21.000000, 21.000000)" fill="#FFFFFF" fill-rule="nonzero">
            <path d="M21.6582611,24.4738134 L20.7843336,24.4738134 C20.4769189,24.4738134 20.2276919,24.7282596 20.2276919,25.0421119 C20.2276919,25.3559642 20.4769189,25.6104104 20.7843336,25.6104104 L21.6582611,25.6104104 C21.9656757,25.6104104 22.2149028,25.3559642 22.2149028,25.0421119 C22.2149028,24.7282596 21.9656757,24.4738134 21.6582611,24.4738134 Z" id="Path"></path>
            <path d="M24.8453688,24.4738134 L23.9714414,24.4738134 C23.6640267,24.4738134 23.4147996,24.7282596 23.4147996,25.0421119 C23.4147996,25.3559642 23.6640267,25.6104104 23.9714414,25.6104104 L24.8453688,25.6104104 C25.1527835,25.6104104 25.4020106,25.3559642 25.4020106,25.0421119 C25.4020106,24.7282596 25.1527835,24.4738134 24.8453688,24.4738134 Z" id="Path"></path>
            <path d="M28.0324766,24.4738134 L27.1585491,24.4738134 C26.8511345,24.4738134 26.6019074,24.7282596 26.6019074,25.0421119 C26.6019074,25.3559642 26.8511345,25.6104104 27.1585491,25.6104104 L28.0324766,25.6104104 C28.3398913,25.6104104 28.5891183,25.3559642 28.5891183,25.0421119 C28.5891183,24.7282596 28.3398913,24.4738134 28.0324766,24.4738134 Z" id="Path"></path>
            <path d="M31.2195844,24.4738134 L30.3455827,24.4738134 C30.038168,24.4738134 29.788941,24.7282596 29.788941,25.0421119 C29.788941,25.3559642 30.038168,25.6104104 30.3455827,25.6104104 L31.2195844,25.6104104 C31.5269991,25.6104104 31.7762261,25.3559642 31.7762261,25.0421119 C31.7762261,24.7282596 31.5269991,24.4738134 31.2195844,24.4738134 Z" id="Path"></path>
            <path d="M21.6582611,27.4565471 L20.7843336,27.4565471 C20.4769189,27.4565471 20.2276919,27.7109933 20.2276919,28.0248456 C20.2276919,28.3386979 20.4769189,28.5931441 20.7843336,28.5931441 L21.6582611,28.5931441 C21.9656757,28.5931441 22.2149028,28.3386979 22.2149028,28.0248456 C22.2149028,27.7109933 21.9656757,27.4565471 21.6582611,27.4565471 Z" id="Path"></path>
            <path d="M24.8453688,27.4565471 L23.9714414,27.4565471 C23.6640267,27.4565471 23.4147996,27.7109933 23.4147996,28.0248456 C23.4147996,28.3386979 23.6640267,28.5931441 23.9714414,28.5931441 L24.8453688,28.5931441 C25.1527835,28.5931441 25.4020106,28.3386979 25.4020106,28.0248456 C25.4020106,27.7109933 25.1527835,27.4565471 24.8453688,27.4565471 Z" id="Path"></path>
            <path d="M28.0324766,27.4565471 L27.1585491,27.4565471 C26.8511345,27.4565471 26.6019074,27.7109933 26.6019074,28.0248456 C26.6019074,28.3386979 26.8511345,28.5931441 27.1585491,28.5931441 L28.0324766,28.5931441 C28.3398913,28.5931441 28.5891183,28.3386979 28.5891183,28.0248456 C28.5891183,27.7109933 28.3398913,27.4565471 28.0324766,27.4565471 Z" id="Path"></path>
            <path d="M31.2195844,27.4565471 L30.3455827,27.4565471 C30.038168,27.4565471 29.788941,27.7109933 29.788941,28.0248456 C29.788941,28.3386979 30.038168,28.5931441 30.3455827,28.5931441 L31.2195844,28.5931441 C31.5269991,28.5931441 31.7762261,28.3386979 31.7762261,28.0248456 C31.7762261,27.7109933 31.5269991,27.4565471 31.2195844,27.4565471 Z" id="Path"></path>
            <path d="M12.7719585,11.8387946 L9.94941396,11.8387946 C9.6419993,11.8387946 9.39277225,12.0932408 9.39277225,12.4070932 C9.39277225,12.7209455 9.6419993,12.9753917 9.94941396,12.9753917 L12.7719585,12.9753917 C13.0793732,12.9753917 13.3286003,12.7209455 13.3286003,12.4070932 C13.3286003,12.0932408 13.0793732,11.8387946 12.7719585,11.8387946 Z" id="Path"></path>
            <path d="M12.7719585,14.1137315 L9.94941396,14.1137315 C9.6419993,14.1137315 9.39277225,14.3681777 9.39277225,14.68203 C9.39277225,14.9958823 9.6419993,15.2503285 9.94941396,15.2503285 L12.7719585,15.2503285 C13.0793732,15.2503285 13.3286003,14.9958823 13.3286003,14.68203 C13.3286003,14.3681777 13.0793732,14.1137315 12.7719585,14.1137315 Z" id="Path"></path>
            <path d="M32.2931607,21.4537236 L32.2931607,17.7066662 C32.2931607,17.0594121 31.7773394,16.5327888 31.1433616,16.5327888 L20.9405643,16.5327888 C20.3065865,16.5327888 19.7907652,17.0594121 19.7907652,17.7066662 L19.7907652,21.4537236 C19.7907652,22.1009777 20.3065865,22.627601 20.9405643,22.627601 L31.1433616,22.627601 C31.7773394,22.6276767 32.2931607,22.1010534 32.2931607,21.4537236 Z M31.1798773,21.4537236 C31.1798773,21.4742581 31.1634749,21.4910039 31.1433616,21.4910039 L20.9405643,21.4910039 C20.920451,21.4910039 20.9040486,21.4742581 20.9040486,21.4537236 L20.9040486,17.7066662 C20.9040486,17.6861317 20.920451,17.6693859 20.9405643,17.6693859 L31.1433616,17.6693859 C31.1634749,17.6693859 31.1798773,17.6861317 31.1798773,17.7066662 L31.1798773,21.4537236 Z" id="Shape"></path>
            <path d="M5.05460362,20.0941262 L5.05460362,21.5687472 C5.05460362,22.152655 5.51988187,22.627601 6.09173846,22.627601 L16.6297083,22.627601 C17.2016391,22.627601 17.6668431,22.1525792 17.6668431,21.5687472 L17.6668431,20.0941262 C17.6668431,19.5102184 17.2015648,19.0352724 16.6297083,19.0352724 L15.7617925,19.0352724 L15.7617925,10.5376941 C15.7617925,9.8862725 15.2427056,9.35631519 14.6047199,9.35631519 L8.11680101,9.35631519 C7.47874117,9.35631519 6.95972844,9.8862725 6.95972844,10.5376941 L6.95972844,19.0352724 L6.09173846,19.0352724 C5.51980766,19.0352724 5.05460362,19.5102184 5.05460362,20.0941262 Z M15.7617183,20.1718694 L16.5534855,20.1718694 L16.5534855,21.4910797 L15.7617183,21.4910797 L15.7617183,20.1718694 Z M8.07293764,10.5376941 C8.07293764,10.5129921 8.09260565,10.4929122 8.11672679,10.4929122 L14.6046457,10.4929122 C14.6288411,10.4929122 14.6484349,10.5129921 14.6484349,10.5376941 L14.6484349,21.4910797 L8.07293764,21.4910797 L8.07293764,10.5376941 Z M6.16788705,20.1718694 L6.95965422,20.1718694 L6.95965422,21.4910797 L6.16788705,21.4910797 L6.16788705,20.1718694 Z" id="Shape"></path>
            <path d="M36.8076735,31.6843092 L36.0161289,31.6843092 L34.8314469,14.1289619 C34.7820914,13.3972207 34.1806214,12.823997 33.4621825,12.823997 L28.2509771,12.823997 L28.2509771,10.4034999 L33.7282573,10.4034999 C34.6770716,10.4034999 35.4489481,9.61545931 35.4489481,8.64677555 L35.4489481,1.75672437 C35.4489481,0.788040606 34.6770716,0 33.7282573,0 L18.2298676,0 C17.2810533,0 16.5091768,0.788040606 16.5091768,1.75672437 L16.5091768,8.64677555 C16.5091768,9.61545931 17.2810533,10.4034999 18.2298676,10.4034999 L23.7071479,10.4034999 L23.7071479,12.823997 L17.8165426,12.823997 C17.5091279,12.823997 17.2599009,13.0784431 17.2599009,13.3922955 C17.2599009,13.7061478 17.5091279,13.960594 17.8165426,13.960594 L33.4621825,13.960594 C33.5978547,13.960594 33.7114096,14.0688738 33.7207612,14.2070082 L34.9001736,31.6842334 L3.07117787,31.6842334 L4.25059033,14.2069324 C4.2598677,14.068798 4.37349682,13.9605182 4.50916896,13.9605182 L4.90067363,13.9605182 C5.2080883,13.9605182 5.45731535,13.706072 5.45731535,13.3922197 C5.45731535,13.0783674 5.2080883,12.8239212 4.90067363,12.8239212 L4.50916896,12.8239212 C3.79073006,12.8239212 3.18926014,13.3970692 3.13990457,14.1288103 L1.95522257,31.6843092 L1.19240077,31.6843092 C0.534969795,31.6843092 0,32.2304062 0,32.9016804 L0,36.7826288 C0,37.453903 0.534969795,38 1.19240077,38 L36.8075992,38 C37.4651044,38 38,37.4538272 38,36.7826288 L38,32.9016804 C38,32.2304062 37.4651044,31.6843092 36.8076735,31.6843092 Z M18.2298676,9.26690289 C17.894992,9.26690289 17.6224602,8.98873971 17.6224602,8.64677555 L17.6224602,1.75672437 C17.6224602,1.41476021 17.8949178,1.13659703 18.2298676,1.13659703 L33.7281831,1.13659703 C34.0630587,1.13659703 34.3355905,1.41476021 34.3355905,1.75672437 L34.3355905,8.64677555 C34.3355905,8.98873971 34.0631329,9.26690289 33.7281831,9.26690289 L18.2298676,9.26690289 Z M27.1376936,12.823997 L24.8204313,12.823997 L24.8204313,10.4034999 L27.1376936,10.4034999 L27.1376936,12.823997 Z M36.8867908,36.7826288 C36.8867908,36.8271834 36.8512399,36.863403 36.8076735,36.863403 L31.3392253,36.863403 L31.3392253,35.635272 C31.3392253,34.8636742 30.7243959,34.2359695 29.9686249,34.2359695 L27.9585546,34.2359695 C27.6511399,34.2359695 27.4019129,34.4904157 27.4019129,34.804268 C27.4019129,35.1181203 27.6511399,35.3725665 27.9585546,35.3725665 L29.9686249,35.3725665 C30.1105315,35.3725665 30.2259418,35.4903938 30.2259418,35.635272 L30.2259418,36.863403 L8.07293764,36.863403 L8.07293764,35.635272 C8.07293764,35.4903938 8.18834802,35.3725665 8.33025455,35.3725665 L25.3542878,35.3725665 C25.6617025,35.3725665 25.9109295,35.1181203 25.9109295,34.804268 C25.9109295,34.4904157 25.6617025,34.2359695 25.3542878,34.2359695 L8.33025455,34.2359695 C7.57448354,34.2359695 6.95965422,34.8636742 6.95965422,35.635272 L6.95965422,36.863403 L1.19240077,36.863403 C1.14876006,36.863403 1.11328342,36.8271076 1.11328342,36.7826288 L1.11328342,32.9016804 C1.11328342,32.8571258 1.14883428,32.8209062 1.19240077,32.8209062 L36.8075992,32.8209062 C36.8512399,32.8209062 36.8867908,32.8572015 36.8867908,32.9016804 L36.8867908,36.7826288 L36.8867908,36.7826288 Z" id="Shape"></path>
            <path d="M32.2150082,2.27501261 L19.7430425,2.27501261 C19.1885531,2.27501261 18.7375249,2.73556173 18.7375249,3.30158705 L18.7375249,7.10191287 C18.7375249,7.66801397 19.1886273,8.12848731 19.7430425,8.12848731 L32.2150082,8.12848731 C32.7694976,8.12848731 33.2205258,7.66793819 33.2205258,7.10191287 L33.2205258,3.30158705 C33.2205258,2.73556173 32.7694976,2.27501261 32.2150082,2.27501261 Z M32.1073166,6.99189028 L19.8508083,6.99189028 L19.8508083,3.41160964 L32.1073166,3.41160964 L32.1073166,6.99189028 Z" id="Shape"></path>
        </g>
    </g>
</svg>