<?xml version="1.0" encoding="UTF-8"?>
<svg width="80px" height="80px" viewBox="0 0 80 80" version="1.1" xmlns="http://www.w3.org/2000/svg" xmlns:xlink="http://www.w3.org/1999/xlink">
    <title>Mobile web</title>
    <defs>
        <linearGradient x1="50%" y1="0%" x2="50%" y2="100%" id="linearGradient-1">
            <stop stop-color="#4E91B1" offset="0%"></stop>
            <stop stop-color="#00557B" offset="100%"></stop>
        </linearGradient>
    </defs>
    <g id="Mobile-web" stroke="none" stroke-width="1" fill="none" fill-rule="evenodd">
        <rect id="Rectangle-Copy-2" fill="url(#linearGradient-1)" x="0" y="0" width="80" height="80" rx="40"></rect>
        <g id="smartphone-(3)" transform="translate(30.400000, 22.400000)" fill="#FFFFFF" fill-rule="nonzero">
            <path d="M17.179929,0 L3.62007104,0 C1.62169406,0.00228218128 0.00225077231,1.64432439 -5.27633884e-15,3.67058824 L-5.27633884e-15,31.5294118 C0.00225077231,33.5556756 1.62169406,35.1977178 3.62007104,35.2 L17.179929,35.2 C19.1783059,35.1977178 20.7977492,33.5556756 20.8,31.5294118 L20.8,3.67058824 C20.7977492,1.64432439 19.1783059,0.00228218128 17.179929,0 L17.179929,0 Z M14.4754574,1.31764706 L14.4754574,2.16922353 C14.4748437,2.52735679 14.1885593,2.81746791 13.8353546,2.81788235 L6.96650185,2.81788235 C6.61335752,2.81746744 6.32717952,2.5272959 6.32677032,2.16922353 L6.32677032,1.31764706 L14.4754574,1.31764706 Z M19.500116,31.5294118 C19.4986837,32.8283032 18.4605729,33.8809006 17.1795577,33.8823529 L3.62007104,33.8823529 C2.33905581,33.8809006 1.30094501,32.8283032 1.29951268,31.5294118 L1.29951268,3.67058824 C1.30094501,2.37169675 2.33905581,1.31909938 3.62007104,1.31764706 L5.02577248,1.31764706 L5.02577248,2.16922353 C5.02700012,3.25466826 5.89451061,4.13428463 6.96501669,4.13552941 L13.8338694,4.13552941 C14.9044358,4.13428506 15.7720528,3.25472916 15.7734849,2.16922353 L15.7734849,1.31764706 L17.179929,1.31764706 C18.4607992,1.31930678 19.4986841,2.37184353 19.500116,3.67058824 L19.500116,31.5294118 Z" id="Shape"></path>
            <path d="M14.3952589,30.7452235 L6.40474108,30.7452235 C6.04589056,30.7452235 5.75498474,31.0401889 5.75498474,31.4040471 C5.75498474,31.7679052 6.04589056,32.0628706 6.40474108,32.0628706 L14.3952589,32.0628706 C14.7541094,32.0628706 15.0450153,31.7679052 15.0450153,31.4040471 C15.0450153,31.0401889 14.7541094,30.7452235 14.3952589,30.7452235 Z" id="Path"></path>
        </g>
    </g>
</svg>