<?xml version="1.0" encoding="UTF-8"?>
<svg width="80px" height="80px" viewBox="0 0 80 80" version="1.1" xmlns="http://www.w3.org/2000/svg" xmlns:xlink="http://www.w3.org/1999/xlink">
    <title>Mobile prepaid</title>
    <defs>
        <linearGradient x1="50%" y1="0%" x2="50%" y2="100%" id="linearGradient-1">
            <stop stop-color="#4E91B1" offset="0%"></stop>
            <stop stop-color="#00557B" offset="100%"></stop>
        </linearGradient>
    </defs>
    <g id="Mobile-prepaid" stroke="none" stroke-width="1" fill="none" fill-rule="evenodd">
        <rect id="Rectangle-Copy-6" fill="url(#linearGradient-1)" x="0" y="0" width="80" height="80" rx="40"></rect>
        <g id="phone-call-(2)-copy" transform="translate(29.000000, 24.000000)" fill="#FFFFFF" fill-rule="nonzero">
            <path d="M20.4835394,3.95482422 C20.7687942,3.95482422 21,3.73183203 21,3.45677734 L21,2.00121875 C21,0.897746094 20.069049,0 18.9249314,0 L2.07499975,0 C0.930882194,0 0,0.897746094 0,2.00121875 L0,31.9987813 C0,33.1022539 0.930882194,34 2.07499975,34 L18.9250002,34 C20.0691178,34 21,33.1022539 21,31.9987812 L21,5.7831875 C21,5.50813281 20.7688631,5.28514062 20.4836083,5.28514062 C20.1983534,5.28514062 19.9672165,5.50813281 19.9672165,5.7831875 L19.9672165,30.6796875 L6.54509329,30.6796875 C6.25983849,30.6796875 6.02870155,30.9026797 6.02870155,31.1777344 C6.02870155,31.4527891 6.25983849,31.6757812 6.54509329,31.6757812 L19.9671476,31.6757812 L19.9671476,31.9987812 C19.9671476,32.5530078 19.499641,33.0039062 18.9249314,33.0039062 L2.07499975,33.0039062 C1.50029016,33.0039062 1.0327835,32.5530078 1.0327835,31.9987812 L1.0327835,31.6757812 L4.16294373,31.6757812 C4.44819853,31.6757812 4.67933548,31.4527891 4.67933548,31.1777344 C4.67933548,30.9026797 4.44819853,30.6796875 4.16294373,30.6796875 L1.0327835,30.6796875 L1.0327835,2.00121875 C1.0327835,1.44699219 1.50029016,0.99609375 2.07499975,0.99609375 L4.81965633,0.99609375 L4.81965633,1.96230469 C4.81965633,2.68540234 5.42961826,3.27369531 6.17935023,3.27369531 L14.8205809,3.27369531 C15.5703129,3.27369531 16.1802748,2.68540234 16.1802748,1.96230469 L16.1802748,0.99609375 L18.9249314,0.99609375 C19.499641,0.99609375 19.9671476,1.44699219 19.9671476,2.00121875 L19.9671476,3.45677734 C19.9671476,3.73183203 20.1982846,3.95482422 20.4835394,3.95482422 Z M15.1474913,1.96230469 C15.1474913,2.13615625 15.0008361,2.27760156 14.8205809,2.27760156 L6.17935023,2.27760156 C5.99909508,2.27760156 5.85243983,2.13615625 5.85243983,1.96230469 L5.85243983,0.99609375 L15.1474913,0.99609375 L15.1474913,1.96230469 Z" id="Shape"></path>
            <path d="M8.39597903,15.0679766 C8.40093639,15.0645234 8.40589375,15.0609375 8.41071341,15.0572852 C8.84847591,14.7283086 8.95065262,14.1215547 8.64295199,13.6755039 L6.88336432,11.1296875 C6.56705716,10.6721484 5.93630185,10.5353516 5.44724444,10.8181758 L4.3470546,11.4547461 C3.93256416,11.6902227 3.63174875,12.0656836 3.49879509,12.5165156 C3.08051777,13.9873477 3.37610041,16.5065352 7.15946177,20.155625 C10.1528815,23.0426367 12.4127495,23.8237734 13.983682,23.8237734 C14.3982413,23.8237734 14.765086,23.7693203 15.0844915,23.6847852 C15.5472474,23.55775 15.9364691,23.2676211 16.1784847,22.871375 L16.8407743,21.80675 C17.1339471,21.3351328 16.9919738,20.7267852 16.5177196,20.4217148 C16.5176508,20.4217148 16.5176508,20.4217148 16.5176508,20.4217148 L13.8776496,18.7243047 C13.4157199,18.4279336 12.7865482,18.5264141 12.4453854,18.9485586 C12.4415986,18.953207 12.4380182,18.9579883 12.4343691,18.9627695 L11.867784,19.718207 C11.8580759,19.728168 11.8428595,19.7307578 11.8309481,19.7243828 C11.7819942,19.6980859 11.7321451,19.6719219 11.6809879,19.6450937 C11.2127239,19.3992578 10.6298897,19.0933242 9.44618214,17.9502734 C8.25875653,16.8035039 7.94127888,16.2416406 7.6861125,15.7901445 C7.65905358,15.742332 7.63275202,15.6957148 7.60686358,15.6506914 C7.5997718,15.6384727 7.60238819,15.6235977 7.61271602,15.6143008 L8.39597903,15.0679766 Z M6.70372884,16.1340625 C6.7287222,16.1774922 6.75371556,16.2216523 6.77925974,16.266875 C7.06609814,16.774418 7.42302812,17.4060742 8.71545339,18.6542461 C10.0048492,19.8994297 10.660529,20.2436133 11.1873174,20.5201289 C11.2355828,20.5454297 11.2826778,20.5701328 11.3297727,20.5954336 C11.7934236,20.8430625 12.3646218,20.7287773 12.6880207,20.323832 C12.6911879,20.3198477 12.6942862,20.3158633 12.6973157,20.3118125 L13.2625237,19.5581016 C13.2737466,19.5470117 13.2918548,19.5448867 13.3052121,19.5533867 L15.9447313,21.2505312 C15.9598254,21.2602266 15.9642854,21.2796172 15.9549903,21.2944258 L15.2906351,22.3624375 C15.1817797,22.5407383 15.0081344,22.6700977 14.8064662,22.7254805 C12.4015266,23.3615859 9.44074282,20.9471211 7.88977741,19.4512539 C6.33874315,17.9553203 3.83513825,15.0993867 4.4933656,12.7845977 C4.5521654,12.5855117 4.68635841,12.4179687 4.87480697,12.3109219 L5.97837056,11.6723594 C5.98387874,11.6691719 5.98986889,11.6676445 5.99585903,11.6676445 C6.00680654,11.6676445 6.01747863,11.6728242 6.02401959,11.6821875 L7.78340071,14.2276055 C7.7924892,14.2407539 7.79028593,14.2583516 7.77878761,14.2691758 L6.99731476,14.8143047 C6.99311478,14.8172266 6.98898364,14.8202148 6.98492136,14.8232695 C6.56506044,15.1351133 6.44656575,15.6859531 6.70372884,16.1340625 L6.70372884,16.1340625 Z" id="Shape"></path>
            <path d="M13.4954508,17.2479609 C13.4954508,17.5230156 13.7265878,17.7460078 14.0118426,17.7460078 C14.2970974,17.7460078 14.5282343,17.5230156 14.5282343,17.2479609 C14.5282343,14.9323086 12.5749653,13.0484297 10.174088,13.0484297 C9.88883315,13.0484297 9.6576962,13.2714219 9.6576962,13.5464766 C9.6576962,13.8215312 9.88883315,14.0445234 10.174088,14.0445234 C12.0054885,14.0445234 13.4954508,15.4815547 13.4954508,17.2479609 Z" id="Path"></path>
            <path d="M17.6445553,17.2479609 C17.6445553,13.2750742 14.2933105,10.0428828 10.174088,10.0428828 C9.88883315,10.0428828 9.6576962,10.265875 9.6576962,10.5409297 C9.6576962,10.8159844 9.88883315,11.0389766 10.174088,11.0389766 C13.7238337,11.0389766 16.6117718,13.8243203 16.6117718,17.2479609 C16.6117718,17.5230156 16.8429087,17.7460078 17.1281635,17.7460078 C17.4134183,17.7460078 17.6445553,17.5230156 17.6445553,17.2479609 Z" id="Path"></path>
        </g>
    </g>
</svg>