<?xml version="1.0" encoding="UTF-8"?>
<svg width="80px" height="80px" viewBox="0 0 80 80" version="1.1" xmlns="http://www.w3.org/2000/svg" xmlns:xlink="http://www.w3.org/1999/xlink">
    <title>Mobile internet</title>
    <defs>
        <linearGradient x1="50%" y1="0%" x2="50%" y2="100%" id="linearGradient-1">
            <stop stop-color="#4E91B1" offset="0%"></stop>
            <stop stop-color="#00557B" offset="100%"></stop>
        </linearGradient>
    </defs>
    <g id="Mobile-internet" stroke="none" stroke-width="1" fill="none" fill-rule="evenodd" transform="translate(0.000000, 0.000000)">
        <rect id="Rectangle-Copy-2" fill="url(#linearGradient-1)" x="0" y="0" width="80" height="80" rx="40"></rect>
        <g id="online-copy" transform="translate(26.000000, 22.000000)" fill="#FFFFFF" fill-rule="nonzero">
            <path d="M21.5763908,6.63 L21.5763908,1.8 C21.5732544,0.80711832 20.722729,0.002965321 19.6725916,0 L1.90379919,0 C0.853661778,0.002965321 0.00313631984,0.80711832 0,1.8 L0,34.2 C0.00313631984,35.1928817 0.853661778,35.9970347 1.90379919,36 L19.6725916,36 C20.722729,35.9970347 21.5732544,35.1928817 21.5763908,34.2 L21.5763908,29.37 C27.978143,29.0589904 33,24.0607002 33,18 C33,11.9392998 27.978143,6.94100961 21.5763908,6.63 Z M31.6982564,17.4 L26.6404966,17.4 C26.6075117,15.8260183 26.4012113,14.2595661 26.0249349,12.726 C27.0264925,12.2815099 27.9594455,11.7102731 28.7981357,11.028 C30.5251255,12.7648104 31.5516343,15.0202041 31.6982564,17.4 Z M27.8779661,10.194 C27.2093494,10.7332396 26.4716554,11.1908305 25.682251,11.556 C25.3031435,10.3426451 24.6946793,9.20426322 23.8863338,8.196 C25.3509689,8.58851151 26.7112665,9.26940454 27.8779661,10.194 L27.8779661,10.194 Z M15.8586472,12.726 C15.4823708,14.2595661 15.2760704,15.8260183 15.2430855,17.4 L10.1853256,17.4 C10.3319478,15.0202041 11.3584566,12.7648104 13.0854464,11.028 C13.9241365,11.7102731 14.8570896,12.2815099 15.8586472,12.726 L15.8586472,12.726 Z M14.005616,10.194 C15.1723156,9.26940454 16.5326132,8.58851151 17.9972483,8.196 C17.1889028,9.20426322 16.5804386,10.3426451 16.2013311,11.556 C15.4119267,11.1908305 14.6742327,10.7332396 14.005616,10.194 L14.005616,10.194 Z M15.2430855,18.6 C15.2760704,20.1739817 15.4823708,21.7404339 15.8586472,23.274 C14.8570896,23.7184901 13.9241365,24.2897269 13.0854464,24.972 C11.3584566,23.2351896 10.3319478,20.9797959 10.1853256,18.6 L15.2430855,18.6 Z M16.2013311,24.444 C16.5804386,25.6573549 17.1889028,26.7957368 17.9972483,27.804 C16.5326132,27.4114885 15.1723156,26.7305955 14.005616,25.806 C14.6742327,25.2667604 15.4119267,24.8091695 16.2013311,24.444 L16.2013311,24.444 Z M16.5122849,18.6 L25.3712971,18.6 C25.3444013,20.0210364 25.1679589,21.4360125 24.8445794,22.824 C22.317158,21.9918165 19.5664241,21.9918165 17.0390027,22.824 C16.7156232,21.4360125 16.5391807,20.0210364 16.5122849,18.6 L16.5122849,18.6 Z M16.5122849,17.4 C16.5391807,15.9789636 16.7156232,14.5639875 17.0390027,13.176 C19.5664241,14.0081835 22.317158,14.0081835 24.8445794,13.176 C25.1679589,14.5639875 25.3444013,15.9789636 25.3712971,17.4 L16.5122849,17.4 Z M24.5145875,12.012 C22.2048914,12.7959944 19.6786906,12.7959944 17.3689946,12.012 C18.2320502,9.372 19.6154776,7.8 20.941791,7.8 C22.2681045,7.8 23.6515319,9.372 24.5145875,12.012 L24.5145875,12.012 Z M16.9565047,1.2 L16.7597788,1.944 C16.6897871,2.21167343 16.4358497,2.39978687 16.1442171,2.4 L5.43217367,2.4 C5.14054105,2.39978687 4.8866037,2.21167343 4.81661194,1.944 L4.61988602,1.2 L16.9565047,1.2 Z M20.3071913,34.2 C20.3071913,34.5313708 20.0230713,34.8 19.6725916,34.8 L1.90379919,34.8 C1.55331943,34.8 1.26919946,34.5313708 1.26919946,34.2 L1.26919946,1.8 C1.26919946,1.46862915 1.55331943,1.2 1.90379919,1.2 L3.31261058,1.2 L3.58548847,2.238 C3.79793035,3.03863765 4.55912481,3.60004728 5.43217367,3.6 L16.1442171,3.6 C17.017266,3.60004728 17.7784604,3.03863765 17.9909023,2.238 L18.2637802,1.2 L19.6725916,1.2 C20.0230713,1.2 20.3071913,1.46862915 20.3071913,1.8 L20.3071913,6.63 C13.9054391,6.94100961 8.88358207,11.9392998 8.88358207,18 C8.88358207,24.0607002 13.9054391,29.0589904 20.3071913,29.37 L20.3071913,34.2 Z M20.941791,28.2 C19.6154776,28.2 18.2320502,26.628 17.3689946,23.988 C19.6786906,23.2040056 22.2048914,23.2040056 24.5145875,23.988 C23.6515319,26.628 22.2681045,28.2 20.941791,28.2 Z M23.8863338,27.804 C24.6946793,26.7957368 25.3031435,25.6573549 25.682251,24.444 C26.4716554,24.8091695 27.2093494,25.2667604 27.8779661,25.806 C26.7112665,26.7305955 25.3509689,27.4114885 23.8863338,27.804 L23.8863338,27.804 Z M28.7981357,24.972 C27.9594455,24.2897269 27.0264925,23.7184901 26.0249349,23.274 C26.4012113,21.7404339 26.6075117,20.1739817 26.6404966,18.6 L31.6982564,18.6 C31.5516343,20.9797959 30.5251255,23.2351896 28.7981357,24.972 L28.7981357,24.972 Z" id="Shape"></path>
        </g>
    </g>
</svg>