<?xml version="1.0" encoding="UTF-8"?>
<svg width="80px" height="80px" viewBox="0 0 80 80" version="1.1" xmlns="http://www.w3.org/2000/svg" xmlns:xlink="http://www.w3.org/1999/xlink">
    <title>Money out web</title>
    <defs>
        <linearGradient x1="50%" y1="0%" x2="50%" y2="100%" id="linearGradient-1">
            <stop stop-color="#4E91B1" offset="0%"></stop>
            <stop stop-color="#00557B" offset="100%"></stop>
        </linearGradient>
    </defs>
    <g id="Money-out-web" stroke="none" stroke-width="1" fill="none" fill-rule="evenodd">
        <rect id="Rectangle-Copy-2" fill="url(#linearGradient-1)" x="0" y="0" width="80" height="80" rx="40"></rect>
        <g id="investment-(1)" transform="translate(19.200000, 21.228635)" fill="#FFFFFF" fill-rule="nonzero" stroke="#257195" stroke-width="0.5">
            <path d="M13.2053651,9.17136508 C5.9239392,9.17136508 0,14.8761585 0,21.8883576 C0,23.1226785 0.184131148,24.3423108 0.547309687,25.5134588 C0.694366617,25.9873157 1.21241371,26.2570846 1.70454605,26.1153335 C2.19667839,25.9737019 2.47653294,25.4748863 2.3296,25.0007905 C2.01800298,23.9961134 1.86003458,22.9488036 1.86003458,21.8883576 C1.86003458,15.8638779 6.94961788,10.962659 13.2054891,10.962659 C19.4613604,10.962659 24.5509437,15.8638779 24.5509437,21.8883576 C24.5509437,27.9134344 19.4613604,32.8152504 13.2054891,32.8152504 C9.61040596,32.8152504 6.30373294,31.2217154 4.13321729,28.4434185 C3.82434814,28.0481397 3.24157615,27.9686062 2.83103189,28.2661998 C2.42061162,28.5635546 2.33827958,29.1250656 2.64702474,29.5203444 C5.17216334,32.7526746 9.02056632,34.6066637 13.2054891,34.6066637 C20.4869151,34.6066637 26.4108542,28.9013927 26.4108542,21.888477 C26.4108542,14.8761585 20.4867911,9.17136508 13.2053651,9.17136508 Z" id="Path"></path>
            <path d="M10.1247332,26.5761738 C9.69472191,26.3054495 9.11852161,26.4212865 8.83742712,26.8354337 C8.55620864,27.249342 8.67673085,27.8044043 9.10649419,28.0752479 C10.3087404,28.8327264 11.1293329,29.0571158 12.1913419,29.1137207 L12.1913419,30.1009625 C12.1913419,30.5957179 12.6077139,30.9966094 13.1212972,30.9966094 C13.6348805,30.9966094 14.0512525,30.5957179 14.0512525,30.1009625 L14.0512525,29.0429049 C16.1591511,28.6479843 17.3902879,26.9756323 17.6629508,25.4133852 C18.012986,23.4078525 16.9235744,21.6640876 14.8875923,20.9709763 C14.6128215,20.8774707 14.331603,20.7793078 14.0512525,20.6770847 L14.0512525,16.3507516 C14.7545466,16.5512571 15.1994373,16.9025896 15.2375034,16.9333998 C15.6247368,17.2542803 16.2087487,17.2143941 16.5451446,16.8431186 C16.8826563,16.4702906 16.8423583,15.9044806 16.4552489,15.5794205 C16.3984596,15.5318915 15.4780519,14.7762043 14.0511285,14.5116899 L14.0511285,13.6769469 C14.0511285,13.1821916 13.6347565,12.7813 13.1211732,12.7813 C12.6075899,12.7813 12.1912179,13.1821916 12.1912179,13.6769469 L12.1912179,14.4954488 C11.9855118,14.5297222 11.7754659,14.57546 11.5603362,14.6375581 C10.1608155,15.0419129 9.21139314,16.0221089 8.95522146,17.3268874 C8.69904978,18.6317853 9.21709687,20.0299499 10.2442635,20.8059384 C10.7370158,21.1780499 11.3504143,21.5188734 12.1912179,21.8790429 L12.1912179,27.3196801 C11.4591571,27.2688074 10.9538814,27.0986345 10.1247332,26.5761738 L10.1247332,26.5761738 Z M11.3922003,19.3963095 C10.9049037,19.0282583 10.6543118,18.3140098 10.7827696,17.659471 C10.8708054,17.2110504 11.169879,16.6204011 12.0947505,16.3532594 C12.127237,16.3438253 12.1592274,16.336063 12.1913419,16.3277036 L12.1913419,19.8868852 C11.8904083,19.7303261 11.6181174,19.5669601 11.3922003,19.3963095 Z M14.2677461,22.6598082 C16.0104823,23.2530847 15.9032274,24.6901801 15.828831,25.1163886 C15.683138,25.9510122 15.0777991,26.8359114 14.0512525,27.1839001 L14.0512525,22.5850515 C14.123045,22.6100102 14.1935976,22.6346106 14.2677461,22.6598082 L14.2677461,22.6598082 Z" id="Shape"></path>
            <path d="M41.0337192,15.9766698 L39.6175833,14.6127786 C39.2529168,14.2604908 38.7676042,14.0664339 38.251045,14.0664339 C37.7343618,14.0664339 37.2490492,14.2604908 36.8854987,14.6117038 L34.2770361,17.1232173 L34.2770361,1.86055727 C34.2770361,0.83462354 33.4104417,0 32.3452089,0 L30.3402253,0 C29.2749925,0 28.4083982,0.83462354 28.4083982,1.86055727 L28.4083982,4.65497576 C28.4083982,5.14973114 28.8247702,5.55062271 29.3383535,5.55062271 C29.8519368,5.55062271 30.2683088,5.14973114 30.2683088,4.65497576 L30.2683088,1.86055727 C30.2683088,1.822343 30.3005472,1.7912939 30.3402253,1.7912939 L32.3452089,1.7912939 C32.384887,1.7912939 32.4171255,1.822343 32.4171255,1.86055727 L32.4171255,19.2850702 C32.4171255,19.6472698 32.6436626,19.9738824 32.9910939,20.1125285 C33.3385252,20.2511747 33.73853,20.1746267 34.0044972,19.9184717 L38.2015714,15.8774321 C38.2066551,15.8725359 38.2220304,15.8577278 38.251045,15.8577278 C38.2800596,15.8577278 38.2954349,15.8725359 38.3015106,15.8785068 L39.7197544,17.2444282 C39.7248382,17.2493244 39.7402134,17.2641324 39.7402134,17.2919572 C39.7402134,17.3197819 39.7248382,17.33459 39.7187624,17.3404415 L32.1013127,24.6769842 C31.8985824,24.8725935 31.6291434,24.9801906 31.3427171,24.9801906 C31.0562909,24.9801906 30.7868519,24.8725935 30.5836256,24.6765066 L22.9655559,17.3394862 C22.9604721,17.3347094 22.9450969,17.3199013 22.9450969,17.2920766 C22.9450969,17.2642518 22.9605961,17.2494438 22.9665478,17.2435922 L24.3849156,15.8776709 C24.3899994,15.8727747 24.4052507,15.8579667 24.4342653,15.8579667 C24.4632799,15.8579667 24.4785311,15.8727747 24.4847308,15.8787457 L28.6806891,19.9187105 C28.9467803,20.174985 29.3466611,20.2516524 29.6940924,20.1127674 C30.0415237,19.9741212 30.2680608,19.6475086 30.2680608,19.285309 L30.2680608,8.83466154 C30.2680608,8.33990616 29.8516888,7.93901458 29.3381055,7.93901458 C28.8245222,7.93901458 28.4081502,8.33990616 28.4081502,8.83466154 L28.4081502,17.1232173 L25.8008036,14.6127786 C25.4361371,14.2604908 24.9508244,14.0664339 24.4341413,14.0664339 C23.9174581,14.0664339 23.4321455,14.2604908 23.0685949,14.6117038 L21.652335,15.9757144 C21.2864286,16.3269274 21.0850622,16.7944551 21.0850622,17.2920766 C21.0850622,17.7895786 21.2865526,18.2569869 21.6513431,18.6071251 L29.2678009,25.9427125 C29.8219303,26.4771152 30.5587028,26.7713651 31.3424692,26.7713651 C32.1262355,26.7713651 32.863132,26.4769958 33.4167654,25.9430708 L41.0326033,18.6080805 C41.3983857,18.2569869 41.6,17.7895786 41.6,17.2919572 C41.6,16.7945746 41.3985097,16.3270468 41.0337192,15.9766698 L41.0337192,15.9766698 Z" id="Path" transform="translate(31.342531, 13.385683) rotate(-180.000000) translate(-31.342531, -13.385683) "></path>
        </g>
    </g>
</svg>