<?xml version="1.0" encoding="UTF-8"?>
<svg width="80px" height="80px" viewBox="0 0 80 80" version="1.1" xmlns="http://www.w3.org/2000/svg" xmlns:xlink="http://www.w3.org/1999/xlink">
    <title>Money in web</title>
    <defs>
        <linearGradient x1="50%" y1="0%" x2="50%" y2="100%" id="linearGradient-1">
            <stop stop-color="#4E91B1" offset="0%"></stop>
            <stop stop-color="#00557B" offset="100%"></stop>
        </linearGradient>
    </defs>
    <g id="Money-in-web" stroke="none" stroke-width="1" fill="none" fill-rule="evenodd">
        <rect id="Rectangle-Copy-2" fill="url(#linearGradient-1)" x="0" y="0" width="80" height="80" rx="40"></rect>
        <g id="investment-(1)" transform="translate(19.200000, 22.400000)" fill="#FFFFFF" fill-rule="nonzero" stroke="#267295" stroke-width="0.5">
            <path d="M13.2053651,0 C5.9239392,0 0,5.70479341 0,12.7169925 C0,13.9513134 0.184131148,15.1709458 0.547309687,16.3420937 C0.694366617,16.8159507 1.21241371,17.0857195 1.70454605,16.9439685 C2.19667839,16.8023368 2.47653294,16.3035212 2.3296,15.8294254 C2.01800298,14.8247484 1.86003458,13.7774385 1.86003458,12.7169925 C1.86003458,6.69251287 6.94961788,1.7912939 13.2054891,1.7912939 C19.4613604,1.7912939 24.5509437,6.69251287 24.5509437,12.7169925 C24.5509437,18.7420693 19.4613604,23.6438853 13.2054891,23.6438853 C9.61040596,23.6438853 6.30373294,22.0503503 4.13321729,19.2720534 C3.82434814,18.8767746 3.24157615,18.7972411 2.83103189,19.0948348 C2.42061162,19.3921896 2.33827958,19.9537005 2.64702474,20.3489793 C5.17216334,23.5813095 9.02056632,25.4352987 13.2054891,25.4352987 C20.4869151,25.4352987 26.4108542,19.7300276 26.4108542,12.7171119 C26.4108542,5.70479341 20.4867911,0 13.2053651,0 Z" id="Path"></path>
            <path d="M10.1247332,17.4048087 C9.69472191,17.1340845 9.11852161,17.2499215 8.83742712,17.6640686 C8.55620864,18.0779769 8.67673085,18.6330392 9.10649419,18.9038828 C10.3087404,19.6613613 11.1293329,19.8857507 12.1913419,19.9423556 L12.1913419,20.9295974 C12.1913419,21.4243528 12.6077139,21.8252444 13.1212972,21.8252444 C13.6348805,21.8252444 14.0512525,21.4243528 14.0512525,20.9295974 L14.0512525,19.8715398 C16.1591511,19.4766192 17.3902879,17.8042672 17.6629508,16.2420201 C18.012986,14.2364874 16.9235744,12.4927225 14.8875923,11.7996112 C14.6128215,11.7061057 14.331603,11.6079428 14.0512525,11.5057196 L14.0512525,7.17938655 C14.7545466,7.37989205 15.1994373,7.73122449 15.2375034,7.76203475 C15.6247368,8.0829152 16.2087487,8.04302905 16.5451446,7.67175353 C16.8826563,7.29892556 16.8423583,6.73311553 16.4552489,6.40805539 C16.3984596,6.3605264 15.4780519,5.60483921 14.0511285,5.34032481 L14.0511285,4.50558185 C14.0511285,4.01082647 13.6347565,3.6099349 13.1211732,3.6099349 C12.6075899,3.6099349 12.1912179,4.01082647 12.1912179,4.50558185 L12.1912179,5.32408374 C11.9855118,5.35835717 11.7754659,5.40409487 11.5603362,5.46619306 C10.1608155,5.8705478 9.21139314,6.85074383 8.95522146,8.15552231 C8.69904978,9.46042021 9.21709687,10.8585848 10.2442635,11.6345733 C10.7370158,12.0066848 11.3504143,12.3475083 12.1912179,12.7076778 L12.1912179,18.1483151 C11.4591571,18.0974423 10.9538814,17.9272694 10.1247332,17.4048087 L10.1247332,17.4048087 Z M11.3922003,10.2249444 C10.9049037,9.85689326 10.6543118,9.14264467 10.7827696,8.48810588 C10.8708054,8.0396853 11.169879,7.44903599 12.0947505,7.18189436 C12.127237,7.17246021 12.1592274,7.16469794 12.1913419,7.15633857 L12.1913419,10.7155201 C11.8904083,10.558961 11.6181174,10.395595 11.3922003,10.2249444 Z M14.2677461,13.4884431 C16.0104823,14.0817196 15.9032274,15.518815 15.828831,15.9450236 C15.683138,16.7796471 15.0777991,17.6645463 14.0512525,18.012535 L14.0512525,13.4136864 C14.123045,13.4386451 14.1935976,13.4632456 14.2677461,13.4884431 L14.2677461,13.4884431 Z" id="Shape"></path>
            <path d="M41.0337192,24.4053047 L39.6175833,23.0414135 C39.2529168,22.6891257 38.7676042,22.4950689 38.251045,22.4950689 C37.7343618,22.4950689 37.2490492,22.6891257 36.8854987,23.0403387 L34.2770361,25.5518522 L34.2770361,10.2891922 C34.2770361,9.26325846 33.4104417,8.42863492 32.3452089,8.42863492 L30.3402253,8.42863492 C29.2749925,8.42863492 28.4083982,9.26325846 28.4083982,10.2891922 L28.4083982,13.0836107 C28.4083982,13.5783661 28.8247702,13.9792576 29.3383535,13.9792576 C29.8519368,13.9792576 30.2683088,13.5783661 30.2683088,13.0836107 L30.2683088,10.2891922 C30.2683088,10.2509779 30.3005472,10.2199288 30.3402253,10.2199288 L32.3452089,10.2199288 C32.384887,10.2199288 32.4171255,10.2509779 32.4171255,10.2891922 L32.4171255,27.7137051 C32.4171255,28.0759047 32.6436626,28.4025173 32.9910939,28.5411635 C33.3385252,28.6798096 33.73853,28.6032616 34.0044972,28.3471066 L38.2015714,24.306067 C38.2066551,24.3011708 38.2220304,24.2863628 38.251045,24.2863628 C38.2800596,24.2863628 38.2954349,24.3011708 38.3015106,24.3071418 L39.7197544,25.6730631 C39.7248382,25.6779593 39.7402134,25.6927673 39.7402134,25.7205921 C39.7402134,25.7484168 39.7248382,25.7632249 39.7187624,25.7690764 L32.1013127,33.1056192 C31.8985824,33.3012285 31.6291434,33.4088255 31.3427171,33.4088255 C31.0562909,33.4088255 30.7868519,33.3012285 30.5836256,33.1051415 L22.9655559,25.7681211 C22.9604721,25.7633443 22.9450969,25.7485363 22.9450969,25.7207115 C22.9450969,25.6928867 22.9605961,25.6780787 22.9665478,25.6722271 L24.3849156,24.3063058 C24.3899994,24.3014096 24.4052507,24.2866016 24.4342653,24.2866016 C24.4632799,24.2866016 24.4785311,24.3014096 24.4847308,24.3073806 L28.6806891,28.3473455 C28.9467803,28.6036199 29.3466611,28.6802873 29.6940924,28.5414023 C30.0415237,28.4027561 30.2680608,28.0761436 30.2680608,27.7139439 L30.2680608,17.2632965 C30.2680608,16.7685411 29.8516888,16.3676495 29.3381055,16.3676495 C28.8245222,16.3676495 28.4081502,16.7685411 28.4081502,17.2632965 L28.4081502,25.5518522 L25.8008036,23.0414135 C25.4361371,22.6891257 24.9508244,22.4950689 24.4341413,22.4950689 C23.9174581,22.4950689 23.4321455,22.6891257 23.0685949,23.0403387 L21.652335,24.4043493 C21.2864286,24.7555623 21.0850622,25.22309 21.0850622,25.7207115 C21.0850622,26.2182135 21.2865526,26.6856218 21.6513431,27.0357601 L29.2678009,34.3713474 C29.8219303,34.9057501 30.5587028,35.2 31.3424692,35.2 C32.1262355,35.2 32.863132,34.9056307 33.4167654,34.3717057 L41.0326033,27.0367154 C41.3983857,26.6856218 41.6,26.2182135 41.6,25.7205921 C41.6,25.2232095 41.3985097,24.7556818 41.0337192,24.4053047 L41.0337192,24.4053047 Z" id="Path"></path>
        </g>
    </g>
</svg>