<?xml version="1.0" encoding="UTF-8"?>
<svg width="80px" height="80px" viewBox="0 0 80 80" version="1.1" xmlns="http://www.w3.org/2000/svg" xmlns:xlink="http://www.w3.org/1999/xlink">
    <title>Passport</title>
    <defs>
        <linearGradient x1="50%" y1="0%" x2="50%" y2="100%" id="linearGradient-1">
            <stop stop-color="#4E91B1" offset="0%"></stop>
            <stop stop-color="#00557B" offset="100%"></stop>
        </linearGradient>
    </defs>
    <g id="Passport" stroke="none" stroke-width="1" fill="none" fill-rule="evenodd">
        <rect id="Rectangle-Copy-2" fill="url(#linearGradient-1)" x="0" y="0" width="80" height="80" rx="40"></rect>
        <g id="passport-(1)-copy" transform="translate(28.000000, 22.000000)" fill="#FFFFFF" fill-rule="nonzero" stroke="#226F93">
            <path d="M19.2864081,24.7883057 L5.39549376,24.7863077 C5.01235674,24.7863077 4.70102942,25.0938103 4.70102942,25.473822 C4.70102942,25.8531248 5.01164059,26.1613364 5.39549376,26.1613364 L19.2864081,26.1633344 C19.6695451,26.1633344 19.9808724,25.8558318 19.9808724,25.4758201 C19.9808724,25.0964529 19.6702613,24.7883057 19.2864081,24.7883057 Z" id="Path" stroke-width="0.5"></path>
            <path d="M16.5065976,27.5382987 L8.17328601,27.5382987 C7.78943284,27.5382987 7.47882167,27.8458014 7.47882167,28.2258131 C7.47882167,28.6058248 7.78943284,28.9133275 8.17328601,28.9133275 L16.5065976,28.9133275 C16.8904508,28.9133275 17.201062,28.6058248 17.201062,28.2258131 C17.201062,27.8457369 16.8904508,27.5382987 16.5065976,27.5382987 Z" id="Path" stroke-width="0.5"></path>
            <path d="M12.4999674,8.25019171 C8.28786904,8.25019171 4.86112015,11.6426468 4.86112015,15.812592 C4.86112015,19.9825371 8.28786904,23.3749922 12.4999674,23.3749922 C16.7120659,23.3749922 20.1388147,19.9825371 20.1388147,15.812592 C20.1388147,11.6426468 16.7120659,8.25019171 12.4999674,8.25019171 Z M6.32016583,16.5001063 L9.04196864,16.5001063 C9.11885646,18.3728369 9.50954555,20.2352552 10.1877339,21.5494408 C8.0934034,20.7190998 6.58136307,18.7986743 6.32016583,16.5001063 Z M9.04203374,15.125142 L6.32023094,15.125142 C6.58142817,12.826574 8.09346851,10.906213 10.187799,10.0758076 C9.50961065,11.3899932 9.11892157,13.2524114 9.04203374,15.125142 Z M12.4999674,22.0000924 C11.7043315,22.0000924 10.585324,19.870132 10.4444389,16.5001708 L14.5554959,16.5001708 C14.4146109,19.870132 13.2956034,22.0000924 12.4999674,22.0000924 Z M10.4444389,15.125142 C10.585324,11.7551808 11.7043315,9.62522045 12.4999674,9.62522045 C13.2956034,9.62522045 14.4146109,11.7551808 14.5554959,15.125142 L10.4444389,15.125142 Z M14.812201,21.5495052 C15.4903893,20.2352552 15.8810784,18.3729014 15.9579663,16.5001708 L18.6797691,16.5001708 C18.4185718,18.7986743 16.9065315,20.7190998 14.812201,21.5495052 Z M15.9579663,15.125142 C15.8810784,13.2524114 15.4903893,11.3899932 14.812201,10.0758076 C16.9065315,10.906213 18.4186369,12.8266385 18.6797691,15.125142 L15.9579663,15.125142 L15.9579663,15.125142 Z" id="Shape" stroke-width="0.5"></path>
            <path d="M22.2221427,4.1252344 L20.8332791,4.1252344 L20.8332791,2.70457333 C20.8332791,1.20244434 19.5493632,-0.0148692311 18.0554868,0.000137270183 C17.8420759,0.0024684801 17.6552926,0.031729896 17.4349806,0.0869012 L2.62902961,4.14012292 C1.16731467,4.21849711 0,5.40906291 0,6.87522742 L0,30.250007 C0,31.7666378 1.24576498,33 2.77779225,33 L22.2222078,33 C23.7541699,33 25,31.7667022 25,30.250007 L25,6.87522742 C25,5.35859664 23.7541699,4.1252344 22.2221427,4.1252344 Z M17.7916854,1.41552417 C18.6021,1.21075871 19.4443504,1.86063284 19.4443504,2.70457333 L19.4443504,4.1252344 L7.89438048,4.1252344 L17.7916854,1.41552417 Z M23.6110713,30.250007 C23.6110713,31.0079679 22.9878308,31.6249713 22.2222078,31.6249713 L2.77779225,31.6249713 C2.01216924,31.6249713 1.38892867,31.0079679 1.38892867,30.250007 L1.38892867,6.87522742 C1.38892867,6.11726652 2.01216924,5.50026314 2.77779225,5.50026314 L22.2222078,5.50026314 C22.9878308,5.50026314 23.6110713,6.11726652 23.6110713,6.87522742 L23.6110713,30.250007 Z" id="Shape" stroke-width="0.3"></path>
        </g>
    </g>
</svg>