<?xml version="1.0" encoding="UTF-8"?>
<svg width="80px" height="80px" viewBox="0 0 80 80" version="1.1" xmlns="http://www.w3.org/2000/svg" xmlns:xlink="http://www.w3.org/1999/xlink">
    <title>Pay your bills Web</title>
    <defs>
        <linearGradient x1="50%" y1="0%" x2="50%" y2="100%" id="linearGradient-1">
            <stop stop-color="#4E91B1" offset="0%"></stop>
            <stop stop-color="#00557B" offset="100%"></stop>
        </linearGradient>
    </defs>
    <g id="Pay-your-bills-Web" stroke="none" stroke-width="1" fill="none" fill-rule="evenodd">
        <rect id="Rectangle-Copy-2" fill="url(#linearGradient-1)" x="0" y="0" width="80" height="80" rx="40"></rect>
        <g id="card-(1)" transform="translate(27.000000, 21.000000)" fill="#FFFFFF" fill-rule="nonzero">
            <path d="M15.4761659,0 L3.0952622,0 C1.38850443,0 -1.03092136e-15,1.38316406 -1.03092136e-15,3.08335742 L-1.03092136e-15,25.2833574 C-1.03092136e-15,26.9834785 1.38850443,28.3667148 3.0952622,28.3667148 L14.2381191,28.3667148 L14.2381191,27.1333574 L3.0952622,27.1333574 C2.07136714,27.1333574 1.23811939,26.3033145 1.23811939,25.2833574 L1.23811939,3.08335742 C1.23811939,2.06340039 2.07136714,1.23335742 3.0952622,1.23335742 L15.4762385,1.23335742 C16.5001335,1.23335742 17.3333813,2.06340039 17.3333813,3.08335742 L17.3333813,20.9667148 L18.5714281,20.9667148 L18.5714281,3.08335742 C18.5714281,1.38316406 17.1829237,0 15.4761659,0 Z" id="Path"></path>
            <path d="M24.5086992,16.425543 L18.4358422,8.86518555 L17.4682418,9.63604297 L23.5410988,17.19575 C24.3291512,18.17625 24.7624604,19.4083789 24.76188,20.6645 L24.76188,35.7666426 L15.7052619,35.7666426 C12.5072765,35.7666426 9.90481004,33.1747637 9.90481004,29.9885 L9.90481004,27.75 L8.66669065,27.75 L8.66669065,29.9885 C8.66669065,33.8543496 11.8244863,37 15.7052619,37 L25.380976,37 C25.7233141,37 26,36.7243789 26,36.3833574 L26,20.6651504 C26.0006523,19.1308789 25.4713666,17.6249355 24.5086992,16.425543 Z" id="Path"></path>
            <path d="M10.5213669,14.5428789 C10.9559093,14.5552363 11.3602006,14.73525 11.6579238,15.04975 L19.9773433,23.85575 L20.8792908,23.0103145 L12.5586381,14.2036641 C12.0330522,13.6492422 11.321752,13.331707 10.5566236,13.3100996 C9.78344285,13.2842285 9.06350983,13.5647637 8.51376654,14.0821855 C8.50694735,14.0889785 8.45739936,14.1358066 8.45123306,14.1425996 C7.39331456,15.1995566 7.32207572,16.8584141 8.28720963,18.0041855 L13.6190957,24.2756855 L13.6190957,26.1836426 C13.6184428,29.5913281 15.7696816,32.682707 18.9732529,33.8777637 L19.4077953,32.7227422 C16.6851949,31.7071211 14.8565622,29.0794707 14.8571425,26.1836426 L14.8571425,24.05 C14.8571425,23.904457 14.805128,23.7625996 14.7104572,23.6510215 L9.23377211,17.2086855 C8.68591498,16.5587285 8.72617725,15.6145781 9.35760581,14.985 C9.67324754,14.6877715 10.0855187,14.5403496 10.5213669,14.5428789 Z" id="Path"></path>
            <rect id="Rectangle" x="13.6190231" y="1.23335742" width="1.23811939" height="15.4166426"></rect>
            <rect id="Rectangle" x="10.5238335" y="20.35" width="1.23811939" height="7.4"></rect>
            <rect id="Rectangle" x="10.5238335" y="0.616642578" width="1.23811939" height="13.5666426"></rect>
            <rect id="Rectangle" x="3.0952622" y="3.08335742" width="1.23811939" height="8.01664258"></rect>
            <rect id="Rectangle" x="6.19045187" y="3.08335742" width="1.23811939" height="4.93335742"></rect>
            <path d="M7.42857126,20.35 L3.71428563,20.35 C3.37260037,20.35 3.0952622,20.6256211 3.0952622,20.9666426 L3.0952622,24.6666426 C3.0952622,25.0076641 3.37260037,25.2832852 3.71428563,25.2832852 L7.42857126,25.2832852 C7.77025652,25.2832852 8.04759468,25.0076641 8.04759468,24.6666426 L8.04759468,20.9666426 C8.04759468,20.6256211 7.77025652,20.35 7.42857126,20.35 Z M6.80954783,24.05 L4.3333816,24.05 L4.3333816,21.5833574 L6.80954783,21.5833574 L6.80954783,24.05 Z" id="Shape"></path>
        </g>
    </g>
</svg>