<?xml version="1.0" encoding="UTF-8"?>
<svg width="80px" height="80px" viewBox="0 0 80 80" version="1.1" xmlns="http://www.w3.org/2000/svg" xmlns:xlink="http://www.w3.org/1999/xlink">
    <title>Personal &amp; professonal goods web</title>
    <defs>
        <linearGradient x1="50%" y1="0%" x2="50%" y2="100%" id="linearGradient-1">
            <stop stop-color="#4E91B1" offset="0%"></stop>
            <stop stop-color="#00557B" offset="100%"></stop>
        </linearGradient>
    </defs>
    <g id="Personal-&amp;-professonal-goods-web" stroke="none" stroke-width="1" fill="none" fill-rule="evenodd">
        <rect id="Rectangle-Copy-2" fill="url(#linearGradient-1)" x="0" y="0" width="80" height="80" rx="40"></rect>
        <g id="boxes-copy" transform="translate(20.000000, 18.000000)" fill="#FFFFFF" fill-rule="nonzero">
            <path d="M38,16 L31.476,16 C31.8103561,15.6361568 31.9971713,15.1608001 32,14.6666667 L32,2 C32,0.8954305 31.1045695,0 30,0 L17.3333333,0 C16.8240526,0 16.3342151,0.195570487 15.9646667,0.546 L9.82333333,4.85933333 C9.11988033,5.1864558 8.66906113,5.89087709 8.66666667,6.66666667 L8.66666667,16 C8.15738593,16.0001604 7.6675484,16.1955705 7.298,16.546 L1.15666667,20.8593333 C0.453213687,21.1864558 0.00239446,21.8908771 0,22.6666667 L0,36 C0,37.1045695 0.8954305,38 2,38 L16,38 C16.4935993,37.9982642 16.9688886,37.8129014 17.3333333,37.48 C17.6977781,37.8129014 18.1730673,37.9982642 18.6666667,38 L32.6666667,38 C33.2075828,38 33.7250735,37.7792314 34.1,37.3893333 L39.4053333,32.084 C39.7856247,31.7104331 40,31.1997461 40,30.6666667 L40,18 C39.9945295,16.8977044 39.1022956,16.0054705 38,16 Z M33.556,20.8846667 C33.2807134,20.7433699 32.9760909,20.6686986 32.6666667,20.6666667 L26.8226667,20.6666667 L30.156,17.3333333 L37.6146667,17.3333333 L33.556,20.8846667 Z M16,20.6666707 L10.6666667,20.6666707 C10.2984769,20.6666707 10,20.3681898 10,20 L10,6.66666667 C10,6.29847683 10.2984769,6 10.6666667,6 L24.6666667,6 C25.0348565,6 25.333337,6.29847683 25.333337,6.66666667 L25.333337,20 C25.3339162,20.1745049 25.2656419,20.3421962 25.1433333,20.4666667 L25.13,20.48 C25.0058181,20.6002792 24.8395477,20.6672658 24.6666667,20.6666707 L16,20.6666707 Z M26.4846667,5.844 L30.6666667,2.18466667 L30.6666667,14.6666667 C30.6657166,14.8428399 30.5935851,15.0111465 30.4666667,15.1333333 L26.6666667,18.9393333 L26.6666667,6.66666667 C26.6658699,6.38254669 26.6037913,6.1019421 26.4846667,5.844 L26.4846667,5.844 Z M25.556,4.88466667 C25.2807134,4.74336994 24.9760909,4.66869861 24.6666667,4.66666667 L19.9433333,4.66666667 L24.2286667,1.33333333 L29.6146667,1.33333333 L25.556,4.88466667 Z M16.7766667,1.60533333 C16.8104066,1.58163099 16.8418747,1.55484957 16.8706667,1.52533333 C16.992874,1.40183815 17.1595943,1.33265161 17.3333333,1.33332834 L22.0566667,1.33332834 L17.7713333,4.66666667 L12.418,4.66666667 L16.7766667,1.60533333 Z M8.11,17.6053333 C8.14373993,17.581631 8.17520807,17.5548495 8.204,17.5253333 C8.32620733,17.4018381 8.49292767,17.3326516 8.66666667,17.3333283 L8.66666667,20 C8.66887627,20.2276265 8.7103748,20.453162 8.78933333,20.6666667 L3.75133333,20.6666667 L8.11,17.6053333 Z M2,36.6666677 C1.63181017,36.6666677 1.33333333,36.3681898 1.33333333,36 L1.33333333,22.6666667 C1.33333333,22.2984769 1.63181017,22 2,22 L16,22 C16.3681898,22 16.6666667,22.2984769 16.6666667,22.6666667 L16.6666667,36 C16.6666667,36.1745153 16.5981861,36.3420627 16.476,36.4666667 L16.464,36.478 C16.340013,36.5992329 16.1734073,36.6669763 16,36.6666677 L2,36.6666677 Z M18.6666667,36.6666667 C18.2984769,36.6666667 18,36.3681898 18,36 L18,22.6666667 C18,22.2984769 18.2984769,22 18.6666667,22 L32.6666667,22 C33.0348565,22 33.3333333,22.2984769 33.3333333,22.6666667 L33.3333333,36 C33.3321551,36.1703073 33.2658415,36.3337059 33.148,36.4566667 L33.1333333,36.4666667 L33.124,36.4773333 C33.0015012,36.5967951 32.8377595,36.6645833 32.6666667,36.6666667 L18.6666667,36.6666667 Z M38.4666667,31.1333333 L34.6666667,34.9333333 L34.6666667,22.6666667 C34.6658699,22.3825467 34.6037913,22.1019421 34.4846667,21.844 L38.6666667,18.1846667 L38.6666667,30.6666667 C38.6657166,30.8428399 38.5935851,31.0111465 38.4666667,31.1333333 Z" id="Shape"></path>
            <path d="M16.0869565,15.5454545 L13.4782609,15.5454545 C12.7578895,15.5454545 12.173913,16.0610054 12.173913,16.6969697 L12.173913,17.8484848 C12.173913,18.4844491 12.7578895,19 13.4782609,19 L16.0869565,19 C16.8073279,19 17.3913043,18.4844491 17.3913043,17.8484848 L17.3913043,16.6969697 C17.3913043,16.0610054 16.8073279,15.5454545 16.0869565,15.5454545 Z M13.4782609,17.8484848 L13.4782609,16.6969697 L16.0869565,16.6969697 L16.0869565,17.8484848 L13.4782609,17.8484848 Z" id="Shape"></path>
            <path d="M23.6521739,15.5454545 L21.5652174,15.5454545 C21.1810193,15.5454545 20.8695652,15.9321178 20.8695652,16.4090909 C20.8695652,16.8860641 21.1810193,17.2727273 21.5652174,17.2727273 L23.6521739,17.2727273 C24.036372,17.2727273 24.3478261,16.8860641 24.3478261,16.4090909 C24.3478261,15.9321178 24.036372,15.5454545 23.6521739,15.5454545 Z" id="Shape"></path>
            <path d="M23.6521739,17.2727273 L21.5652174,17.2727273 C21.1810193,17.2727273 20.8695652,17.6593905 20.8695652,18.1363636 C20.8695652,18.6133368 21.1810193,19 21.5652174,19 L23.6521739,19 C24.036372,19 24.3478261,18.6133368 24.3478261,18.1363636 C24.3478261,17.6593905 24.036372,17.2727273 23.6521739,17.2727273 Z" id="Shape"></path>
            <path d="M7.39130435,31.0909091 L4.7826087,31.0909091 C4.06223728,31.0909091 3.47826087,31.60646 3.47826087,32.2424242 L3.47826087,33.3939394 C3.47826087,34.0299037 4.06223728,34.5454545 4.7826087,34.5454545 L7.39130435,34.5454545 C8.11167576,34.5454545 8.69565217,34.0299037 8.69565217,33.3939394 L8.69565217,32.2424242 C8.69565217,31.60646 8.11167576,31.0909091 7.39130435,31.0909091 Z M4.7826087,33.3939394 L4.7826087,32.2424242 L7.39130435,32.2424242 L7.39130435,33.3939394 L4.7826087,33.3939394 Z" id="Shape"></path>
            <path d="M14.9565217,31.0909091 L12.8695652,31.0909091 C12.4853672,31.0909091 12.173913,31.4775723 12.173913,31.9545455 C12.173913,32.4315186 12.4853672,32.8181818 12.8695652,32.8181818 L14.9565217,32.8181818 C15.3407198,32.8181818 15.6521739,32.4315186 15.6521739,31.9545455 C15.6521739,31.4775723 15.3407198,31.0909091 14.9565217,31.0909091 Z" id="Shape"></path>
            <path d="M14.9565217,34.5454545 L12.8695652,34.5454545 C12.4853672,34.5454545 12.173913,34.9321178 12.173913,35.4090909 C12.173913,35.8860641 12.4853672,36.2727273 12.8695652,36.2727273 L14.9565217,36.2727273 C15.3407198,36.2727273 15.6521739,35.8860641 15.6521739,35.4090909 C15.6521739,34.9321178 15.3407198,34.5454545 14.9565217,34.5454545 Z" id="Shape"></path>
            <path d="M23.0434783,31.0909091 L20.4347826,31.0909091 C19.7144112,31.0909091 19.1304348,31.60646 19.1304348,32.2424242 L19.1304348,33.3939394 C19.1304348,34.0299037 19.7144112,34.5454545 20.4347826,34.5454545 L23.0434783,34.5454545 C23.7638497,34.5454545 24.3478261,34.0299037 24.3478261,33.3939394 L24.3478261,32.2424242 C24.3478261,31.60646 23.7638497,31.0909091 23.0434783,31.0909091 Z M20.4347826,33.3939394 L20.4347826,32.2424242 L23.0434783,32.2424242 L23.0434783,33.3939394 L20.4347826,33.3939394 Z" id="Shape"></path>
            <path d="M30.6086957,31.0909091 L28.5217391,31.0909091 C28.1375411,31.0909091 27.826087,31.4775723 27.826087,31.9545455 C27.826087,32.4315186 28.1375411,32.8181818 28.5217391,32.8181818 L30.6086957,32.8181818 C30.9928937,32.8181818 31.3043478,32.4315186 31.3043478,31.9545455 C31.3043478,31.4775723 30.9928937,31.0909091 30.6086957,31.0909091 Z" id="Shape"></path>
            <path d="M30.6086957,34.5454545 L28.5217391,34.5454545 C28.1375411,34.5454545 27.826087,34.9321178 27.826087,35.4090909 C27.826087,35.8860641 28.1375411,36.2727273 28.5217391,36.2727273 L30.6086957,36.2727273 C30.9928937,36.2727273 31.3043478,35.8860641 31.3043478,35.4090909 C31.3043478,34.9321178 30.9928937,34.5454545 30.6086957,34.5454545 Z" id="Shape"></path>
        </g>
    </g>
</svg>