<?xml version="1.0" encoding="UTF-8"?>
<svg width="80px" height="80px" viewBox="0 0 80 80" version="1.1" xmlns="http://www.w3.org/2000/svg" xmlns:xlink="http://www.w3.org/1999/xlink">
    <title>Personal banking web</title>
    <defs>
        <linearGradient x1="50%" y1="0%" x2="50%" y2="100%" id="linearGradient-1">
            <stop stop-color="#4E91B1" offset="0%"></stop>
            <stop stop-color="#00557B" offset="100%"></stop>
        </linearGradient>
    </defs>
    <g id="Personal-banking-web" stroke="none" stroke-width="1" fill="none" fill-rule="evenodd">
        <rect id="Rectangle-Copy-6" fill="url(#linearGradient-1)" x="0" y="0" width="80" height="80" rx="40"></rect>
        <g id="person-copy" transform="translate(32.000000, 21.000000)" fill="#FFFFFF" fill-rule="nonzero">
            <path d="M12.8965517,31.5537422 L12.8965517,23.2865039 C13.0685302,23.3499551 13.2534784,23.3847656 13.4461207,23.3847656 C14.355181,23.3847656 15.0948276,22.6158867 15.0948276,21.6708984 L15.0948276,11.9970703 C15.0948276,10.4219883 13.862181,9.140625 12.3469828,9.140625 L4.65301724,9.140625 C3.13781897,9.140625 1.90517241,10.4219883 1.90517241,11.9970703 L1.90517241,21.6708984 C1.90517241,22.6158867 2.64474569,23.3847656 3.55387931,23.3847656 C3.74652155,23.3847656 3.93146983,23.3498789 4.10344828,23.2865039 L4.10344828,34.4868164 C4.10344828,35.5894043 4.96634483,36.4863281 6.02693966,36.4863281 C7.08753448,36.4863281 7.95043103,35.5894043 7.95043103,34.4868164 L7.95043103,32.153291 C8.31629741,32.1421699 8.68377586,32.1421699 9.04956897,32.153291 L9.04956897,34.4868164 C9.04956897,35.5894043 9.91239224,36.4863281 10.9730603,36.4863281 C12.0337284,36.4863281 12.8965517,35.5894043 12.8965517,34.4868164 L12.8965517,32.7393574 C14.7188491,33.2904609 15.9008621,34.1639238 15.9008621,35.0009766 C15.9008621,36.3520371 12.8614526,37.8574219 8.5,37.8574219 C4.13854741,37.8574219 1.09913793,36.3520371 1.09913793,35.0009766 C1.09913793,34.4242793 1.68065517,33.8002031 2.69457328,33.2888613 C2.96767241,33.1510664 3.08161638,32.8093594 2.94913362,32.525543 C2.81665086,32.2415742 2.48800862,32.1232793 2.21483621,32.2608457 C0.384258621,33.1840488 0,34.2605098 0,35.0009766 C0,36.1625977 0.947383621,37.2107988 2.66768103,37.9524082 C4.23453879,38.6279766 6.30582759,39 8.5,39 C10.6941724,39 12.7655345,38.6279766 14.3323922,37.9524082 C16.0526164,37.2107988 17,36.1625977 17,35.0009766 C17,33.530707 15.4749828,32.2589414 12.8965517,31.5537422 Z M9.04956897,31.0101797 C8.68362931,30.999668 8.31629741,30.999668 7.95043103,31.0101797 L7.95043103,22.2421875 L9.04956897,22.2421875 L9.04956897,31.0101797 Z M12.3469828,11.4257813 C12.0434009,11.4257813 11.7974138,11.6814902 11.7974138,11.9970703 L11.7974138,34.4868164 C11.7974138,34.9593105 11.4275905,35.34375 10.9730603,35.34375 C10.5185302,35.34375 10.1487069,34.9593105 10.1487069,34.4868164 L10.1487069,21.6708984 C10.1487069,21.3553184 9.90271983,21.0996094 9.59913793,21.0996094 L7.40086207,21.0996094 C7.09735345,21.0996094 6.8512931,21.3553184 6.8512931,21.6708984 L6.8512931,34.4868164 C6.8512931,34.9593105 6.48146983,35.34375 6.02693966,35.34375 C5.57240948,35.34375 5.20258621,34.9593105 5.20258621,34.4868164 L5.20258621,11.9970703 C5.20258621,11.6814902 4.95652586,11.4257813 4.65301724,11.4257813 C4.34950862,11.4257813 4.10344828,11.6814902 4.10344828,11.9970703 L4.10344828,21.6708984 C4.10344828,21.9859453 3.85694828,22.2421875 3.55387931,22.2421875 C3.25081034,22.2421875 3.00431034,21.9859453 3.00431034,21.6708984 L3.00431034,11.9970703 C3.00431034,11.052082 3.74388362,10.2832031 4.65301724,10.2832031 L12.3469828,10.2832031 C13.2560431,10.2832031 13.9956897,11.052082 13.9956897,11.9970703 L13.9956897,21.6708984 C13.9956897,21.9859453 13.7491897,22.2421875 13.4461207,22.2421875 C13.1430517,22.2421875 12.8965517,21.9859453 12.8965517,21.6708984 L12.8965517,11.9970703 C12.8965517,11.6814902 12.6505647,11.4257813 12.3469828,11.4257813 Z" id="Shape"></path>
            <path d="M8.47589224,7.99804687 C10.5970819,7.99804687 12.322875,6.20404687 12.322875,3.99902344 C12.322875,1.794 10.5970819,0 8.47589224,0 C6.35462931,0 4.62890948,1.794 4.62890948,3.99902344 C4.62890948,6.20404687 6.35462931,7.99804687 8.47589224,7.99804687 Z M8.47589224,1.14257812 C9.99109052,1.14257812 11.2237371,2.42394141 11.2237371,3.99902344 C11.2237371,5.57410547 9.99109052,6.85546875 8.47589224,6.85546875 C6.96069397,6.85546875 5.72804741,5.57410547 5.72804741,3.99902344 C5.72804741,2.42394141 6.96069397,1.14257812 8.47589224,1.14257812 Z" id="Shape"></path>
        </g>
    </g>
</svg>