<?xml version="1.0" encoding="UTF-8"?>
<svg width="80px" height="80px" viewBox="0 0 80 80" version="1.1" xmlns="http://www.w3.org/2000/svg" xmlns:xlink="http://www.w3.org/1999/xlink">
    <title>Prepaid electricity</title>
    <defs>
        <linearGradient x1="50%" y1="0%" x2="50%" y2="100%" id="linearGradient-1">
            <stop stop-color="#4E91B1" offset="0%"></stop>
            <stop stop-color="#00557B" offset="100%"></stop>
        </linearGradient>
    </defs>
    <g id="Prepaid-electricity" stroke="none" stroke-width="1" fill="none" fill-rule="evenodd" transform="translate(0.000000, 0.000000)">
        <rect id="Rectangle-Copy-2" fill="url(#linearGradient-1)" x="0" y="0" width="80" height="80" rx="40"></rect>
        <g id="flash-copy" transform="translate(30.000000, 22.000000)" fill="#FFFFFF" fill-rule="nonzero">
            <path d="M18.9391581,12.3600234 C18.8275653,12.1200469 18.6602087,12.0000234 18.4370884,12.0000234 L11.8544184,12.0000234 L18.3813247,0.9 C18.4929175,0.72 18.4929175,0.480023438 18.3813247,0.300023438 C18.2697318,0.120023438 18.1023753,0 17.8792549,0 L8.95359292,0 C8.73047262,0 8.56311605,0.120023438 8.45152321,0.300023438 L0.0836946292,18.3000234 C-0.0278982097,18.4800234 -0.0278982097,18.72 0.0836946292,18.9 C0.195287468,19.08 0.418407772,19.2000234 0.585764344,19.2000234 L6.33165151,19.2000234 L0.0836946292,35.2200234 C-0.0278982097,35.46 0.0836946292,35.7600234 0.306814933,35.9400234 C0.362578666,36 0.474171505,36 0.585764344,36 C0.753120915,36 0.920477487,35.9400234 1.03207033,35.82 L18.8834598,13.0199766 C18.9949872,12.8399766 19.0507509,12.6 18.9391581,12.3600234 Z M2.5382141,31.9800234 L7.67050408,18.7800469 C7.72626781,18.6000469 7.72626781,18.4200469 7.61474035,18.2400469 C7.50314751,18.1200234 7.33579094,18.0000703 7.16843437,18.0000703 L1.47831093,18.0000703 L9.28830607,1.20002344 L16.8751155,1.20002344 L10.2924455,12.2999766 C10.1808527,12.4799766 10.1808527,12.7199531 10.2924455,12.8999531 C10.4040383,13.0799531 10.5713949,13.1999766 10.7945152,13.1999766 L17.2656578,13.1999766 L2.5382141,31.9800234 Z" id="Shape"></path>
        </g>
    </g>
</svg>