<?xml version="1.0" encoding="UTF-8"?>
<svg width="80px" height="80px" viewBox="0 0 80 80" version="1.1" xmlns="http://www.w3.org/2000/svg" xmlns:xlink="http://www.w3.org/1999/xlink">
    <title>Promo</title>
    <defs>
        <linearGradient x1="50%" y1="0%" x2="50%" y2="100%" id="linearGradient-1">
            <stop stop-color="#4E91B1" offset="0%"></stop>
            <stop stop-color="#00557B" offset="100%"></stop>
        </linearGradient>
    </defs>
    <g id="Promo" stroke="none" stroke-width="1" fill="none" fill-rule="evenodd">
        <rect id="Rectangle-Copy-6" fill="url(#linearGradient-1)" x="0" y="0" width="80" height="80" rx="40"></rect>
        <g id="badge-copy" transform="translate(25.000000, 24.000000)" fill="#FFFFFF" fill-rule="nonzero">
            <path d="M20.4691067,31 C19.9730357,31 19.4756729,30.8953653 19.0170656,30.686096 L16.4178605,29.5041118 C15.8365273,29.2405875 15.1673482,29.2392957 14.5847232,29.5041118 L11.9855181,30.6848042 C11.1018917,31.0852579 10.0852046,31.1020511 9.19124337,30.7326003 C8.29728215,30.3618577 7.58934755,29.6294151 7.24829876,28.7238731 L6.24582202,26.0498761 C6.02103987,25.4504875 5.54822223,24.9776938 4.950095,24.7542148 L2.27596247,23.7517889 C1.36908274,23.4107574 0.637894809,22.7028587 0.267133438,21.8089428 C-0.103627933,20.9150269 -0.085542012,19.8970996 0.314931942,19.0148097 L1.49697603,16.4157364 C1.76051373,15.8331409 1.76051373,15.1652875 1.49697603,14.5826921 L0.313640091,11.9836187 C-0.0868338635,11.1026206 -0.104919784,10.0834015 0.265841587,9.18948562 C0.636602957,8.29556972 1.36908274,7.58767101 2.27467062,7.24663951 L4.94880315,6.2442136 C5.54822223,6.01944284 6.02103987,5.54664917 6.24453017,4.94855226 L7.24700691,2.2745553 C7.5880557,1.36772155 8.2959903,0.636570684 9.18995151,0.26582811 C10.0852046,-0.104914465 11.1018917,-0.0868294613 11.9842262,0.313624191 L14.5834314,1.49560836 C15.1647645,1.7591327 15.8339436,1.76042448 16.4165686,1.49560836 L19.0157738,0.314915977 C19.8968165,-0.0868294613 20.9160873,-0.103622679 21.8100485,0.267119895 C22.7040097,0.63786247 23.4119443,1.37030512 23.7529931,2.27584708 L24.7554698,4.94984405 C24.980252,5.54923274 25.4530696,6.02202641 26.0511968,6.24550538 L28.7253294,7.2479313 C29.6322091,7.5889628 30.363397,8.29686151 30.7341584,9.1907774 C31.1049198,10.0846933 31.0868339,11.1026206 30.6863599,11.9849105 L29.5043158,14.5839838 C29.2407781,15.1665793 29.2407781,15.8344327 29.5043158,16.4170281 L30.6850681,19.0161015 C31.085542,19.8970996 31.1036279,20.9163187 30.7328666,21.8102346 C30.3621052,22.7041505 29.6296254,23.4120492 28.7240375,23.7530807 L26.049905,24.7555066 C25.4504859,24.9802774 24.9776683,25.453071 24.754178,26.0511679 L23.7517012,28.7251649 C23.4106525,29.6319987 22.7027178,30.3631495 21.8087566,30.7338921 C21.3824457,30.9108668 20.9251302,31 20.4691067,31 Z M15.5006459,28.0146826 C15.995425,28.0146826 16.4902041,28.1193173 16.9513951,28.3285866 L19.5518921,29.5105708 C20.1177231,29.768928 20.744271,29.7792623 21.3165612,29.5402818 C21.8901433,29.3025932 22.3254972,28.8517599 22.5438201,28.271748 L23.5462969,25.5977511 C23.901556,24.6495802 24.649538,23.9016361 25.597757,23.5463949 L28.2718895,22.543969 C28.8532227,22.326949 29.3040788,21.8903253 29.5404877,21.3167723 C29.7781883,20.7432194 29.7678535,20.1167032 29.5107751,19.5521927 L28.328731,16.9531193 C27.9101711,16.0307841 27.9101711,14.9728114 28.328731,14.0504762 L29.5107751,11.4501111 C29.7678535,10.8856006 29.7781883,10.2590844 29.5404877,9.68553143 C29.302787,9.11197846 28.8519308,8.67664659 28.2718895,8.45833476 L25.597757,7.45590884 C24.649538,7.1006677 23.901556,6.35272362 23.5462969,5.40455271 L22.5438201,2.73055575 C22.3267891,2.14925206 21.8901433,1.69841875 21.3165612,1.46202192 C20.7429792,1.22304152 20.1177231,1.23466759 19.5518921,1.491733 L16.952687,2.67371716 C16.030305,3.09096403 14.9735705,3.09096403 14.0511886,2.67371716 L11.4493997,1.48914943 C10.8835688,1.23208402 10.2583127,1.22174973 9.68473063,1.45943835 C9.11114857,1.69712697 8.67579463,2.14796027 8.45747173,2.72797218 L7.454995,5.40196914 C7.09973584,6.35014005 6.35046199,7.09937591 5.40353487,7.45461705 L2.72940233,8.45704297 C2.14806917,8.67406301 1.69721301,9.11068667 1.46080419,9.68423965 C1.22181167,10.2577926 1.23343833,10.8843088 1.48922493,11.4488193 L2.67126902,14.0478927 C3.08982889,14.9702279 3.08982889,16.0282006 2.67126902,16.9505357 L1.48922493,19.5509009 C1.23214648,20.1154114 1.22181167,20.7419276 1.45951234,21.3154806 C1.69721301,21.8890335 2.14806917,22.3243654 2.72811048,22.5426772 L5.40224302,23.5451031 C6.35046199,23.9003443 7.09844399,24.6482884 7.45370314,25.5964593 L8.45617988,28.2704562 C8.67321093,28.8517599 9.10985672,29.3025932 9.68343877,29.5389901 C10.2570208,29.7766787 10.8822769,29.7663444 11.4481079,29.509279 L14.047313,28.3272948 C14.5110877,28.1193173 15.0058668,28.0146826 15.5006459,28.0146826 Z" id="Shape"></path>
            <path d="M10.9791658,12.9162882 C9.19899447,12.9162882 7.74953713,11.4669043 7.74953713,9.68682322 C7.74953713,7.90674215 9.19899447,6.45735828 10.9791658,6.45735828 C12.7593371,6.45735828 14.2087945,7.90674215 14.2087945,9.68682322 C14.2087945,11.4669043 12.7593371,12.9162882 10.9791658,12.9162882 Z M10.9791658,7.74914426 C9.91080463,7.74914426 9.0413886,8.61851622 9.0413886,9.68682322 C9.0413886,10.7551302 9.91080463,11.6245022 10.9791658,11.6245022 C12.047527,11.6245022 12.916943,10.7551302 12.916943,9.68682322 C12.916943,8.61851622 12.047527,7.74914426 10.9791658,7.74914426 Z" id="Shape"></path>
            <path d="M20.0221261,24.5423619 C18.2419547,24.5423619 16.7924974,23.0929781 16.7924974,21.312897 C16.7924974,19.5328159 18.2419547,18.083432 20.0221261,18.083432 C21.8022974,18.083432 23.2517547,19.5328159 23.2517547,21.312897 C23.2517547,23.0929781 21.8022974,24.5423619 20.0221261,24.5423619 Z M20.0221261,19.375218 C18.9537649,19.375218 18.0843489,20.24459 18.0843489,21.312897 C18.0843489,22.381204 18.9537649,23.2505759 20.0221261,23.2505759 C21.0904872,23.2505759 21.9599033,22.381204 21.9599033,21.312897 C21.9599033,20.24459 21.0904872,19.375218 20.0221261,19.375218 Z" id="Shape"></path>
            <path d="M10.9791658,23.2505759 C10.8603155,23.2505759 10.7401733,23.2182813 10.6329496,23.1498166 C10.3319482,22.9586323 10.2428105,22.5581787 10.4352963,22.2584843 L19.4782566,8.0488386 C19.6707425,7.74914426 20.0686327,7.66001102 20.3696341,7.85119535 C20.6706355,8.04237967 20.7597732,8.44283332 20.5672874,8.74252767 L11.5243271,22.9521734 C11.4016012,23.1446495 11.1923213,23.2505759 10.9791658,23.2505759 L10.9791658,23.2505759 Z" id="Path"></path>
        </g>
    </g>
</svg>