<?xml version="1.0" encoding="UTF-8"?>
<svg width="80px" height="80px" viewBox="0 0 80 80" version="1.1" xmlns="http://www.w3.org/2000/svg" xmlns:xlink="http://www.w3.org/1999/xlink">
    <title>Recharge with Care Web</title>
    <defs>
        <linearGradient x1="50%" y1="0%" x2="50%" y2="100%" id="linearGradient-1">
            <stop stop-color="#4E91B1" offset="0%"></stop>
            <stop stop-color="#00557B" offset="100%"></stop>
        </linearGradient>
    </defs>
    <g id="Recharge-with-Care-Web" stroke="none" stroke-width="1" fill="none" fill-rule="evenodd">
        <rect id="Rectangle-Copy-2" fill="url(#linearGradient-1)" x="0" y="0" width="80" height="80" rx="40"></rect>
        <g id="Group-Copy" transform="translate(22.000000, 20.000000)" fill="#FFFFFF" fill-rule="nonzero">
            <g id="save-money-(3)-copy" transform="translate(0.000000, 25.778067)">
                <path d="M31.4420865,2.80927881 L26.1917315,5.41894724 C25.4668336,4.00049949 24.0762734,3.09778829 22.5459698,3.05234287 L17.6991358,2.91221958 C16.9316932,2.88915257 16.1786504,2.68464817 15.4962972,2.31385493 L15.003105,2.04496959 C12.4779077,0.660261581 9.46802715,0.66370446 6.94544799,2.05392092 L6.97621119,0.878537322 C6.98635651,0.489152737 6.69476101,0.164837699 6.32462127,0.154164979 L1.00979458,0.000270262 C0.639654928,-0.0104025465 0.331696003,0.296354014 0.321550685,0.685738599 L0.000244237147,12.9553115 C-0.00964409675,13.3446961 0.28195132,13.6690111 0.652091057,13.6796839 L5.96691775,13.8335786 L5.98524474,13.8335786 C6.34851179,13.8335786 6.64567091,13.5295763 6.65548889,13.147766 L6.67087049,12.5607628 L8.05161274,11.7830265 C8.59356798,11.4762699 9.22715816,11.4032818 9.81918532,11.5795549 L18.0643665,14.0139831 C18.0787663,14.0184588 18.0931661,14.0219017 18.1078932,14.0253445 C18.7038476,14.1565164 19.3112563,14.2222746 19.9199742,14.2219317 C21.2094087,14.2226188 22.4837889,13.9303222 23.6557345,13.3643203 C23.684534,13.3505489 23.7123517,13.3343677 23.7388604,13.3161206 L35.6936205,5.18139162 C35.9914341,4.9786087 36.0876508,4.56718998 35.9132171,4.24218642 C35.0256672,2.58549454 33.0571523,1.95442303 31.4420865,2.80927881 L31.4420865,2.80927881 Z M1.35898919,12.2894674 L1.64305751,1.42939081 L5.61772314,1.54438144 L5.33365482,12.4048023 L1.35898919,12.2894674 Z M23.0519256,12.1049315 C21.5959118,12.7962526 19.9697189,12.9869856 18.4047249,12.6506207 L10.1817979,10.2223897 C9.25628496,9.94730721 8.26564575,10.061265 7.41900431,10.5401632 L6.71341525,10.9378106 L6.90224875,3.71715421 C9.13814135,2.15273029 12.0056605,1.9919499 14.3868599,3.29712842 L14.8800523,3.56601376 C15.7420753,4.03423923 16.6927878,4.29245184 17.6624819,4.32206018 L22.5096431,4.46218355 C23.8710765,4.50349757 25.0273131,5.52326514 25.303527,6.92656432 L18.0836754,6.71689574 C17.7135356,6.70622293 17.4055768,7.01332384 17.3951042,7.40236407 C17.3849589,7.79174866 17.6768816,8.11606361 18.0466941,8.12673642 L26.0143524,8.35740636 L26.0330067,8.35740636 C26.3959465,8.35706201 26.6927783,8.05305972 26.7025963,7.67159376 C26.7107779,7.36518146 26.6891783,7.0584249 26.6377973,6.75683261 L32.0229865,4.08002899 C32.0282228,4.07761898 32.0334591,4.07486471 32.0386953,4.07211045 C32.8025381,3.66551165 33.7260874,3.80150362 34.3544413,4.41329535 L23.0519256,12.1049315 Z" id="Shape"></path>
            </g>
            <g id="shopping-bag-(2)-copy" transform="translate(9.094834, 0.000000)">
                <path d="M17.6533581,8.06258776 C17.6028478,7.44633902 17.3502961,6.88144433 16.9462136,6.47061184 C16.542131,6.05977934 16.0117726,5.80300903 15.3803935,5.80300903 L14.0418699,5.80300903 L14.0418699,4.6218656 C14.0418699,3.33801404 13.5367667,2.18254764 12.7033464,1.36088265 C11.869926,0.513540622 10.7334438,0 9.49594083,0 C8.23318274,0 7.09670046,0.513540622 6.28853528,1.36088265 C5.45511494,2.18254764 4.95001171,3.33801404 4.95001171,4.6218656 L4.95001171,5.80300903 L3.61148813,5.80300903 C2.98010909,5.80300903 2.44975069,6.05977934 2.0456681,6.47061184 C1.64158552,6.88144433 1.3890339,7.44633902 1.33852357,8.06258776 L0,23.2633902 C0,23.3404213 0,23.4174524 0,23.4431294 C0,24.0080241 0.227296456,24.5472417 0.631379044,24.9323972 C1.01020647,25.2918756 1.51530971,25.5486459 2.0456681,25.6 L2.07092327,25.6 C2.14668875,25.6 2.22245424,25.6 2.27296456,25.6 L16.7189171,25.6 C16.7694274,25.6 16.8451929,25.6 16.9209584,25.6 C17.476572,25.5486459 17.9816752,25.2918756 18.3605026,24.9323972 C18.7645852,24.5472417 18.9918817,24.0080241 18.9918817,23.4174524 C18.9918817,23.3660983 18.9918817,23.3147442 18.9918817,23.2377131 L17.6533581,8.06258776 Z M6.33904561,4.6218656 C6.33904561,3.72316951 6.69261787,2.92718154 7.27348659,2.33660983 C7.85435531,1.74603811 8.63726533,1.38655968 9.52119599,1.38655968 C10.4051267,1.38655968 11.1880367,1.74603811 11.7689054,2.33660983 C12.3497741,2.92718154 12.7033464,3.72316951 12.7033464,4.6218656 L12.7033464,5.80300903 L6.33904561,5.80300903 L6.33904561,4.6218656 Z M17.5775926,23.4431294 C17.5775926,23.6485456 17.5018271,23.8282849 17.3502961,23.95667 C17.1987652,24.1107322 16.9714687,24.2134403 16.7694274,24.2391174 C16.7694274,24.2391174 16.7441723,24.2391174 16.6936619,24.2391174 L2.27296456,24.2391174 C2.22245424,24.2391174 2.19719907,24.2391174 2.19719907,24.2391174 L2.17194391,24.2391174 C1.94464746,24.2134403 1.74260616,24.1107322 1.59107519,23.95667 C1.43954422,23.8282849 1.36377874,23.6485456 1.36377874,23.4431294 L1.36377874,23.3660983 L2.70230231,8.19097292 C2.72755747,7.90852558 2.85383328,7.65175527 3.03061941,7.47201605 C3.18215038,7.31795386 3.38419168,7.21524574 3.61148813,7.21524574 L4.95001171,7.21524574 L4.95001171,10.3478435 C4.95001171,10.732999 5.25307365,11.0411234 5.63190108,11.0411234 C6.0107285,11.0411234 6.31379044,10.732999 6.31379044,10.3478435 L6.31379044,7.21524574 L12.6275809,7.21524574 L12.6275809,10.3478435 C12.6275809,10.732999 12.9306428,11.0411234 13.3094703,11.0411234 C13.6882977,11.0411234 13.9913596,10.732999 13.9913596,10.3478435 L13.9913596,7.21524574 L15.3298832,7.21524574 C15.5571797,7.21524574 15.7592209,7.31795386 15.9107519,7.47201605 C16.0875381,7.65175527 16.2138139,7.90852558 16.239069,8.19097292 L17.5775926,23.3917753 L17.5775926,23.4431294 Z" id="Shape"></path>
            </g>
        </g>
    </g>
</svg>