<?xml version="1.0" encoding="UTF-8"?>
<svg width="80px" height="80px" viewBox="0 0 80 80" version="1.1" xmlns="http://www.w3.org/2000/svg" xmlns:xlink="http://www.w3.org/1999/xlink">
    <title>Refund web</title>
    <defs>
        <linearGradient x1="50%" y1="0%" x2="50%" y2="100%" id="linearGradient-1">
            <stop stop-color="#4E91B1" offset="0%"></stop>
            <stop stop-color="#00557B" offset="100%"></stop>
        </linearGradient>
    </defs>
    <g id="Refund-web" stroke="none" stroke-width="1" fill="none" fill-rule="evenodd">
        <rect id="Rectangle-Copy-6" fill="url(#linearGradient-1)" x="0" y="0" width="80" height="80" rx="40"></rect>
        <g id="cashback-copy" transform="translate(22.000000, 22.000000)" fill="#FFFFFF" fill-rule="nonzero" stroke="#FFFFFF" stroke-width="0.5">
            <path d="M17.8539614,21.9195318 L17.8539614,21.0607401 C16.574181,20.8004628 15.6064144,19.6420151 15.6064144,18.2562145 C15.6064144,17.9358174 15.860076,17.6760478 16.1729395,17.6760478 C16.4858031,17.6760478 16.7394647,17.9358174 16.7394647,18.2562145 C16.7394647,19.1931836 17.4838788,19.9554501 18.398817,19.9554501 C19.3137552,19.9554501 20.0580984,19.1931836 20.0580984,18.2562145 C20.0580984,17.3192453 19.3137552,16.5569789 18.398817,16.5569789 C16.8590724,16.5569789 15.6064144,15.2741579 15.6064144,13.6974099 C15.6064144,12.3115368 16.5742518,11.1531616 17.8539614,10.8928843 L17.8539614,10.0261153 C17.8539614,9.70571827 18.107623,9.44594865 18.4204866,9.44594865 C18.7333501,9.44594865 18.9870118,9.70571827 18.9870118,10.0261153 L18.9870118,10.9022395 C20.2451226,11.1797042 21.191078,12.3272738 21.191078,13.6974099 C21.191078,14.017807 20.9374164,14.2775766 20.6245528,14.2775766 C20.3116893,14.2775766 20.0580276,14.017807 20.0580276,13.6974099 C20.0580276,12.7604408 19.3136844,11.9981743 18.3987462,11.9981743 C17.483808,11.9981743 16.7393939,12.7604408 16.7393939,13.6974099 C16.7393939,14.6343791 17.483808,15.3966455 18.3987462,15.3966455 C19.93842,15.3966455 21.191078,16.6794665 21.191078,18.2562145 C21.191078,19.6263506 20.2451226,20.7739202 18.9870118,21.0513849 L18.9870118,21.9195318 C18.9870118,22.2399288 18.7333501,22.4996985 18.4204866,22.4996985 C18.107623,22.4996985 17.8539614,22.2400014 17.8539614,21.9195318 L17.8539614,21.9195318 Z M29.4095881,4.7009106 C23.387567,-1.46626098 13.9588175,-1.50455198 7.86952153,4.22800225 C4.99178603,6.93709046 3.21339266,10.595839 2.86200541,14.5300941 C2.83353752,14.8491858 3.06298022,15.1315094 3.37456908,15.1607353 C3.68644119,15.1893085 3.96184325,14.9549212 3.99038195,14.6358295 C4.66539671,7.07944885 10.9943328,1.16037105 18.3988878,1.16037105 C26.3766247,1.16037105 32.8670204,7.80705036 32.8670204,15.9768847 C32.8670204,26.6592033 22.109911,33.8000396 12.6741508,29.5696093 C16.5491831,25.2527343 14.2462582,18.461811 8.89889779,17.2326555 C8.15859101,11.3620216 12.6478782,6.14748364 18.4231068,6.14748364 C23.7181344,6.14748364 28.0259919,10.5590709 28.0259919,15.9815986 C28.0259919,21.4041262 23.7182052,25.8157135 18.4231068,25.8157135 C18.1102432,25.8157135 17.8565816,26.0754831 17.8565816,26.3958802 C17.8565816,26.7162772 18.1102432,26.9760468 18.4231068,26.9760468 C24.3211297,26.9760468 29.1590423,22.0201907 29.1590423,15.9815986 C29.1590423,9.94155602 24.3197842,4.98715032 18.4231068,4.98715032 C12.1464326,4.98715032 7.10988207,10.5880792 7.74035379,17.0662201 C5.64923851,16.9393812 3.64565138,17.7249994 2.15540688,19.2511278 C-2.51764693,24.036705 0.959543026,32 7.30653713,32 C7.61940066,32 7.87306231,31.7402304 7.87306231,31.4198333 C7.87306231,31.0994363 7.61940066,30.8396667 7.30653713,30.8396667 C3.90717357,30.8396667 1.14161006,28.0075106 1.14161006,24.5262931 C1.14161006,20.656654 4.52546499,17.6883764 8.26608916,18.2895015 C8.28974159,18.2953032 8.31396054,18.2992193 8.33846275,18.3018301 C11.2482777,18.8061399 13.4714642,21.4051415 13.4714642,24.5262931 C13.4713934,27.4855057 11.5529267,29.0232374 11.2676812,29.3554553 C11.0254209,29.637924 11.104876,30.0764574 11.4292117,30.2512327 C21.4848921,35.6320608 34,27.8864008 34,15.9768847 C34,11.7368092 32.369753,7.73228138 29.4095881,4.7009106 Z M7.94394878,22.1370943 L6.77896055,22.1370943 L7.22113345,21.6604149 C7.43662547,21.4280581 7.42749025,21.0608851 7.20059692,20.8402043 C6.97370358,20.6195234 6.61516395,20.6288785 6.39967194,20.8612353 L5.05339565,22.3125222 C4.84562254,22.536394 4.84562254,22.8877574 5.05339565,23.1117018 L6.39967194,24.5629887 C6.61523477,24.7954179 6.97391603,24.8046281 7.20059692,24.5840197 C7.42749025,24.3633388 7.43662547,23.9961658 7.22120427,23.7638091 L6.78859148,23.2974276 L7.94401959,23.2974276 C8.84210364,23.2974276 9.5727795,24.0456976 9.5727795,24.9654068 C9.5727795,25.8851159 8.84210364,26.6333859 7.94401959,26.6333859 L5.17796037,26.6333859 C4.86509684,26.6333859 4.61143519,26.8931555 4.61143519,27.2135526 C4.61143519,27.5339496 4.86509684,27.7937192 5.17796037,27.7937192 L7.94394878,27.7937192 C9.46683929,27.7937192 10.7057591,26.5249672 10.7057591,24.9654068 C10.7057591,23.4058463 9.46683929,22.1370943 7.94394878,22.1370943 L7.94394878,22.1370943 Z" id="Shape"></path>
        </g>
    </g>
</svg>