<?xml version="1.0" encoding="UTF-8"?>
<svg width="80px" height="80px" viewBox="0 0 80 80" version="1.1" xmlns="http://www.w3.org/2000/svg" xmlns:xlink="http://www.w3.org/1999/xlink">
    <title>Remittances Web</title>
    <defs>
        <linearGradient x1="50%" y1="0%" x2="50%" y2="100%" id="linearGradient-1">
            <stop stop-color="#4E91B1" offset="0%"></stop>
            <stop stop-color="#00557B" offset="100%"></stop>
        </linearGradient>
    </defs>
    <g id="Remittances-Web" stroke="none" stroke-width="1" fill="none" fill-rule="evenodd">
        <rect id="Rectangle-Copy-2" fill="url(#linearGradient-1)" x="0" y="0" width="80" height="80" rx="40"></rect>
        <g id="personal-copy-3" transform="translate(21.000000, 21.000000)" fill="#FFFFFF" fill-rule="nonzero">
            <path d="M20.9968121,16.100669 C21.5358066,16.100669 21.9742314,16.4678437 21.9742314,16.9191115 C21.9742314,17.3289637 22.306594,17.6613284 22.7164436,17.6613284 C23.1262931,17.6613284 23.4586558,17.3289637 23.4586558,16.9191115 C23.4586558,15.8912154 22.7348504,15.0185911 21.7390243,14.7234114 L21.7390243,14.6202433 C21.7390243,14.2103911 21.4066617,13.8780264 20.9968121,13.8780264 C20.5869625,13.8780264 20.2545999,14.2103911 20.2545999,14.6202433 L20.2545999,14.7234114 C19.2587738,15.0186653 18.5350427,15.8912154 18.5350427,16.9191115 C18.5350427,18.1888961 19.6393802,19.2219136 20.9968121,19.2219136 C21.5358066,19.2219136 21.9742314,19.5890882 21.9742314,20.0403561 C21.9742314,20.4916239 21.5358066,20.8587244 20.9968121,20.8587244 C20.4578918,20.8587244 20.0194671,20.4916239 20.0194671,20.0403561 C20.0194671,19.6305039 19.6871045,19.2981392 19.2772549,19.2981392 C18.8674053,19.2981392 18.5350427,19.6305039 18.5350427,20.0403561 C18.5350427,21.0682522 19.2587738,21.9408023 20.2545999,22.235982 L20.2545999,22.3391501 C20.2545999,22.7490023 20.5869625,23.081367 20.9968121,23.081367 C21.4066617,23.081367 21.7390243,22.7490023 21.7390243,22.3391501 L21.7390243,22.235982 C22.7348504,21.9408023 23.4586558,21.0682522 23.4586558,20.0403561 C23.4586558,18.7705715 22.354244,17.7374799 20.9968121,17.7374799 C20.4578918,17.7374799 20.0194671,17.3703794 20.0194671,16.9191115 C20.0194671,16.4678437 20.4578918,16.100669 20.9968121,16.100669 Z" id="XMLID_283_"></path>
            <path d="M37.8883001,24.7933644 C37.5972787,23.7842463 36.7783217,23.021767 35.7511,22.8032583 C35.0932774,22.663202 34.4091062,22.7654053 33.8248367,23.0759488 C34.163137,20.9721351 33.9854514,18.7958811 33.2893306,16.7673282 C33.156252,16.3795941 32.7340074,16.1734805 32.34635,16.3061889 C31.9586183,16.4392683 31.7522091,16.8614413 31.8852136,17.2491754 C32.7074362,19.6448287 32.7141162,22.2728702 31.9085932,24.6714182 L25.99383,29.9246064 C25.6288842,30.2486583 25.2286834,30.523427 24.8033216,30.7465373 C24.92356,30.2600142 24.9153957,29.7448415 24.7709612,29.2554237 C24.5428793,28.482479 23.995201,27.8395708 23.2684268,27.4914711 L18.0287055,24.9818132 C15.7379418,23.8845941 13.0567744,23.757675 10.6726404,24.6329713 L10.1400289,24.8285455 C8.66169063,20.6523139 9.69069362,16.0208065 12.8565256,12.8550289 L18.0963953,7.6152006 L23.8973032,7.6152006 L28.3369939,12.0549192 C28.626902,12.3446806 29.0967223,12.3446806 29.3867046,12.0549192 C29.6765385,11.7650835 29.6765385,11.2951118 29.3867046,11.0052019 L25.144665,6.76335832 L26.6781496,2.35028534 C26.8837424,1.75866428 26.6566997,1.11323251 26.126018,0.780570911 C25.5954847,0.447983538 24.9154699,0.52509987 24.4725919,0.967758002 L24.4634626,0.976887269 C24.1567063,1.28379394 23.657346,1.28379394 23.3505897,0.976887269 C22.047933,-0.32562909 19.9285461,-0.32562909 18.6258894,0.976887269 C18.4772986,1.12555331 18.2796475,1.2073456 18.069453,1.2073456 C17.8592585,1.2073456 17.6616074,1.12547908 17.5130165,0.976887269 C17.0696931,0.533561142 16.3893072,0.456815919 15.8583286,0.790442395 C15.3274242,1.12399465 15.1012721,1.77031709 15.3084236,2.36216081 L16.8485881,6.76380365 L11.8068891,11.8054601 C9.9410418,13.6713933 8.70073099,16.0239238 8.22022281,18.608694 C7.7987205,20.8754243 7.9813047,23.1867618 8.74541216,25.3407493 L7.57531463,25.7703444 C7.1859501,25.2641525 6.57473835,24.9369833 5.88826629,24.9369833 L2.12769972,24.9369833 C0.954484893,24.9370576 0,25.8915484 0,27.0646964 L0,35.8722869 C0,37.0455091 0.954484893,38 2.12769972,38 L21.6897414,38 C24.7623515,38 27.668038,36.8206174 29.8714434,34.6790991 L37.1391111,27.6157924 C37.8922338,26.8839666 38.1792473,25.8024824 37.8883001,24.7933644 L37.8883001,24.7933644 Z M18.0693787,2.69185354 C18.676063,2.69185354 19.2464531,2.45560591 19.6755259,2.02660457 C20.3993313,1.30279469 21.5770736,1.30279469 22.3008789,2.02660457 C22.7298776,2.45560591 23.3003419,2.69185354 23.9070262,2.69185354 C24.3378061,2.69185354 24.7501792,2.57280195 25.106738,2.3501369 L23.7930224,6.13084111 L18.1997854,6.13084111 L16.8787961,2.35577774 C17.2332767,2.57473172 17.6422356,2.69185354 18.0693787,2.69185354 Z M1.48442441,35.8723612 L1.48442441,27.0646964 C1.48442441,26.709991 1.77299651,26.4214171 2.12769972,26.4214171 L5.88819207,26.4214171 C6.24289528,26.4214171 6.53146738,26.709991 6.53146738,27.0646964 L6.53146738,35.8722869 C6.53146738,36.2269924 6.24289528,36.5155663 5.88819207,36.5155663 L2.12769972,36.5155663 C1.77299651,36.5155663 1.48442441,36.2270666 1.48442441,35.8723612 Z M36.1045415,26.5513792 L28.8368738,33.6146859 C26.9120207,35.4853693 24.3738034,36.5156405 21.6897414,36.5156405 L7.91621269,36.5156405 C7.98078515,36.31257 8.01589179,36.0965107 8.01589179,35.8723612 L8.01589179,27.1899826 L11.1842472,26.0266319 C13.1946774,25.2884973 15.4558269,25.3955249 17.3875084,26.3207725 L22.6272297,28.8304303 C22.9805969,28.9996557 23.236289,29.2998825 23.3471755,29.6757411 C23.458062,30.0515997 23.4063298,30.4426738 23.201405,30.7766713 C22.8721597,31.3132199 22.2230951,31.5545888 21.6232392,31.3640618 L14.6623278,29.1504742 C14.2717758,29.0263756 13.8543556,29.2422122 13.7300351,29.6329152 C13.605863,30.0235439 13.8217725,30.4409667 14.212473,30.5652138 L21.1733844,32.7787271 C21.460101,32.8698713 21.752013,32.9136621 22.040214,32.9136621 C22.0749496,32.9136621 22.1095366,32.9115839 22.1441237,32.9103221 C23.9292183,32.8846414 25.6426152,32.2219902 26.9794136,31.0346659 L34.2610348,24.5674336 C34.5814478,24.2829419 35.0231383,24.1662654 35.4421171,24.2553314 C35.9396219,24.3611715 36.3208221,24.7160996 36.4617682,25.2048494 C36.602937,25.6934508 36.4693388,26.1968222 36.1045415,26.5513792 Z" id="XMLID_1217_"></path>
            <path d="M31.0793196,14.7692804 C31.2745214,14.7692804 31.4660121,14.6906054 31.6039894,14.5518109 C31.7420408,14.4137586 31.8215318,14.2229346 31.8215318,14.0270636 C31.8215318,13.8318605 31.742115,13.6411108 31.6039894,13.5023163 C31.4660121,13.3643381 31.2745214,13.2848467 31.0793196,13.2848467 C30.8840435,13.2848467 30.6933692,13.3642639 30.5545755,13.5023163 C30.4165241,13.6411108 30.3371073,13.8318605 30.3371073,14.0270636 C30.3371073,14.2230088 30.4164498,14.4137586 30.5545755,14.5518109 C30.6925528,14.6906797 30.8840435,14.7692804 31.0793196,14.7692804 Z" id="XMLID_1298_"></path>
        </g>
    </g>
</svg>