<?xml version="1.0" encoding="UTF-8"?>
<svg width="80px" height="80px" viewBox="0 0 80 80" version="1.1" xmlns="http://www.w3.org/2000/svg" xmlns:xlink="http://www.w3.org/1999/xlink">
    <title>remittance web</title>
    <defs>
        <linearGradient x1="50%" y1="0%" x2="50%" y2="100%" id="linearGradient-1">
            <stop stop-color="#4E91B1" offset="0%"></stop>
            <stop stop-color="#00557B" offset="100%"></stop>
        </linearGradient>
    </defs>
    <g id="remittance-web" stroke="none" stroke-width="1" fill="none" fill-rule="evenodd">
        <rect id="Rectangle-Copy-2" fill="url(#linearGradient-1)" x="0" y="0" width="80" height="80" rx="40"></rect>
        <g id="transfer-(1)" transform="translate(22.400000, 23.200000)" fill="#FFFFFF" fill-rule="nonzero">
            <path d="M16.8938308,23.6955224 C16.341214,23.6955224 15.8927134,23.2461851 15.8927134,22.6925373 L15.8927134,21.1860537 C15.8927134,20.632406 16.341214,20.1830687 16.8938308,20.1830687 C17.4464476,20.1830687 17.8949483,20.632406 17.8949483,21.1860537 L17.8949483,22.6925373 C17.8949483,23.2461851 17.4464476,23.6955224 16.8938308,23.6955224 Z" id="Path"></path>
            <path d="M17.3943895,21.6895522 L13.8904785,21.6895522 C13.3378617,21.6895522 12.8893611,21.2402149 12.8893611,20.6865672 C12.8893611,20.1329194 13.3378617,19.6835821 13.8904785,19.6835821 L17.3943895,19.6835821 C18.2233148,19.6835821 18.8960657,19.0075701 18.8960657,18.1791045 C18.8960657,17.3506388 18.2233148,16.6746269 17.3943895,16.6746269 L16.3932721,16.6746269 C14.4611154,16.6746269 12.8893611,15.0999403 12.8893611,13.1641791 C12.8893611,11.2284179 14.4611154,9.65373134 16.3932721,9.65373134 L19.8971831,9.65373134 C20.4498,9.65373134 20.8983006,10.1030687 20.8983006,10.6567164 C20.8983006,11.2103642 20.4498,11.6597015 19.8971831,11.6597015 L16.3932721,11.6597015 C15.5643469,11.6597015 14.8915959,12.3357134 14.8915959,13.1641791 C14.8915959,13.9926448 15.5643469,14.6686567 16.3932721,14.6686567 L17.3943895,14.6686567 C19.3265462,14.6686567 20.8983006,16.2433433 20.8983006,18.1791045 C20.8983006,20.1148657 19.3265462,21.6895522 17.3943895,21.6895522 Z" id="Path"></path>
            <path d="M16.8938308,11.1602149 C16.341214,11.1602149 15.8927134,10.7108776 15.8927134,10.1572299 L15.8927134,8.65074627 C15.8927134,8.09709851 16.341214,7.64776119 16.8938308,7.64776119 C17.4464476,7.64776119 17.8949483,8.09709851 17.8949483,8.65074627 L17.8949483,10.1572299 C17.8949483,10.7108776 17.4464476,11.1602149 16.8938308,11.1602149 Z" id="Path"></path>
            <path d="M16.8448871,30.841791 C16.4574547,30.841791 16.1430168,30.5267665 16.1430168,30.1386113 C16.1430168,29.7504561 16.4574547,29.4354315 16.8448871,29.4354315 C24.5851127,29.4354315 30.8822929,23.1265028 30.8822929,15.3718365 C30.8822929,14.9836812 31.1967308,14.6686567 31.5841632,14.6686567 C31.9715956,14.6686567 32.2860335,14.9836812 32.2860335,15.3718365 C32.2860335,23.9014069 25.3585737,30.841791 16.8448871,30.841791 Z" id="Path"></path>
            <path d="M30.6451713,11.2835821 C30.3547109,11.2835821 30.0824919,11.1013628 29.9814621,10.8126152 C28.031027,5.18343933 22.7087246,1.40168722 16.7395513,1.40168722 C13.5458893,1.40168722 10.5542867,2.44874757 8.08607419,4.42792992 C7.78438819,4.66902012 7.34238312,4.62276444 7.09963112,4.32140169 C6.85687913,4.01863725 6.9059908,3.57850746 7.20767681,3.33601557 C9.92706041,1.15358858 13.2231554,0 16.7395513,0 C23.3064839,0 29.1619987,4.16160934 31.3088805,10.3528618 C31.4351677,10.7201038 31.2415274,11.118183 30.8752946,11.2457365 C30.7995223,11.2709669 30.7209436,11.2835821 30.6451713,11.2835821 L30.6451713,11.2835821 Z" id="Path"></path>
            <path d="M11.8724435,30.0268657 C11.7950146,30.0268657 11.716178,30.0142496 11.6387492,29.9876158 C5.46415184,27.8316758 1.31396648,21.9946574 1.31396648,15.4623554 C1.31396648,12.3504004 2.24311246,9.36320388 4.00004303,6.82317572 C4.21965935,6.50216774 4.6574842,6.42506976 4.9784619,6.6423459 C5.2994396,6.8624256 5.37968402,7.29837966 5.1586599,7.61658407 C3.56503378,9.9239165 2.72176341,12.6363638 2.72176341,15.4623554 C2.72176341,21.400302 6.4932514,26.7060452 12.1061378,28.664334 C12.472165,28.7918961 12.6650332,29.1914039 12.5369236,29.5572689 C12.4355623,29.8460359 12.1638574,30.0268657 11.8724435,30.0268657 L11.8724435,30.0268657 Z" id="Path"></path>
            <path d="M18.8344374,33.6 C18.6582114,33.6 18.4819854,33.5317993 18.3470623,33.3967898 L15.5935308,30.6130887 C15.3250614,30.3416778 15.3250614,29.9004612 15.5935308,29.6290503 L18.3470623,26.8453492 C18.6155316,26.5739383 19.0519664,26.5739383 19.3204357,26.8453492 C19.588905,27.1167601 19.588905,27.5579767 19.3204357,27.8293875 L17.0542793,30.1203736 L19.3204357,32.4113596 C19.588905,32.6827705 19.588905,33.1239871 19.3204357,33.395398 C19.1868894,33.5317993 19.0106634,33.6 18.8344374,33.6 L18.8344374,33.6 Z" id="Path"></path>
            <path d="M5.86660659,11.2208955 C5.55598746,11.2208955 5.27207315,11.0151016 5.18774217,10.7029107 L4.27837305,7.32201008 L0.884050933,8.22778347 C0.510183569,8.32158071 0.123666558,8.10598704 0.0238748932,7.73219803 C-0.0759167716,7.35840901 0.14615482,6.97622024 0.521427701,6.8754232 L4.59461424,5.78905512 C4.96988712,5.69525788 5.35499862,5.91085154 5.45479028,6.2832406 L6.54547101,10.3389214 C6.64666819,10.7141104 6.42319109,11.0962992 6.04932372,11.1970962 C5.987481,11.2124958 5.9270438,11.2208955 5.86660659,11.2208955 L5.86660659,11.2208955 Z" id="Path"></path>
            <path d="M30.8016599,11.9731343 C30.6827311,11.9731343 30.5624031,11.9435022 30.4518692,11.8785938 L26.8168444,9.76201366 C26.4824445,9.56728829 26.3677132,9.13691701 26.5607977,8.79826419 C26.7538821,8.46102243 27.1806267,8.343905 27.5164258,8.54004142 L30.5456131,10.3038582 L32.2945665,7.24892756 C32.487651,6.9116858 32.9157948,6.79456837 33.2501947,6.99070479 C33.5845946,7.18543016 33.6993259,7.61580145 33.5062415,7.95445426 L31.4074974,11.620371 C31.2773752,11.8461395 31.0423159,11.9731343 30.8016599,11.9731343 Z" id="Path"></path>
        </g>
    </g>
</svg>