<?xml version="1.0" encoding="UTF-8"?>
<svg width="80px" height="80px" viewBox="0 0 80 80" version="1.1" xmlns="http://www.w3.org/2000/svg" xmlns:xlink="http://www.w3.org/1999/xlink">
    <title>Repeat</title>
    <defs>
        <linearGradient x1="50%" y1="0%" x2="50%" y2="100%" id="linearGradient-1">
            <stop stop-color="#4E91B1" offset="0%"></stop>
            <stop stop-color="#00557B" offset="100%"></stop>
        </linearGradient>
    </defs>
    <g id="Repeat" stroke="none" stroke-width="1" fill="none" fill-rule="evenodd">
        <rect id="Rectangle-Copy-2" fill="url(#linearGradient-1)" x="0" y="0" width="80" height="80" rx="40"></rect>
        <g id="refresh-copy" transform="translate(21.000000, 25.000000)" fill="#FFFFFF" fill-rule="nonzero">
            <path d="M19.3086579,0 C11.2100295,0 4.62425549,6.50684932 4.62425549,14.5 L4.62425549,14.5479452 L1.71652174,10.2260274 C1.4319941,9.80136986 0.84905941,9.68493151 0.418798092,9.96575342 C-0.0114632266,10.2465753 -0.129438104,10.8219178 0.155089542,11.2465753 L4.37442634,17.5136986 C4.52709971,17.739726 4.76998916,17.8835616 5.04063741,17.9178082 C5.0822756,17.9246575 5.1169741,17.9246575 5.15861229,17.9246575 C5.38762235,17.9246575 5.6096927,17.8424658 5.78318517,17.6849315 L11.6472306,12.4726027 C12.028914,12.130137 12.0636125,11.5479452 11.7166275,11.1643836 C11.3696426,10.7876712 10.7797682,10.7534247 10.3911451,11.0958904 L6.49797413,14.5684932 L6.49797413,14.5 C6.49797413,7.52054795 12.2440446,1.84931507 19.3086579,1.84931507 C26.3732712,1.84931507 32.1262814,7.52054795 32.1262814,14.5 C32.1262814,21.4794521 26.3802109,27.1506849 19.3155976,27.1506849 C15.8943261,27.1506849 12.674306,25.8356164 10.2592908,23.4452055 C9.89148679,23.0821918 9.3016124,23.0821918 8.93380837,23.4452055 C8.56600434,23.8082192 8.56600434,24.390411 8.93380837,24.7534247 C11.7096878,27.4931507 15.3946678,29 19.3155976,29 C27.4072863,29 34,22.5 34,14.5 C34,6.5 27.4072863,0 19.3086579,0 Z" id="Path"></path>
        </g>
    </g>
</svg>