<?xml version="1.0" encoding="UTF-8"?>
<svg width="80px" height="80px" viewBox="0 0 80 80" version="1.1" xmlns="http://www.w3.org/2000/svg" xmlns:xlink="http://www.w3.org/1999/xlink">
    <title>Rewards</title>
    <defs>
        <linearGradient x1="50%" y1="0%" x2="50%" y2="100%" id="linearGradient-1">
            <stop stop-color="#4E91B1" offset="0%"></stop>
            <stop stop-color="#00557B" offset="100%"></stop>
        </linearGradient>
    </defs>
    <g id="Rewards" stroke="none" stroke-width="1" fill="none" fill-rule="evenodd">
        <rect id="Rectangle-Copy-6" fill="url(#linearGradient-1)" x="0" y="0" width="80" height="80" rx="40"></rect>
        <g id="reward-copy" transform="translate(26.000000, 23.000000)" fill="#FFFFFF" fill-rule="nonzero">
            <path d="M1.11471412,15.683351 C1.66672948,16.1235788 1.86566298,16.8594306 1.60981316,17.5143044 C0.919976385,19.2791016 2.05465436,21.2201345 3.93809209,21.5101552 C4.39907782,21.5811014 4.79110723,21.8394901 5.03701493,22.2051565 L1.83364754,28.3598495 C1.64137253,28.7294022 1.68232674,29.1624902 1.94054807,29.4901982 C2.1987694,29.8177255 2.61278092,29.9618772 3.02131972,29.8668003 L6.51537993,29.0514165 L7.87069986,32.3448551 C8.0291352,32.7298623 8.38796343,32.9804785 8.80717404,32.9989155 C8.82368342,32.9996385 8.84010159,33 8.85642855,33 C9.25593735,33 9.61376224,32.7848117 9.79855787,32.4298097 L12.7966981,26.6695232 C13.2611499,26.780145 13.7380978,26.7803258 14.203188,26.6695232 L17.2013283,32.4298097 C17.3860327,32.7848117 17.7439488,33 18.1434576,33 C18.1597846,33 18.1762027,32.9996385 18.1927121,32.9989155 C18.6118315,32.9804785 18.9706597,32.7297719 19.1291863,32.3448551 L20.4845062,29.0514165 L23.9785664,29.8668003 C24.3871052,29.9621484 24.8011168,29.8179062 25.0593381,29.4901982 C25.3175594,29.1624902 25.3585136,28.7294022 25.1662386,28.3598495 L21.9628712,22.2051565 C22.2087789,21.8394901 22.6008083,21.5811014 23.0617029,21.5101552 C24.9490627,21.2195019 26.0783592,19.2754865 25.390073,17.5143044 C25.134132,16.8594306 25.3330655,16.1235788 25.885172,15.683351 C27.3719285,14.4975107 27.3712901,12.2546177 25.885172,11.0692292 C25.3331567,10.6290015 25.1342232,9.89314964 25.390073,9.23836622 C26.0797274,7.47347864 24.9451406,5.5325361 23.0617941,5.2425154 C22.3614679,5.1346953 21.8178441,4.59604669 21.7090281,3.90222029 C21.4157813,2.03213355 19.4537188,0.913082029 17.6762695,1.59515938 C17.0151645,1.84875804 16.2727896,1.65155481 15.8284044,1.10459149 C14.6306077,-0.369823506 12.3669069,-0.366569924 11.1717554,1.10459149 C10.7273702,1.65155481 9.9849041,1.84857729 9.32398154,1.59515938 C7.54288374,0.911726369 5.58383121,2.03601977 5.29122293,3.90222029 C5.18240695,4.59604669 4.6387831,5.1346953 3.93854815,5.2425154 C2.0511883,5.53316874 0.92198305,7.47709373 1.61017801,9.23836622 C1.86611904,9.89314964 1.66718554,10.6290015 1.11507897,11.0692292 C-0.373045714,12.2560637 -0.370218141,14.4990471 1.11471412,15.683351 Z M8.88680216,31.2236345 L7.68344151,28.2992967 C7.48469044,27.8165013 6.96879506,27.55269 6.45627452,27.6723495 L3.3540613,28.396362 L5.68224902,23.9231383 C6.41614121,25.1331998 7.9435783,25.6871221 9.3236167,25.1574209 C9.98435683,24.9035511 10.7270054,25.1009351 11.1714817,25.6480791 C11.2939795,25.7988285 11.4299767,25.9348463 11.5760072,26.0570364 L8.88680216,31.2236345 Z M20.5431556,27.6723495 C20.0309999,27.5533227 19.5149221,27.8165917 19.3160798,28.2993871 L18.1127192,31.2236345 L15.4235141,26.0570364 C15.5695446,25.9349366 15.7055418,25.7989188 15.8280396,25.6480791 C16.2725159,25.1011158 17.0151645,24.9041837 17.6758134,25.1574209 C19.0561254,25.6870318 20.5834713,25.133019 21.3171811,23.9231383 L23.6453688,28.396362 L20.5431556,27.6723495 Z M1.97256351,12.1253782 C2.99067247,11.3134286 3.35761857,9.95650411 2.88568739,8.74897323 C2.51162675,7.79196818 3.12685207,6.73943434 4.14824467,6.58217787 C5.43962495,6.38334785 6.44213665,5.39001113 6.64280317,4.11035917 C6.80178578,3.09668757 7.86559199,2.48926185 8.8296122,2.85935682 C10.0484789,3.32696888 11.4177543,2.96347145 12.2372034,1.95468022 C12.8867244,1.15511239 14.1141651,1.15682956 14.7623179,1.95468022 C15.5816758,2.9632907 16.9511336,3.32687851 18.1700003,2.85935682 C19.1354799,2.48871958 20.1980092,3.09831436 20.3567181,4.11035917 C20.5573847,5.38992075 21.5598964,6.38325747 22.8513679,6.58217787 C23.8747671,6.73970547 24.4871649,7.7938661 24.1138339,8.74897323 C23.6419027,9.95650411 24.0088488,11.3134286 25.0268666,12.1253782 C25.8336372,12.768774 25.8320866,13.9851619 25.0268666,14.6272925 C24.0087576,15.439242 23.6418115,16.7961665 24.1138339,18.0037878 C24.4878033,18.9607928 23.872578,20.0133267 22.8512766,20.1705831 C21.5598964,20.3694132 20.5573847,21.3627499 20.3567181,22.6424018 C20.197918,23.6547178 19.1357536,24.2636799 18.1699091,23.8933138 C16.9513161,23.4260633 15.581767,23.7893799 14.7623179,24.7980808 C14.1129793,25.5974679 12.8853563,25.5959315 12.2372034,24.7980808 C11.4191225,23.7910067 10.0502119,23.4250691 8.82952099,23.8933138 C7.8641326,24.2640414 6.80151215,23.654537 6.64280317,22.6424018 C6.44213665,21.3628403 5.43962495,20.3695035 4.14815345,20.1705831 C3.12475419,20.0130555 2.51235645,18.9588949 2.88568739,18.0037878 C3.35761857,16.7961665 2.99067247,15.439242 1.97256351,14.6272925 C1.16579287,13.9838062 1.1675259,12.7674184 1.97256351,12.1253782 L1.97256351,12.1253782 Z" id="Shape"></path>
            <path d="M18.5370376,10.8571137 L15.4942947,10.7235361 L14.4258367,7.89734809 C14.1053175,7.04988031 12.8940214,7.05006106 12.5735934,7.89743847 L11.5052266,10.7236265 L8.46239247,10.8572041 C7.55100161,10.8970605 7.17456946,12.0379833 7.89003682,12.6026606 L10.2724957,14.4828696 L9.46043478,17.3915721 C9.21689859,18.263984 10.1968809,18.9691979 10.9589576,18.4704057 L13.4997607,16.8062888 L16.0407461,18.4704961 C16.7999953,18.9674808 17.7835348,18.2668761 17.5391777,17.3915721 L16.7271168,14.4828696 L19.1095757,12.6026606 C19.8242222,12.0384352 19.4492494,10.8969701 18.5370376,10.8571137 L18.5370376,10.8571137 Z M15.6786342,13.5771085 C15.367966,13.822302 15.2357085,14.2257462 15.3416057,14.6048789 L15.9506286,16.7861346 L14.0451175,15.5381147 C14.0451175,15.5381147 14.0450263,15.5380244 14.0449351,15.5380244 C13.8793852,15.429662 13.6895729,15.3754356 13.4997607,15.3754356 C13.3099484,15.3754356 13.1200449,15.429662 12.9543126,15.5381147 L11.0488015,16.7861346 L11.6578244,14.6049693 C11.7638128,14.2257462 11.6314641,13.822302 11.3207959,13.5771085 L9.53413412,12.1670421 L11.8162597,12.0669041 C12.2128498,12.0494612 12.5591819,11.8001103 12.6984627,11.4317325 L13.4996694,9.31238522 L14.3009674,11.4318229 C14.4402482,11.8001103 14.7865803,12.0494612 15.1833528,12.0669041 L17.4652048,12.1670421 L15.6786342,13.5771085 Z" id="Shape"></path>
        </g>
    </g>
</svg>