<?xml version="1.0" encoding="UTF-8"?>
<svg width="80px" height="80px" viewBox="0 0 80 80" version="1.1" xmlns="http://www.w3.org/2000/svg" xmlns:xlink="http://www.w3.org/1999/xlink">
    <title>School web</title>
    <defs>
        <linearGradient x1="50%" y1="0%" x2="50%" y2="100%" id="linearGradient-1">
            <stop stop-color="#4E91B1" offset="0%"></stop>
            <stop stop-color="#00557B" offset="100%"></stop>
        </linearGradient>
    </defs>
    <g id="School-web" stroke="none" stroke-width="1" fill="none" fill-rule="evenodd">
        <rect id="Rectangle-Copy-2" fill="url(#linearGradient-1)" x="0" y="0" width="80" height="80" rx="40"></rect>
        <g id="graduation-cap-copy" transform="translate(15.000000, 20.000000)" fill="#FFFFFF" fill-rule="nonzero">
            <path d="M47.5814911,9.74236689 L26.2910326,0.375403614 C25.1534118,-0.125134538 23.8467796,-0.125134538 22.7091588,0.375403614 L1.41946598,9.74236689 C0.558043832,10.1007518 0,10.9194028 0,11.8247866 C0,12.7301705 0.558043832,13.5488214 1.41946598,13.9072064 L8.16671452,16.8756128 L8.16671452,27.5888289 C8.16671452,29.401721 9.384343,31.0419787 11.4333429,32.358212 L11.4333429,34.7945831 C9.84055891,35.1914852 8.80208632,36.669546 9.00937889,38.2445001 C9.21667145,39.8194541 10.605034,41 12.2499761,41 C13.8949182,41 15.2832807,39.8194541 15.4905733,38.2445001 C15.6978658,36.669546 14.6593932,35.1914852 13.0666092,34.7945831 L13.0666092,33.263873 C16.6634128,34.8013259 20.5671356,35.554858 24.4999521,35.4708038 C33.658819,35.4708038 40.8332855,32.0082325 40.8332855,27.5888289 L40.8332855,16.8756128 L47.580534,13.9072064 C48.4419562,13.5488214 49,12.7301705 49,11.8247866 C49,10.9194028 48.4419562,10.1007518 47.580534,9.74236689 L47.5814911,9.74236689 Z M13.8834338,37.8354055 C13.8834338,38.7060592 13.1521677,39.4118374 12.2500718,39.4118374 C11.3479759,39.4118374 10.6167097,38.7060592 10.6167097,37.8354055 C10.6167097,36.9647518 11.3479759,36.2589736 12.2500718,36.2589736 C13.1521677,36.2589736 13.8834338,36.9648441 13.8834338,37.8354055 Z M9.80007656,27.5888289 L9.80007656,17.5944148 L11.4334386,18.3132168 L11.4334386,30.4160058 C10.4847354,29.751331 9.88726194,28.7171872 9.80007656,27.5888289 Z M39.2000191,27.5888289 C39.2000191,31.0072486 32.4682745,33.8944642 24.5000479,33.8944642 C19.9373146,33.8944642 15.787061,32.9486235 13.0667049,31.4943935 L13.0667049,19.0321111 L22.7090631,23.2741697 C23.8465882,23.7754468 25.1535075,23.7754468 26.2909369,23.2741697 L39.2000191,17.5944148 L39.2000191,27.5888289 L39.2000191,27.5888289 Z M46.9036271,12.4719116 L25.6140301,21.8397062 C24.9056369,22.1463655 24.0953201,22.1463655 23.3870227,21.8397062 L14.1358025,17.7694508 L21.3379271,14.250166 C22.3118959,14.7451621 23.3994641,14.995385 24.5000479,14.9776505 C27.2472964,14.9776505 29.4000383,13.5927883 29.4000383,11.824879 C29.4000383,10.0569698 27.2472964,8.67210751 24.5000479,8.67210751 C21.7527993,8.67210751 19.6000574,10.0569698 19.6000574,11.824879 C19.6044598,12.2893016 19.7523208,12.7418087 20.0246914,13.1245786 L12.2328452,16.9315874 L2.09646856,12.4719116 C1.81787731,12.3699382 1.63355345,12.1124183 1.63355345,11.8247866 C1.63355345,11.5372474 1.81778161,11.2796351 2.09646856,11.1776617 L23.3861614,1.80995944 C24.0944588,1.50302306 24.9048713,1.50302306 25.6131687,1.80995944 L46.9036271,11.177754 C47.1822184,11.2797275 47.3665423,11.5372474 47.3665423,11.824879 C47.3665423,12.1124183 47.1823141,12.3700305 46.9036271,12.4719116 L46.9036271,12.4719116 Z M21.2334195,11.8247866 C21.2334195,11.0807684 22.6299167,10.2483547 24.5000479,10.2483547 C26.370179,10.2483547 27.7666762,11.080676 27.7666762,11.8247866 C27.7666762,12.5688972 26.370179,13.4012186 24.5000479,13.4012186 C22.6299167,13.4012186 21.2334195,12.5688972 21.2334195,11.8247866 L21.2334195,11.8247866 Z" id="Shape_162_"></path>
        </g>
    </g>
</svg>