<?xml version="1.0" encoding="UTF-8"?>
<svg width="80px" height="80px" viewBox="0 0 80 80" version="1.1" xmlns="http://www.w3.org/2000/svg" xmlns:xlink="http://www.w3.org/1999/xlink">
    <title>Select an option Web</title>
    <defs>
        <linearGradient x1="50%" y1="0%" x2="50%" y2="100%" id="linearGradient-1">
            <stop stop-color="#4E91B1" offset="0%"></stop>
            <stop stop-color="#00557B" offset="100%"></stop>
        </linearGradient>
    </defs>
    <g id="Select-an-option-Web" stroke="none" stroke-width="1" fill="none" fill-rule="evenodd">
        <rect id="Rectangle-Copy-2" fill="url(#linearGradient-1)" x="0" y="0" width="80" height="80" rx="40"></rect>
        <g id="select" transform="translate(23.000000, 19.000000)" fill="#FFFFFF" fill-rule="nonzero">
            <path d="M25.9473496,10.2083105 C25.3200348,10.2083105 24.735433,10.390625 24.2500654,10.70125 C23.8318794,9.56668945 22.6978048,8.75 21.3684098,8.75 C20.741095,8.75 20.1564932,8.93231445 19.6711255,9.24293945 C19.2529396,8.10837891 18.1188649,7.29168945 16.7894699,7.29168945 C16.2339157,7.29168945 15.7119166,7.43462891 15.2631805,7.68400391 L15.2631805,2.91668945 C15.2631805,1.308125 13.8940775,0 12.2105301,0 C10.5269827,0 9.15787967,1.308125 9.15787967,2.91668945 L9.15787967,19.9660645 L4.96206832,17.9608789 C4.33017462,17.6589355 3.62194141,17.5 2.91528221,17.5 C1.30657186,17.5 0,18.7498145 0,20.2941895 C0,21.039375 0.303712494,21.7379395 0.854759285,22.264375 L10.7238771,31.6939355 C12.9538208,33.8260645 15.9225478,35 19.0789398,35 C24.5492705,35 29,30.7475 29,25.5208105 L29,13.125 C29,11.5164355 27.630897,10.2083105 25.9473496,10.2083105 Z M27.473639,25.5208105 C27.473639,29.9439355 23.706674,33.5416211 19.0773658,33.5416211 C16.3284995,33.5416211 13.7459774,32.5193066 11.8045069,30.6614355 L1.93388662,21.231875 C1.67138459,20.9825 1.52636098,20.6485645 1.52636098,20.2854395 C1.52636098,19.5533789 2.14909679,18.9583789 2.91528221,18.9583789 C3.38691301,18.9583789 3.85704135,19.0648145 4.27980628,19.2660645 L9.58071615,21.7977539 C9.81731856,21.9100684 10.0996388,21.8983789 10.3225044,21.7656934 C10.5468725,21.6330078 10.6842407,21.3981934 10.6842407,21.1458789 L10.6842407,2.91668945 C10.6842407,2.113125 11.3680052,1.45837891 12.2105301,1.45837891 C13.053055,1.45837891 13.7368195,2.11319336 13.7368195,2.91668945 L13.7368195,16.7708789 C13.7368195,17.1733789 14.0787375,17.5000684 14.5,17.5000684 C14.9212625,17.5000684 15.2631805,17.1733789 15.2631805,16.7708789 L15.2631805,10.2083789 C15.2631805,9.40481445 15.946945,8.75006836 16.7894699,8.75006836 C17.6319948,8.75006836 18.3157593,9.40488281 18.3157593,10.2083789 L18.3157593,16.7708789 C18.3157593,17.1733789 18.6576774,17.5000684 19.0789398,17.5000684 C19.5002023,17.5000684 19.8421203,17.1733789 19.8421203,16.7708789 L19.8421203,11.6666895 C19.8421203,10.863125 20.5258848,10.2083789 21.3684098,10.2083789 C22.2109347,10.2083789 22.8946992,10.8631934 22.8946992,11.6666895 L22.8946992,16.7708789 C22.8946992,17.1733789 23.2366172,17.5000684 23.6578797,17.5000684 C24.0791421,17.5000684 24.4210602,17.1733789 24.4210602,16.7708789 L24.4210602,13.125 C24.4210602,12.3214355 25.1048247,11.6666895 25.9473496,11.6666895 C26.7898745,11.6666895 27.473639,12.3215039 27.473639,13.125 L27.473639,25.5208105 L27.473639,25.5208105 Z" id="Shape"></path>
        </g>
    </g>
</svg>