<?xml version="1.0" encoding="UTF-8"?>
<svg width="80px" height="80px" viewBox="0 0 80 80" version="1.1" xmlns="http://www.w3.org/2000/svg" xmlns:xlink="http://www.w3.org/1999/xlink">
    <title>Send money</title>
    <defs>
        <linearGradient x1="50%" y1="0%" x2="50%" y2="100%" id="linearGradient-1">
            <stop stop-color="#4E91B1" offset="0%"></stop>
            <stop stop-color="#00557B" offset="100%"></stop>
        </linearGradient>
    </defs>
    <g id="Send-money" stroke="none" stroke-width="1" fill="none" fill-rule="evenodd">
        <rect id="Rectangle-Copy-6" fill="url(#linearGradient-1)" x="0" y="0" width="80" height="80" rx="40"></rect>
        <g id="save-money-(2)-copy" transform="translate(18.000000, 27.000000)" fill="#FFFFFF" fill-rule="nonzero">
            <path d="M26.6657635,17.89437 C26.5614487,17.872483 26.4544243,17.8685433 26.3487547,17.8838642 C25.2898011,17.7643613 24.4909571,16.8958853 24.4891507,15.8628191 C24.4891507,15.3677352 24.0750524,14.9663277 23.5643161,14.9663277 C23.0535799,14.9663277 22.6394815,15.3677352 22.6394815,15.8628191 C22.642191,17.587952 23.8325543,19.0990302 25.548556,19.555593 L25.548556,20.4520843 C25.548556,20.9471682 25.9626543,21.3485757 26.4733906,21.3485757 C26.984127,21.3485757 27.3982253,20.9471682 27.3982253,20.4520843 L27.3982253,19.6098727 C29.3788526,19.2080276 30.7250107,17.4198599 30.5168326,15.4688531 C30.3082029,13.5178463 28.6125222,12.0352212 26.588995,12.0347835 C25.4293391,12.0347835 24.4891507,11.1234089 24.4891507,9.99929284 C24.4891507,8.87517673 25.4293391,7.96380228 26.588995,7.96380228 C27.7486509,7.96380228 28.6888392,8.87517673 28.6888392,9.99929284 C28.6888392,10.4943767 29.1029375,10.8957842 29.6136738,10.8957842 C30.1244101,10.8957842 30.5385084,10.4943767 30.5385084,9.99929284 C30.5357989,8.18792512 29.2266702,6.62563138 27.3982253,6.25180144 L27.3982253,5.43585423 C27.3982253,4.94077036 26.984127,4.53936288 26.4733906,4.53936288 C25.9626543,4.53936288 25.548556,4.94077036 25.548556,5.43585423 L25.548556,6.3065189 C23.6401814,6.81167082 22.4118855,8.60771773 22.6747047,10.5083844 C22.937524,12.4090511 24.6106257,13.8277662 26.588995,13.8273284 C27.7332971,13.8273284 28.6667118,14.7155028 28.6874845,15.8242979 C28.7087086,16.9330931 27.8091624,17.8540979 26.6657635,17.89437 L26.6657635,17.89437 Z" id="Path"></path>
            <path d="M13.1779899,13 C13.1779899,20.1798101 19.1821896,26 26.588995,26 C33.9958003,26 40,20.1798101 40,13 C40,5.82018994 33.9958003,1.27399083e-14 26.588995,1.27399083e-14 C19.1858023,0.00787926248 13.18657,5.82369186 13.1779899,13 Z M26.588995,1.7929827 C32.9743277,1.7929827 38.1503308,6.81035757 38.1503308,13 C38.1503308,19.1896424 32.9743277,24.2070173 26.588995,24.2070173 C20.2036623,24.2070173 15.0276592,19.1896424 15.0276592,13 C15.0348844,6.81342178 20.2068234,1.79998654 26.588995,1.7929827 Z" id="Shape"></path>
            <path d="M6.21429034,17.3369337 L6.21429034,8.5510049 C6.21429034,8.04026858 5.81288287,7.6261703 5.31779899,7.6261703 C4.82271512,7.6261703 4.42130764,8.04026858 4.42130764,8.5510049 L4.42130764,17.3369337 C4.42130764,17.84767 4.82271512,18.2617683 5.31779899,18.2617683 C5.81288287,18.2617683 6.21429034,17.84767 6.21429034,17.3369337 Z" id="Path" transform="translate(5.317799, 12.943969) rotate(-90.000000) translate(-5.317799, -12.943969) "></path>
            <path d="M10.4916504,8.30116203 L10.4916504,4.1394063 C10.4916504,3.62866997 10.0902429,3.21457169 9.59515905,3.21457169 C9.10007518,3.21457169 8.6986677,3.62866997 8.6986677,4.1394063 L8.6986677,8.30116203 C8.6986677,8.81189836 9.10007518,9.22599664 9.59515905,9.22599664 C10.0902429,9.22599664 10.4916504,8.81189836 10.4916504,8.30116203 Z" id="Path" transform="translate(9.595159, 6.220284) rotate(-90.000000) translate(-9.595159, -6.220284) "></path>
            <path d="M10.4916504,21.7485323 L10.4916504,17.5867765 C10.4916504,17.0760402 10.0902429,16.6619419 9.59515905,16.6619419 C9.10007518,16.6619419 8.6986677,17.0760402 8.6986677,17.5867765 L8.6986677,21.7485323 C8.6986677,22.2592686 9.10007518,22.6733669 9.59515905,22.6733669 C10.0902429,22.6733669 10.4916504,22.2592686 10.4916504,21.7485323 Z" id="Path" transform="translate(9.595159, 19.667654) rotate(-90.000000) translate(-9.595159, -19.667654) "></path>
        </g>
    </g>
</svg>