<?xml version="1.0" encoding="UTF-8"?>
<svg width="80px" height="80px" viewBox="0 0 80 80" version="1.1" xmlns="http://www.w3.org/2000/svg" xmlns:xlink="http://www.w3.org/1999/xlink">
    <title>Send with Care Web</title>
    <defs>
        <linearGradient x1="50%" y1="0%" x2="50%" y2="100%" id="linearGradient-1">
            <stop stop-color="#4E91B1" offset="0%"></stop>
            <stop stop-color="#00557B" offset="100%"></stop>
        </linearGradient>
    </defs>
    <g id="Send-with-Care-Web" stroke="none" stroke-width="1" fill="none" fill-rule="evenodd">
        <rect id="Rectangle-Copy-2" fill="url(#linearGradient-1)" x="0" y="0" width="80" height="80" rx="40"></rect>
        <g id="save-money-(3)-copy" transform="translate(21.000000, 22.000000)" fill="#FFFFFF" fill-rule="nonzero">
            <path d="M20.4669414,14.2415096 C20.3913103,14.2240905 20.3137146,14.220955 20.2371013,14.2331484 C19.4693306,14.1380401 18.8901467,13.4468501 18.888837,12.6246685 C18.888837,12.2306484 18.5886043,11.9111821 18.2183063,11.9111821 C17.8480084,11.9111821 17.5477756,12.2306484 17.5477756,12.6246685 C17.5497401,13.9976421 18.4127864,15.200257 19.6569351,15.5636194 L19.6569351,16.2771059 C19.6569351,16.671126 19.9571678,16.9905923 20.3274658,16.9905923 C20.6977637,16.9905923 20.9979964,16.671126 20.9979964,16.2771059 L20.9979964,15.6068188 C22.434006,15.2870041 23.4100079,13.8638634 23.259073,12.3111247 C23.1078107,10.7583859 21.8783953,9.57841591 20.4112821,9.57806755 C19.5704995,9.57806755 18.888837,8.85273609 18.888837,7.958091 C18.888837,7.0634459 19.5704995,6.33811453 20.4112821,6.33811453 C21.2520647,6.33811453 21.9337272,7.0634459 21.9337272,7.958091 C21.9337272,8.35211111 22.2339599,8.67157742 22.6042579,8.67157742 C22.9745558,8.67157742 23.2747886,8.35211111 23.2747886,7.958091 C23.2728241,6.51648614 22.3236696,5.27311064 20.9979964,4.97559233 L20.9979964,4.32620819 C20.9979964,3.93218808 20.6977637,3.61272177 20.3274658,3.61272177 C19.9571678,3.61272177 19.6569351,3.93218808 19.6569351,4.32620819 L19.6569351,5.01914006 C18.2733108,5.42117299 17.3827622,6.85058454 17.5733135,8.36325934 C17.7638647,9.87593413 18.9769097,11.0050404 20.4112821,11.004692 C21.2409328,11.004692 21.9176842,11.7115592 21.932745,12.5940109 C21.9481331,13.4764626 21.2959373,14.2094584 20.4669414,14.2415096 L20.4669414,14.2415096 Z" id="Path"></path>
            <path d="M10.6879327,10.3462499 C10.6879327,16.0604122 15.0411434,20.6924999 20.4112821,20.6924999 C25.7814208,20.6924999 30.1346315,16.0604122 30.1346315,10.3462499 C30.1346315,4.63208767 25.7814208,0 20.4112821,0 C15.0437627,0.00627083222 10.6941534,4.63487473 10.6879327,10.3462499 Z M20.4112821,1.42697286 C25.0408248,1.42697286 28.7935702,5.42012782 28.7935702,10.3462499 C28.7935702,15.2723721 25.0408248,19.265527 20.4112821,19.265527 C15.7817394,19.265527 12.028994,15.2723721 12.028994,10.3462499 C12.0342325,5.42256651 15.7840312,1.43254697 20.4112821,1.42697286 Z" id="Shape"></path>
            <path d="M33.4401381,22.4514809 L28.1875388,25.0922168 C27.4623311,23.6568828 26.0711764,22.743425 24.5402187,22.6974386 L19.6913129,22.5556471 C18.9235422,22.5323055 18.1701775,22.3253665 17.4875327,21.9501591 L16.9941295,21.6780727 C14.4678529,20.2768801 11.4566857,20.280364 8.93302822,21.6871306 L8.96380457,20.4977544 C8.97395423,20.1037343 8.68223408,19.7755583 8.31193612,19.7647586 L2.99483753,19.6090318 C2.62453966,19.5982319 2.31644909,19.9086403 2.30629944,20.3026604 L1.98485564,32.7182997 C1.97496308,33.1123198 2.26668315,33.4404957 2.6369811,33.4512955 L7.95407969,33.6070223 L7.97241452,33.6070223 C8.33583685,33.6070223 8.63312299,33.299401 8.64294518,32.9130453 L8.65833335,32.3190539 L10.0396658,31.5320589 C10.5818527,31.2216505 11.2157137,31.1477935 11.807994,31.3261651 L20.0566997,33.7895745 C20.0711056,33.7941035 20.0855116,33.7975873 20.100245,33.8010711 C20.6964541,33.9338047 21.3041225,34.0003456 21.9131005,33.9999986 C23.2030863,34.000694 24.4780112,33.7049177 25.6504577,33.1321776 C25.6792696,33.1182423 25.7070992,33.1018684 25.7336192,33.0834041 L37.6934895,24.8518331 C37.9914304,24.6466361 38.0876882,24.2303196 37.91318,23.9014469 C37.0252507,22.2250325 35.0558943,21.5864482 33.4401381,22.4514809 L33.4401381,22.4514809 Z M3.34418141,32.0445289 L3.62837116,21.0551657 L7.60473582,21.1715252 L7.32054607,32.1612368 L3.34418141,32.0445289 Z M25.0463907,31.8577961 C23.5897546,32.5573473 21.9628665,32.7503509 20.3972036,32.4099816 L12.1707615,29.9528431 C11.244853,29.6744858 10.2537903,29.7898003 9.40678697,30.2743997 L8.70089629,30.6767809 L8.88981051,23.3701643 C11.1266589,21.7871163 13.9954038,21.6244219 16.3776211,22.9451382 L16.8710243,23.2172246 C17.7334157,23.6910242 18.6845346,23.9523107 19.6546432,23.9822716 L24.5038765,24.1240631 C25.8658919,24.1658689 27.0226227,25.1977766 27.2989547,26.6177817 L20.0760168,26.4056171 C19.7057188,26.3948172 19.3976283,26.7055741 19.3871513,27.0992457 C19.3770016,27.4932659 19.6690492,27.8214417 20.0390197,27.8322416 L28.0100839,28.0656576 L28.0287462,28.0656576 C28.3918411,28.0653091 28.6887998,27.7576878 28.698622,27.3716805 C28.7068071,27.0616205 28.6851983,26.751212 28.6337953,26.4460294 L34.0212865,23.737359 C34.026525,23.7349203 34.0317635,23.7321333 34.037002,23.7293462 C34.8011713,23.317907 35.7251154,23.4555179 36.3537378,24.0745929 L25.0463907,31.8577961 Z" id="Shape"></path>
            <path d="M4.51485264,12.7339992 L4.51485264,6.4742509 C4.51485264,6.1103644 4.18975752,5.81533003 3.78879501,5.81533003 C3.3878325,5.81533003 3.06273738,6.1103644 3.06273738,6.4742509 L3.06273738,12.7339992 C3.06273738,13.0978857 3.3878325,13.39292 3.78879501,13.39292 C4.18975752,13.39292 4.51485264,13.0978857 4.51485264,12.7339992 Z" id="Path" transform="translate(3.788795, 9.604125) rotate(-90.000000) translate(-3.788795, -9.604125) "></path>
            <path d="M6.77341807,14.37033 L6.77341807,11.4051861 C6.77341807,11.0412996 6.44832295,10.7462652 6.04736044,10.7462652 C5.64639793,10.7462652 5.32130281,11.0412996 5.32130281,11.4051861 L5.32130281,14.37033 C5.32130281,14.7342165 5.64639793,15.0292509 6.04736044,15.0292509 C6.44832295,15.0292509 6.77341807,14.7342165 6.77341807,14.37033 Z" id="Path" transform="translate(6.047360, 12.887758) rotate(-90.000000) translate(-6.047360, -12.887758) "></path>
            <path d="M6.41190898,7.71020766 L6.41190898,4.74506374 C6.41190898,4.38117724 6.08681386,4.08614287 5.68585135,4.08614287 C5.28488884,4.08614287 4.95979372,4.38117724 4.95979372,4.74506374 L4.95979372,7.71020766 C4.95979372,8.07409416 5.28488884,8.36912853 5.68585135,8.36912853 C6.08681386,8.36912853 6.41190898,8.07409416 6.41190898,7.71020766 Z" id="Path" transform="translate(5.685851, 6.227636) rotate(-270.000000) translate(-5.685851, -6.227636) "></path>
        </g>
    </g>
</svg>