<?xml version="1.0" encoding="UTF-8"?>
<svg width="80px" height="80px" viewBox="0 0 80 80" version="1.1" xmlns="http://www.w3.org/2000/svg" xmlns:xlink="http://www.w3.org/1999/xlink">
    <title>Share web</title>
    <defs>
        <linearGradient x1="50%" y1="0%" x2="50%" y2="100%" id="linearGradient-1">
            <stop stop-color="#4E91B1" offset="0%"></stop>
            <stop stop-color="#00557B" offset="100%"></stop>
        </linearGradient>
    </defs>
    <g id="Share-web" stroke="none" stroke-width="1" fill="none" fill-rule="evenodd">
        <rect id="Rectangle-Copy-2" fill="url(#linearGradient-1)" x="0" y="0" width="80" height="80" rx="40"></rect>
        <g id="share-(4)" transform="translate(23.200000, 24.000000)" fill="#FFFFFF" fill-rule="nonzero">
            <path d="M24.7,20.75 C22.8230533,20.75 21.1552967,21.650125 20.11606,23.0356875 L11.16896,18.5235 C11.31906,18.02025 11.4,17.4880625 11.4,16.9375 C11.4,16.1918125 11.2518633,15.47975 10.9836467,14.8279375 L20.36078,9.2680625 C21.4070467,10.4799375 22.9640333,11.25 24.7,11.25 C27.84298,11.25 30.4,8.726625 30.4,5.625 C30.4,2.523375 27.84298,0 24.7,0 C21.55702,0 19,2.523375 19,5.625 C19,6.341875 19.1368633,7.0276875 19.3857,7.65875 L9.98513333,13.2325 C8.93962667,12.056375 7.40626333,11.3125 5.7,11.3125 C2.55702,11.3125 0,13.835875 0,16.9375 C0,20.039125 2.55702,22.5625 5.7,22.5625 C7.60772667,22.5625 9.29936,21.63275 10.3345433,20.208375 L19.2556767,24.7074375 C19.0895533,25.2345625 19,25.794625 19,26.375 C19,29.476625 21.55702,32 24.7,32 C27.84298,32 30.4,29.476625 30.4,26.375 C30.4,23.273375 27.84298,20.75 24.7,20.75 Z M24.7,1.875 C26.79532,1.875 28.5,3.55725 28.5,5.625 C28.5,7.69275 26.79532,9.375 24.7,9.375 C22.60468,9.375 20.9,7.69275 20.9,5.625 C20.9,3.55725 22.60468,1.875 24.7,1.875 Z M5.7,20.6875 C3.60468,20.6875 1.9,19.00525 1.9,16.9375 C1.9,14.86975 3.60468,13.1875 5.7,13.1875 C7.79532,13.1875 9.5,14.86975 9.5,16.9375 C9.5,19.00525 7.79532,20.6875 5.7,20.6875 Z M24.7,30.125 C22.60468,30.125 20.9,28.44275 20.9,26.375 C20.9,24.30725 22.60468,22.625 24.7,22.625 C26.79532,22.625 28.5,24.30725 28.5,26.375 C28.5,28.44275 26.79532,30.125 24.7,30.125 Z" id="Shape"></path>
        </g>
    </g>
</svg>