<?xml version="1.0" encoding="UTF-8"?>
<svg width="80px" height="80px" viewBox="0 0 80 80" version="1.1" xmlns="http://www.w3.org/2000/svg" xmlns:xlink="http://www.w3.org/1999/xlink">
    <title>Shop online with momopay Web</title>
    <defs>
        <linearGradient x1="50%" y1="0%" x2="50%" y2="100%" id="linearGradient-1">
            <stop stop-color="#4E91B1" offset="0%"></stop>
            <stop stop-color="#00557B" offset="100%"></stop>
        </linearGradient>
    </defs>
    <g id="Shop-online-with-momopay-Web" stroke="none" stroke-width="1" fill="none" fill-rule="evenodd">
        <rect id="Rectangle-Copy-2" fill="url(#linearGradient-1)" x="0" y="0" width="80" height="80" rx="40"></rect>
        <g id="shopping-bag-(2)" transform="translate(29.000000, 22.000000)" fill="#FFFFFF" fill-rule="nonzero">
            <path d="M21.3789894,9.76328987 C21.3178191,9.01705115 21.0119681,8.332999 20.5226064,7.83550652 C20.0332447,7.33801404 19.3909574,7.02708124 18.6263298,7.02708124 L17.0053191,7.02708124 L17.0053191,5.59679037 C17.0053191,4.04212638 16.393617,2.64292879 15.3843085,1.64794383 C14.375,0.621865597 12.9986702,0 11.5,0 C9.97074468,0 8.59441489,0.621865597 7.61569149,1.64794383 C6.60638298,2.64292879 5.99468085,4.04212638 5.99468085,5.59679037 L5.99468085,7.02708124 L4.37367021,7.02708124 C3.60904255,7.02708124 2.96675532,7.33801404 2.47739362,7.83550652 C1.98803191,8.332999 1.68218085,9.01705115 1.62101064,9.76328987 L0,28.1705115 C0,28.2637914 0,28.3570712 0,28.3881645 C0,29.0722166 0.275265957,29.7251755 0.76462766,30.1915747 C1.22340426,30.6268806 1.83510638,30.9378134 2.47739362,31 L2.50797872,31 C2.59973404,31 2.69148936,31 2.75265957,31 L20.2473404,31 C20.3085106,31 20.400266,31 20.4920213,31 C21.1648936,30.9378134 21.7765957,30.6268806 22.2353723,30.1915747 C22.724734,29.7251755 23,29.0722166 23,28.3570712 C23,28.2948847 23,28.2326981 23,28.1394183 L21.3789894,9.76328987 Z M7.6768617,5.59679037 C7.6768617,4.50852558 8.10505319,3.5446339 8.80851064,2.82948847 C9.51196809,2.11434303 10.4601064,1.67903711 11.5305851,1.67903711 C12.6010638,1.67903711 13.5492021,2.11434303 14.2526596,2.82948847 C14.956117,3.5446339 15.3843085,4.50852558 15.3843085,5.59679037 L15.3843085,7.02708124 L7.6768617,7.02708124 L7.6768617,5.59679037 Z M21.287234,28.3881645 C21.287234,28.6369107 21.1954787,28.8545637 21.0119681,29.0100301 C20.8284574,29.1965898 20.5531915,29.3209629 20.3085106,29.3520562 C20.3085106,29.3520562 20.2779255,29.3520562 20.2167553,29.3520562 L2.75265957,29.3520562 C2.69148936,29.3520562 2.66090426,29.3520562 2.66090426,29.3520562 L2.63031915,29.3520562 C2.35505319,29.3209629 2.11037234,29.1965898 1.9268617,29.0100301 C1.74335106,28.8545637 1.65159574,28.6369107 1.65159574,28.3881645 L1.65159574,28.2948847 L3.27260638,9.91875627 C3.30319149,9.57673019 3.45611702,9.26579739 3.67021277,9.04814443 C3.8537234,8.86158475 4.09840426,8.73721163 4.37367021,8.73721163 L5.99468085,8.73721163 L5.99468085,12.5305918 C5.99468085,12.996991 6.36170213,13.3701103 6.82047872,13.3701103 C7.27925532,13.3701103 7.6462766,12.996991 7.6462766,12.5305918 L7.6462766,8.73721163 L15.2925532,8.73721163 L15.2925532,12.5305918 C15.2925532,12.996991 15.6595745,13.3701103 16.1183511,13.3701103 C16.5771277,13.3701103 16.9441489,12.996991 16.9441489,12.5305918 L16.9441489,8.73721163 L18.5651596,8.73721163 C18.8404255,8.73721163 19.0851064,8.86158475 19.268617,9.04814443 C19.4827128,9.26579739 19.6356383,9.57673019 19.6662234,9.91875627 L21.287234,28.3259779 L21.287234,28.3881645 Z" id="Shape"></path>
        </g>
    </g>
</svg>