<?xml version="1.0" encoding="UTF-8"?>
<svg width="80px" height="80px" viewBox="0 0 80 80" version="1.1" xmlns="http://www.w3.org/2000/svg" xmlns:xlink="http://www.w3.org/1999/xlink">
    <title>Sign up Web</title>
    <defs>
        <linearGradient x1="50%" y1="0%" x2="50%" y2="100%" id="linearGradient-1">
            <stop stop-color="#4E91B1" offset="0%"></stop>
            <stop stop-color="#00557B" offset="100%"></stop>
        </linearGradient>
    </defs>
    <g id="Sign-up-Web" stroke="none" stroke-width="1" fill="none" fill-rule="evenodd">
        <rect id="Rectangle-Copy-2" fill="url(#linearGradient-1)" x="0" y="0" width="80" height="80" rx="40"></rect>
        <g id="add-user" transform="translate(25.000000, 24.000000)" fill="#FFFFFF" fill-rule="nonzero" stroke="#257295" stroke-width="0.5">
            <path d="M21.5372983,15.0532617 C20.960794,14.7792188 20.3725709,14.5431445 19.7740353,14.3453906 C21.7124938,12.8903906 22.9687447,10.5735352 22.9687447,7.96875 C22.9687447,3.57480469 19.3939959,0 14.9999887,0 C10.6059815,0 7.03123272,3.57480469 7.03123272,7.96875 C7.03123272,10.5764062 8.29029617,12.8955469 10.2323875,14.3502539 C8.45301113,14.9360742 6.78338097,15.8476172 5.32205175,17.0496094 C2.64244035,19.2537305 0.779333484,22.3280859 0.0760321739,25.7064258 C-0.144397679,26.7649805 0.11968455,27.8522461 0.80042725,28.6893164 C1.4778301,29.5222852 2.48230352,30 3.55621057,30 L17.9882722,30 C18.6354993,30 19.1601481,29.4753516 19.1601481,28.828125 C19.1601481,28.1808984 18.6354993,27.65625 17.9882722,27.65625 L3.55621057,27.65625 C3.05593676,27.65625 2.75412013,27.3769922 2.61876846,27.2105859 C2.38503782,26.9231836 2.294569,26.5490625 2.37056515,26.184082 C3.58667935,20.3425781 8.73918322,16.0754297 14.6893244,15.9315234 C14.7923909,15.9355078 14.8959261,15.9375 14.9999887,15.9375 C15.1050474,15.9375 15.2096373,15.9354492 15.3136999,15.9314063 C17.1371388,15.9741797 18.890851,16.3903125 20.5311257,17.1700781 C21.115716,17.4478125 21.8147399,17.1993164 22.0925917,16.6147266 C22.3704435,16.0301953 22.1218886,15.3311133 21.5372983,15.0532617 Z M15.2858092,13.586543 C15.1907115,13.5848438 15.095438,13.5839648 14.9999887,13.5839648 C14.9054183,13.5839648 14.8108479,13.5849023 14.7163948,13.5866602 C11.7459824,13.4384766 9.37498448,10.9753125 9.37498448,7.96875 C9.37498448,4.86708984 11.8983262,2.34375 14.9999887,2.34375 C18.1016512,2.34375 20.6249929,4.86708984 20.6249929,7.96875 C20.6249929,10.9745508 18.2551669,13.4372461 15.2858092,13.586543 Z" id="Shape"></path>
            <path d="M28.8281241,23.2617188 L25.6054654,23.2617188 L25.6054654,20.0390625 C25.6054654,19.3918359 25.0808166,18.8671875 24.4335896,18.8671875 C23.7863625,18.8671875 23.2617137,19.3918359 23.2617137,20.0390625 L23.2617137,23.2617188 L20.039055,23.2617188 C19.391828,23.2617188 18.8671791,23.7863672 18.8671791,24.4335938 C18.8671791,25.0808203 19.391828,25.6054688 20.039055,25.6054688 L23.2617137,25.6054688 L23.2617137,28.828125 C23.2617137,29.4753516 23.7863625,30 24.4335896,30 C25.0808166,30 25.6054654,29.4753516 25.6054654,28.828125 L25.6054654,25.6054688 L28.8281241,25.6054688 C29.4753512,25.6054688 30,25.0808203 30,24.4335938 C30,23.7863672 29.4753512,23.2617188 28.8281241,23.2617188 Z" id="Path"></path>
        </g>
    </g>
</svg>