<?xml version="1.0" encoding="UTF-8"?>
<svg width="80px" height="80px" viewBox="0 0 80 80" version="1.1" xmlns="http://www.w3.org/2000/svg" xmlns:xlink="http://www.w3.org/1999/xlink">
    <title>SMS web</title>
    <defs>
        <linearGradient x1="50%" y1="0%" x2="50%" y2="100%" id="linearGradient-1">
            <stop stop-color="#4E91B1" offset="0%"></stop>
            <stop stop-color="#00557B" offset="100%"></stop>
        </linearGradient>
    </defs>
    <g id="SMS-web" stroke="none" stroke-width="1" fill="none" fill-rule="evenodd">
        <rect id="Rectangle-Copy-2" fill="url(#linearGradient-1)" x="0" y="0" width="80" height="80" rx="40"></rect>
        <g id="message-on-phone" transform="translate(22.400000, 24.800000)" fill="#FFFFFF" fill-rule="nonzero" stroke="#297598" stroke-width="0.5">
            <path d="M5.88,11.426341 L10.92,11.426341 C11.38389,11.426341 11.76,11.0327915 11.76,10.5473917 C11.76,10.0619919 11.38389,9.66844239 10.92,9.66844239 L5.88,9.66844239 C5.41611,9.66844239 5.04,10.0619919 5.04,10.5473917 C5.04,11.0327915 5.41611,11.426341 5.88,11.426341 Z" id="Path"></path>
            <path d="M27.72,9.66844239 L14.28,9.66844239 C13.81611,9.66844239 13.44,10.0619919 13.44,10.5473917 C13.44,11.0327915 13.81611,11.426341 14.28,11.426341 L27.72,11.426341 C28.18389,11.426341 28.56,11.0327915 28.56,10.5473917 C28.56,10.0619919 28.18389,9.66844239 27.72,9.66844239 Z" id="Path"></path>
            <path d="M27.72,14.0631889 L22.68,14.0631889 C22.21611,14.0631889 21.84,14.4567385 21.84,14.9421382 C21.84,15.427538 22.21611,15.8210876 22.68,15.8210876 L27.72,15.8210876 C28.18389,15.8210876 28.56,15.427538 28.56,14.9421382 C28.56,14.4567385 28.18389,14.0631889 27.72,14.0631889 Z" id="Path"></path>
            <path d="M5.88,15.8210876 L19.32,15.8210876 C19.78389,15.8210876 20.16,15.427538 20.16,14.9421382 C20.16,14.4567385 19.78389,14.0631889 19.32,14.0631889 L5.88,14.0631889 C5.41611,14.0631889 5.04,14.4567385 5.04,14.9421382 C5.04,15.427538 5.41611,15.8210876 5.88,15.8210876 Z" id="Path"></path>
            <path d="M27.72,5.27369585 L5.88,5.27369585 C5.41611,5.27369585 5.04,5.6672454 5.04,6.15264516 C5.04,6.63804492 5.41611,7.03159447 5.88,7.03159447 L27.72,7.03159447 C28.18389,7.03159447 28.56,6.63804492 28.56,6.15264516 C28.56,5.6672454 28.18389,5.27369585 27.72,5.27369585 Z" id="Path"></path>
            <path d="M27.72,18.4579355 L5.88,18.4579355 C5.41611,18.4579355 5.04,18.851485 5.04,19.3368848 C5.04,19.8222845 5.41611,20.2158341 5.88,20.2158341 L27.72,20.2158341 C28.18389,20.2158341 28.56,19.8222845 28.56,19.3368848 C28.56,18.851485 28.18389,18.4579355 27.72,18.4579355 Z" id="Path"></path>
            <path d="M27.72,0 L5.88,0 C2.63781,0 0,2.76012057 0,6.15264516 L0,19.3368848 C0,22.431116 2.194185,24.9991861 5.04,25.4269048 L5.04,28.6412224 C5.04,29.3548194 5.447085,29.9922774 6.077085,30.265301 C6.286245,30.3559427 6.50496,30.4 6.721785,30.4 C7.15806,30.4 7.58583,30.2213536 7.90797,29.8842765 L12.10797,25.48953 L27.72,25.48953 C30.96219,25.48953 33.6,22.7294094 33.6,19.3368848 L33.6,6.15264516 C33.6,2.76012057 30.96219,0 27.72,0 Z M31.92,19.3368848 C31.92,21.760148 30.03588,23.7316313 27.72,23.7316313 L11.76,23.7316313 C11.53719,23.7316313 11.323515,23.8242506 11.166015,23.9890536 L6.72,28.6405632 L6.72,24.6105806 C6.72,24.1251809 6.34389,23.7316313 5.88,23.7316313 C3.56412,23.7316313 1.68,21.760148 1.68,19.3368848 L1.68,6.15264516 C1.68,3.72938192 3.56412,1.75789862 5.88,1.75789862 L27.72,1.75789862 C30.03588,1.75789862 31.92,3.72938192 31.92,6.15264516 L31.92,19.3368848 Z" id="Shape"></path>
        </g>
    </g>
</svg>