<?xml version="1.0" encoding="UTF-8"?>
<svg width="80px" height="80px" viewBox="0 0 80 80" version="1.1" xmlns="http://www.w3.org/2000/svg" xmlns:xlink="http://www.w3.org/1999/xlink">
    <title>Start saving Web</title>
    <defs>
        <linearGradient x1="50%" y1="0%" x2="50%" y2="100%" id="linearGradient-1">
            <stop stop-color="#4E91B1" offset="0%"></stop>
            <stop stop-color="#00557B" offset="100%"></stop>
        </linearGradient>
    </defs>
    <g id="Start-saving-Web" stroke="none" stroke-width="1" fill="none" fill-rule="evenodd">
        <rect id="Rectangle-Copy-2" fill="url(#linearGradient-1)" x="0" y="0" width="80" height="80" rx="40"></rect>
        <g id="coins-(3)-copy" transform="translate(23.000000, 25.000000)" fill="#FFFFFF" fill-rule="nonzero">
            <path d="M33.9937667,10.3333333 C33.9376667,9.35109259 32.7845,8.58355556 30.4781667,7.998 C30.5558,7.82577778 30.5994333,7.64666667 30.6,7.46066667 L30.6,3.44444444 L30.5903667,3.44444444 C30.3875,0.0987407407 16.8543667,0 15.3,0 C13.7456333,0 0.2125,0.0987407407 0.00963333333,3.44444444 L0,3.44444444 L0,3.51907407 L0,3.51907407 L0,3.51907407 L0,7.46238889 C0.00283333333,8.55312963 1.3923,9.40677778 3.4595,10.0422778 C3.43116667,10.1375741 3.41416667,10.2345926 3.4085,10.3333333 L3.4,10.3333333 L3.4,10.407963 L3.4,10.407963 L3.4,10.407963 L3.4,14.3443889 C1.173,14.9253519 0.0606333333,15.6819815 0.00566666667,16.6481481 L0,16.6481481 L0,16.7227778 L0,16.7227778 L0,16.7227778 L0,20.6660926 C0.0017,21.4255926 0.677733333,22.0697037 1.78386667,22.606463 C1.74193333,22.723 1.71586667,22.8418333 1.7085,22.963537 L1.7,22.963537 L1.7,23.0381667 L1.7,23.0381667 L1.7,23.0381667 L1.7,26.9814815 C1.70453333,28.8908519 5.9483,30.0763148 10.6635333,30.6297222 C10.6981,30.6366111 10.7298333,30.650963 10.7666667,30.650963 C10.7774333,30.650963 10.7865,30.6452222 10.7972667,30.6446481 C11.7062,30.7485556 12.6298667,30.8295 13.5439,30.8874815 C13.5631667,30.8897778 13.5801667,30.898963 13.6,30.898963 C13.6107667,30.898963 13.6192667,30.8932222 13.6294667,30.8926481 C14.79,30.9638333 15.9318333,31 17,31 C18.0681667,31 19.21,30.9638333 20.3705333,30.8920741 C20.3807333,30.8926481 20.3898,30.8983889 20.4,30.8983889 C20.4198333,30.8983889 20.4368333,30.8886296 20.4561,30.8869074 C21.3701333,30.8289259 22.2938,30.7485556 23.2027333,30.6440741 C23.2135,30.6440741 23.2225667,30.6498148 23.2333333,30.6498148 C23.2701667,30.6498148 23.3019,30.635463 23.3364667,30.6285741 C28.0517,30.0751667 32.2949,28.8891296 32.3,26.9791852 L32.3,22.962963 L32.2909333,22.962963 C32.2512667,22.2591481 31.6591,21.6718704 30.4895,21.181037 C30.5609,21.0151296 30.6,20.8429074 30.6,20.6643704 L30.6,16.9122222 C32.6343333,16.2784444 33.9971667,15.430537 34,14.3495556 L34,10.3333333 L33.9937667,10.3333333 Z M29.4054667,20.8509444 L29.2122333,21.0225926 C28.9147333,21.2883889 28.4189,21.5564815 27.7666667,21.8148148 L27.7666667,19.0776296 C28.4404333,18.839963 29.0139,18.576463 29.4666667,18.2877037 L29.4666667,20.6632222 C29.4666667,20.7223519 29.4451333,20.7855 29.4054667,20.8509444 Z M16.7314,23.5186667 C16.6486667,23.520963 16.5653667,23.5221111 16.4820667,23.5238333 C16.2797667,23.5278519 16.0723667,23.529 15.8672333,23.5307222 L15.8672333,20.6632222 C16.0230667,20.6615 16.1789,20.6592037 16.3347333,20.6563333 C16.3647667,20.6557593 16.3948,20.6551852 16.4248333,20.6546111 C16.9954667,20.6437037 17.5661,20.6259074 18.1339,20.5995 L18.1339,23.4658519 C18.0126333,23.4721667 17.8908,23.4779074 17.7678333,23.4830741 C17.4267,23.4985741 17.0821667,23.5100556 16.7314,23.5186667 Z M14.2567667,23.5267037 C13.9972333,23.5221111 13.7388333,23.5157963 13.4821333,23.5077593 C13.4504,23.5066111 13.4186667,23.505463 13.3869333,23.5043148 C13.0781,23.4939815 12.7715333,23.4807778 12.4672333,23.4658519 L12.4672333,20.6000741 C13.0350333,20.6270556 13.6056667,20.6448519 14.1763,20.6551852 C14.2063333,20.6557593 14.2363667,20.6563333 14.2658333,20.6569074 C14.4216667,20.6597778 14.5775,20.6620741 14.7333333,20.6637963 L14.7333333,23.5330185 C14.6234,23.5318704 14.5134667,23.5318704 14.4041,23.5301481 C14.3542333,23.529 14.3060667,23.5272778 14.2567667,23.5267037 Z M4.02163333,22.2178148 C4.00293333,22.2120741 3.98536667,22.2069074 3.96666667,22.2017407 L3.96666667,19.4283889 C4.49593333,19.5730556 5.06486667,19.7050926 5.66666667,19.8250741 L5.66666667,22.6271296 C5.14646667,22.5151852 4.6665,22.3975 4.2296,22.2769444 C4.16046667,22.2568519 4.08906667,22.2379074 4.02163333,22.2178148 Z M15.9658333,26.9717222 C16.1216667,26.9745926 16.2775,26.9768889 16.4333333,26.9786111 L16.4333333,29.8484074 C15.6502,29.8409444 14.8942667,29.8179815 14.1666667,29.7818148 L14.1666667,26.915463 C14.7344667,26.9424444 15.3051,26.9602407 15.8757333,26.9705741 C15.9057667,26.9705741 15.9358,26.9711481 15.9658333,26.9717222 Z M18.1242667,26.97 C18.6949,26.9590926 19.2655333,26.9412963 19.8333333,26.9148889 L19.8333333,29.7812407 C19.1057333,29.8174074 18.3498,29.8403704 17.5666667,29.8478333 L17.5666667,26.978037 C17.7225,26.9763148 17.8783333,26.9740185 18.0341667,26.9711481 C18.0642,26.9711481 18.0942333,26.9705741 18.1242667,26.97 Z M22.6666667,26.7105185 L22.6666667,29.5613704 C22.1221,29.6193519 21.5554333,29.6704444 20.9666667,29.7123519 L20.9666667,26.8494444 C21.5412667,26.8115556 22.1090667,26.7650556 22.6666667,26.7105185 Z M23.8,26.5865185 C24.3842333,26.5153333 24.9514667,26.4343889 25.5,26.3442593 L25.5,29.162963 C24.9662,29.2582593 24.3989667,29.3460926 23.8,29.4258889 L23.8,26.5865185 Z M26.6333333,26.1393148 C27.2351333,26.0193333 27.8040667,25.8872963 28.3333333,25.7426296 L28.3333333,28.5159815 C27.8284333,28.6635185 27.2600667,28.806463 26.6333333,28.9413704 L26.6333333,26.1393148 Z M7.36666667,26.1393148 L7.36666667,28.9413704 C6.73993333,28.806463 6.17156667,28.6635185 5.66666667,28.5159815 L5.66666667,25.7426296 C6.19593333,25.8872963 6.76486667,26.0199074 7.36666667,26.1393148 Z M8.5,26.3448333 C9.04853333,26.434963 9.61576667,26.5159074 10.2,26.5870926 L10.2,29.426463 C9.60103333,29.3466667 9.0338,29.2588333 8.5,29.163537 L8.5,26.3448333 Z M11.3333333,26.7105185 C11.8909333,26.7650556 12.4587333,26.8115556 13.0333333,26.8500185 L13.0333333,29.7129259 C12.4445667,29.6710185 11.8779,29.6199259 11.3333333,29.5619444 L11.3333333,26.7105185 Z M9.92743333,23.2775556 C9.86963333,23.2718148 9.8124,23.2655 9.75516667,23.2597593 C9.71436667,23.2557407 9.67413333,23.2505741 9.63333333,23.2465556 L9.63333333,20.3962778 C10.1909333,20.4508148 10.7587333,20.4973148 11.3333333,20.5357778 L11.3333333,23.3963889 C10.8573333,23.3619444 10.387,23.3229074 9.92743333,23.2775556 Z M8.5,20.2717037 L8.5,23.1110741 C7.90103333,23.0312778 7.3338,22.9434444 6.8,22.8481481 L6.8,20.0294444 C7.34853333,20.1195741 7.91576667,20.2010926 8.5,20.2717037 Z M19.6440667,23.3694074 C19.5194,23.3791667 19.3936,23.3889259 19.2666667,23.3981111 L19.2666667,20.5352037 C19.8412667,20.4967407 20.4090667,20.4508148 20.9666667,20.3957037 L20.9666667,23.2465556 C20.6164667,23.2838704 20.2583333,23.3188889 19.8905667,23.3493148 C19.8084,23.3567778 19.7262333,23.3630926 19.6440667,23.3694074 Z M22.1,23.1110741 L22.1,20.2717037 C22.6842333,20.2005185 23.2514667,20.1195741 23.8,20.0294444 L23.8,22.8481481 C23.2662,22.9434444 22.6989667,23.0318519 22.1,23.1110741 Z M24.9333333,19.8245 C25.5351333,19.7045185 26.1040667,19.5724815 26.6333333,19.4278148 L26.6333333,22.2011667 C26.1284333,22.3487037 25.5600667,22.4916481 24.9333333,22.6265556 L24.9333333,19.8245 Z M17.1841667,17.2021296 C16.7580333,17.1912222 16.3415333,17.1745741 15.9324,17.1544815 C15.9103,17.1533333 15.8882,17.1521852 15.8666667,17.1516111 L15.8666667,14.2852593 C16.4344667,14.3122407 17.0051,14.330037 17.5757333,14.3403704 C17.6057667,14.3409444 17.6358,14.3415185 17.6652667,14.3420926 C17.8211,14.344963 17.9769333,14.3472593 18.1327667,14.3489815 L18.1327667,17.2153333 C17.8568,17.212463 17.5785667,17.2113148 17.3094,17.205 C17.2680333,17.2038519 17.2255333,17.2032778 17.1841667,17.2021296 Z M3.96666667,8.99803704 L3.96666667,6.22468519 C4.49593333,6.36935185 5.06486667,6.50138889 5.66666667,6.62137037 L5.66666667,9.42342593 C5.59696667,9.4085 5.525,9.39357407 5.457,9.37864815 C5.15553333,9.31148148 4.86143333,9.24144444 4.58036667,9.16738889 C4.36616667,9.1117037 4.16273333,9.05487037 3.96666667,8.99803704 Z M14.2658333,7.4532037 C14.4216667,7.45607407 14.5775,7.45837037 14.7333333,7.46009259 L14.7333333,10.3264444 C13.9706,10.3189815 13.2124,10.2988889 12.4666667,10.261 L12.4666667,7.39694444 C13.0344667,7.42392593 13.6051,7.44172222 14.1757333,7.45205556 C14.2057667,7.45205556 14.2358,7.45262963 14.2658333,7.4532037 Z M16.4242667,7.45148148 C16.9949,7.44057407 17.5655333,7.42277778 18.1333333,7.39637037 L18.1333333,10.2604259 C18.037,10.2650185 17.9446333,10.2719074 17.8477333,10.2765 C17.8398,10.2770741 17.8318667,10.2770741 17.8233667,10.2776481 C17.4431333,10.2948704 17.0555333,10.3075 16.6628333,10.3166852 C16.6016333,10.3184074 16.5404333,10.3189815 16.4792333,10.3207037 C16.2775,10.3247222 16.0712333,10.3252963 15.8666667,10.3275926 L15.8666667,7.46009259 C16.0225,7.45837037 16.1783333,7.45607407 16.3341667,7.4532037 C16.3642,7.45262963 16.3942333,7.45205556 16.4242667,7.45148148 Z M29.3369,7.73966667 L29.3210333,7.73622222 L29.1147667,7.89868519 C28.8155667,8.13462963 28.356,8.37344444 27.7666667,8.60422222 L27.7666667,5.87335185 C28.4404333,5.63568519 29.0139,5.37218519 29.4666667,5.08342593 L29.4666667,7.45894444 C29.4666667,7.5462037 29.4213333,7.64035185 29.3369,7.73966667 Z M22.1,9.90392593 L22.1,7.068 C22.6842333,6.99681481 23.2514667,6.91587037 23.8,6.82574074 L23.8,9.63985185 C23.2628,9.7362963 22.6972667,9.8247037 22.1,9.90392593 Z M24.9333333,9.41883333 L24.9333333,6.62137037 C25.5351333,6.50138889 26.1040667,6.36935185 26.6333333,6.22468519 L26.6333333,8.99172222 C26.1256,9.14155556 25.5538333,9.2845 24.9333333,9.41883333 Z M20.9666667,7.192 L20.9666667,10.0394074 C20.4192667,10.097963 19.8526,10.1490556 19.2666667,10.191537 L19.2666667,7.3315 C19.8412667,7.29303704 20.4090667,7.24653704 20.9666667,7.192 Z M9.63333333,10.0405556 L9.63333333,7.192 C10.1909333,7.24653704 10.7587333,7.29303704 11.3333333,7.3315 L11.3333333,10.1892407 C10.7564667,10.1473333 10.1875333,10.0996852 9.63333333,10.0405556 Z M8.5,7.068 L8.5,9.9045 C8.3878,9.88957407 8.27106667,9.87751852 8.16,9.86201852 C8.08746667,9.85168519 8.01833333,9.84077778 7.94693333,9.83044444 C7.6194,9.7827963 7.29923333,9.7317037 6.9853,9.67831481 C6.9224,9.66740741 6.86176667,9.65592593 6.8,9.64501852 L6.8,6.82631481 C7.34853333,6.91587037 7.91576667,6.99738889 8.5,7.068 Z M14.5928,17.0723889 C14.5163,17.0666481 14.4392333,17.0609074 14.3633,17.0551667 C14.0006333,17.026463 13.6464667,16.9948889 13.3008,16.9598704 C13.2265667,16.9524074 13.1523333,16.9443704 13.0786667,16.9369074 C13.0633667,16.9351852 13.0486333,16.9328889 13.0333333,16.9317407 L13.0333333,14.0808889 C13.5909333,14.1354259 14.1587333,14.1819259 14.7333333,14.2203889 L14.7333333,17.0815741 C14.6874333,17.0781296 14.6387,17.0758333 14.5928,17.0723889 Z M10.8488333,16.6435556 C10.6244333,16.6073889 10.4136333,16.5683519 10.2,16.530463 L10.2,13.7152037 C10.7485333,13.8053333 11.3157667,13.8862778 11.9,13.957463 L11.9,16.7968333 C11.5532,16.7503333 11.2137667,16.7021111 10.8879333,16.6504444 C10.8749,16.6475741 10.8618667,16.6452778 10.8488333,16.6435556 Z M9.06666667,13.5096852 L9.06666667,16.3071481 C8.4405,16.1710926 7.8727,16.0264259 7.36666667,15.8760185 L7.36666667,13.113 C7.89593333,13.2576667 8.46486667,13.3902778 9.06666667,13.5096852 Z M6.23333333,12.7622407 L6.23333333,15.4896667 C5.34253333,15.1412037 4.76793333,14.7852778 4.58093333,14.4683889 L4.54296667,14.4040926 C4.53956667,14.3862963 4.5339,14.3673519 4.53333333,14.3495556 L4.53333333,11.9723148 C4.9861,12.2610741 5.55956667,12.5245741 6.23333333,12.7622407 Z M19.8242667,14.3403704 C20.3949,14.329463 20.9655333,14.3116667 21.5333333,14.2852593 L21.5333333,17.1487407 C20.7887333,17.1860556 20.0316667,17.2067222 19.2666667,17.2147593 L19.2666667,14.3489815 C19.4225,14.3472593 19.5783333,14.344963 19.7341667,14.3420926 C19.7642,14.3415185 19.7942333,14.3409444 19.8242667,14.3403704 Z M27.1473,16.5430926 C26.8985333,16.5867222 26.6475,16.6297778 26.3896667,16.6693889 C26.2417667,16.6923519 26.0904667,16.7141667 25.9386,16.7359815 C25.7952333,16.7566481 25.6462,16.7744444 25.5005667,16.7933889 L25.5005667,13.9568889 C26.0848,13.8857037 26.6520333,13.8047593 27.2005667,13.7146296 L27.2005667,16.5333333 C27.1824333,16.5367778 27.1648667,16.5402222 27.1473,16.5430926 Z M23.3104,17.0333519 C23.0990333,17.0511481 22.8808667,17.0626296 22.6666667,17.0781296 L22.6666667,14.2203889 C23.2412667,14.1819259 23.8090667,14.136 24.3666667,14.0808889 L24.3666667,16.9288704 C24.0374333,16.9638889 23.7087667,16.9989074 23.3704667,17.0276111 C23.3500667,17.0293333 23.3308,17.0316296 23.3104,17.0333519 Z M29.7862667,15.956963 C29.5040667,16.0367593 29.2054333,16.1113889 28.9005667,16.1842963 C28.7594667,16.2175926 28.6155333,16.2508889 28.4682,16.283037 C28.4245667,16.2927963 28.3781,16.3014074 28.3339,16.3111667 L28.3339,13.5102593 C28.9357,13.3902778 29.5046333,13.2582407 30.0339,13.1135741 L30.0339,15.8869259 C29.9523,15.9098889 29.8701333,15.9334259 29.7862667,15.956963 Z M32.8604333,10.3706481 C32.8083,10.7604444 31.9362,11.2788333 30.3795667,11.7662222 L30.3795667,11.7662222 C28.3747,12.3936852 25.2376333,12.9683333 21.2619,13.1462963 C21.0584667,13.1549074 20.8556,13.1635185 20.6482,13.1704074 C20.4787667,13.1761481 20.3087667,13.1813148 20.1359333,13.1859074 C19.6667333,13.1962407 19.1907333,13.2037037 18.7,13.2037037 C18.2092667,13.2037037 17.7332667,13.1962407 17.2640667,13.1853333 C17.0918,13.1813148 16.9218,13.1755741 16.7518,13.1698333 C16.5438333,13.1635185 16.3409667,13.1543333 16.1381,13.1457222 C12.1623667,12.9677593 9.02473333,12.3931111 7.02043333,11.7656481 L7.02043333,11.7656481 C5.47626667,11.2822778 4.60586667,10.7679074 4.54126667,10.3798333 C4.5441,10.3689259 4.5441,10.3597407 4.5509,10.345963 C4.58943333,10.3557222 4.6325,10.3637593 4.6716,10.3735185 C4.89316667,10.4269074 5.1204,10.4785741 5.3516,10.5279444 C6.47756667,10.7736481 7.72536667,10.9751481 9.05476667,11.129 C9.0593,11.129 9.0627,11.1312963 9.06666667,11.1312963 C9.0678,11.1312963 9.06893333,11.1307222 9.0695,11.1307222 C9.97503333,11.2352037 10.9145667,11.3172963 11.8790333,11.3752778 C11.8864,11.3752778 11.8926333,11.3792963 11.9,11.3792963 C11.9039667,11.3792963 11.9068,11.377 11.9107667,11.377 C12.6049333,11.4183333 13.3081667,11.4487593 14.0199,11.4648333 C14.4556667,11.4757407 14.8835,11.4814815 15.3,11.4814815 C15.5975,11.4814815 15.9023667,11.478037 16.2100667,11.4722963 C20.3274667,11.408 24.1434,10.912 26.7988,10.1433148 C26.9212,10.1082963 27.0407667,10.0721296 27.1586333,10.035963 C27.2306,10.0135741 27.3042667,9.99175926 27.3739667,9.96937037 C27.5791,9.90277778 27.7757333,9.83446296 27.9655667,9.76327778 C27.9984333,9.75064815 28.0296,9.73801852 28.0624667,9.72538889 C28.2228333,9.66396296 28.3769667,9.60024074 28.5243,9.53537037 C28.5668,9.51642593 28.6104333,9.49805556 28.6518,9.47911111 C28.8087667,9.40735185 28.9606333,9.33387037 29.1011667,9.25751852 C29.1646333,9.22364815 29.2196,9.18862963 29.2791,9.15418519 C29.3471,9.11457407 29.4151,9.07438889 29.478,9.03362963 C29.5137,9.01066667 29.5562,8.98885185 29.5902,8.96588889 C32.1271667,9.52331481 32.7958333,10.1329815 32.8604333,10.3706481 Z M15.3,1.14814815 C24.6437667,1.14814815 29.3697667,2.63844444 29.4581667,3.49381481 C29.3896,3.88188889 28.5197667,4.39453704 26.9795667,4.87675926 L26.9795667,4.87675926 C24.9747,5.50422222 21.8376333,6.07887037 17.8619,6.25683333 C17.6584667,6.26544444 17.4556,6.27405556 17.2482,6.28094444 C17.0787667,6.28668519 16.9087667,6.29185185 16.7359333,6.29644444 C16.2667333,6.30735185 15.7907333,6.31481481 15.3,6.31481481 C14.8092667,6.31481481 14.3332667,6.30735185 13.8640667,6.29644444 C13.6918,6.29242593 13.5218,6.28668519 13.3518,6.28094444 C13.1438333,6.27462963 12.9409667,6.26544444 12.7381,6.25683333 C8.76236667,6.07887037 5.62473333,5.50422222 3.62043333,4.87675926 L3.62043333,4.87675926 C2.07966667,4.39453704 1.2104,3.88188889 1.14183333,3.49381481 C1.23023333,2.63844444 5.95623333,1.14814815 15.3,1.14814815 Z M1.13333333,7.46066667 L1.13333333,5.08342593 C1.5861,5.37218519 2.15956667,5.63568519 2.83333333,5.87335185 L2.83333333,8.62201852 C1.73116667,8.20351852 1.13446667,7.78387037 1.13333333,7.46066667 Z M3.87826667,15.4052778 C3.88676667,15.414463 3.8998,15.4225 3.9083,15.4316852 C4.68406667,16.2250556 6.29056667,16.8485 8.29033333,17.3135 C8.33623333,17.3244074 8.38496667,17.3347407 8.43143333,17.3456481 C8.5782,17.3789444 8.72723333,17.4116667 8.87796667,17.4432407 C10.7145333,17.8393519 12.9069667,18.1258148 15.2954667,18.2676111 C15.2971667,18.2676111 15.2983,18.2681852 15.2994333,18.2681852 C15.3005667,18.2681852 15.3011333,18.2676111 15.3017,18.2676111 C16.0689667,18.312963 16.8538,18.344537 17.6550667,18.3583148 C18.0098,18.3657778 18.3588667,18.3703704 18.7,18.3703704 C19.091,18.3703704 19.4922,18.3657778 19.9002,18.3560185 C20.6414,18.3405185 21.3718333,18.3095185 22.0920667,18.267037 C22.0949,18.267037 22.0971667,18.2687593 22.1,18.2687593 C22.1051,18.2687593 22.1090667,18.2658889 22.1141667,18.2658889 C24.5089,18.1229444 26.7557333,17.8336111 28.6557667,17.4174074 C28.2443667,17.6355556 27.6811,17.8611667 26.9795667,18.081037 L26.9795667,18.081037 C24.8630667,18.7435185 21.4829,19.3468704 17.187,19.4869444 C17.0595,19.490963 16.9337,19.4955556 16.8045,19.499 C16.6656667,19.5024444 16.5245667,19.5047407 16.3834667,19.5076111 C16.0270333,19.5133519 15.6683333,19.5185185 15.3,19.5185185 C14.8092667,19.5185185 14.3332667,19.5110556 13.8640667,19.5001481 C13.6918,19.4961296 13.5218,19.4903889 13.3518,19.4846481 C13.1438333,19.4783333 12.9409667,19.4691481 12.7381,19.460537 C8.76236667,19.2825741 5.62473333,18.7079259 3.62043333,18.080463 L3.62043333,18.080463 C2.0621,17.5925 1.19,17.073537 1.13956667,16.6837407 C1.20246667,16.4678889 1.77536667,15.9276852 3.87826667,15.4052778 Z M1.13333333,20.6643704 L1.13333333,18.2871296 C1.5861,18.5758889 2.15956667,18.8393889 2.83333333,19.0770556 L2.83333333,21.8148148 L2.50976667,21.6873704 L2.50296667,21.6942593 C1.6133,21.320537 1.13446667,20.9537037 1.13333333,20.6643704 Z M2.83333333,26.9791852 L2.83333333,24.6019444 C3.2861,24.8907037 3.85956667,25.1542037 4.53333333,25.3918704 L4.53333333,28.140537 C3.43116667,27.722037 2.83446667,27.3023889 2.83333333,26.9791852 Z M29.4666667,28.140537 L29.4666667,25.3924444 C30.1404333,25.1547778 30.7139,24.8912778 31.1666667,24.6025185 L31.1666667,26.978037 C31.1661,27.3012407 30.5688333,27.721463 29.4666667,28.140537 Z M31.1593,23.0071667 C31.0975333,23.3958148 30.2271333,23.9113333 28.6795667,24.3958519 L28.6795667,24.3958519 C26.6747,25.0233148 23.5376333,25.597963 19.5619,25.7759259 C19.3584667,25.784537 19.1556,25.7931481 18.9482,25.800037 C18.7787667,25.8057778 18.6087667,25.8109444 18.4359333,25.815537 C17.9667333,25.8258704 17.4907333,25.8333333 17,25.8333333 C16.5092667,25.8333333 16.0327,25.8258704 15.5629333,25.814963 C15.3923667,25.8109444 15.2240667,25.8052037 15.0557667,25.799463 C14.8466667,25.7925741 14.6426667,25.783963 14.4381,25.7753519 C10.4623667,25.5973889 7.3253,25.0227407 5.32043333,24.3952778 L5.32043333,24.3952778 C3.8216,23.9262593 2.95573333,23.427963 2.84693333,23.0433333 C3.0158,23.103037 3.1909,23.1610185 3.37053333,23.2178519 C3.38866667,23.2235926 3.4068,23.2293333 3.42493333,23.2345 C3.57793333,23.2821481 3.73433333,23.3280741 3.8947,23.3728519 C3.95533333,23.3900741 4.01653333,23.4072963 4.0783,23.4239444 C4.16896667,23.4486296 4.2619,23.4721667 4.35483333,23.4962778 C6.41863333,24.0318889 9.05306667,24.4113519 11.8971667,24.5818519 C11.8983,24.5818519 11.8988667,24.5824259 11.9,24.5824259 C11.9005667,24.5824259 11.9011333,24.5818519 11.9017,24.5818519 C12.7800333,24.6346667 13.6770667,24.6673889 14.5837333,24.6782963 C14.8251333,24.6828889 15.0648333,24.6851852 15.3,24.6851852 C15.6122333,24.6851852 15.9318333,24.6811667 16.2554,24.6754259 C17.0821667,24.6616481 17.8981667,24.6306481 18.6960333,24.5824259 C18.6977333,24.5824259 18.6988667,24.5835741 18.7005667,24.5835741 C18.7034,24.5835741 18.7051,24.5818519 18.7079333,24.5818519 C19.6797667,24.5227222 20.6204333,24.4383333 21.5242667,24.3332778 C21.5276667,24.3332778 21.5305,24.335 21.5339,24.335 C21.5463667,24.335 21.5565667,24.3286852 21.5690333,24.327537 C22.5754333,24.2098519 23.5297,24.0651852 24.4154,23.8969815 C24.5978667,23.8631111 24.7775,23.8280926 24.9554333,23.7919259 C24.9951,23.7838889 25.0347667,23.7758519 25.0744333,23.7672407 C26.7478,23.4193519 28.1962,22.9687037 29.1901333,22.4101296 C29.2445333,22.3802778 29.2955333,22.3492778 29.3471,22.3188519 C29.41,22.280963 29.4700667,22.2425 29.5284333,22.203463 C29.5828333,22.1678704 29.6457333,22.1334259 29.6956,22.0972593 C30.8142,22.5014074 31.1224667,22.8630741 31.1593,23.0071667 Z M31.1666667,15.5109074 L31.1666667,12.7628148 C31.8404333,12.5251481 32.4139,12.2616481 32.8666667,11.9728889 L32.8666667,14.3484074 C32.8661,14.6716111 32.2688333,15.0918333 31.1666667,15.5109074 Z" id="Shape"></path>
        </g>
    </g>
</svg>