<?xml version="1.0" encoding="UTF-8"?>
<svg width="80px" height="80px" viewBox="0 0 80 80" version="1.1" xmlns="http://www.w3.org/2000/svg" xmlns:xlink="http://www.w3.org/1999/xlink">
    <title>Support Web</title>
    <defs>
        <linearGradient x1="50%" y1="0%" x2="50%" y2="100%" id="linearGradient-1">
            <stop stop-color="#4E91B1" offset="0%"></stop>
            <stop stop-color="#00557B" offset="100%"></stop>
        </linearGradient>
    </defs>
    <g id="Support-Web" stroke="none" stroke-width="1" fill="none" fill-rule="evenodd">
        <rect id="Rectangle-Copy-2" fill="url(#linearGradient-1)" x="0" y="0" width="80" height="80" rx="40"></rect>
        <g id="support" transform="translate(23.000000, 22.000000)" fill="#FFFFFF" fill-rule="nonzero">
            <path d="M30.4164203,15.2946224 L30.3245224,15.2946224 L30.3245224,13.050801 C30.3245224,5.84305095 24.4621378,0 17.2303421,0 C9.99854636,0 4.13616176,5.84305095 4.13616176,13.050801 L4.13616176,15.2946224 L3.5848621,15.2946224 C1.56328346,15.2946224 0.00119447819,17.0804762 0.00119447819,19.1411982 L0.00119447819,24.8652215 C-0.0497231325,26.8624854 1.53355953,28.5227379 3.53746212,28.5734868 C3.55329142,28.5739251 3.56903279,28.574188 3.5848621,28.5743633 L6.98473386,28.5743633 C7.46629662,28.5518374 7.83837332,28.144356 7.81568464,27.6643886 C7.81489318,27.6471217 7.81357407,27.6298548 7.81172732,27.6126755 L7.81172732,16.3935689 C7.81172732,15.8440956 7.49012852,15.2945347 6.98473386,15.2945347 L5.97394454,15.2945347 L5.97394454,13.0507134 C5.97394454,6.85461118 11.0136448,1.8316068 17.2303421,1.8316068 C23.4470394,1.8316068 28.4867396,6.85461118 28.4867396,13.0507134 L28.4867396,15.2945347 L27.4759503,15.2945347 C26.9705556,15.2945347 26.6489568,15.844008 26.6489568,16.3935689 L26.6489568,27.6126755 C26.5976875,28.0904517 26.9447011,28.5192319 27.4240653,28.5703314 C27.4413017,28.5721721 27.458626,28.5734868 27.4759503,28.5742756 L28.5326446,28.5742756 L28.4407467,28.7116221 C27.0621018,30.5377946 24.8987629,31.6073786 22.6057995,31.5965101 C22.1038346,29.1432947 19.7014731,27.5600859 17.2401035,28.0604756 C15.1352451,28.4882917 13.617654,30.3255957 13.6006815,32.4666044 C13.6258325,34.977756 15.6755522,37 18.1951385,37 C19.4424001,36.9798407 20.6312691,36.4697219 21.5031123,35.5804324 C22.091347,34.9800349 22.4767907,34.2116138 22.6057995,33.382364 C25.4772362,33.3932325 28.1851913,32.0521987 29.9109377,29.7648157 L30.7839241,28.4825945 C32.7595098,28.3452481 34,27.1088675 34,25.322926 L34,19.5989027 C34,17.6300372 32.5298969,15.2946224 30.4164203,15.2946224 Z M5.97394454,26.7426688 L3.5848621,26.7426688 C2.59553029,26.7186529 1.81303478,25.8999211 1.8371305,24.9138668 C1.83757021,24.8976517 1.83818579,24.8814366 1.83897726,24.8651338 L1.83897726,19.1411106 C1.83897726,18.087917 2.57407278,17.1262292 3.5848621,17.1262292 L5.97394454,17.1262292 L5.97394454,26.7426688 L5.97394454,26.7426688 Z M20.1708121,34.2983865 C19.661636,34.8486487 18.9462392,35.1637478 18.1952264,35.1684808 C16.700412,35.1448155 15.4873593,33.9559408 15.438552,32.4666921 C15.4379366,30.9745509 16.6510773,29.7644651 18.1481782,29.7638513 C19.645279,29.763238 20.859387,30.9723597 20.8600026,32.4645009 C20.8600026,32.4652021 20.8600026,32.4659909 20.8600026,32.4666921 C20.8982568,33.1465875 20.6481537,33.8112319 20.1708121,34.2983865 Z M32.1623052,25.3231013 C32.1623052,26.5594819 30.96772,26.7426688 30.4164203,26.7426688 L28.4867396,26.7426688 L28.4867396,17.1263168 L30.4164203,17.1263168 C31.4272096,17.1263168 32.1623052,18.5458844 32.1623052,19.599078 L32.1623052,25.3231013 Z" id="Shape"></path>
        </g>
    </g>
</svg>