<?xml version="1.0" encoding="UTF-8"?>
<svg width="80px" height="80px" viewBox="0 0 80 80" version="1.1" xmlns="http://www.w3.org/2000/svg" xmlns:xlink="http://www.w3.org/1999/xlink">
    <title>Take out a loan Web</title>
    <defs>
        <linearGradient x1="50%" y1="0%" x2="50%" y2="100%" id="linearGradient-1">
            <stop stop-color="#4E91B1" offset="0%"></stop>
            <stop stop-color="#00557B" offset="100%"></stop>
        </linearGradient>
    </defs>
    <g id="Take-out-a-loan-Web" stroke="none" stroke-width="1" fill="none" fill-rule="evenodd">
        <rect id="Rectangle-Copy-2" fill="url(#linearGradient-1)" x="0" y="0" width="80" height="80" rx="40"></rect>
        <g id="Group-2-Copy" transform="translate(22.000000, 22.000000)" fill="#FFFFFF" fill-rule="nonzero">
            <g id="personal">
                <path d="M19.339169,14.8295636 C19.8356113,14.8295636 20.2394236,15.1677508 20.2394236,15.5833922 C20.2394236,15.9608876 20.5455471,16.267013 20.9230401,16.267013 C21.3005332,16.267013 21.6066566,15.9608876 21.6066566,15.5833922 C21.6066566,14.6366458 20.9399938,13.8329128 20.0227855,13.5610368 L20.0227855,13.4660135 C20.0227855,13.0885181 19.7166621,12.7823928 19.339169,12.7823928 C18.961676,12.7823928 18.6555525,13.0885181 18.6555525,13.4660135 L18.6555525,13.5610368 C17.7383443,13.8329812 17.0717498,14.6366458 17.0717498,15.5833922 C17.0717498,16.7529307 18.0889028,17.7043941 19.339169,17.7043941 C19.8356113,17.7043941 20.2394236,18.0425813 20.2394236,18.4582227 C20.2394236,18.8738642 19.8356113,19.211983 19.339169,19.211983 C18.8427951,19.211983 18.4389828,18.8738642 18.4389828,18.4582227 C18.4389828,18.0807273 18.1328594,17.7746019 17.7553663,17.7746019 C17.3778733,17.7746019 17.0717498,18.0807273 17.0717498,18.4582227 C17.0717498,19.4049691 17.7383443,20.2086337 18.6555525,20.4805097 L18.6555525,20.575533 C18.6555525,20.9530284 18.961676,21.2591538 19.339169,21.2591538 C19.7166621,21.2591538 20.0227855,20.9530284 20.0227855,20.575533 L20.0227855,20.4805097 C20.9399938,20.2086337 21.6066566,19.4049691 21.6066566,18.4582227 C21.6066566,17.2886843 20.5894353,16.3371525 19.339169,16.3371525 C18.8427951,16.3371525 18.4389828,15.9990337 18.4389828,15.5833922 C18.4389828,15.1677508 18.8427951,14.8295636 19.339169,14.8295636 Z" id="XMLID_283_"></path>
                <path d="M34.8971185,22.8359935 C34.6290725,21.9065427 33.87477,21.2042591 32.9286448,21.0030011 C32.3227555,20.8740019 31.6925978,20.9681364 31.1544549,21.2541634 C31.4660473,19.3164402 31.3023895,17.3119957 30.6612256,15.4435918 C30.5386531,15.0864683 30.1497437,14.8966268 29.7926908,15.0188582 C29.4355695,15.1414314 29.2454558,15.5302749 29.3679599,15.8873984 C30.1252702,18.0939212 30.1314228,20.5144857 29.3894938,22.7236746 L23.9416855,27.5621375 C23.6055513,27.8606063 23.2369453,28.1136827 22.8451646,28.3191791 C22.9559105,27.8710657 22.9483907,27.3965645 22.815359,26.945785 C22.6052836,26.2338623 22.100843,25.64171 21.4314457,25.3210918 L16.6053867,23.0095648 C14.4954727,21.9989682 12.0259764,21.8820691 9.8300635,22.6882631 L9.33950029,22.8683971 C7.97787295,19.0218681 8.92563886,14.756006 11.8415367,11.8401582 L16.6677325,7.01400055 L22.010674,7.01400055 L26.0998628,11.103215 C26.3668834,11.3701006 26.7996127,11.3701006 27.0667016,11.103215 C27.3336539,10.8362611 27.3336539,10.4033924 27.0667016,10.1363701 L23.1595599,6.22940898 L24.5719799,2.1647365 C24.7613417,1.61982237 24.5522234,1.02534573 24.0634376,0.718946892 C23.5747885,0.412616417 22.9484591,0.483644617 22.5405451,0.891356055 L22.5321366,0.89976459 C22.2495979,1.18244179 21.7896608,1.18244179 21.5071221,0.89976459 C20.3073067,-0.29992153 18.3552398,-0.29992153 17.1554245,0.89976459 C17.0185645,1.03669383 16.8365174,1.11202884 16.6429172,1.11202884 C16.449317,1.11202884 16.2672699,1.03662547 16.1304099,0.89976459 C15.7220858,0.491437894 15.0954145,0.420751504 14.6063553,0.728039048 C14.1173644,1.03525823 13.9090664,1.63055521 14.0998638,2.17567443 L15.5184364,6.22981915 L10.8747662,10.8734501 C9.15622271,12.5920727 8.01383117,14.7588772 7.57125785,17.1395866 C7.18303204,19.2273645 7.3512017,21.356228 8.05498489,23.3401638 L6.97726347,23.7358436 C6.61863825,23.2696142 6.05568006,22.9682741 5.42340316,22.9682741 L1.95972343,22.9682741 C0.879130822,22.9683425 0,23.8474788 0,24.9280098 L0,33.0402643 C0,34.1208637 0.879130822,35 1.95972343,35 L19.9773934,35 C22.807429,35 25.4837193,33.9137266 27.5131716,31.9412755 L34.207076,25.4355983 C34.9007417,24.7615482 35.1650962,23.7654443 34.8971185,22.8359935 L34.8971185,22.8359935 Z M16.6428488,2.47933878 C17.201637,2.47933878 17.7269962,2.26174229 18.1221949,1.86660923 C18.7888578,1.19994248 19.8736204,1.19994248 20.5402832,1.86660923 C20.9354136,2.26174229 21.4608412,2.47933878 22.0196294,2.47933878 C22.4164004,2.47933878 22.7962177,2.36968601 23.1246271,2.16459977 L21.9146259,5.64682734 L16.7629603,5.64682734 L15.5462596,2.16979529 C15.8727548,2.37146342 16.2494275,2.47933878 16.6428488,2.47933878 Z M1.367233,33.0403326 L1.367233,24.9280098 C1.367233,24.6013075 1.6330231,24.3355157 1.95972343,24.3355157 L5.4233348,24.3355157 C5.75003513,24.3355157 6.01582522,24.6013075 6.01582522,24.9280098 L6.01582522,33.0402643 C6.01582522,33.3669667 5.75003513,33.6327584 5.4233348,33.6327584 L1.95972343,33.6327584 C1.6330231,33.6327584 1.367233,33.367035 1.367233,33.0403326 Z M33.254183,24.4552177 L26.5602785,30.9608949 C24.7873875,32.6838928 22.4495558,33.6328268 19.9773934,33.6328268 L7.29124853,33.6328268 C7.35072317,33.4457881 7.38305823,33.2467861 7.38305823,33.0403326 L7.38305823,25.043405 L10.3012804,23.9718978 C12.1529924,23.2920369 14.23563,23.3906151 16.0148104,24.2428167 L20.8408694,26.5543437 C21.1663392,26.7102092 21.4018451,26.9867339 21.5039774,27.3329194 C21.6061097,27.679105 21.5584617,28.0393048 21.3697151,28.3469341 C21.0664629,28.8411236 20.4686402,29.0634371 19.9161414,28.8879516 L13.5047756,26.849121 C13.1450566,26.7348196 12.7605907,26.9336165 12.646085,27.2934745 C12.5317159,27.6532641 12.73058,28.0377324 13.0904357,28.1521706 L19.5018014,30.1909328 C19.7658825,30.2748815 20.0347488,30.3152151 20.3001971,30.3152151 C20.3321904,30.3152151 20.3640469,30.313301 20.3959034,30.3121388 C22.0400695,30.2884855 23.6181982,29.6781489 24.8494599,28.5845607 L31.5562163,22.6278993 C31.8513335,22.3658675 32.2581537,22.2584023 32.6440552,22.3404368 C33.1022834,22.4379211 33.4533888,22.7648286 33.5832076,23.2149929 C33.7132314,23.6650204 33.5901805,24.1286521 33.254183,24.4552177 Z" id="XMLID_1217_"></path>
                <path d="M28.6256891,13.6032846 C28.8054802,13.6032846 28.9818533,13.5308208 29.1089376,13.4029837 C29.2360902,13.2758302 29.3093056,13.1000713 29.3093056,12.9196638 C29.3093056,12.7398715 29.2361586,12.564181 29.1089376,12.4363439 C28.9818533,12.3092588 28.8054802,12.236043 28.6256891,12.236043 C28.4458296,12.236043 28.2702085,12.3091905 28.1423722,12.4363439 C28.0152195,12.564181 27.9420726,12.7398715 27.9420726,12.9196638 C27.9420726,13.1001397 28.0151512,13.2758302 28.1423722,13.4029837 C28.2694565,13.5308892 28.4458296,13.6032846 28.6256891,13.6032846 Z" id="XMLID_1298_"></path>
            </g>
        </g>
    </g>
</svg>