<?xml version="1.0" encoding="UTF-8"?>
<svg width="80px" height="80px" viewBox="0 0 80 80" version="1.1" xmlns="http://www.w3.org/2000/svg" xmlns:xlink="http://www.w3.org/1999/xlink">
    <title>Transfer web</title>
    <defs>
        <linearGradient x1="50%" y1="0%" x2="50%" y2="100%" id="linearGradient-1">
            <stop stop-color="#4E91B1" offset="0%"></stop>
            <stop stop-color="#00557B" offset="100%"></stop>
        </linearGradient>
    </defs>
    <g id="Transfer-web" stroke="none" stroke-width="1" fill="none" fill-rule="evenodd">
        <rect id="Rectangle-Copy-6" fill="url(#linearGradient-1)" x="0" y="0" width="80" height="80" rx="40"></rect>
        <g id="transfer-copy" transform="translate(26.000000, 22.000000)" fill="#FFFFFF" fill-rule="nonzero">
            <path d="M0.697526316,19.7791186 C0.719657895,19.7814012 0.741789474,19.782162 0.763921053,19.782162 C1.131,19.782162 1.45076316,19.5181457 1.51486842,19.1506533 C1.55913158,18.897289 2.66571053,12.9352381 8.39473684,12.9352381 L19.0789474,12.9352381 L19.0789474,15.9786536 C19.0789474,16.2799517 19.2567632,16.5523374 19.5337895,16.6748349 C19.8100526,16.7965715 20.1321053,16.7448334 20.3557105,16.5416854 L28.7504474,8.93314686 C28.9091842,8.78858463 29,8.58467579 29,8.37011501 C29,8.15555422 28.9091842,7.95164538 28.7504474,7.80708315 L20.3557105,0.198544583 C20.1321053,-0.0046033973 19.8092895,-0.0571023134 19.5337895,0.0653951575 C19.2567632,0.187892629 19.0789474,0.460278309 19.0789474,0.761576437 L19.0789474,4.56584572 L8.39473684,4.56584572 C3.84478947,4.56584572 0,8.05055639 0,12.1743843 L0,19.022069 C0,19.4169522 0.302973684,19.745641 0.697526316,19.7791186 Z M1.52631579,12.1743843 C1.52631579,8.87532197 4.67205263,6.08755344 8.39473684,6.08755344 L19.8421053,6.08755344 C20.2641316,6.08755344 20.6052632,5.74669091 20.6052632,5.32669958 L20.6052632,2.48186701 L27.1027895,8.37011501 L20.6052632,14.258363 L20.6052632,12.1743843 C20.6052632,11.754393 20.2641316,11.4135304 19.8421053,11.4135304 L8.39473684,11.4135304 C4.83613158,11.4135304 2.73515789,13.3126217 1.52631579,15.1972567 L1.52631579,12.1743843 Z" id="Shape"></path>
            <path d="M28.3024737,15.221604 C27.9094474,15.1843221 27.5530526,15.4597512 27.4851316,15.8500693 C27.4401053,16.1034336 26.3342895,22.0654844 20.6052632,22.0654844 L10.6842105,22.0654844 L10.6842105,19.022069 C10.6842105,18.7268577 10.5125,18.4582763 10.2446316,18.3327354 C9.976,18.2079554 9.66005263,18.2482806 9.43263158,18.4377332 L0.274736842,26.0462718 C0.100736842,26.190834 0,26.404634 0,26.6306076 C0,26.8565812 0.100736842,27.0703811 0.274736842,27.2149433 L9.43263158,34.8234819 C9.57228947,34.9398925 9.74628947,35 9.92105263,35 C10.0309474,35 10.1416053,34.9764135 10.2446316,34.9284797 C10.5125,34.8029389 10.6842105,34.5343574 10.6842105,34.2391461 L10.6842105,30.4348769 L20.6052632,30.4348769 C25.1559737,30.4348769 29,26.9501662 29,22.8263383 L29,15.9786536 C29,15.5837704 28.6970263,15.2550816 28.3024737,15.221604 Z M27.4736842,22.8263383 C27.4736842,26.1254006 24.3287105,28.9131691 20.6052632,28.9131691 L9.92105263,28.9131691 C9.49978947,28.9131691 9.15789474,29.2540317 9.15789474,29.674023 L9.15789474,32.6147232 L1.95521053,26.6306076 L9.15789474,20.646492 L9.15789474,22.8263383 C9.15789474,23.2463296 9.49978947,23.5871921 9.92105263,23.5871921 L20.6052632,23.5871921 C24.1638684,23.5871921 26.2648421,21.6881009 27.4736842,19.8034659 L27.4736842,22.8263383 Z" id="Shape"></path>
        </g>
    </g>
</svg>