<?xml version="1.0" encoding="UTF-8"?>
<svg width="80px" height="80px" viewBox="0 0 80 80" version="1.1" xmlns="http://www.w3.org/2000/svg" xmlns:xlink="http://www.w3.org/1999/xlink">
    <title>Transfer money quickly Web</title>
    <defs>
        <linearGradient x1="50%" y1="0%" x2="50%" y2="100%" id="linearGradient-1">
            <stop stop-color="#4E91B1" offset="0%"></stop>
            <stop stop-color="#00557B" offset="100%"></stop>
        </linearGradient>
    </defs>
    <g id="Transfer-money-quickly-Web" stroke="none" stroke-width="1" fill="none" fill-rule="evenodd">
        <rect id="Rectangle-Copy-2" fill="url(#linearGradient-1)" x="0" y="0" width="80" height="80" rx="40"></rect>
        <g id="transfer" transform="translate(26.000000, 23.000000)" fill="#FFFFFF" fill-rule="nonzero">
            <path d="M0.673473684,19.2140009 C0.694842105,19.2162183 0.716210526,19.2169574 0.737578947,19.2169574 C1.092,19.2169574 1.40073684,18.9604844 1.46263158,18.6034918 C1.50536842,18.3573664 2.57378947,12.5656599 8.10526316,12.5656599 L18.4210526,12.5656599 L18.4210526,15.5221206 C18.4210526,15.8148102 18.5927368,16.0794135 18.8602105,16.198411 C19.1269474,16.3166694 19.4378947,16.2664096 19.6537895,16.0690658 L27.7590526,8.67791409 C27.9123158,8.53748221 28,8.33939934 28,8.13096886 C28,7.92253838 27.9123158,7.72445552 27.7590526,7.58402363 L19.6537895,0.19287188 C19.4378947,-0.00447187166 19.1262105,-0.0554708188 18.8602105,0.0635267245 C18.5927368,0.182524268 18.4210526,0.4471275 18.4210526,0.73981711 L18.4210526,4.43539299 L8.10526316,4.43539299 C3.71221053,4.43539299 0,7.82054049 0,11.8265447 L0,18.4785813 C0,18.8621821 0.292526316,19.1814798 0.673473684,19.2140009 Z M1.47368421,11.8265447 C1.47368421,8.62174134 4.51094737,5.91362334 8.10526316,5.91362334 L19.1578947,5.91362334 C19.5653684,5.91362334 19.8947368,5.58249974 19.8947368,5.17450816 L19.8947368,2.41095652 L26.1682105,8.13096886 L19.8947368,13.8509812 L19.8947368,11.8265447 C19.8947368,11.4185532 19.5653684,11.0874296 19.1578947,11.0874296 L8.10526316,11.0874296 C4.66936842,11.0874296 2.64084211,12.932261 1.47368421,14.7630493 L1.47368421,11.8265447 Z" id="Shape"></path>
            <path d="M27.3265263,14.786701 C26.9470526,14.7504844 26.6029474,15.0180441 26.5373684,15.3972102 C26.4938947,15.6433355 25.4262105,21.435042 19.8947368,21.435042 L10.3157895,21.435042 L10.3157895,18.4785813 C10.3157895,18.1918046 10.15,17.930897 9.89136842,17.808943 C9.632,17.6877281 9.32694737,17.7269012 9.10736842,17.9109409 L0.265263158,25.3020926 C0.0972631579,25.4425245 0,25.6502159 0,25.8697331 C0,26.0892503 0.0972631579,26.2969416 0.265263158,26.4373735 L9.10736842,33.8285253 C9.24221053,33.9416099 9.41021053,34 9.57894737,34 C9.68505263,34 9.79189474,33.9770874 9.89136842,33.9305232 C10.15,33.8085692 10.3157895,33.5476615 10.3157895,33.2608848 L10.3157895,29.5653089 L19.8947368,29.5653089 C24.2885263,29.5653089 28,26.1801614 28,22.1741572 L28,15.5221206 C28,15.1385198 27.7074737,14.8192221 27.3265263,14.786701 Z M26.5263158,22.1741572 C26.5263158,25.3789606 23.4897895,28.0870786 19.8947368,28.0870786 L9.57894737,28.0870786 C9.17221053,28.0870786 8.84210526,28.4182022 8.84210526,28.8261938 L8.84210526,31.6828739 L1.88778947,25.8697331 L8.84210526,20.0565922 L8.84210526,22.1741572 C8.84210526,22.5821488 9.17221053,22.9132724 9.57894737,22.9132724 L19.8947368,22.9132724 C23.3306316,22.9132724 25.3591579,21.0684409 26.5263158,19.2376526 L26.5263158,22.1741572 Z" id="Shape"></path>
        </g>
    </g>
</svg>