<?xml version="1.0" encoding="UTF-8"?>
<svg width="80px" height="80px" viewBox="0 0 80 80" version="1.1" xmlns="http://www.w3.org/2000/svg" xmlns:xlink="http://www.w3.org/1999/xlink">
    <title>Upgrade</title>
    <defs>
        <linearGradient x1="50%" y1="0%" x2="50%" y2="100%" id="linearGradient-1">
            <stop stop-color="#4E91B1" offset="0%"></stop>
            <stop stop-color="#00557B" offset="100%"></stop>
        </linearGradient>
    </defs>
    <g id="Upgrade" stroke="none" stroke-width="1" fill="none" fill-rule="evenodd">
        <rect id="Rectangle-Copy-6" fill="url(#linearGradient-1)" x="0" y="0" width="80" height="80" rx="40"></rect>
        <g id="smartphone-(2)-copy" transform="translate(26.000000, 21.000000)" fill="#FFFFFF" fill-rule="nonzero">
            <path d="M27,18.3741567 C27,17.7298155 26.7167755,17.1499308 26.2673886,16.7504199 C27.2291843,15.8934766 27.2304567,14.3524638 26.2673886,13.4962631 C27.2290346,12.6394683 27.2305316,11.0987525 26.2677629,10.2424776 C27.6380785,9.02367248 26.917817,6.67977658 25.0802259,6.44868407 L25.0802259,2.23258238 C25.0802259,1.00152465 24.0707521,0 22.8299982,0 L15.717201,0 C14.9914008,0 14.9914008,1.11387779 15.717201,1.11387779 L22.8299982,1.11387779 C23.4517598,1.11387779 23.9575072,1.61579112 23.9575072,2.23258238 L23.9575072,2.52731444 L10.0971706,2.52731444 L10.0971706,2.23258238 C10.0971706,1.6156426 10.6030677,1.11387779 11.2247544,1.11387779 L12.6495593,1.11387779 C13.3753595,1.11387779 13.3753595,0 12.6495593,0 L11.2247544,0 C9.98392572,0 8.97445191,1.00152465 8.97445191,2.23258238 L8.97445191,10.3857222 C7.44620722,9.41939613 5.38092875,10.5619377 5.38092875,12.3551324 L5.38092875,25.4149039 L4.32983951,26.4624689 C3.18795974,25.9333027 1.7764778,26.1862272 0.888856393,27.0709432 C-0.296285464,28.2520249 -0.296285464,30.1738354 0.888856393,31.3549172 L4.36337137,34.8178889 C4.87540595,35.3282677 5.67103926,34.5424641 5.15907954,34.0320853 L1.68456456,30.5691135 C0.934214229,29.8213302 0.934214229,28.6045301 1.68456456,27.8567468 C2.42286437,27.1209192 3.67072878,27.1249291 4.40491196,27.8567468 L10.2000116,33.6325002 C10.9502123,34.3802835 10.9502123,35.5970836 10.2000116,36.3448669 C9.34210486,37.1999537 8.0082402,37.0039112 7.25976107,36.12573 C6.74765165,35.6152769 5.95209318,36.4012291 6.4640529,36.9115336 C9.13919217,39.7173175 13.3815719,36.5887318 11.3665164,33.2945497 L12.3778614,32.2865645 C15.4158633,32.5165432 18.3656196,30.8526325 19.7283007,28.1468749 L22.8299982,28.1468749 C24.0707521,28.1468749 25.0802259,27.1453502 25.0802259,25.9142925 L25.0802259,20.5444362 C26.1613291,20.4084688 27,19.4897424 27,18.3741567 Z M25.8772813,18.3815083 C25.8772813,18.9695615 25.395111,19.4479349 24.8023904,19.4479349 L23.822257,19.4479349 C22.3949073,19.3888994 22.395057,17.3665429 23.822257,17.3076558 L24.8023904,17.3076558 C25.3950362,17.3076558 25.8772813,17.7861035 25.8772813,18.3815083 Z M25.8772813,15.1273515 C25.8772813,15.7154047 25.395111,16.1937781 24.8023904,16.1937781 L23.822257,16.1937781 C22.3949073,16.1347425 22.395057,14.112386 23.822257,14.053499 L24.8023904,14.053499 C25.3950362,14.053499 25.8772813,14.5318724 25.8772813,15.1273515 Z M25.8772813,11.8731946 C25.8772813,12.4612479 25.395111,12.9396212 24.8023904,12.9396212 L23.822257,12.9396212 C22.3949073,12.8805857 22.395057,10.8582292 23.822257,10.7993422 L24.8023904,10.7993422 C25.3950362,10.7993422 25.8772813,11.2777156 25.8772813,11.8731946 Z M25.8772813,8.6115377 C25.8581951,9.18162035 25.3962338,9.6854644 24.8023904,9.6854644 L23.822257,9.6854644 C22.3949821,9.62650314 22.395057,7.60407237 23.822257,7.54518536 L24.8023904,7.54518536 C25.3950362,7.5451111 25.8772813,8.02355874 25.8772813,8.6115377 L25.8772813,8.6115377 Z M23.9575072,3.64119223 L23.9575072,6.43123331 C21.8682774,6.3295734 20.821679,8.86943753 22.3568097,10.242329 C21.3858077,11.0786285 21.386182,12.6605577 22.3568097,13.4964859 C21.3858077,14.3327853 21.386182,15.9147145 22.3568097,16.7506427 C20.8210802,18.1245738 21.8694749,20.6634726 23.9575072,20.5617384 L23.9575072,23.3517795 L13.3132357,23.3517795 C12.957783,21.4520238 11.8540008,19.6676658 10.0971706,18.7579247 L10.0971706,3.64119223 L23.9575072,3.64119223 Z M12.9678126,31.1988257 L12.1816101,31.1625133 C12.0243547,31.1562756 11.8693447,31.2145686 11.7576716,31.3259563 L10.6137709,32.4660474 L5.25211549,27.1222558 L6.34017961,26.0377844 C6.44489184,25.9334512 6.5037223,25.7921372 6.5037223,25.6448826 L6.5037223,12.3551324 C6.5037223,10.7864212 8.94151883,10.7864212 8.94151883,12.3551324 L8.94151883,19.0936475 C8.94151883,19.3156805 9.07444872,19.5165498 9.27990625,19.6047689 C10.6173636,20.1789358 11.6069279,21.3679632 12.0662695,22.9527885 C12.5843668,24.7404881 12.3080283,26.7139825 11.3451099,28.1032109 C10.9456466,28.679457 11.8409773,29.3535758 12.2701552,28.7344083 C12.4001661,28.5468312 12.5196982,28.350566 12.6286767,28.1469491 L18.4459314,28.1469491 C17.2779297,30.0409869 15.233459,31.1945188 12.9678126,31.1988257 L12.9678126,31.1988257 Z M22.8299982,27.0330713 L13.0974492,27.0330713 C13.3558991,26.2224653 13.4724373,25.3461406 13.4381569,24.4658058 L23.9575072,24.4658058 L23.9575072,25.9143667 C23.9575072,26.531158 23.4517598,27.0330713 22.8299982,27.0330713 L22.8299982,27.0330713 Z" id="Shape"></path>
            <path d="M11.7010865,7.86152665 C11.967096,8.07561396 12.2316834,8.07219807 12.4948487,7.85120472 L14.1379849,6.17786325 C14.6444807,5.66213783 13.8401651,4.88465114 13.3338189,5.40059933 L11.6906827,7.0739408 C11.4743722,7.29434008 11.4790876,7.64691953 11.7010865,7.86152665 L11.7010865,7.86152665 Z" id="Path"></path>
            <path d="M11.7010865,11.4423467 C11.967096,11.656434 12.2316834,11.6530181 12.4948487,11.4320248 L17.6540405,6.17786325 C18.1605363,5.66213783 17.3562206,4.88465114 16.8498745,5.40059933 L11.6906827,10.6547609 C11.4743722,10.8750859 11.4790876,11.2276653 11.7010865,11.4423467 L11.7010865,11.4423467 Z" id="Path"></path>
        </g>
    </g>
</svg>