<?xml version="1.0" encoding="UTF-8"?>
<svg width="80px" height="80px" viewBox="0 0 80 80" version="1.1" xmlns="http://www.w3.org/2000/svg" xmlns:xlink="http://www.w3.org/1999/xlink">
    <title>Wallet balance web Copy 2</title>
    <defs>
        <linearGradient x1="50%" y1="0%" x2="50%" y2="100%" id="linearGradient-1">
            <stop stop-color="#4E91B1" offset="0%"></stop>
            <stop stop-color="#00557B" offset="100%"></stop>
        </linearGradient>
    </defs>
    <g id="Wallet-balance-web-Copy-2" stroke="none" stroke-width="1" fill="none" fill-rule="evenodd">
        <rect id="Rectangle-Copy-4" fill="url(#linearGradient-1)" x="0" y="0" width="80" height="80" rx="40"></rect>
        <g id="internet-(2)-copy" transform="translate(23.000000, 21.000000)" fill="#FFFFFF" fill-rule="nonzero" stroke="#267396" stroke-width="0.85">
            <path d="M33.4415234,24.8214893 L32.3596328,24.2923736 C33.4340195,22.0290892 34,19.5209028 34,16.9997011 C34,7.60397956 26.3966836,0 17,0 C7.60411328,0 0,7.6031827 0,16.9997011 C0,21.5404806 1.76833203,25.8094641 4.97914063,29.020349 C10.238582,34.279698 17.9735156,35.317211 24.2118516,32.3970475 L24.2390117,32.5029636 C24.4209648,33.2119042 25.2823203,33.4891455 25.8435195,33.0189311 L27.2608945,31.8315418 L28.7706406,33.6414123 C29.1245195,34.0655416 29.7547813,34.1197945 30.1757969,33.7663867 L33.610793,30.8842069 C34.0314102,30.5313967 34.087125,29.9047319 33.7354375,29.4831261 L32.2229687,27.6699353 L33.6435313,26.4798234 C34.1956328,26.0174448 34.0885859,25.1379759 33.4415234,24.8214893 Z M25.7158203,21.0431065 C25.8407305,20.0464326 25.918293,19.0265834 25.9489063,17.9957773 L31.974875,17.9957773 C31.8530195,19.8888534 31.382,21.7062941 30.5697187,23.4170218 L25.7158203,21.0431065 Z M2.02605469,17.9957773 L8.05009766,17.9957773 C8.11205469,20.1252555 8.37170312,22.1383919 8.79590625,23.9722347 L3.71370312,23.9722347 C2.7614375,22.1650204 2.16736719,20.1413919 2.02605469,17.9957773 Z M3.71370312,10.0271674 L8.79590625,10.0271674 C8.37170312,11.8610102 8.11212109,13.8741466 8.05009766,16.0036248 L2.02605469,16.0036248 C2.16736719,13.8580102 2.7614375,11.8343817 3.71370312,10.0271674 Z M31.9739453,16.0036248 L25.9499023,16.0036248 C25.8879453,13.8741466 25.6282969,11.8610102 25.2040937,10.0271674 L30.2862969,10.0271674 C31.2385625,11.8343817 31.8326328,13.8580102 31.9739453,16.0036248 Z M22.6031602,19.5208364 C21.8412148,19.1483703 20.9898867,19.841573 21.2006602,20.663203 L22.0498633,23.9722347 L17.9960938,23.9722347 L17.9960938,17.9957773 L23.9561211,17.9957773 C23.933543,18.7096319 23.8864609,19.4169789 23.8157383,20.1138338 L22.6031602,19.5208364 Z M23.9565859,16.0036248 L17.9960938,16.0036248 L17.9960938,10.0271674 L23.1519414,10.0271674 C23.6159219,11.8676507 23.8907109,13.8926737 23.9565859,16.0036248 L23.9565859,16.0036248 Z M17.9960938,8.03501495 L17.9960938,2.16161824 C19.3632656,2.62260232 20.6893984,4.0112654 21.7430664,6.12739616 C22.0399687,6.72364739 22.3088477,7.36199944 22.5493711,8.03501495 L17.9960938,8.03501495 Z M16.0039062,2.16161824 L16.0039062,8.03501495 L11.4506289,8.03501495 C11.6911523,7.36199944 11.9600312,6.72364739 12.2569336,6.12739616 C13.3106016,4.0112654 14.6367344,2.62260232 16.0039062,2.16161824 Z M16.0039062,10.0271674 L16.0039062,16.0036248 L10.0434141,16.0036248 C10.1093555,13.8926737 10.3841445,11.8676507 10.848125,10.0271674 L16.0039062,10.0271674 Z M10.0434141,17.9957773 L16.0039062,17.9957773 L16.0039062,23.9722347 L10.8480586,23.9722347 C10.3841445,22.1317514 10.1092891,20.1067285 10.0434141,17.9957773 L10.0434141,17.9957773 Z M16.0039062,25.9643872 L16.0039062,31.8377839 C14.6367344,31.3767998 13.3106016,29.9881367 12.2569336,27.872006 C11.9600312,27.2757547 11.6911523,26.6374027 11.4506289,25.9643872 L16.0039062,25.9643872 Z M17.9960938,31.8431627 L17.9960938,25.9643872 L22.5470469,25.9643872 C21.8772734,27.8446471 21.0025039,29.396069 20.0117891,30.4552301 C19.3598789,31.1521514 18.6850586,31.6157253 17.9960938,31.8431627 Z M29.0288945,8.03501495 L24.6566406,8.03501495 C23.9927773,5.97041454 23.1026016,4.2086213 22.0460781,2.86591054 C24.8526055,3.87088506 27.2756367,5.68859137 29.0288945,8.03501495 Z M11.9539219,2.86591054 C10.8973984,4.2086213 10.0072227,5.97041454 9.34335937,8.03501495 L4.97110547,8.03501495 C6.72436328,5.68859137 9.14739453,3.87088506 11.9539219,2.86591054 Z M4.97110547,25.9643872 L9.34335937,25.9643872 C10.0072227,28.0289876 10.8973984,29.7907808 11.9539219,31.1334916 C9.14739453,30.1285171 6.72436328,28.3108107 4.97110547,25.9643872 Z M22.0464102,31.1353509 C22.5174961,30.5337873 22.9581016,29.8441041 23.360457,29.0791175 L23.706832,30.4288008 C23.1683437,30.6979406 22.6135195,30.9335459 22.0464102,31.1353509 Z M29.6606172,31.5981943 L28.1513359,29.7889215 C27.7983867,29.3657219 27.1685898,29.3100744 26.7467773,29.6634159 L25.7758516,30.4768117 L23.6668555,22.2586515 L31.1888242,25.9373603 L30.181707,26.7811697 C29.760625,27.1339135 29.7045781,27.7609767 30.0564648,28.1827153 L31.5694648,29.9964374 L29.6606172,31.5981943 Z" id="Shape"></path>
        </g>
    </g>
</svg>