<?xml version="1.0" encoding="UTF-8"?>
<svg width="80px" height="80px" viewBox="0 0 80 80" version="1.1" xmlns="http://www.w3.org/2000/svg" xmlns:xlink="http://www.w3.org/1999/xlink">
    <title>Wallet balance web</title>
    <defs>
        <linearGradient x1="50%" y1="0%" x2="50%" y2="100%" id="linearGradient-1">
            <stop stop-color="#4E91B1" offset="0%"></stop>
            <stop stop-color="#00557B" offset="100%"></stop>
        </linearGradient>
    </defs>
    <g id="Wallet-balance-web" stroke="none" stroke-width="1" fill="none" fill-rule="evenodd">
        <rect id="Rectangle-Copy-4" fill="url(#linearGradient-1)" x="0" y="0" width="80" height="80" rx="40"></rect>
        <g id="wallet-(4)-copy" transform="translate(23.529412, 21.960784)" fill="#FFFFFF" fill-rule="nonzero">
            <path d="M24.7058824,11.3238441 L24.7058824,2.318295 C24.7058824,1.50970383 24.2952114,0.773170435 23.6073713,0.348029564 C22.9196599,-0.0770469692 22.0772151,-0.115005975 21.3539246,0.246633981 C21.3446599,0.251266267 21.3355239,0.256027227 21.3263879,0.260916862 L2.2320864,10.5369989 C0.8553125,11.2779716 0,12.7096051 0,14.2730658 L0,14.2833598 L0,14.9267328 L0,29.9816607 C0,31.613512 1.32768382,32.9411765 2.95955882,32.9411765 L29.9816176,32.9411765 C31.6134926,32.9411765 32.9411765,31.613512 32.9411765,29.9816607 L32.9411765,14.2833598 C32.9411765,12.6515086 31.6134926,11.3238441 29.9816176,11.3238441 L24.7058824,11.3238441 Z M22.2836121,2.08378555 C22.3857169,2.03681932 22.4709007,2.06602845 22.5249449,2.09941951 C22.5806618,2.13383997 22.6469945,2.1997857 22.6469945,2.31835934 L22.6469945,11.3239084 L5.114375,11.3239084 L22.2836121,2.08378555 Z M30.8823529,29.9816607 C30.8823529,30.4783447 30.4783088,30.8823829 29.9816176,30.8823829 L2.95955882,30.8823829 C2.46286765,30.8823829 2.05882353,30.4783447 2.05882353,29.9816607 L2.05882353,14.9267328 L2.05882353,14.2833598 C2.05882353,13.7866759 2.46286765,13.3826376 2.95955882,13.3826376 L29.9816176,13.3826376 C30.4783088,13.3826376 30.8823529,13.7866759 30.8823529,14.2833598 L30.8823529,29.9816607 Z" id="Shape"></path>
            <path d="M26.7647059,24.1913038 C25.6294577,24.1913038 24.7058824,23.2677419 24.7058824,22.1325103 C24.7058824,20.9972786 25.6294577,20.0737167 26.7647059,20.0737167 C27.899954,20.0737167 28.8235294,20.9972786 28.8235294,22.1325103 C28.8235294,23.2677419 27.8998897,24.1913038 26.7647059,24.1913038 Z" id="Shape"></path>
        </g>
    </g>
</svg>