<?xml version="1.0" encoding="UTF-8"?>
<svg width="80px" height="80px" viewBox="0 0 80 80" version="1.1" xmlns="http://www.w3.org/2000/svg" xmlns:xlink="http://www.w3.org/1999/xlink">
    <title>Wholesale &amp; retailers web</title>
    <defs>
        <linearGradient x1="50%" y1="0%" x2="50%" y2="100%" id="linearGradient-1">
            <stop stop-color="#4E91B1" offset="0%"></stop>
            <stop stop-color="#00557B" offset="100%"></stop>
        </linearGradient>
    </defs>
    <g id="Wholesale-&amp;-retailers-web" stroke="none" stroke-width="1" fill="none" fill-rule="evenodd">
        <rect id="Rectangle-Copy-2" fill="url(#linearGradient-1)" x="0" y="0" width="80" height="80" rx="40"></rect>
        <g id="shipped-copy" transform="translate(12.000000, 23.000000)" fill="#FFFFFF" fill-rule="nonzero">
            <path d="M52.079883,14.4137795 L50.629677,8.84619589 C51.0261622,8.76536173 51.3236627,8.42774791 51.3236627,8.0232622 L51.3236627,7.12558318 C51.3236627,5.17653525 49.6715501,3.59092607 47.6409993,3.59092607 L41.0356114,3.59092607 L41.0356114,1.73929905 C41.0356114,0.780207056 40.2227348,0 39.2234829,0 L5.55319835,0 C4.55394639,0 3.74106981,0.780207056 3.74106981,1.73929905 L3.74106981,17.0001575 C3.74106981,17.4649014 4.13361745,17.8417775 4.61793089,17.8417775 C5.10213497,17.8417775 5.49479198,17.4650063 5.49479198,17.0001575 L5.49479198,1.73929905 C5.49479198,1.70833012 5.52093266,1.68324004 5.55319835,1.68324004 L39.2233735,1.68324004 C39.2556392,1.68324004 39.2817798,1.70833012 39.2817798,1.73929905 L39.2817798,17.0003674 C39.2817798,17.4651113 39.6743275,17.8419874 40.1586409,17.8419874 C40.642845,17.8419874 41.035502,17.4652163 41.035502,17.0003674 L41.035502,16.0463145 L51.3790066,16.0463145 C51.3798816,16.0463145 51.3805379,16.0465244 51.3813035,16.0465244 C51.3821785,16.0465244 51.3829441,16.0464194 51.3837097,16.0464194 C52.6565091,16.0472593 53.7372456,16.8490921 54.1084651,17.9540005 L51.3819597,17.9540005 C50.8977557,17.9540005 50.5050986,18.3307716 50.5050986,18.7956205 L50.5050986,20.5909786 C50.5050986,22.0450485 51.7375385,23.2279566 53.2524946,23.2279566 L54.2462778,23.2279566 L54.2462778,26.9308958 L51.9535546,26.9308958 C51.2003969,24.8435899 49.133096,23.3400747 46.7055131,23.3400747 C44.2779302,23.3400747 42.2105199,24.8435899 41.4574716,26.9308958 L41.0352833,26.9308958 L41.0352833,20.5908736 C41.0352833,20.1261297 40.6427356,19.7492536 40.1584222,19.7492536 C39.6742181,19.7492536 39.2815611,20.1260247 39.2815611,20.5908736 L39.2815611,26.9306858 L21.0894006,26.9306858 C20.3362428,24.84338 18.2689419,23.3398647 15.8413591,23.3398647 C13.4137762,23.3398647 11.3463659,24.84338 10.5933176,26.9306858 L5.55319835,26.9306858 C5.52093266,26.9306858 5.49479198,26.9055957 5.49479198,26.8746268 L5.49479198,25.0231047 L9.29437753,25.0231047 C9.7785816,25.0231047 10.1712386,24.6463336 10.1712386,24.1814847 C10.1712386,23.7166358 9.77869097,23.3398647 9.29437753,23.3398647 L0.876861088,23.3398647 C0.392657017,23.3398647 0,23.7166358 0,24.1814847 C0,24.6463336 0.392547642,25.0231047 0.876861088,25.0231047 L3.74117918,25.0231047 L3.74117918,26.8746268 C3.74117918,27.8337188 4.55405577,28.6139258 5.55330772,28.6139258 L10.289692,28.6139258 C10.2894732,28.6326122 10.2881607,28.6511935 10.2881607,28.6699848 C10.2881607,31.6089887 12.7794,34 15.8413591,34 C18.9033182,34 21.3945574,31.6089887 21.3945574,28.6699848 C21.3945574,28.6510885 21.3932449,28.6326122 21.3930262,28.6139258 L41.153846,28.6139258 C41.1536273,28.6326122 41.1523148,28.6511935 41.1523148,28.6699848 C41.1523148,31.6089887 43.643554,34 46.7055131,34 C49.7674722,34 52.2587114,31.6089887 52.2587114,28.6699848 C52.2587114,28.6510885 52.2573989,28.6326122 52.2571802,28.6139258 L55.1231389,28.6139258 C55.607343,28.6139258 56,28.2371547 56,27.7723058 L56,18.7954105 C56,16.579085 54.2963717,14.737641 52.079883,14.4137795 Z M41.0356114,5.27406113 L47.6409993,5.27406113 C48.7046733,5.27406113 49.5700499,6.10465831 49.5700499,7.12558318 L49.5700499,7.18164219 L41.0356114,7.18164219 L41.0356114,5.27406113 Z M41.0356114,14.3631794 L41.0356114,8.86477724 L48.8269547,8.86477724 L50.2591138,14.3631794 L41.0356114,14.3631794 Z M15.8413591,32.3170749 C13.7462768,32.3170749 12.0417735,30.6811806 12.0417735,28.6701948 C12.0417735,26.659209 13.7462768,25.0233147 15.8413591,25.0233147 C17.9364413,25.0233147 19.6409446,26.659209 19.6409446,28.6701948 C19.6409446,30.6811806 17.9364413,32.3170749 15.8413591,32.3170749 Z M46.7057318,32.3170749 C44.6106496,32.3170749 42.9061463,30.6811806 42.9061463,28.6701948 C42.9061463,26.659209 44.6106496,25.0233147 46.7057318,25.0233147 C48.8008141,25.0233147 50.5053174,26.659209 50.5053174,28.6701948 C50.5053174,30.6811806 48.8008141,32.3170749 46.7057318,32.3170749 Z M54.2464966,21.5447166 L53.2527134,21.5447166 C52.7047436,21.5447166 52.2589302,21.1168205 52.2589302,20.5908736 L52.2589302,19.6370306 L54.2463872,19.6370306 L54.2463872,21.5447166 L54.2464966,21.5447166 Z" id="Shape"></path>
            <path d="M36.4175711,23.3401796 L23.3236081,23.3401796 C22.839404,23.3401796 22.446747,23.7169508 22.446747,24.1817997 C22.446747,24.6466485 22.8392946,25.0234197 23.3236081,25.0234197 L36.4175711,25.0234197 C36.9017752,25.0234197 37.2944322,24.6466485 37.2944322,24.1817997 C37.2944322,23.7169508 36.9018846,23.3401796 36.4175711,23.3401796 Z" id="Path"></path>
            <path d="M13.9708242,19.7493585 L2.74739599,19.7493585 C2.26319192,19.7493585 1.8705349,20.1261297 1.8705349,20.5909786 C1.8705349,21.0558274 2.26308255,21.4325986 2.74739599,21.4325986 L13.9708242,21.4325986 C14.4550282,21.4325986 14.8476852,21.0558274 14.8476852,20.5909786 C14.8476852,20.1261297 14.4550282,19.7493585 13.9708242,19.7493585 Z" id="Path"></path>
            <path d="M30.4906377,8.32570792 C30.1482933,7.99712233 29.5929953,7.99712233 29.2506509,8.3258129 L21.4530732,15.8099008 L17.3966746,11.916529 C17.0542208,11.5878384 16.4990322,11.5878384 16.1566878,11.916529 C15.814234,12.2452196 15.814234,12.7779901 16.1566878,13.1066807 L20.8331344,17.5951808 C21.0043066,17.7595786 21.2287446,17.8416725 21.4530732,17.8416725 C21.6774017,17.8416725 21.901949,17.7595786 22.0730119,17.5951808 L30.4905283,9.51596459 C30.8329821,9.18716904 30.8329821,8.65439848 30.4906377,8.32570792 Z" id="Path"></path>
        </g>
    </g>
</svg>