<?xml version="1.0" encoding="UTF-8"?>
<svg width="80px" height="80px" viewBox="0 0 80 80" version="1.1" xmlns="http://www.w3.org/2000/svg" xmlns:xlink="http://www.w3.org/1999/xlink">
    <title>Yello bucks web</title>
    <defs>
        <linearGradient x1="50%" y1="0%" x2="50%" y2="100%" id="linearGradient-1">
            <stop stop-color="#4E91B1" offset="0%"></stop>
            <stop stop-color="#00557B" offset="100%"></stop>
        </linearGradient>
    </defs>
    <g id="Yello-bucks-web" stroke="none" stroke-width="1" fill="none" fill-rule="evenodd">
        <rect id="Rectangle-Copy-2" fill="url(#linearGradient-1)" x="0" y="0" width="80" height="80" rx="40"></rect>
        <g id="Group-2" transform="translate(25.600000, 20.800000)">
            <g id="Group-2-Copy" fill-rule="nonzero">
                <g id="money-(4)">
                    <g id="Group" transform="translate(9.030651, 8.033733)" fill="#000000">
                        <path d="M10.5893261,0.53504 L10.6975356,0.53504 C10.6977166,0.53504 10.6133927,-0.28864 10.5893261,0.53504 Z" id="Path"></path>
                        <path d="M0.0363714286,0.53504 L0.144580952,0.53504 C0.120514286,-0.28864 0.0363714286,0.53504 0.0363714286,0.53504 Z" id="Path"></path>
                    </g>
                    <path d="M30.1384596,10.6181814 C29.8932306,10.2497504 29.5103023,9.99324436 29.060168,9.89589443 L26.6891828,9.38315733 L27.7839107,9.0947513 C28.6909731,8.85584523 29.2374604,7.94408343 28.9831732,7.08883409 C28.7292513,6.23516599 27.7606078,5.72098514 26.8517192,5.9601662 L21.7472747,7.30470892 C21.6143966,7.0771466 21.4254162,6.882378 21.1977923,6.73745311 C22.2337149,4.92307325 23.7262002,1.84410686 23.7262002,0.519501632 C23.7262002,0.19644563 23.4017119,-0.0535291778 23.0650243,0.0103395231 C21.0392737,0.395476727 19.1505649,0.573195341 17.2932677,0.554151606 C15.384178,0.534420371 13.0082254,0.311258042 11.5153748,0.0115082722 C11.0538447,-0.0811666566 10.683481,0.40489547 10.9268837,0.786732677 C11.2906729,1.35735724 11.5135486,1.96070678 11.6360535,2.56880006 C9.76239305,2.62283752 7.81933507,2.40916268 6.34869168,1.71705696 C5.95254132,1.53060711 5.48494802,1.85682561 5.55741366,2.26705654 C6.0199665,4.87866078 6.9531077,6.40985961 7.88865955,7.56671497 L7.86791334,7.56671497 C6.91439118,7.56671497 6.13859977,8.29683941 6.13859977,9.19423247 C6.13859977,10.0195756 6.79495437,10.7028813 7.64204262,10.80745 C7.02455064,11.7808117 6.14269057,12.7043298 5.21612388,13.673429 C3.24574517,15.7342774 1.01238633,18.0701257 0.260993628,21.841679 C-0.0985586645,23.6462964 -0.0865784581,25.3348638 0.296715097,26.8605627 C0.654514188,28.2849241 1.335998,29.5741918 2.32210048,30.6924785 C3.63108413,32.1769273 5.42950304,33.3286952 7.66731793,34.1160196 C9.68313376,34.8251753 11.9917341,35.2 14.3436532,35.2 C16.6955723,35.2 19.0042457,34.8251753 21.0199885,34.1160196 C23.2578034,33.3286952 25.0562223,32.1768586 26.3652059,30.6924785 C27.3513084,29.5741918 28.0327922,28.2849928 28.3905913,26.8605627 C28.7738118,25.3348638 28.7858651,23.6462276 28.4263128,21.841679 C27.6749201,18.0701944 25.4416343,15.7343462 23.4712556,13.6734978 C22.8023364,12.9738296 22.1659244,12.3067488 21.6323669,11.6296994 L28.2856915,13.0683607 C28.9905513,13.2207794 29.7416518,12.9305859 30.1310085,12.3573488 C30.4873466,11.8325117 30.489465,11.145356 30.1384596,10.6181814 Z M17.2811414,1.59289456 C18.9805044,1.61035704 20.7003945,1.47051965 22.517076,1.16581989 C22.1839678,2.44752515 21.1142961,4.7271359 20.0997041,6.46369082 C19.3965975,6.51353453 18.8097134,6.96054669 18.5921704,7.56664622 L17.0598728,7.56664622 C17.0252471,7.49645252 16.9868958,7.41952133 16.9441615,7.33406515 C16.470359,6.38614088 15.4843296,4.41370489 15.4843296,2.73565618 C15.4843296,2.41308143 15.1606448,2.16296912 14.8241764,2.22635657 C14.1819204,2.34728773 13.4753074,2.4451189 12.7400587,2.50644386 C12.662991,2.07304419 12.543408,1.63895702 12.3695489,1.21201985 C13.8524647,1.42803218 15.7204273,1.57673832 17.2811414,1.59289456 Z M20.8562103,8.08598332 L20.8562103,10.3022066 C20.8562103,10.6267751 20.5756251,10.8909124 20.2306828,10.8909124 C19.8857405,10.8909124 19.6051553,10.6268439 19.6051553,10.3022066 L19.6051553,8.08598332 C19.6051553,7.76134607 19.8857405,7.49727752 20.2306828,7.49727752 C20.5756251,7.49727752 20.8562103,7.76141482 20.8562103,8.08598332 Z M6.84397095,3.0323122 C8.22374008,3.47554311 9.92105774,3.67209921 11.7541024,3.61146176 L12.8479537,3.54642431 C13.3639061,3.50187434 13.8873827,3.43773064 14.4147309,3.35378696 C14.5868368,4.96074822 15.3668651,6.61198445 15.8408138,7.56664622 L12.1658854,7.56664622 L11.0048281,7.56664622 L9.29721041,7.56664622 C9.28486495,7.54842748 9.27156984,7.5305525 9.25659458,7.51350251 C8.33346124,6.46829706 7.39674059,5.25932924 6.84397095,3.0323122 Z M22.6506845,14.368216 C24.5240527,16.327452 26.647106,18.5480753 27.3415197,22.0329414 C27.9804884,25.2402639 27.3662106,27.9304493 25.5157801,30.0287665 C23.2341352,32.6161707 19.0576453,34.160982 14.3437263,34.160982 C9.62980723,34.160982 5.4532443,32.6162395 3.17159938,30.0288352 C1.32116884,27.9305181 0.706964116,25.2403326 1.34585976,22.0330101 C2.04020038,18.5480753 4.16339976,16.3273832 6.03669496,14.368216 C7.15677121,13.1966481 8.21497408,12.0885365 8.89317064,10.8216812 L10.24109,10.8216812 C10.5460008,10.8216812 10.792983,10.5891001 10.792983,10.3022754 C10.792983,10.0153818 10.5459278,9.78286952 10.24109,9.78286952 L7.86784029,9.78286952 C7.52289801,9.78286952 7.24231281,9.51880097 7.24231281,9.19416372 C7.24231281,8.86952647 7.52289801,8.60545792 7.86784029,8.60545792 L18.5012962,8.60545792 L18.5012962,9.78280077 L12.871768,9.78280077 C12.5668571,9.78280077 12.3198749,10.0153818 12.3198749,10.3022066 C12.3198749,10.5890314 12.5669302,10.8216125 12.871768,10.8216125 L18.5920974,10.8216125 C18.8230085,11.4649745 19.4700127,11.9297241 20.2306097,11.9297241 C20.3184889,11.9297241 20.404688,11.9233991 20.4891338,11.9115054 C21.1050918,12.7500485 21.8559001,13.5370291 22.6506845,14.368216 Z M21.9600694,8.32743314 L27.1491789,6.96061544 C27.477758,6.87392175 27.8283982,7.06023411 27.9201491,7.36885262 C28.012046,7.67815863 27.8144456,8.00802088 27.4863779,8.09437082 L24.5208385,8.87550772 C24.496659,8.88190146 24.4735752,8.89015145 24.4511488,8.8992952 L21.9600694,8.36063936 L21.9600694,8.32743314 Z M29.2825323,11.6138181 C29.2052453,11.9302054 28.8695074,12.128549 28.5328197,12.0557428 L21.9253707,10.6269814 C21.9480162,10.5220002 21.9599964,10.4133753 21.9599964,10.3021379 L21.9599964,9.42640104 L28.8128936,10.9082374 C29.1450521,10.9800811 29.3588696,11.3009371 29.2825323,11.6138181 Z" id="Shape" fill="#FFFFFF"></path>
                </g>
            </g>
            <g id="Group-3" transform="translate(8.000000, 14.400000)" fill="#FFFFFF" font-family="ComicSansMS, Comic Sans MS" font-size="9.53236" font-weight="normal">
                <text id="YB">
                    <tspan x="0" y="11">YB</tspan>
                </text>
            </g>
        </g>
    </g>
</svg>